%TF.GenerationSoftware,KiCad,Pcbnew,no-vcs-found-e2d3fce~60~ubuntu14.04.1*%
%TF.CreationDate,2017-09-23T20:08:22-03:00*%
%TF.ProjectId,RFIDZapper,524649445A61707065722E6B69636164,rev?*%
%TF.SameCoordinates,Original*%
%TF.FileFunction,Other,User*%
%FSLAX46Y46*%
G04 Gerber Fmt 4.6, Leading zero omitted, Abs format (unit mm)*
G04 Created by KiCad (PCBNEW no-vcs-found-e2d3fce~60~ubuntu14.04.1) date Sat Sep 23 20:08:22 2017*
%MOMM*%
%LPD*%
G01*
G04 APERTURE LIST*
%ADD10C,0.050000*%
G04 APERTURE END LIST*
D10*
%TO.C,D3*%
X79044000Y-114606000D02*
X79044000Y-118006000D01*
X79044000Y-118006000D02*
X88994000Y-118006000D01*
X88994000Y-118006000D02*
X88994000Y-114606000D01*
X88994000Y-114606000D02*
X79044000Y-114606000D01*
%TO.C,Q1*%
X84394000Y-139566000D02*
X78934000Y-139566000D01*
X84394000Y-139566000D02*
X84394000Y-134826000D01*
X78934000Y-134826000D02*
X78934000Y-139566000D01*
X78934000Y-134826000D02*
X84394000Y-134826000D01*
%TO.C,R8*%
X88794000Y-119156000D02*
X79244000Y-119156000D01*
X88794000Y-121456000D02*
X88794000Y-119156000D01*
X79244000Y-121456000D02*
X88794000Y-121456000D01*
X79244000Y-119156000D02*
X79244000Y-121456000D01*
%TO.C,R3*%
X108244000Y-147406000D02*
X98694000Y-147406000D01*
X108244000Y-149706000D02*
X108244000Y-147406000D01*
X98694000Y-149706000D02*
X108244000Y-149706000D01*
X98694000Y-147406000D02*
X98694000Y-149706000D01*
%TO.C,Q2*%
X100934000Y-116306000D02*
X90434000Y-116306000D01*
X100934000Y-121216000D02*
X100934000Y-116306000D01*
X90434000Y-121216000D02*
X100934000Y-121216000D01*
X90434000Y-116306000D02*
X90434000Y-121216000D01*
%TO.C,BT1*%
X69644000Y-149846000D02*
X69644000Y-139346000D01*
X69644000Y-149846000D02*
X77644000Y-149846000D01*
X77644000Y-139346000D02*
X69644000Y-139346000D01*
X77644000Y-139346000D02*
X77644000Y-149846000D01*
%TO.C,C1*%
X110594000Y-149106000D02*
X117694000Y-149106000D01*
X110594000Y-146506000D02*
X110594000Y-149106000D01*
X117694000Y-146506000D02*
X110594000Y-146506000D01*
X117694000Y-149106000D02*
X117694000Y-146506000D01*
%TO.C,C2*%
X93944000Y-149106000D02*
X93944000Y-146506000D01*
X93944000Y-146506000D02*
X86844000Y-146506000D01*
X86844000Y-146506000D02*
X86844000Y-149106000D01*
X86844000Y-149106000D02*
X93944000Y-149106000D01*
%TO.C,C3*%
X121244000Y-132156000D02*
X121244000Y-113456000D01*
X102544000Y-132156000D02*
X121244000Y-132156000D01*
X102544000Y-113456000D02*
X102544000Y-132156000D01*
X121244000Y-113456000D02*
X102544000Y-113456000D01*
%TO.C,DL1*%
X79194000Y-149306000D02*
X84044000Y-149306000D01*
X79194000Y-144806000D02*
X79194000Y-149306000D01*
X84044000Y-144806000D02*
X79194000Y-144806000D01*
X84044000Y-149306000D02*
X84044000Y-144806000D01*
%TO.C,R1*%
X108244000Y-133906000D02*
X98694000Y-133906000D01*
X108244000Y-136206000D02*
X108244000Y-133906000D01*
X98694000Y-136206000D02*
X108244000Y-136206000D01*
X98694000Y-133906000D02*
X98694000Y-136206000D01*
%TO.C,R2*%
X116844000Y-145056000D02*
X116844000Y-134956000D01*
X111444000Y-145056000D02*
X116844000Y-145056000D01*
X111444000Y-134956000D02*
X111444000Y-145056000D01*
X116844000Y-134956000D02*
X111444000Y-134956000D01*
%TO.C,R6*%
X88594000Y-132956000D02*
X88594000Y-130656000D01*
X88594000Y-130656000D02*
X79044000Y-130656000D01*
X79044000Y-130656000D02*
X79044000Y-132956000D01*
X79044000Y-132956000D02*
X88594000Y-132956000D01*
%TO.C,R9*%
X79044000Y-125206000D02*
X88594000Y-125206000D01*
X79044000Y-122906000D02*
X79044000Y-125206000D01*
X88594000Y-122906000D02*
X79044000Y-122906000D01*
X88594000Y-125206000D02*
X88594000Y-122906000D01*
%TO.C,SW_SPST1*%
X77644000Y-126346000D02*
X77644000Y-136846000D01*
X77644000Y-126346000D02*
X69644000Y-126346000D01*
X69644000Y-136846000D02*
X77644000Y-136846000D01*
X69644000Y-136846000D02*
X69644000Y-126346000D01*
%TO.C,SW_SPST3*%
X69644000Y-123846000D02*
X69644000Y-113346000D01*
X69644000Y-123846000D02*
X77644000Y-123846000D01*
X77644000Y-113346000D02*
X69644000Y-113346000D01*
X77644000Y-113346000D02*
X77644000Y-123846000D01*
%TO.C,U1*%
X95744000Y-133956000D02*
X85144000Y-133956000D01*
X95744000Y-144756000D02*
X95744000Y-133956000D01*
X85144000Y-144756000D02*
X95744000Y-144756000D01*
X85144000Y-133956000D02*
X85144000Y-144756000D01*
%TO.C,D1*%
X98344000Y-140756000D02*
X108294000Y-140756000D01*
X98344000Y-137356000D02*
X98344000Y-140756000D01*
X108294000Y-137356000D02*
X98344000Y-137356000D01*
X108294000Y-140756000D02*
X108294000Y-137356000D01*
%TO.C,D2*%
X108444000Y-142356000D02*
X98494000Y-142356000D01*
X108444000Y-145756000D02*
X108444000Y-142356000D01*
X98494000Y-145756000D02*
X108444000Y-145756000D01*
X98494000Y-142356000D02*
X98494000Y-145756000D01*
%TO.C,DZ1*%
X78944000Y-129406000D02*
X88694000Y-129406000D01*
X78944000Y-126706000D02*
X78944000Y-129406000D01*
X88694000Y-126706000D02*
X78944000Y-126706000D01*
X88694000Y-129406000D02*
X88694000Y-126706000D01*
%TD*%
M02*
