%TF.GenerationSoftware,KiCad,Pcbnew,no-vcs-found-e2d3fce~60~ubuntu14.04.1*%
%TF.CreationDate,2017-09-22T19:55:35-03:00*%
%TF.ProjectId,RFIDZapper,524649445A61707065722E6B69636164,rev?*%
%TF.SameCoordinates,Original*%
%TF.FileFunction,Soldermask,Top*%
%TF.FilePolarity,Negative*%
%FSLAX46Y46*%
G04 Gerber Fmt 4.6, Leading zero omitted, Abs format (unit mm)*
G04 Created by KiCad (PCBNEW no-vcs-found-e2d3fce~60~ubuntu14.04.1) date Fri Sep 22 19:55:35 2017*
%MOMM*%
%LPD*%
G01*
G04 APERTURE LIST*
%ADD10C,0.700000*%
%ADD11R,1.800000X1.800000*%
%ADD12O,1.800000X1.800000*%
%ADD13R,1.000000X1.000000*%
%ADD14C,1.000000*%
%ADD15O,1.400000X1.400000*%
%ADD16C,1.400000*%
%ADD17C,3.000000*%
%ADD18R,3.000000X3.000000*%
%ADD19C,1.600000*%
%ADD20C,2.400000*%
%ADD21R,2.400000X2.400000*%
%ADD22C,1.800000*%
%ADD23C,1.998980*%
%ADD24C,1.440000*%
%ADD25O,2.400000X1.600000*%
%ADD26R,2.400000X1.600000*%
%ADD27O,1.600000X1.600000*%
%ADD28R,1.600000X1.600000*%
G04 APERTURE END LIST*
D10*
%TO.C,AE1*%
X123044000Y-134076000D03*
X122024000Y-132036000D03*
X121004000Y-134076000D03*
X119984000Y-132036000D03*
X67184000Y-134076000D03*
X66164000Y-132036000D03*
%TD*%
D11*
%TO.C,D3*%
X80194000Y-116306000D03*
D12*
X87814000Y-116306000D03*
%TD*%
D13*
%TO.C,Q1*%
X80394000Y-137556000D03*
D14*
X82934000Y-137556000D03*
X81664000Y-136286000D03*
%TD*%
D15*
%TO.C,R8*%
X87814000Y-120306000D03*
D16*
X80194000Y-120306000D03*
%TD*%
D15*
%TO.C,R3*%
X107264000Y-148556000D03*
D16*
X99644000Y-148556000D03*
%TD*%
D12*
%TO.C,Q2*%
X98224000Y-119056000D03*
X95684000Y-119056000D03*
D11*
X93144000Y-119056000D03*
%TD*%
D17*
%TO.C,BT1*%
X73644000Y-147136000D03*
D18*
X73644000Y-142056000D03*
%TD*%
D19*
%TO.C,C1*%
X111644000Y-147806000D03*
X116644000Y-147806000D03*
%TD*%
%TO.C,C2*%
X92894000Y-147806000D03*
X87894000Y-147806000D03*
%TD*%
D20*
%TO.C,C3*%
X111894000Y-126556000D03*
D21*
X111894000Y-119056000D03*
%TD*%
D22*
%TO.C,DL1*%
X80354000Y-147056000D03*
D11*
X82894000Y-147056000D03*
%TD*%
D23*
%TO.C,L1*%
X95724000Y-126226000D03*
X95724000Y-131306000D03*
%TD*%
D15*
%TO.C,R1*%
X107264000Y-135056000D03*
D16*
X99644000Y-135056000D03*
%TD*%
D24*
%TO.C,R2*%
X114144000Y-137476000D03*
X114144000Y-140016000D03*
X114144000Y-142556000D03*
%TD*%
D16*
%TO.C,R6*%
X87644000Y-131806000D03*
D15*
X80024000Y-131806000D03*
%TD*%
%TO.C,R9*%
X80024000Y-124056000D03*
D16*
X87644000Y-124056000D03*
%TD*%
D18*
%TO.C,SW_SPST1*%
X73644000Y-129056000D03*
D17*
X73644000Y-134136000D03*
%TD*%
%TO.C,SW_SPST3*%
X73644000Y-121136000D03*
D18*
X73644000Y-116056000D03*
%TD*%
D25*
%TO.C,U1*%
X94264000Y-135556000D03*
X86644000Y-143176000D03*
X94264000Y-138096000D03*
X86644000Y-140636000D03*
X94264000Y-140636000D03*
X86644000Y-138096000D03*
X94264000Y-143176000D03*
D26*
X86644000Y-135556000D03*
%TD*%
D12*
%TO.C,D1*%
X99524000Y-139056000D03*
D11*
X107144000Y-139056000D03*
%TD*%
D12*
%TO.C,D2*%
X107264000Y-144056000D03*
D11*
X99644000Y-144056000D03*
%TD*%
D27*
%TO.C,DZ1*%
X80024000Y-128056000D03*
D28*
X87644000Y-128056000D03*
%TD*%
M02*
