%TF.GenerationSoftware,KiCad,Pcbnew,no-vcs-found-e2d3fce~60~ubuntu14.04.1*%
%TF.CreationDate,2017-09-21T19:19:23-03:00*%
%TF.ProjectId,RFIDZapper,524649445A61707065722E6B69636164,rev?*%
%TF.SameCoordinates,Original*%
%TF.FileFunction,Legend,Bot*%
%TF.FilePolarity,Positive*%
%FSLAX46Y46*%
G04 Gerber Fmt 4.6, Leading zero omitted, Abs format (unit mm)*
G04 Created by KiCad (PCBNEW no-vcs-found-e2d3fce~60~ubuntu14.04.1) date Thu Sep 21 19:19:23 2017*
%MOMM*%
%LPD*%
G01*
G04 APERTURE LIST*
%ADD10C,0.075000*%
G04 APERTURE END LIST*
%TO.C,AE1*%
D10*
X69050000Y-128788000D02*
X68907142Y-128788000D01*
X69078571Y-128873714D02*
X68978571Y-128573714D01*
X68878571Y-128873714D01*
X68778571Y-128716571D02*
X68678571Y-128716571D01*
X68635714Y-128873714D02*
X68778571Y-128873714D01*
X68778571Y-128573714D01*
X68635714Y-128573714D01*
X68350000Y-128873714D02*
X68521428Y-128873714D01*
X68435714Y-128873714D02*
X68435714Y-128573714D01*
X68464285Y-128616571D01*
X68492857Y-128645142D01*
X68521428Y-128659428D01*
X71158857Y-137170000D02*
X71016000Y-137170000D01*
X71187428Y-137255714D02*
X71087428Y-136955714D01*
X70987428Y-137255714D01*
X70887428Y-137055714D02*
X70887428Y-137255714D01*
X70887428Y-137084285D02*
X70873142Y-137070000D01*
X70844571Y-137055714D01*
X70801714Y-137055714D01*
X70773142Y-137070000D01*
X70758857Y-137098571D01*
X70758857Y-137255714D01*
X70658857Y-137055714D02*
X70544571Y-137055714D01*
X70616000Y-136955714D02*
X70616000Y-137212857D01*
X70601714Y-137241428D01*
X70573142Y-137255714D01*
X70544571Y-137255714D01*
X70330285Y-137241428D02*
X70358857Y-137255714D01*
X70416000Y-137255714D01*
X70444571Y-137241428D01*
X70458857Y-137212857D01*
X70458857Y-137098571D01*
X70444571Y-137070000D01*
X70416000Y-137055714D01*
X70358857Y-137055714D01*
X70330285Y-137070000D01*
X70316000Y-137098571D01*
X70316000Y-137127142D01*
X70458857Y-137155714D01*
X70187428Y-137055714D02*
X70187428Y-137255714D01*
X70187428Y-137084285D02*
X70173142Y-137070000D01*
X70144571Y-137055714D01*
X70101714Y-137055714D01*
X70073142Y-137070000D01*
X70058857Y-137098571D01*
X70058857Y-137255714D01*
X69916000Y-137055714D02*
X69916000Y-137255714D01*
X69916000Y-137084285D02*
X69901714Y-137070000D01*
X69873142Y-137055714D01*
X69830285Y-137055714D01*
X69801714Y-137070000D01*
X69787428Y-137098571D01*
X69787428Y-137255714D01*
X69516000Y-137255714D02*
X69516000Y-137098571D01*
X69530285Y-137070000D01*
X69558857Y-137055714D01*
X69616000Y-137055714D01*
X69644571Y-137070000D01*
X69516000Y-137241428D02*
X69544571Y-137255714D01*
X69616000Y-137255714D01*
X69644571Y-137241428D01*
X69658857Y-137212857D01*
X69658857Y-137184285D01*
X69644571Y-137155714D01*
X69616000Y-137141428D01*
X69544571Y-137141428D01*
X69516000Y-137127142D01*
X69444571Y-137284285D02*
X69216000Y-137284285D01*
X68973142Y-137255714D02*
X69073142Y-137112857D01*
X69144571Y-137255714D02*
X69144571Y-136955714D01*
X69030285Y-136955714D01*
X69001714Y-136970000D01*
X68987428Y-136984285D01*
X68973142Y-137012857D01*
X68973142Y-137055714D01*
X68987428Y-137084285D01*
X69001714Y-137098571D01*
X69030285Y-137112857D01*
X69144571Y-137112857D01*
X68744571Y-137098571D02*
X68844571Y-137098571D01*
X68844571Y-137255714D02*
X68844571Y-136955714D01*
X68701714Y-136955714D01*
X68587428Y-137255714D02*
X68587428Y-136955714D01*
X68444571Y-137255714D02*
X68444571Y-136955714D01*
X68373142Y-136955714D01*
X68330285Y-136970000D01*
X68301714Y-136998571D01*
X68287428Y-137027142D01*
X68273142Y-137084285D01*
X68273142Y-137127142D01*
X68287428Y-137184285D01*
X68301714Y-137212857D01*
X68330285Y-137241428D01*
X68373142Y-137255714D01*
X68444571Y-137255714D01*
%TD*%
M02*
