%TF.GenerationSoftware,KiCad,Pcbnew,no-vcs-found-e2d3fce~60~ubuntu14.04.1*%
%TF.CreationDate,2017-09-22T19:55:35-03:00*%
%TF.ProjectId,RFIDZapper,524649445A61707065722E6B69636164,rev?*%
%TF.SameCoordinates,Original*%
%TF.FileFunction,Other,Fab,Top*%
%FSLAX46Y46*%
G04 Gerber Fmt 4.6, Leading zero omitted, Abs format (unit mm)*
G04 Created by KiCad (PCBNEW no-vcs-found-e2d3fce~60~ubuntu14.04.1) date Fri Sep 22 19:55:35 2017*
%MOMM*%
%LPD*%
G01*
G04 APERTURE LIST*
%ADD10C,0.100000*%
%ADD11C,0.150000*%
G04 APERTURE END LIST*
D10*
%TO.C,D3*%
X81404000Y-114956000D02*
X81404000Y-117656000D01*
X81404000Y-117656000D02*
X86604000Y-117656000D01*
X86604000Y-117656000D02*
X86604000Y-114956000D01*
X86604000Y-114956000D02*
X81404000Y-114956000D01*
X80194000Y-116306000D02*
X81404000Y-116306000D01*
X87814000Y-116306000D02*
X86604000Y-116306000D01*
X82184000Y-114956000D02*
X82184000Y-117656000D01*
%TO.C,Q1*%
X79910375Y-139309625D02*
G75*
G02X81664000Y-135076000I1753625J1753625D01*
G01*
X83417625Y-139309625D02*
G75*
G03X81664000Y-135076000I-1753625J1753625D01*
G01*
X79894000Y-139306000D02*
X83394000Y-139306000D01*
%TO.C,R8*%
X87814000Y-120306000D02*
X85804000Y-120306000D01*
X80194000Y-120306000D02*
X82204000Y-120306000D01*
X85804000Y-119506000D02*
X82204000Y-119506000D01*
X85804000Y-121106000D02*
X85804000Y-119506000D01*
X82204000Y-121106000D02*
X85804000Y-121106000D01*
X82204000Y-119506000D02*
X82204000Y-121106000D01*
%TO.C,R3*%
X107264000Y-148556000D02*
X105254000Y-148556000D01*
X99644000Y-148556000D02*
X101654000Y-148556000D01*
X105254000Y-147756000D02*
X101654000Y-147756000D01*
X105254000Y-149356000D02*
X105254000Y-147756000D01*
X101654000Y-149356000D02*
X105254000Y-149356000D01*
X101654000Y-147756000D02*
X101654000Y-149356000D01*
%TO.C,Q2*%
X97534000Y-116556000D02*
X97534000Y-117826000D01*
X93834000Y-116556000D02*
X93834000Y-117826000D01*
X90684000Y-117826000D02*
X100684000Y-117826000D01*
X100684000Y-116556000D02*
X90684000Y-116556000D01*
X100684000Y-120956000D02*
X100684000Y-116556000D01*
X90684000Y-120956000D02*
X100684000Y-120956000D01*
X90684000Y-116556000D02*
X90684000Y-120956000D01*
%TO.C,BT1*%
X77394000Y-149596000D02*
X77394000Y-139596000D01*
X69894000Y-149596000D02*
X77394000Y-149596000D01*
X69894000Y-139596000D02*
X69894000Y-149596000D01*
X77394000Y-139596000D02*
X69894000Y-139596000D01*
X71094000Y-139646000D02*
X71094000Y-149546000D01*
%TO.C,C1*%
X111994000Y-148756000D02*
X116294000Y-148756000D01*
X111994000Y-146856000D02*
X111994000Y-148756000D01*
X116294000Y-146856000D02*
X111994000Y-146856000D01*
X116294000Y-148756000D02*
X116294000Y-146856000D01*
%TO.C,C2*%
X92544000Y-148756000D02*
X92544000Y-146856000D01*
X92544000Y-146856000D02*
X88244000Y-146856000D01*
X88244000Y-146856000D02*
X88244000Y-148756000D01*
X88244000Y-148756000D02*
X92544000Y-148756000D01*
%TO.C,C3*%
X112794000Y-116756000D02*
X110994000Y-116756000D01*
X111894000Y-115856000D02*
X111894000Y-117656000D01*
X120894000Y-122806000D02*
G75*
G03X120894000Y-122806000I-9000000J0D01*
G01*
%TO.C,DL1*%
X83124000Y-148222190D02*
X83124000Y-145889810D01*
X83124000Y-147056000D02*
G75*
G03X83124000Y-147056000I-1500000J0D01*
G01*
X83124555Y-145890524D02*
G75*
G03X83124000Y-148222190I-1500555J-1165476D01*
G01*
%TO.C,R1*%
X107264000Y-135056000D02*
X105254000Y-135056000D01*
X99644000Y-135056000D02*
X101654000Y-135056000D01*
X105254000Y-134256000D02*
X101654000Y-134256000D01*
X105254000Y-135856000D02*
X105254000Y-134256000D01*
X101654000Y-135856000D02*
X105254000Y-135856000D01*
X101654000Y-134256000D02*
X101654000Y-135856000D01*
%TO.C,R2*%
X113824000Y-144208000D02*
X112297000Y-142681000D01*
X113690000Y-144342000D02*
X112163000Y-142815000D01*
X116554000Y-144781000D02*
X116554000Y-135251000D01*
X111724000Y-144781000D02*
X116554000Y-144781000D01*
X111724000Y-135251000D02*
X111724000Y-144781000D01*
X116554000Y-135251000D02*
X111724000Y-135251000D01*
X114089000Y-143511000D02*
G75*
G03X114089000Y-143511000I-1095000J0D01*
G01*
%TO.C,R6*%
X85634000Y-132606000D02*
X85634000Y-131006000D01*
X85634000Y-131006000D02*
X82034000Y-131006000D01*
X82034000Y-131006000D02*
X82034000Y-132606000D01*
X82034000Y-132606000D02*
X85634000Y-132606000D01*
X87644000Y-131806000D02*
X85634000Y-131806000D01*
X80024000Y-131806000D02*
X82034000Y-131806000D01*
%TO.C,R9*%
X80024000Y-124056000D02*
X82034000Y-124056000D01*
X87644000Y-124056000D02*
X85634000Y-124056000D01*
X82034000Y-124856000D02*
X85634000Y-124856000D01*
X82034000Y-123256000D02*
X82034000Y-124856000D01*
X85634000Y-123256000D02*
X82034000Y-123256000D01*
X85634000Y-124856000D02*
X85634000Y-123256000D01*
%TO.C,SW_SPST1*%
X71094000Y-126646000D02*
X71094000Y-136546000D01*
X77394000Y-126596000D02*
X69894000Y-126596000D01*
X69894000Y-126596000D02*
X69894000Y-136596000D01*
X69894000Y-136596000D02*
X77394000Y-136596000D01*
X77394000Y-136596000D02*
X77394000Y-126596000D01*
%TO.C,SW_SPST3*%
X77394000Y-123596000D02*
X77394000Y-113596000D01*
X69894000Y-123596000D02*
X77394000Y-123596000D01*
X69894000Y-113596000D02*
X69894000Y-123596000D01*
X77394000Y-113596000D02*
X69894000Y-113596000D01*
X71094000Y-113646000D02*
X71094000Y-123546000D01*
%TO.C,U1*%
X87279000Y-135286000D02*
X88279000Y-134286000D01*
X87279000Y-144446000D02*
X87279000Y-135286000D01*
X93629000Y-144446000D02*
X87279000Y-144446000D01*
X93629000Y-134286000D02*
X93629000Y-144446000D01*
X88279000Y-134286000D02*
X93629000Y-134286000D01*
%TO.C,D1*%
X105154000Y-140406000D02*
X105154000Y-137706000D01*
X99524000Y-139056000D02*
X100734000Y-139056000D01*
X107144000Y-139056000D02*
X105934000Y-139056000D01*
X100734000Y-140406000D02*
X105934000Y-140406000D01*
X100734000Y-137706000D02*
X100734000Y-140406000D01*
X105934000Y-137706000D02*
X100734000Y-137706000D01*
X105934000Y-140406000D02*
X105934000Y-137706000D01*
%TO.C,D2*%
X101634000Y-142706000D02*
X101634000Y-145406000D01*
X107264000Y-144056000D02*
X106054000Y-144056000D01*
X99644000Y-144056000D02*
X100854000Y-144056000D01*
X106054000Y-142706000D02*
X100854000Y-142706000D01*
X106054000Y-145406000D02*
X106054000Y-142706000D01*
X100854000Y-145406000D02*
X106054000Y-145406000D01*
X100854000Y-142706000D02*
X100854000Y-145406000D01*
%TO.C,DZ1*%
X85234000Y-129056000D02*
X85234000Y-127056000D01*
X80024000Y-128056000D02*
X81834000Y-128056000D01*
X87644000Y-128056000D02*
X85834000Y-128056000D01*
X81834000Y-129056000D02*
X85834000Y-129056000D01*
X81834000Y-127056000D02*
X81834000Y-129056000D01*
X85834000Y-127056000D02*
X81834000Y-127056000D01*
X85834000Y-129056000D02*
X85834000Y-127056000D01*
%TD*%
%TO.C,D3*%
D11*
X83377333Y-114658380D02*
X83044000Y-114182190D01*
X82805904Y-114658380D02*
X82805904Y-113658380D01*
X83186857Y-113658380D01*
X83282095Y-113706000D01*
X83329714Y-113753619D01*
X83377333Y-113848857D01*
X83377333Y-113991714D01*
X83329714Y-114086952D01*
X83282095Y-114134571D01*
X83186857Y-114182190D01*
X82805904Y-114182190D01*
X84329714Y-113706000D02*
X84234476Y-113658380D01*
X84091619Y-113658380D01*
X83948761Y-113706000D01*
X83853523Y-113801238D01*
X83805904Y-113896476D01*
X83758285Y-114086952D01*
X83758285Y-114229809D01*
X83805904Y-114420285D01*
X83853523Y-114515523D01*
X83948761Y-114610761D01*
X84091619Y-114658380D01*
X84186857Y-114658380D01*
X84329714Y-114610761D01*
X84377333Y-114563142D01*
X84377333Y-114229809D01*
X84186857Y-114229809D01*
X85234476Y-113991714D02*
X85234476Y-114658380D01*
X84996380Y-113610761D02*
X84758285Y-114325047D01*
X85377333Y-114325047D01*
X83265904Y-116758380D02*
X83265904Y-115758380D01*
X83504000Y-115758380D01*
X83646857Y-115806000D01*
X83742095Y-115901238D01*
X83789714Y-115996476D01*
X83837333Y-116186952D01*
X83837333Y-116329809D01*
X83789714Y-116520285D01*
X83742095Y-116615523D01*
X83646857Y-116710761D01*
X83504000Y-116758380D01*
X83265904Y-116758380D01*
X84170666Y-115758380D02*
X84789714Y-115758380D01*
X84456380Y-116139333D01*
X84599238Y-116139333D01*
X84694476Y-116186952D01*
X84742095Y-116234571D01*
X84789714Y-116329809D01*
X84789714Y-116567904D01*
X84742095Y-116663142D01*
X84694476Y-116710761D01*
X84599238Y-116758380D01*
X84313523Y-116758380D01*
X84218285Y-116710761D01*
X84170666Y-116663142D01*
%TO.C,Q1*%
X79806857Y-140274571D02*
X79949714Y-140322190D01*
X79997333Y-140369809D01*
X80044952Y-140465047D01*
X80044952Y-140607904D01*
X79997333Y-140703142D01*
X79949714Y-140750761D01*
X79854476Y-140798380D01*
X79473523Y-140798380D01*
X79473523Y-139798380D01*
X79806857Y-139798380D01*
X79902095Y-139846000D01*
X79949714Y-139893619D01*
X79997333Y-139988857D01*
X79997333Y-140084095D01*
X79949714Y-140179333D01*
X79902095Y-140226952D01*
X79806857Y-140274571D01*
X79473523Y-140274571D01*
X81044952Y-140703142D02*
X80997333Y-140750761D01*
X80854476Y-140798380D01*
X80759238Y-140798380D01*
X80616380Y-140750761D01*
X80521142Y-140655523D01*
X80473523Y-140560285D01*
X80425904Y-140369809D01*
X80425904Y-140226952D01*
X80473523Y-140036476D01*
X80521142Y-139941238D01*
X80616380Y-139846000D01*
X80759238Y-139798380D01*
X80854476Y-139798380D01*
X80997333Y-139846000D01*
X81044952Y-139893619D01*
X81949714Y-139798380D02*
X81473523Y-139798380D01*
X81425904Y-140274571D01*
X81473523Y-140226952D01*
X81568761Y-140179333D01*
X81806857Y-140179333D01*
X81902095Y-140226952D01*
X81949714Y-140274571D01*
X81997333Y-140369809D01*
X81997333Y-140607904D01*
X81949714Y-140703142D01*
X81902095Y-140750761D01*
X81806857Y-140798380D01*
X81568761Y-140798380D01*
X81473523Y-140750761D01*
X81425904Y-140703142D01*
X82854476Y-140131714D02*
X82854476Y-140798380D01*
X82616380Y-139750761D02*
X82378285Y-140465047D01*
X82997333Y-140465047D01*
X83425904Y-140798380D02*
X83616380Y-140798380D01*
X83711619Y-140750761D01*
X83759238Y-140703142D01*
X83854476Y-140560285D01*
X83902095Y-140369809D01*
X83902095Y-139988857D01*
X83854476Y-139893619D01*
X83806857Y-139846000D01*
X83711619Y-139798380D01*
X83521142Y-139798380D01*
X83425904Y-139846000D01*
X83378285Y-139893619D01*
X83330666Y-139988857D01*
X83330666Y-140226952D01*
X83378285Y-140322190D01*
X83425904Y-140369809D01*
X83521142Y-140417428D01*
X83711619Y-140417428D01*
X83806857Y-140369809D01*
X83854476Y-140322190D01*
X83902095Y-140226952D01*
X81548761Y-139353619D02*
X81453523Y-139306000D01*
X81358285Y-139210761D01*
X81215428Y-139067904D01*
X81120190Y-139020285D01*
X81024952Y-139020285D01*
X81072571Y-139258380D02*
X80977333Y-139210761D01*
X80882095Y-139115523D01*
X80834476Y-138925047D01*
X80834476Y-138591714D01*
X80882095Y-138401238D01*
X80977333Y-138306000D01*
X81072571Y-138258380D01*
X81263047Y-138258380D01*
X81358285Y-138306000D01*
X81453523Y-138401238D01*
X81501142Y-138591714D01*
X81501142Y-138925047D01*
X81453523Y-139115523D01*
X81358285Y-139210761D01*
X81263047Y-139258380D01*
X81072571Y-139258380D01*
X82453523Y-139258380D02*
X81882095Y-139258380D01*
X82167809Y-139258380D02*
X82167809Y-138258380D01*
X82072571Y-138401238D01*
X81977333Y-138496476D01*
X81882095Y-138544095D01*
%TO.C,R8*%
X83282095Y-119058380D02*
X82710666Y-119058380D01*
X82996380Y-119058380D02*
X82996380Y-118058380D01*
X82901142Y-118201238D01*
X82805904Y-118296476D01*
X82710666Y-118344095D01*
X83901142Y-118058380D02*
X83996380Y-118058380D01*
X84091619Y-118106000D01*
X84139238Y-118153619D01*
X84186857Y-118248857D01*
X84234476Y-118439333D01*
X84234476Y-118677428D01*
X84186857Y-118867904D01*
X84139238Y-118963142D01*
X84091619Y-119010761D01*
X83996380Y-119058380D01*
X83901142Y-119058380D01*
X83805904Y-119010761D01*
X83758285Y-118963142D01*
X83710666Y-118867904D01*
X83663047Y-118677428D01*
X83663047Y-118439333D01*
X83710666Y-118248857D01*
X83758285Y-118153619D01*
X83805904Y-118106000D01*
X83901142Y-118058380D01*
X84663047Y-119058380D02*
X84663047Y-118058380D01*
X84996380Y-118772666D01*
X85329714Y-118058380D01*
X85329714Y-119058380D01*
%TO.C,R3*%
X102572571Y-147458380D02*
X102001142Y-147458380D01*
X102286857Y-147458380D02*
X102286857Y-146458380D01*
X102191619Y-146601238D01*
X102096380Y-146696476D01*
X102001142Y-146744095D01*
X103477333Y-146458380D02*
X103001142Y-146458380D01*
X102953523Y-146934571D01*
X103001142Y-146886952D01*
X103096380Y-146839333D01*
X103334476Y-146839333D01*
X103429714Y-146886952D01*
X103477333Y-146934571D01*
X103524952Y-147029809D01*
X103524952Y-147267904D01*
X103477333Y-147363142D01*
X103429714Y-147410761D01*
X103334476Y-147458380D01*
X103096380Y-147458380D01*
X103001142Y-147410761D01*
X102953523Y-147363142D01*
X104144000Y-146458380D02*
X104239238Y-146458380D01*
X104334476Y-146506000D01*
X104382095Y-146553619D01*
X104429714Y-146648857D01*
X104477333Y-146839333D01*
X104477333Y-147077428D01*
X104429714Y-147267904D01*
X104382095Y-147363142D01*
X104334476Y-147410761D01*
X104239238Y-147458380D01*
X104144000Y-147458380D01*
X104048761Y-147410761D01*
X104001142Y-147363142D01*
X103953523Y-147267904D01*
X103905904Y-147077428D01*
X103905904Y-146839333D01*
X103953523Y-146648857D01*
X104001142Y-146553619D01*
X104048761Y-146506000D01*
X104144000Y-146458380D01*
X104905904Y-147458380D02*
X104905904Y-146458380D01*
X105001142Y-147077428D02*
X105286857Y-147458380D01*
X105286857Y-146791714D02*
X104905904Y-147172666D01*
%TO.C,Q2*%
X91660190Y-123428380D02*
X91660190Y-122428380D01*
X92041142Y-122428380D01*
X92136380Y-122476000D01*
X92184000Y-122523619D01*
X92231619Y-122618857D01*
X92231619Y-122761714D01*
X92184000Y-122856952D01*
X92136380Y-122904571D01*
X92041142Y-122952190D01*
X91660190Y-122952190D01*
X92564952Y-122428380D02*
X93184000Y-122428380D01*
X92850666Y-122809333D01*
X92993523Y-122809333D01*
X93088761Y-122856952D01*
X93136380Y-122904571D01*
X93184000Y-122999809D01*
X93184000Y-123237904D01*
X93136380Y-123333142D01*
X93088761Y-123380761D01*
X92993523Y-123428380D01*
X92707809Y-123428380D01*
X92612571Y-123380761D01*
X92564952Y-123333142D01*
X93612571Y-123428380D02*
X93612571Y-122428380D01*
X94184000Y-123428380D01*
X94184000Y-122428380D01*
X94993523Y-122904571D02*
X95136380Y-122952190D01*
X95184000Y-122999809D01*
X95231619Y-123095047D01*
X95231619Y-123237904D01*
X95184000Y-123333142D01*
X95136380Y-123380761D01*
X95041142Y-123428380D01*
X94660190Y-123428380D01*
X94660190Y-122428380D01*
X94993523Y-122428380D01*
X95088761Y-122476000D01*
X95136380Y-122523619D01*
X95184000Y-122618857D01*
X95184000Y-122714095D01*
X95136380Y-122809333D01*
X95088761Y-122856952D01*
X94993523Y-122904571D01*
X94660190Y-122904571D01*
X95707809Y-123428380D02*
X95898285Y-123428380D01*
X95993523Y-123380761D01*
X96041142Y-123333142D01*
X96136380Y-123190285D01*
X96184000Y-122999809D01*
X96184000Y-122618857D01*
X96136380Y-122523619D01*
X96088761Y-122476000D01*
X95993523Y-122428380D01*
X95803047Y-122428380D01*
X95707809Y-122476000D01*
X95660190Y-122523619D01*
X95612571Y-122618857D01*
X95612571Y-122856952D01*
X95660190Y-122952190D01*
X95707809Y-122999809D01*
X95803047Y-123047428D01*
X95993523Y-123047428D01*
X96088761Y-122999809D01*
X96136380Y-122952190D01*
X96184000Y-122856952D01*
X96803047Y-122428380D02*
X96898285Y-122428380D01*
X96993523Y-122476000D01*
X97041142Y-122523619D01*
X97088761Y-122618857D01*
X97136380Y-122809333D01*
X97136380Y-123047428D01*
X97088761Y-123237904D01*
X97041142Y-123333142D01*
X96993523Y-123380761D01*
X96898285Y-123428380D01*
X96803047Y-123428380D01*
X96707809Y-123380761D01*
X96660190Y-123333142D01*
X96612571Y-123237904D01*
X96564952Y-123047428D01*
X96564952Y-122809333D01*
X96612571Y-122618857D01*
X96660190Y-122523619D01*
X96707809Y-122476000D01*
X96803047Y-122428380D01*
X98660190Y-122904571D02*
X98326857Y-122904571D01*
X98326857Y-123428380D02*
X98326857Y-122428380D01*
X98803047Y-122428380D01*
X99184000Y-123428380D02*
X99184000Y-122428380D01*
X99564952Y-122428380D01*
X99660190Y-122476000D01*
X99707809Y-122523619D01*
X99755428Y-122618857D01*
X99755428Y-122761714D01*
X99707809Y-122856952D01*
X99660190Y-122904571D01*
X99564952Y-122952190D01*
X99184000Y-122952190D01*
X95588761Y-117571619D02*
X95493523Y-117524000D01*
X95398285Y-117428761D01*
X95255428Y-117285904D01*
X95160190Y-117238285D01*
X95064952Y-117238285D01*
X95112571Y-117476380D02*
X95017333Y-117428761D01*
X94922095Y-117333523D01*
X94874476Y-117143047D01*
X94874476Y-116809714D01*
X94922095Y-116619238D01*
X95017333Y-116524000D01*
X95112571Y-116476380D01*
X95303047Y-116476380D01*
X95398285Y-116524000D01*
X95493523Y-116619238D01*
X95541142Y-116809714D01*
X95541142Y-117143047D01*
X95493523Y-117333523D01*
X95398285Y-117428761D01*
X95303047Y-117476380D01*
X95112571Y-117476380D01*
X95922095Y-116571619D02*
X95969714Y-116524000D01*
X96064952Y-116476380D01*
X96303047Y-116476380D01*
X96398285Y-116524000D01*
X96445904Y-116571619D01*
X96493523Y-116666857D01*
X96493523Y-116762095D01*
X96445904Y-116904952D01*
X95874476Y-117476380D01*
X96493523Y-117476380D01*
%TO.C,BT1*%
X70618071Y-147183570D02*
X70665690Y-147040713D01*
X70713309Y-146993094D01*
X70808547Y-146945475D01*
X70951404Y-146945475D01*
X71046642Y-146993094D01*
X71094261Y-147040713D01*
X71141880Y-147135951D01*
X71141880Y-147516903D01*
X70141880Y-147516903D01*
X70141880Y-147183570D01*
X70189500Y-147088332D01*
X70237119Y-147040713D01*
X70332357Y-146993094D01*
X70427595Y-146993094D01*
X70522833Y-147040713D01*
X70570452Y-147088332D01*
X70618071Y-147183570D01*
X70618071Y-147516903D01*
X71141880Y-146088332D02*
X70618071Y-146088332D01*
X70522833Y-146135951D01*
X70475214Y-146231189D01*
X70475214Y-146421665D01*
X70522833Y-146516903D01*
X71094261Y-146088332D02*
X71141880Y-146183570D01*
X71141880Y-146421665D01*
X71094261Y-146516903D01*
X70999023Y-146564522D01*
X70903785Y-146564522D01*
X70808547Y-146516903D01*
X70760928Y-146421665D01*
X70760928Y-146183570D01*
X70713309Y-146088332D01*
X70475214Y-145754999D02*
X70475214Y-145374046D01*
X70141880Y-145612141D02*
X70999023Y-145612141D01*
X71094261Y-145564522D01*
X71141880Y-145469284D01*
X71141880Y-145374046D01*
X70475214Y-145183570D02*
X70475214Y-144802618D01*
X70141880Y-145040713D02*
X70999023Y-145040713D01*
X71094261Y-144993094D01*
X71141880Y-144897856D01*
X71141880Y-144802618D01*
X71094261Y-144088332D02*
X71141880Y-144183570D01*
X71141880Y-144374046D01*
X71094261Y-144469284D01*
X70999023Y-144516903D01*
X70618071Y-144516903D01*
X70522833Y-144469284D01*
X70475214Y-144374046D01*
X70475214Y-144183570D01*
X70522833Y-144088332D01*
X70618071Y-144040713D01*
X70713309Y-144040713D01*
X70808547Y-144516903D01*
X71141880Y-143612141D02*
X70475214Y-143612141D01*
X70665690Y-143612141D02*
X70570452Y-143564522D01*
X70522833Y-143516903D01*
X70475214Y-143421665D01*
X70475214Y-143326427D01*
X70475214Y-143088332D02*
X71141880Y-142850237D01*
X70475214Y-142612141D02*
X71141880Y-142850237D01*
X71379976Y-142945475D01*
X71427595Y-142993094D01*
X71475214Y-143088332D01*
X71141880Y-142183570D02*
X71141880Y-141993094D01*
X71094261Y-141897856D01*
X71046642Y-141850237D01*
X70903785Y-141754999D01*
X70713309Y-141707379D01*
X70332357Y-141707379D01*
X70237119Y-141754999D01*
X70189500Y-141802618D01*
X70141880Y-141897856D01*
X70141880Y-142088332D01*
X70189500Y-142183570D01*
X70237119Y-142231189D01*
X70332357Y-142278808D01*
X70570452Y-142278808D01*
X70665690Y-142231189D01*
X70713309Y-142183570D01*
X70760928Y-142088332D01*
X70760928Y-141897856D01*
X70713309Y-141802618D01*
X70665690Y-141754999D01*
X70570452Y-141707379D01*
X70475214Y-141374046D02*
X71141880Y-141135951D01*
X70475214Y-140897856D01*
%TO.C,C1*%
X112596380Y-145998380D02*
X112024952Y-145998380D01*
X112310666Y-145998380D02*
X112310666Y-144998380D01*
X112215428Y-145141238D01*
X112120190Y-145236476D01*
X112024952Y-145284095D01*
X113215428Y-144998380D02*
X113310666Y-144998380D01*
X113405904Y-145046000D01*
X113453523Y-145093619D01*
X113501142Y-145188857D01*
X113548761Y-145379333D01*
X113548761Y-145617428D01*
X113501142Y-145807904D01*
X113453523Y-145903142D01*
X113405904Y-145950761D01*
X113310666Y-145998380D01*
X113215428Y-145998380D01*
X113120190Y-145950761D01*
X113072571Y-145903142D01*
X113024952Y-145807904D01*
X112977333Y-145617428D01*
X112977333Y-145379333D01*
X113024952Y-145188857D01*
X113072571Y-145093619D01*
X113120190Y-145046000D01*
X113215428Y-144998380D01*
X114167809Y-144998380D02*
X114263047Y-144998380D01*
X114358285Y-145046000D01*
X114405904Y-145093619D01*
X114453523Y-145188857D01*
X114501142Y-145379333D01*
X114501142Y-145617428D01*
X114453523Y-145807904D01*
X114405904Y-145903142D01*
X114358285Y-145950761D01*
X114263047Y-145998380D01*
X114167809Y-145998380D01*
X114072571Y-145950761D01*
X114024952Y-145903142D01*
X113977333Y-145807904D01*
X113929714Y-145617428D01*
X113929714Y-145379333D01*
X113977333Y-145188857D01*
X114024952Y-145093619D01*
X114072571Y-145046000D01*
X114167809Y-144998380D01*
X114929714Y-145331714D02*
X114929714Y-145998380D01*
X114929714Y-145426952D02*
X114977333Y-145379333D01*
X115072571Y-145331714D01*
X115215428Y-145331714D01*
X115310666Y-145379333D01*
X115358285Y-145474571D01*
X115358285Y-145998380D01*
X116167809Y-145474571D02*
X115834476Y-145474571D01*
X115834476Y-145998380D02*
X115834476Y-144998380D01*
X116310666Y-144998380D01*
X113977333Y-148163142D02*
X113929714Y-148210761D01*
X113786857Y-148258380D01*
X113691619Y-148258380D01*
X113548761Y-148210761D01*
X113453523Y-148115523D01*
X113405904Y-148020285D01*
X113358285Y-147829809D01*
X113358285Y-147686952D01*
X113405904Y-147496476D01*
X113453523Y-147401238D01*
X113548761Y-147306000D01*
X113691619Y-147258380D01*
X113786857Y-147258380D01*
X113929714Y-147306000D01*
X113977333Y-147353619D01*
X114929714Y-148258380D02*
X114358285Y-148258380D01*
X114644000Y-148258380D02*
X114644000Y-147258380D01*
X114548761Y-147401238D01*
X114453523Y-147496476D01*
X114358285Y-147544095D01*
%TO.C,C2*%
X89322571Y-145998380D02*
X88751142Y-145998380D01*
X89036857Y-145998380D02*
X89036857Y-144998380D01*
X88941619Y-145141238D01*
X88846380Y-145236476D01*
X88751142Y-145284095D01*
X89941619Y-144998380D02*
X90036857Y-144998380D01*
X90132095Y-145046000D01*
X90179714Y-145093619D01*
X90227333Y-145188857D01*
X90274952Y-145379333D01*
X90274952Y-145617428D01*
X90227333Y-145807904D01*
X90179714Y-145903142D01*
X90132095Y-145950761D01*
X90036857Y-145998380D01*
X89941619Y-145998380D01*
X89846380Y-145950761D01*
X89798761Y-145903142D01*
X89751142Y-145807904D01*
X89703523Y-145617428D01*
X89703523Y-145379333D01*
X89751142Y-145188857D01*
X89798761Y-145093619D01*
X89846380Y-145046000D01*
X89941619Y-144998380D01*
X90703523Y-145331714D02*
X90703523Y-145998380D01*
X90703523Y-145426952D02*
X90751142Y-145379333D01*
X90846380Y-145331714D01*
X90989238Y-145331714D01*
X91084476Y-145379333D01*
X91132095Y-145474571D01*
X91132095Y-145998380D01*
X91941619Y-145474571D02*
X91608285Y-145474571D01*
X91608285Y-145998380D02*
X91608285Y-144998380D01*
X92084476Y-144998380D01*
X90227333Y-148163142D02*
X90179714Y-148210761D01*
X90036857Y-148258380D01*
X89941619Y-148258380D01*
X89798761Y-148210761D01*
X89703523Y-148115523D01*
X89655904Y-148020285D01*
X89608285Y-147829809D01*
X89608285Y-147686952D01*
X89655904Y-147496476D01*
X89703523Y-147401238D01*
X89798761Y-147306000D01*
X89941619Y-147258380D01*
X90036857Y-147258380D01*
X90179714Y-147306000D01*
X90227333Y-147353619D01*
X90608285Y-147353619D02*
X90655904Y-147306000D01*
X90751142Y-147258380D01*
X90989238Y-147258380D01*
X91084476Y-147306000D01*
X91132095Y-147353619D01*
X91179714Y-147448857D01*
X91179714Y-147544095D01*
X91132095Y-147686952D01*
X90560666Y-148258380D01*
X91179714Y-148258380D01*
%TO.C,C3*%
X108155904Y-122556380D02*
X107584476Y-122556380D01*
X107870190Y-122556380D02*
X107870190Y-121556380D01*
X107774952Y-121699238D01*
X107679714Y-121794476D01*
X107584476Y-121842095D01*
X108536857Y-121651619D02*
X108584476Y-121604000D01*
X108679714Y-121556380D01*
X108917809Y-121556380D01*
X109013047Y-121604000D01*
X109060666Y-121651619D01*
X109108285Y-121746857D01*
X109108285Y-121842095D01*
X109060666Y-121984952D01*
X108489238Y-122556380D01*
X109108285Y-122556380D01*
X109727333Y-121556380D02*
X109822571Y-121556380D01*
X109917809Y-121604000D01*
X109965428Y-121651619D01*
X110013047Y-121746857D01*
X110060666Y-121937333D01*
X110060666Y-122175428D01*
X110013047Y-122365904D01*
X109965428Y-122461142D01*
X109917809Y-122508761D01*
X109822571Y-122556380D01*
X109727333Y-122556380D01*
X109632095Y-122508761D01*
X109584476Y-122461142D01*
X109536857Y-122365904D01*
X109489238Y-122175428D01*
X109489238Y-121937333D01*
X109536857Y-121746857D01*
X109584476Y-121651619D01*
X109632095Y-121604000D01*
X109727333Y-121556380D01*
X110917809Y-121889714D02*
X110917809Y-122556380D01*
X110489238Y-121889714D02*
X110489238Y-122413523D01*
X110536857Y-122508761D01*
X110632095Y-122556380D01*
X110774952Y-122556380D01*
X110870190Y-122508761D01*
X110917809Y-122461142D01*
X111727333Y-122032571D02*
X111394000Y-122032571D01*
X111394000Y-122556380D02*
X111394000Y-121556380D01*
X111870190Y-121556380D01*
X113441619Y-121889714D02*
X113441619Y-122556380D01*
X113203523Y-121508761D02*
X112965428Y-122223047D01*
X113584476Y-122223047D01*
X114155904Y-121556380D02*
X114251142Y-121556380D01*
X114346380Y-121604000D01*
X114394000Y-121651619D01*
X114441619Y-121746857D01*
X114489238Y-121937333D01*
X114489238Y-122175428D01*
X114441619Y-122365904D01*
X114394000Y-122461142D01*
X114346380Y-122508761D01*
X114251142Y-122556380D01*
X114155904Y-122556380D01*
X114060666Y-122508761D01*
X114013047Y-122461142D01*
X113965428Y-122365904D01*
X113917809Y-122175428D01*
X113917809Y-121937333D01*
X113965428Y-121746857D01*
X114013047Y-121651619D01*
X114060666Y-121604000D01*
X114155904Y-121556380D01*
X115108285Y-121556380D02*
X115203523Y-121556380D01*
X115298761Y-121604000D01*
X115346380Y-121651619D01*
X115394000Y-121746857D01*
X115441619Y-121937333D01*
X115441619Y-122175428D01*
X115394000Y-122365904D01*
X115346380Y-122461142D01*
X115298761Y-122508761D01*
X115203523Y-122556380D01*
X115108285Y-122556380D01*
X115013047Y-122508761D01*
X114965428Y-122461142D01*
X114917809Y-122365904D01*
X114870190Y-122175428D01*
X114870190Y-121937333D01*
X114917809Y-121746857D01*
X114965428Y-121651619D01*
X115013047Y-121604000D01*
X115108285Y-121556380D01*
X115774952Y-121889714D02*
X116013047Y-122556380D01*
X116251142Y-121889714D01*
X116061142Y-119222666D02*
X116108761Y-119270285D01*
X116156380Y-119413142D01*
X116156380Y-119508380D01*
X116108761Y-119651238D01*
X116013523Y-119746476D01*
X115918285Y-119794095D01*
X115727809Y-119841714D01*
X115584952Y-119841714D01*
X115394476Y-119794095D01*
X115299238Y-119746476D01*
X115204000Y-119651238D01*
X115156380Y-119508380D01*
X115156380Y-119413142D01*
X115204000Y-119270285D01*
X115251619Y-119222666D01*
X115156380Y-118889333D02*
X115156380Y-118270285D01*
X115537333Y-118603619D01*
X115537333Y-118460761D01*
X115584952Y-118365523D01*
X115632571Y-118317904D01*
X115727809Y-118270285D01*
X115965904Y-118270285D01*
X116061142Y-118317904D01*
X116108761Y-118365523D01*
X116156380Y-118460761D01*
X116156380Y-118746476D01*
X116108761Y-118841714D01*
X116061142Y-118889333D01*
%TO.C,DL1*%
X80981142Y-144548380D02*
X80504952Y-144548380D01*
X80504952Y-143548380D01*
X81314476Y-144024571D02*
X81647809Y-144024571D01*
X81790666Y-144548380D02*
X81314476Y-144548380D01*
X81314476Y-143548380D01*
X81790666Y-143548380D01*
X82219238Y-144548380D02*
X82219238Y-143548380D01*
X82457333Y-143548380D01*
X82600190Y-143596000D01*
X82695428Y-143691238D01*
X82743047Y-143786476D01*
X82790666Y-143976952D01*
X82790666Y-144119809D01*
X82743047Y-144310285D01*
X82695428Y-144405523D01*
X82600190Y-144500761D01*
X82457333Y-144548380D01*
X82219238Y-144548380D01*
%TO.C,L1*%
X98696380Y-130448857D02*
X98696380Y-131020285D01*
X98696380Y-130734571D02*
X97696380Y-130734571D01*
X97839238Y-130829809D01*
X97934476Y-130925047D01*
X97982095Y-131020285D01*
X97696380Y-129829809D02*
X97696380Y-129734571D01*
X97744000Y-129639333D01*
X97791619Y-129591714D01*
X97886857Y-129544095D01*
X98077333Y-129496476D01*
X98315428Y-129496476D01*
X98505904Y-129544095D01*
X98601142Y-129591714D01*
X98648761Y-129639333D01*
X98696380Y-129734571D01*
X98696380Y-129829809D01*
X98648761Y-129925047D01*
X98601142Y-129972666D01*
X98505904Y-130020285D01*
X98315428Y-130067904D01*
X98077333Y-130067904D01*
X97886857Y-130020285D01*
X97791619Y-129972666D01*
X97744000Y-129925047D01*
X97696380Y-129829809D01*
X97696380Y-128877428D02*
X97696380Y-128782190D01*
X97744000Y-128686952D01*
X97791619Y-128639333D01*
X97886857Y-128591714D01*
X98077333Y-128544095D01*
X98315428Y-128544095D01*
X98505904Y-128591714D01*
X98601142Y-128639333D01*
X98648761Y-128686952D01*
X98696380Y-128782190D01*
X98696380Y-128877428D01*
X98648761Y-128972666D01*
X98601142Y-129020285D01*
X98505904Y-129067904D01*
X98315428Y-129115523D01*
X98077333Y-129115523D01*
X97886857Y-129067904D01*
X97791619Y-129020285D01*
X97744000Y-128972666D01*
X97696380Y-128877428D01*
X98029714Y-127686952D02*
X98696380Y-127686952D01*
X98029714Y-128115523D02*
X98553523Y-128115523D01*
X98648761Y-128067904D01*
X98696380Y-127972666D01*
X98696380Y-127829809D01*
X98648761Y-127734571D01*
X98601142Y-127686952D01*
X98696380Y-127210761D02*
X97696380Y-127210761D01*
X98172571Y-127210761D02*
X98172571Y-126639333D01*
X98696380Y-126639333D02*
X97696380Y-126639333D01*
%TO.C,R1*%
X102158285Y-132658380D02*
X102777333Y-132658380D01*
X102444000Y-133039333D01*
X102586857Y-133039333D01*
X102682095Y-133086952D01*
X102729714Y-133134571D01*
X102777333Y-133229809D01*
X102777333Y-133467904D01*
X102729714Y-133563142D01*
X102682095Y-133610761D01*
X102586857Y-133658380D01*
X102301142Y-133658380D01*
X102205904Y-133610761D01*
X102158285Y-133563142D01*
X103110666Y-132658380D02*
X103729714Y-132658380D01*
X103396380Y-133039333D01*
X103539238Y-133039333D01*
X103634476Y-133086952D01*
X103682095Y-133134571D01*
X103729714Y-133229809D01*
X103729714Y-133467904D01*
X103682095Y-133563142D01*
X103634476Y-133610761D01*
X103539238Y-133658380D01*
X103253523Y-133658380D01*
X103158285Y-133610761D01*
X103110666Y-133563142D01*
X104348761Y-132658380D02*
X104444000Y-132658380D01*
X104539238Y-132706000D01*
X104586857Y-132753619D01*
X104634476Y-132848857D01*
X104682095Y-133039333D01*
X104682095Y-133277428D01*
X104634476Y-133467904D01*
X104586857Y-133563142D01*
X104539238Y-133610761D01*
X104444000Y-133658380D01*
X104348761Y-133658380D01*
X104253523Y-133610761D01*
X104205904Y-133563142D01*
X104158285Y-133467904D01*
X104110666Y-133277428D01*
X104110666Y-133039333D01*
X104158285Y-132848857D01*
X104205904Y-132753619D01*
X104253523Y-132706000D01*
X104348761Y-132658380D01*
%TO.C,R2*%
X109926380Y-141135047D02*
X109926380Y-141611238D01*
X110402571Y-141658857D01*
X110354952Y-141611238D01*
X110307333Y-141516000D01*
X110307333Y-141277904D01*
X110354952Y-141182666D01*
X110402571Y-141135047D01*
X110497809Y-141087428D01*
X110735904Y-141087428D01*
X110831142Y-141135047D01*
X110878761Y-141182666D01*
X110926380Y-141277904D01*
X110926380Y-141516000D01*
X110878761Y-141611238D01*
X110831142Y-141658857D01*
X109926380Y-140468380D02*
X109926380Y-140373142D01*
X109974000Y-140277904D01*
X110021619Y-140230285D01*
X110116857Y-140182666D01*
X110307333Y-140135047D01*
X110545428Y-140135047D01*
X110735904Y-140182666D01*
X110831142Y-140230285D01*
X110878761Y-140277904D01*
X110926380Y-140373142D01*
X110926380Y-140468380D01*
X110878761Y-140563619D01*
X110831142Y-140611238D01*
X110735904Y-140658857D01*
X110545428Y-140706476D01*
X110307333Y-140706476D01*
X110116857Y-140658857D01*
X110021619Y-140611238D01*
X109974000Y-140563619D01*
X109926380Y-140468380D01*
X109926380Y-139516000D02*
X109926380Y-139420761D01*
X109974000Y-139325523D01*
X110021619Y-139277904D01*
X110116857Y-139230285D01*
X110307333Y-139182666D01*
X110545428Y-139182666D01*
X110735904Y-139230285D01*
X110831142Y-139277904D01*
X110878761Y-139325523D01*
X110926380Y-139420761D01*
X110926380Y-139516000D01*
X110878761Y-139611238D01*
X110831142Y-139658857D01*
X110735904Y-139706476D01*
X110545428Y-139754095D01*
X110307333Y-139754095D01*
X110116857Y-139706476D01*
X110021619Y-139658857D01*
X109974000Y-139611238D01*
X109926380Y-139516000D01*
X110926380Y-138754095D02*
X109926380Y-138754095D01*
X110545428Y-138658857D02*
X110926380Y-138373142D01*
X110259714Y-138373142D02*
X110640666Y-138754095D01*
%TO.C,R6*%
X82548285Y-129398380D02*
X83167333Y-129398380D01*
X82834000Y-129779333D01*
X82976857Y-129779333D01*
X83072095Y-129826952D01*
X83119714Y-129874571D01*
X83167333Y-129969809D01*
X83167333Y-130207904D01*
X83119714Y-130303142D01*
X83072095Y-130350761D01*
X82976857Y-130398380D01*
X82691142Y-130398380D01*
X82595904Y-130350761D01*
X82548285Y-130303142D01*
X83500666Y-129398380D02*
X84119714Y-129398380D01*
X83786380Y-129779333D01*
X83929238Y-129779333D01*
X84024476Y-129826952D01*
X84072095Y-129874571D01*
X84119714Y-129969809D01*
X84119714Y-130207904D01*
X84072095Y-130303142D01*
X84024476Y-130350761D01*
X83929238Y-130398380D01*
X83643523Y-130398380D01*
X83548285Y-130350761D01*
X83500666Y-130303142D01*
X84738761Y-129398380D02*
X84834000Y-129398380D01*
X84929238Y-129446000D01*
X84976857Y-129493619D01*
X85024476Y-129588857D01*
X85072095Y-129779333D01*
X85072095Y-130017428D01*
X85024476Y-130207904D01*
X84976857Y-130303142D01*
X84929238Y-130350761D01*
X84834000Y-130398380D01*
X84738761Y-130398380D01*
X84643523Y-130350761D01*
X84595904Y-130303142D01*
X84548285Y-130207904D01*
X84500666Y-130017428D01*
X84500666Y-129779333D01*
X84548285Y-129588857D01*
X84595904Y-129493619D01*
X84643523Y-129446000D01*
X84738761Y-129398380D01*
%TO.C,R9*%
X83172571Y-122658380D02*
X82601142Y-122658380D01*
X82886857Y-122658380D02*
X82886857Y-121658380D01*
X82791619Y-121801238D01*
X82696380Y-121896476D01*
X82601142Y-121944095D01*
X84077333Y-121658380D02*
X83601142Y-121658380D01*
X83553523Y-122134571D01*
X83601142Y-122086952D01*
X83696380Y-122039333D01*
X83934476Y-122039333D01*
X84029714Y-122086952D01*
X84077333Y-122134571D01*
X84124952Y-122229809D01*
X84124952Y-122467904D01*
X84077333Y-122563142D01*
X84029714Y-122610761D01*
X83934476Y-122658380D01*
X83696380Y-122658380D01*
X83601142Y-122610761D01*
X83553523Y-122563142D01*
X84744000Y-121658380D02*
X84839238Y-121658380D01*
X84934476Y-121706000D01*
X84982095Y-121753619D01*
X85029714Y-121848857D01*
X85077333Y-122039333D01*
X85077333Y-122277428D01*
X85029714Y-122467904D01*
X84982095Y-122563142D01*
X84934476Y-122610761D01*
X84839238Y-122658380D01*
X84744000Y-122658380D01*
X84648761Y-122610761D01*
X84601142Y-122563142D01*
X84553523Y-122467904D01*
X84505904Y-122277428D01*
X84505904Y-122039333D01*
X84553523Y-121848857D01*
X84601142Y-121753619D01*
X84648761Y-121706000D01*
X84744000Y-121658380D01*
X85505904Y-122658380D02*
X85505904Y-121658380D01*
X85601142Y-122277428D02*
X85886857Y-122658380D01*
X85886857Y-121991714D02*
X85505904Y-122372666D01*
%TO.C,SW_SPST1*%
X71000761Y-135738857D02*
X71048380Y-135596000D01*
X71048380Y-135357904D01*
X71000761Y-135262666D01*
X70953142Y-135215047D01*
X70857904Y-135167428D01*
X70762666Y-135167428D01*
X70667428Y-135215047D01*
X70619809Y-135262666D01*
X70572190Y-135357904D01*
X70524571Y-135548380D01*
X70476952Y-135643619D01*
X70429333Y-135691238D01*
X70334095Y-135738857D01*
X70238857Y-135738857D01*
X70143619Y-135691238D01*
X70096000Y-135643619D01*
X70048380Y-135548380D01*
X70048380Y-135310285D01*
X70096000Y-135167428D01*
X70048380Y-134834095D02*
X71048380Y-134596000D01*
X70334095Y-134405523D01*
X71048380Y-134215047D01*
X70048380Y-133976952D01*
X71143619Y-133834095D02*
X71143619Y-133072190D01*
X70953142Y-132262666D02*
X71000761Y-132310285D01*
X71048380Y-132453142D01*
X71048380Y-132548380D01*
X71000761Y-132691238D01*
X70905523Y-132786476D01*
X70810285Y-132834095D01*
X70619809Y-132881714D01*
X70476952Y-132881714D01*
X70286476Y-132834095D01*
X70191238Y-132786476D01*
X70096000Y-132691238D01*
X70048380Y-132548380D01*
X70048380Y-132453142D01*
X70096000Y-132310285D01*
X70143619Y-132262666D01*
X71048380Y-131834095D02*
X70048380Y-131834095D01*
X70524571Y-131834095D02*
X70524571Y-131262666D01*
X71048380Y-131262666D02*
X70048380Y-131262666D01*
X70762666Y-130834095D02*
X70762666Y-130357904D01*
X71048380Y-130929333D02*
X70048380Y-130596000D01*
X71048380Y-130262666D01*
X71048380Y-129357904D02*
X70572190Y-129691238D01*
X71048380Y-129929333D02*
X70048380Y-129929333D01*
X70048380Y-129548380D01*
X70096000Y-129453142D01*
X70143619Y-129405523D01*
X70238857Y-129357904D01*
X70381714Y-129357904D01*
X70476952Y-129405523D01*
X70524571Y-129453142D01*
X70572190Y-129548380D01*
X70572190Y-129929333D01*
X70096000Y-128405523D02*
X70048380Y-128500761D01*
X70048380Y-128643619D01*
X70096000Y-128786476D01*
X70191238Y-128881714D01*
X70286476Y-128929333D01*
X70476952Y-128976952D01*
X70619809Y-128976952D01*
X70810285Y-128929333D01*
X70905523Y-128881714D01*
X71000761Y-128786476D01*
X71048380Y-128643619D01*
X71048380Y-128548380D01*
X71000761Y-128405523D01*
X70953142Y-128357904D01*
X70619809Y-128357904D01*
X70619809Y-128548380D01*
X70524571Y-127929333D02*
X70524571Y-127596000D01*
X71048380Y-127453142D02*
X71048380Y-127929333D01*
X70048380Y-127929333D01*
X70048380Y-127453142D01*
%TO.C,SW_SPST3*%
X71000761Y-121238857D02*
X71048380Y-121096000D01*
X71048380Y-120857904D01*
X71000761Y-120762666D01*
X70953142Y-120715047D01*
X70857904Y-120667428D01*
X70762666Y-120667428D01*
X70667428Y-120715047D01*
X70619809Y-120762666D01*
X70572190Y-120857904D01*
X70524571Y-121048380D01*
X70476952Y-121143619D01*
X70429333Y-121191238D01*
X70334095Y-121238857D01*
X70238857Y-121238857D01*
X70143619Y-121191238D01*
X70096000Y-121143619D01*
X70048380Y-121048380D01*
X70048380Y-120810285D01*
X70096000Y-120667428D01*
X70048380Y-120334095D02*
X71048380Y-120096000D01*
X70334095Y-119905523D01*
X71048380Y-119715047D01*
X70048380Y-119476952D01*
X71143619Y-119334095D02*
X71143619Y-118572190D01*
X70048380Y-118429333D02*
X70048380Y-117762666D01*
X71048380Y-118429333D01*
X71048380Y-117762666D01*
X70762666Y-117429333D02*
X70762666Y-116953142D01*
X71048380Y-117524571D02*
X70048380Y-117191238D01*
X71048380Y-116857904D01*
X71048380Y-116524571D02*
X70048380Y-116524571D01*
X70048380Y-116143619D01*
X70096000Y-116048380D01*
X70143619Y-116000761D01*
X70238857Y-115953142D01*
X70381714Y-115953142D01*
X70476952Y-116000761D01*
X70524571Y-116048380D01*
X70572190Y-116143619D01*
X70572190Y-116524571D01*
%TO.C,U1*%
X88277333Y-143658380D02*
X88277333Y-142658380D01*
X88848761Y-143658380D01*
X88848761Y-142658380D01*
X89324952Y-143134571D02*
X89658285Y-143134571D01*
X89801142Y-143658380D02*
X89324952Y-143658380D01*
X89324952Y-142658380D01*
X89801142Y-142658380D01*
X90705904Y-142658380D02*
X90229714Y-142658380D01*
X90182095Y-143134571D01*
X90229714Y-143086952D01*
X90324952Y-143039333D01*
X90563047Y-143039333D01*
X90658285Y-143086952D01*
X90705904Y-143134571D01*
X90753523Y-143229809D01*
X90753523Y-143467904D01*
X90705904Y-143563142D01*
X90658285Y-143610761D01*
X90563047Y-143658380D01*
X90324952Y-143658380D01*
X90229714Y-143610761D01*
X90182095Y-143563142D01*
X91658285Y-142658380D02*
X91182095Y-142658380D01*
X91134476Y-143134571D01*
X91182095Y-143086952D01*
X91277333Y-143039333D01*
X91515428Y-143039333D01*
X91610666Y-143086952D01*
X91658285Y-143134571D01*
X91705904Y-143229809D01*
X91705904Y-143467904D01*
X91658285Y-143563142D01*
X91610666Y-143610761D01*
X91515428Y-143658380D01*
X91277333Y-143658380D01*
X91182095Y-143610761D01*
X91134476Y-143563142D01*
X92610666Y-142658380D02*
X92134476Y-142658380D01*
X92086857Y-143134571D01*
X92134476Y-143086952D01*
X92229714Y-143039333D01*
X92467809Y-143039333D01*
X92563047Y-143086952D01*
X92610666Y-143134571D01*
X92658285Y-143229809D01*
X92658285Y-143467904D01*
X92610666Y-143563142D01*
X92563047Y-143610761D01*
X92467809Y-143658380D01*
X92229714Y-143658380D01*
X92134476Y-143610761D01*
X92086857Y-143563142D01*
X89692095Y-138818380D02*
X89692095Y-139627904D01*
X89739714Y-139723142D01*
X89787333Y-139770761D01*
X89882571Y-139818380D01*
X90073047Y-139818380D01*
X90168285Y-139770761D01*
X90215904Y-139723142D01*
X90263523Y-139627904D01*
X90263523Y-138818380D01*
X91263523Y-139818380D02*
X90692095Y-139818380D01*
X90977809Y-139818380D02*
X90977809Y-138818380D01*
X90882571Y-138961238D01*
X90787333Y-139056476D01*
X90692095Y-139104095D01*
%TO.C,D1*%
X101301142Y-137458380D02*
X100729714Y-137458380D01*
X101015428Y-137458380D02*
X101015428Y-136458380D01*
X100920190Y-136601238D01*
X100824952Y-136696476D01*
X100729714Y-136744095D01*
X101729714Y-137458380D02*
X101729714Y-136458380D01*
X102301142Y-137458380D01*
X102301142Y-136458380D01*
X103205904Y-136791714D02*
X103205904Y-137458380D01*
X102967809Y-136410761D02*
X102729714Y-137125047D01*
X103348761Y-137125047D01*
X104253523Y-137458380D02*
X103682095Y-137458380D01*
X103967809Y-137458380D02*
X103967809Y-136458380D01*
X103872571Y-136601238D01*
X103777333Y-136696476D01*
X103682095Y-136744095D01*
X105110666Y-136791714D02*
X105110666Y-137458380D01*
X104872571Y-136410761D02*
X104634476Y-137125047D01*
X105253523Y-137125047D01*
X105777333Y-136886952D02*
X105682095Y-136839333D01*
X105634476Y-136791714D01*
X105586857Y-136696476D01*
X105586857Y-136648857D01*
X105634476Y-136553619D01*
X105682095Y-136506000D01*
X105777333Y-136458380D01*
X105967809Y-136458380D01*
X106063047Y-136506000D01*
X106110666Y-136553619D01*
X106158285Y-136648857D01*
X106158285Y-136696476D01*
X106110666Y-136791714D01*
X106063047Y-136839333D01*
X105967809Y-136886952D01*
X105777333Y-136886952D01*
X105682095Y-136934571D01*
X105634476Y-136982190D01*
X105586857Y-137077428D01*
X105586857Y-137267904D01*
X105634476Y-137363142D01*
X105682095Y-137410761D01*
X105777333Y-137458380D01*
X105967809Y-137458380D01*
X106063047Y-137410761D01*
X106110666Y-137363142D01*
X106158285Y-137267904D01*
X106158285Y-137077428D01*
X106110666Y-136982190D01*
X106063047Y-136934571D01*
X105967809Y-136886952D01*
X102595904Y-139508380D02*
X102595904Y-138508380D01*
X102834000Y-138508380D01*
X102976857Y-138556000D01*
X103072095Y-138651238D01*
X103119714Y-138746476D01*
X103167333Y-138936952D01*
X103167333Y-139079809D01*
X103119714Y-139270285D01*
X103072095Y-139365523D01*
X102976857Y-139460761D01*
X102834000Y-139508380D01*
X102595904Y-139508380D01*
X104119714Y-139508380D02*
X103548285Y-139508380D01*
X103834000Y-139508380D02*
X103834000Y-138508380D01*
X103738761Y-138651238D01*
X103643523Y-138746476D01*
X103548285Y-138794095D01*
%TO.C,D2*%
X101501142Y-142258380D02*
X100929714Y-142258380D01*
X101215428Y-142258380D02*
X101215428Y-141258380D01*
X101120190Y-141401238D01*
X101024952Y-141496476D01*
X100929714Y-141544095D01*
X101929714Y-142258380D02*
X101929714Y-141258380D01*
X102501142Y-142258380D01*
X102501142Y-141258380D01*
X103405904Y-141591714D02*
X103405904Y-142258380D01*
X103167809Y-141210761D02*
X102929714Y-141925047D01*
X103548761Y-141925047D01*
X104453523Y-142258380D02*
X103882095Y-142258380D01*
X104167809Y-142258380D02*
X104167809Y-141258380D01*
X104072571Y-141401238D01*
X103977333Y-141496476D01*
X103882095Y-141544095D01*
X105310666Y-141591714D02*
X105310666Y-142258380D01*
X105072571Y-141210761D02*
X104834476Y-141925047D01*
X105453523Y-141925047D01*
X105977333Y-141686952D02*
X105882095Y-141639333D01*
X105834476Y-141591714D01*
X105786857Y-141496476D01*
X105786857Y-141448857D01*
X105834476Y-141353619D01*
X105882095Y-141306000D01*
X105977333Y-141258380D01*
X106167809Y-141258380D01*
X106263047Y-141306000D01*
X106310666Y-141353619D01*
X106358285Y-141448857D01*
X106358285Y-141496476D01*
X106310666Y-141591714D01*
X106263047Y-141639333D01*
X106167809Y-141686952D01*
X105977333Y-141686952D01*
X105882095Y-141734571D01*
X105834476Y-141782190D01*
X105786857Y-141877428D01*
X105786857Y-142067904D01*
X105834476Y-142163142D01*
X105882095Y-142210761D01*
X105977333Y-142258380D01*
X106167809Y-142258380D01*
X106263047Y-142210761D01*
X106310666Y-142163142D01*
X106358285Y-142067904D01*
X106358285Y-141877428D01*
X106310666Y-141782190D01*
X106263047Y-141734571D01*
X106167809Y-141686952D01*
X102715904Y-144508380D02*
X102715904Y-143508380D01*
X102954000Y-143508380D01*
X103096857Y-143556000D01*
X103192095Y-143651238D01*
X103239714Y-143746476D01*
X103287333Y-143936952D01*
X103287333Y-144079809D01*
X103239714Y-144270285D01*
X103192095Y-144365523D01*
X103096857Y-144460761D01*
X102954000Y-144508380D01*
X102715904Y-144508380D01*
X103668285Y-143603619D02*
X103715904Y-143556000D01*
X103811142Y-143508380D01*
X104049238Y-143508380D01*
X104144476Y-143556000D01*
X104192095Y-143603619D01*
X104239714Y-143698857D01*
X104239714Y-143794095D01*
X104192095Y-143936952D01*
X103620666Y-144508380D01*
X104239714Y-144508380D01*
%TO.C,DZ1*%
X82976857Y-125448380D02*
X82500666Y-125448380D01*
X82453047Y-125924571D01*
X82500666Y-125876952D01*
X82595904Y-125829333D01*
X82834000Y-125829333D01*
X82929238Y-125876952D01*
X82976857Y-125924571D01*
X83024476Y-126019809D01*
X83024476Y-126257904D01*
X82976857Y-126353142D01*
X82929238Y-126400761D01*
X82834000Y-126448380D01*
X82595904Y-126448380D01*
X82500666Y-126400761D01*
X82453047Y-126353142D01*
X83453047Y-126353142D02*
X83500666Y-126400761D01*
X83453047Y-126448380D01*
X83405428Y-126400761D01*
X83453047Y-126353142D01*
X83453047Y-126448380D01*
X84453047Y-126448380D02*
X83881619Y-126448380D01*
X84167333Y-126448380D02*
X84167333Y-125448380D01*
X84072095Y-125591238D01*
X83976857Y-125686476D01*
X83881619Y-125734095D01*
X84786380Y-125781714D02*
X85024476Y-126448380D01*
X85262571Y-125781714D01*
X82619714Y-128508380D02*
X82619714Y-127508380D01*
X82857809Y-127508380D01*
X83000666Y-127556000D01*
X83095904Y-127651238D01*
X83143523Y-127746476D01*
X83191142Y-127936952D01*
X83191142Y-128079809D01*
X83143523Y-128270285D01*
X83095904Y-128365523D01*
X83000666Y-128460761D01*
X82857809Y-128508380D01*
X82619714Y-128508380D01*
X83524476Y-127508380D02*
X84191142Y-127508380D01*
X83524476Y-128508380D01*
X84191142Y-128508380D01*
X85095904Y-128508380D02*
X84524476Y-128508380D01*
X84810190Y-128508380D02*
X84810190Y-127508380D01*
X84714952Y-127651238D01*
X84619714Y-127746476D01*
X84524476Y-127794095D01*
%TD*%
M02*
