M48
;DRILL file {KiCad no-vcs-found-e2d3fce~60~ubuntu14.04.1} date Sat Sep 23 20:08:20 2017
;FORMAT={3:3/ absolute / metric / suppress leading zeros}
FMAT,2
METRIC,TZ
T1C0.300
T2C0.600
T3C0.700
T4C0.800
T5C0.900
T6C1.000
T7C1.001
T8C1.200
T9C1.520
%
G90
G05
M71
T1
X66164Y-132036
X67184Y-134076
X119984Y-132036
X121004Y-134076
X122024Y-132036
X123044Y-134076
T2
X80394Y-137556
X81664Y-136286
X82934Y-137556
T3
X80024Y-124056
X87644Y-124056
X99644Y-148556
X107264Y-148556
X80024Y-131806
X87644Y-131806
X80194Y-120306
X87814Y-120306
X99644Y-135056
X107264Y-135056
T4
X87894Y-147806
X92894Y-147806
X114144Y-137476
X114144Y-140016
X114144Y-142556
X111644Y-147806
X116644Y-147806
X80024Y-128056
X87644Y-128056
X86644Y-135556
X86644Y-138096
X86644Y-140636
X86644Y-143176
X94264Y-135556
X94264Y-138096
X94264Y-140636
X94264Y-143176
T5
X99644Y-144056
X107264Y-144056
X80194Y-116306
X87814Y-116306
X80354Y-147056
X82894Y-147056
X99524Y-139056
X107144Y-139056
T6
X93144Y-119056
X95684Y-119056
X98224Y-119056
T7
X95724Y-126226
X95724Y-131306
T8
X111894Y-119056
X111894Y-126556
T9
X73644Y-142056
X73644Y-147136
X73644Y-129056
X73644Y-134136
X73644Y-116056
X73644Y-121136
T0
M30
