%TF.GenerationSoftware,KiCad,Pcbnew,no-vcs-found-e2505cb~60~ubuntu14.04.1*%
%TF.CreationDate,2017-09-17T03:40:50-03:00*%
%TF.ProjectId,RFIDZapper,524649445A61707065722E6B69636164,rev?*%
%TF.SameCoordinates,Original*%
%TF.FileFunction,Soldermask,Top*%
%TF.FilePolarity,Negative*%
%FSLAX46Y46*%
G04 Gerber Fmt 4.6, Leading zero omitted, Abs format (unit mm)*
G04 Created by KiCad (PCBNEW no-vcs-found-e2505cb~60~ubuntu14.04.1) date Sun Sep 17 03:40:50 2017*
%MOMM*%
%LPD*%
G01*
G04 APERTURE LIST*
%ADD10C,0.700000*%
%ADD11O,1.400000X1.400000*%
%ADD12C,1.400000*%
%ADD13O,1.800000X1.800000*%
%ADD14R,1.800000X1.800000*%
%ADD15C,3.000000*%
%ADD16R,3.000000X3.000000*%
%ADD17C,1.600000*%
%ADD18C,2.400000*%
%ADD19R,2.400000X2.400000*%
%ADD20C,1.800000*%
%ADD21C,1.998980*%
%ADD22R,1.000000X1.000000*%
%ADD23C,1.000000*%
%ADD24C,1.440000*%
%ADD25O,2.400000X1.600000*%
%ADD26R,2.400000X1.600000*%
%ADD27O,1.600000X1.600000*%
%ADD28R,1.600000X1.600000*%
G04 APERTURE END LIST*
D10*
%TO.C,AE1*%
X165044000Y-105826000D03*
X164024000Y-103786000D03*
X163004000Y-105826000D03*
X161984000Y-103786000D03*
X109184000Y-105826000D03*
X108164000Y-103786000D03*
%TD*%
D11*
%TO.C,R8*%
X148764000Y-91056000D03*
D12*
X141144000Y-91056000D03*
%TD*%
D11*
%TO.C,R3*%
X149014000Y-120306000D03*
D12*
X141394000Y-120306000D03*
%TD*%
D13*
%TO.C,Q2*%
X155894000Y-86476000D03*
X155894000Y-89016000D03*
D14*
X155894000Y-91556000D03*
%TD*%
D15*
%TO.C,BT1*%
X115394000Y-118886000D03*
D16*
X115394000Y-113806000D03*
%TD*%
D17*
%TO.C,C1*%
X153394000Y-119556000D03*
X158394000Y-119556000D03*
%TD*%
%TO.C,C2*%
X134644000Y-119556000D03*
X129644000Y-119556000D03*
%TD*%
D18*
%TO.C,C3*%
X133144000Y-93306000D03*
D19*
X125644000Y-93306000D03*
%TD*%
D20*
%TO.C,DL1*%
X122354000Y-119556000D03*
D14*
X124894000Y-119556000D03*
%TD*%
D21*
%TO.C,L1*%
X158224000Y-100886000D03*
X153144000Y-100886000D03*
%TD*%
D22*
%TO.C,Q1*%
X123144000Y-113306000D03*
D23*
X123144000Y-110766000D03*
X121874000Y-112036000D03*
%TD*%
D11*
%TO.C,R1*%
X149014000Y-106806000D03*
D12*
X141394000Y-106806000D03*
%TD*%
D24*
%TO.C,R2*%
X155894000Y-109226000D03*
X155894000Y-111766000D03*
X155894000Y-114306000D03*
%TD*%
D12*
%TO.C,R6*%
X148644000Y-98806000D03*
D11*
X141024000Y-98806000D03*
%TD*%
D12*
%TO.C,R9*%
X148644000Y-95306000D03*
D11*
X141024000Y-95306000D03*
%TD*%
D16*
%TO.C,SW_SPST1*%
X115394000Y-100806000D03*
D15*
X115394000Y-105886000D03*
%TD*%
%TO.C,SW_SPST3*%
X115394000Y-92886000D03*
D16*
X115394000Y-87806000D03*
%TD*%
D25*
%TO.C,U1*%
X136014000Y-107306000D03*
X128394000Y-114926000D03*
X136014000Y-109846000D03*
X128394000Y-112386000D03*
X136014000Y-112386000D03*
X128394000Y-109846000D03*
X136014000Y-114926000D03*
D26*
X128394000Y-107306000D03*
%TD*%
D13*
%TO.C,D1*%
X141274000Y-110806000D03*
D14*
X148894000Y-110806000D03*
%TD*%
D13*
%TO.C,D2*%
X149014000Y-115806000D03*
D14*
X141394000Y-115806000D03*
%TD*%
%TO.C,D3*%
X141144000Y-87056000D03*
D13*
X148764000Y-87056000D03*
%TD*%
D27*
%TO.C,DZ1*%
X141024000Y-101806000D03*
D28*
X148644000Y-101806000D03*
%TD*%
M02*
