%TF.GenerationSoftware,KiCad,Pcbnew,no-vcs-found-e2d3fce~60~ubuntu14.04.1*%
%TF.CreationDate,2017-09-21T01:59:31-03:00*%
%TF.ProjectId,RFIDZapper,524649445A61707065722E6B69636164,rev?*%
%TF.SameCoordinates,Original*%
%TF.FileFunction,Copper,L1,Top,Signal*%
%TF.FilePolarity,Positive*%
%FSLAX46Y46*%
G04 Gerber Fmt 4.6, Leading zero omitted, Abs format (unit mm)*
G04 Created by KiCad (PCBNEW no-vcs-found-e2d3fce~60~ubuntu14.04.1) date Thu Sep 21 01:59:31 2017*
%MOMM*%
%LPD*%
G01*
G04 APERTURE LIST*
%TA.AperFunction,EtchedComponent*%
%ADD10C,0.360000*%
%TD*%
%TA.AperFunction,ComponentPad*%
%ADD11C,0.700000*%
%TD*%
%TA.AperFunction,ComponentPad*%
%ADD12R,1.800000X1.800000*%
%TD*%
%TA.AperFunction,ComponentPad*%
%ADD13O,1.800000X1.800000*%
%TD*%
%TA.AperFunction,ComponentPad*%
%ADD14R,1.000000X1.000000*%
%TD*%
%TA.AperFunction,ComponentPad*%
%ADD15C,1.000000*%
%TD*%
%TA.AperFunction,ComponentPad*%
%ADD16O,1.400000X1.400000*%
%TD*%
%TA.AperFunction,ComponentPad*%
%ADD17C,1.400000*%
%TD*%
%TA.AperFunction,ComponentPad*%
%ADD18C,3.000000*%
%TD*%
%TA.AperFunction,ComponentPad*%
%ADD19R,3.000000X3.000000*%
%TD*%
%TA.AperFunction,ComponentPad*%
%ADD20C,1.600000*%
%TD*%
%TA.AperFunction,ComponentPad*%
%ADD21C,2.400000*%
%TD*%
%TA.AperFunction,ComponentPad*%
%ADD22R,2.400000X2.400000*%
%TD*%
%TA.AperFunction,ComponentPad*%
%ADD23C,1.800000*%
%TD*%
%TA.AperFunction,ComponentPad*%
%ADD24C,1.998980*%
%TD*%
%TA.AperFunction,ComponentPad*%
%ADD25C,1.440000*%
%TD*%
%TA.AperFunction,ComponentPad*%
%ADD26O,2.400000X1.600000*%
%TD*%
%TA.AperFunction,ComponentPad*%
%ADD27R,2.400000X1.600000*%
%TD*%
%TA.AperFunction,ComponentPad*%
%ADD28O,1.600000X1.600000*%
%TD*%
%TA.AperFunction,ComponentPad*%
%ADD29R,1.600000X1.600000*%
%TD*%
G04 APERTURE END LIST*
D10*
%TO.C,AE1*%
X107914000Y-103786000D02*
X108934000Y-105826000D01*
X161734000Y-103786000D02*
X162754000Y-105826000D01*
X163774000Y-103786000D02*
X164794000Y-105826000D01*
%TD*%
D11*
%TO.P,AE1,*%
%TO.N,*%
X164794000Y-105826000D03*
X163774000Y-103786000D03*
X162754000Y-105826000D03*
X161734000Y-103786000D03*
X108934000Y-105826000D03*
X107914000Y-103786000D03*
%TD*%
D12*
%TO.P,D3,1*%
%TO.N,Net-(C3-Pad1)*%
X121944000Y-88056000D03*
D13*
%TO.P,D3,2*%
%TO.N,Net-(D3-Pad2)*%
X129564000Y-88056000D03*
%TD*%
D14*
%TO.P,Q1,1*%
%TO.N,RST*%
X122144000Y-109306000D03*
D15*
%TO.P,Q1,3*%
%TO.N,GNDPWR*%
X124684000Y-109306000D03*
%TO.P,Q1,2*%
%TO.N,Net-(DZ1-Pad2)*%
X123414000Y-108036000D03*
%TD*%
D16*
%TO.P,R8,2*%
%TO.N,Net-(DZ1-Pad1)*%
X129564000Y-92056000D03*
D17*
%TO.P,R8,1*%
%TO.N,Net-(C3-Pad1)*%
X121944000Y-92056000D03*
%TD*%
D16*
%TO.P,R3,2*%
%TO.N,Net-(R2-Pad1)*%
X149014000Y-120306000D03*
D17*
%TO.P,R3,1*%
%TO.N,Net-(D2-Pad2)*%
X141394000Y-120306000D03*
%TD*%
D13*
%TO.P,Q2,3*%
%TO.N,GNDPWR*%
X139974000Y-90806000D03*
%TO.P,Q2,2*%
%TO.N,Net-(D3-Pad2)*%
X137434000Y-90806000D03*
D12*
%TO.P,Q2,1*%
%TO.N,OUT*%
X134894000Y-90806000D03*
%TD*%
D18*
%TO.P,BT1,2*%
%TO.N,GNDPWR*%
X115394000Y-118886000D03*
D19*
%TO.P,BT1,1*%
%TO.N,/VCC*%
X115394000Y-113806000D03*
%TD*%
D20*
%TO.P,C1,2*%
%TO.N,/THR*%
X153394000Y-119556000D03*
%TO.P,C1,1*%
%TO.N,GNDPWR*%
X158394000Y-119556000D03*
%TD*%
%TO.P,C2,1*%
%TO.N,/CV*%
X134644000Y-119556000D03*
%TO.P,C2,2*%
%TO.N,GNDPWR*%
X129644000Y-119556000D03*
%TD*%
D21*
%TO.P,C3,2*%
%TO.N,GNDPWR*%
X153644000Y-98306000D03*
D22*
%TO.P,C3,1*%
%TO.N,Net-(C3-Pad1)*%
X153644000Y-90806000D03*
%TD*%
D23*
%TO.P,DL1,2*%
%TO.N,Net-(DL1-Pad2)*%
X122104000Y-118806000D03*
D12*
%TO.P,DL1,1*%
%TO.N,RST*%
X124644000Y-118806000D03*
%TD*%
D24*
%TO.P,L1,2*%
%TO.N,Net-(D3-Pad2)*%
X137474000Y-97976000D03*
%TO.P,L1,1*%
%TO.N,/VDD*%
X137474000Y-103056000D03*
%TD*%
D16*
%TO.P,R1,2*%
%TO.N,Net-(R1-Pad2)*%
X149014000Y-106806000D03*
D17*
%TO.P,R1,1*%
%TO.N,Net-(D1-Pad1)*%
X141394000Y-106806000D03*
%TD*%
D25*
%TO.P,R2,3*%
%TO.N,Net-(R1-Pad2)*%
X155894000Y-109226000D03*
%TO.P,R2,2*%
%TO.N,/THR*%
X155894000Y-111766000D03*
%TO.P,R2,1*%
%TO.N,Net-(R2-Pad1)*%
X155894000Y-114306000D03*
%TD*%
D17*
%TO.P,R6,1*%
%TO.N,/VDD*%
X129394000Y-103556000D03*
D16*
%TO.P,R6,2*%
%TO.N,Net-(DL1-Pad2)*%
X121774000Y-103556000D03*
%TD*%
%TO.P,R9,2*%
%TO.N,GNDPWR*%
X121774000Y-95806000D03*
D17*
%TO.P,R9,1*%
%TO.N,Net-(DZ1-Pad1)*%
X129394000Y-95806000D03*
%TD*%
D19*
%TO.P,SW_SPST1,1*%
%TO.N,/VDD*%
X115394000Y-100806000D03*
D18*
%TO.P,SW_SPST1,2*%
%TO.N,/VCC*%
X115394000Y-105886000D03*
%TD*%
%TO.P,SW_SPST3,2*%
%TO.N,Net-(AE1-Pad1)*%
X115394000Y-92886000D03*
D19*
%TO.P,SW_SPST3,1*%
%TO.N,Net-(C3-Pad1)*%
X115394000Y-87806000D03*
%TD*%
D26*
%TO.P,U1,8*%
%TO.N,/VDD*%
X136014000Y-107306000D03*
%TO.P,U1,4*%
%TO.N,RST*%
X128394000Y-114926000D03*
%TO.P,U1,7*%
%TO.N,/DIS*%
X136014000Y-109846000D03*
%TO.P,U1,3*%
%TO.N,OUT*%
X128394000Y-112386000D03*
%TO.P,U1,6*%
%TO.N,/THR*%
X136014000Y-112386000D03*
%TO.P,U1,2*%
X128394000Y-109846000D03*
%TO.P,U1,5*%
%TO.N,/CV*%
X136014000Y-114926000D03*
D27*
%TO.P,U1,1*%
%TO.N,GNDPWR*%
X128394000Y-107306000D03*
%TD*%
D13*
%TO.P,D1,2*%
%TO.N,/DIS*%
X141274000Y-110806000D03*
D12*
%TO.P,D1,1*%
%TO.N,Net-(D1-Pad1)*%
X148894000Y-110806000D03*
%TD*%
D13*
%TO.P,D2,2*%
%TO.N,Net-(D2-Pad2)*%
X149014000Y-115806000D03*
D12*
%TO.P,D2,1*%
%TO.N,/DIS*%
X141394000Y-115806000D03*
%TD*%
D28*
%TO.P,DZ1,2*%
%TO.N,Net-(DZ1-Pad2)*%
X121774000Y-99806000D03*
D29*
%TO.P,DZ1,1*%
%TO.N,Net-(DZ1-Pad1)*%
X129394000Y-99806000D03*
%TD*%
M02*
