%TF.GenerationSoftware,KiCad,Pcbnew,no-vcs-found-e2d3fce~60~ubuntu14.04.1*%
%TF.CreationDate,2017-09-21T01:46:33-03:00*%
%TF.ProjectId,RFIDZapper,524649445A61707065722E6B69636164,rev?*%
%TF.SameCoordinates,Original*%
%TF.FileFunction,Legend,Bot*%
%TF.FilePolarity,Positive*%
%FSLAX46Y46*%
G04 Gerber Fmt 4.6, Leading zero omitted, Abs format (unit mm)*
G04 Created by KiCad (PCBNEW no-vcs-found-e2d3fce~60~ubuntu14.04.1) date Thu Sep 21 01:46:33 2017*
%MOMM*%
%LPD*%
G01*
G04 APERTURE LIST*
%ADD10C,0.075000*%
G04 APERTURE END LIST*
%TO.C,AE1*%
D10*
X110800000Y-100538000D02*
X110657142Y-100538000D01*
X110828571Y-100623714D02*
X110728571Y-100323714D01*
X110628571Y-100623714D01*
X110528571Y-100466571D02*
X110428571Y-100466571D01*
X110385714Y-100623714D02*
X110528571Y-100623714D01*
X110528571Y-100323714D01*
X110385714Y-100323714D01*
X110100000Y-100623714D02*
X110271428Y-100623714D01*
X110185714Y-100623714D02*
X110185714Y-100323714D01*
X110214285Y-100366571D01*
X110242857Y-100395142D01*
X110271428Y-100409428D01*
X112908857Y-108920000D02*
X112766000Y-108920000D01*
X112937428Y-109005714D02*
X112837428Y-108705714D01*
X112737428Y-109005714D01*
X112637428Y-108805714D02*
X112637428Y-109005714D01*
X112637428Y-108834285D02*
X112623142Y-108820000D01*
X112594571Y-108805714D01*
X112551714Y-108805714D01*
X112523142Y-108820000D01*
X112508857Y-108848571D01*
X112508857Y-109005714D01*
X112408857Y-108805714D02*
X112294571Y-108805714D01*
X112366000Y-108705714D02*
X112366000Y-108962857D01*
X112351714Y-108991428D01*
X112323142Y-109005714D01*
X112294571Y-109005714D01*
X112080285Y-108991428D02*
X112108857Y-109005714D01*
X112166000Y-109005714D01*
X112194571Y-108991428D01*
X112208857Y-108962857D01*
X112208857Y-108848571D01*
X112194571Y-108820000D01*
X112166000Y-108805714D01*
X112108857Y-108805714D01*
X112080285Y-108820000D01*
X112066000Y-108848571D01*
X112066000Y-108877142D01*
X112208857Y-108905714D01*
X111937428Y-108805714D02*
X111937428Y-109005714D01*
X111937428Y-108834285D02*
X111923142Y-108820000D01*
X111894571Y-108805714D01*
X111851714Y-108805714D01*
X111823142Y-108820000D01*
X111808857Y-108848571D01*
X111808857Y-109005714D01*
X111666000Y-108805714D02*
X111666000Y-109005714D01*
X111666000Y-108834285D02*
X111651714Y-108820000D01*
X111623142Y-108805714D01*
X111580285Y-108805714D01*
X111551714Y-108820000D01*
X111537428Y-108848571D01*
X111537428Y-109005714D01*
X111266000Y-109005714D02*
X111266000Y-108848571D01*
X111280285Y-108820000D01*
X111308857Y-108805714D01*
X111366000Y-108805714D01*
X111394571Y-108820000D01*
X111266000Y-108991428D02*
X111294571Y-109005714D01*
X111366000Y-109005714D01*
X111394571Y-108991428D01*
X111408857Y-108962857D01*
X111408857Y-108934285D01*
X111394571Y-108905714D01*
X111366000Y-108891428D01*
X111294571Y-108891428D01*
X111266000Y-108877142D01*
X111194571Y-109034285D02*
X110966000Y-109034285D01*
X110723142Y-109005714D02*
X110823142Y-108862857D01*
X110894571Y-109005714D02*
X110894571Y-108705714D01*
X110780285Y-108705714D01*
X110751714Y-108720000D01*
X110737428Y-108734285D01*
X110723142Y-108762857D01*
X110723142Y-108805714D01*
X110737428Y-108834285D01*
X110751714Y-108848571D01*
X110780285Y-108862857D01*
X110894571Y-108862857D01*
X110494571Y-108848571D02*
X110594571Y-108848571D01*
X110594571Y-109005714D02*
X110594571Y-108705714D01*
X110451714Y-108705714D01*
X110337428Y-109005714D02*
X110337428Y-108705714D01*
X110194571Y-109005714D02*
X110194571Y-108705714D01*
X110123142Y-108705714D01*
X110080285Y-108720000D01*
X110051714Y-108748571D01*
X110037428Y-108777142D01*
X110023142Y-108834285D01*
X110023142Y-108877142D01*
X110037428Y-108934285D01*
X110051714Y-108962857D01*
X110080285Y-108991428D01*
X110123142Y-109005714D01*
X110194571Y-109005714D01*
%TD*%
M02*
