M48
;DRILL file {KiCad no-vcs-found-e2505cb~60~ubuntu14.04.1} date Sun Sep 17 01:26:49 2017
;FORMAT={-:-/ absolute / inch / decimal}
FMAT,2
INCH,TZ
T1C0.012
T2C0.024
T3C0.028
T4C0.031
T5C0.035
T6C0.039
T7C0.039
T8C0.047
T9C0.060
%
G90
G05
M72
T1
X4.2584Y-4.0861
X4.2986Y-4.1664
X6.3773Y-4.0861
X6.4175Y-4.1664
X6.4576Y-4.0861
X6.4978Y-4.1664
T2
X4.7982Y-4.4109
X4.8482Y-4.3609
X4.8482Y-4.4609
T3
X5.5521Y-3.89
X5.8521Y-3.89
X5.5521Y-3.7522
X5.8521Y-3.7522
X5.5569Y-3.5849
X5.8569Y-3.5849
X5.5667Y-4.205
X5.8667Y-4.205
X5.5667Y-4.7365
X5.8667Y-4.7365
T4
X6.0391Y-4.7069
X6.236Y-4.7069
X6.1376Y-4.3002
X6.1376Y-4.4002
X6.1376Y-4.5002
X5.1041Y-4.7069
X5.3009Y-4.7069
X5.5521Y-4.0081
X5.8521Y-4.0081
X5.0549Y-4.2246
X5.0549Y-4.3246
X5.0549Y-4.4246
X5.0549Y-4.5246
X5.3549Y-4.2246
X5.3549Y-4.3246
X5.3549Y-4.4246
X5.3549Y-4.5246
T5
X5.562Y-4.3624
X5.862Y-4.3624
X5.5667Y-4.5593
X5.8667Y-4.5593
X5.5569Y-3.4274
X5.8569Y-3.4274
X4.8171Y-4.7069
X4.9171Y-4.7069
T6
X6.1376Y-3.4046
X6.1376Y-3.5046
X6.1376Y-3.6046
T7
X6.0293Y-3.9719
X6.2293Y-3.9719
T8
X4.9466Y-3.6735
X5.2419Y-3.6735
T9
X4.5431Y-4.4806
X4.5431Y-4.6806
X4.5431Y-3.4569
X4.5431Y-3.6569
X4.5431Y-3.9687
X4.5431Y-4.1687
T0
M30
