%TF.GenerationSoftware,KiCad,Pcbnew,no-vcs-found-e2505cb~60~ubuntu14.04.1*%
%TF.CreationDate,2017-09-17T01:26:45-03:00*%
%TF.ProjectId,RFIDZapper,524649445A61707065722E6B69636164,rev?*%
%TF.SameCoordinates,Original*%
%TF.FileFunction,Copper,L2,Bot,Signal*%
%TF.FilePolarity,Positive*%
%FSLAX46Y46*%
G04 Gerber Fmt 4.6, Leading zero omitted, Abs format (unit mm)*
G04 Created by KiCad (PCBNEW no-vcs-found-e2505cb~60~ubuntu14.04.1) date Sun Sep 17 01:26:45 2017*
%MOMM*%
%LPD*%
G01*
G04 APERTURE LIST*
%TA.AperFunction,EtchedComponent*%
%ADD10C,0.360000*%
%TD*%
%TA.AperFunction,ComponentPad*%
%ADD11C,0.700000*%
%TD*%
%TA.AperFunction,SMDPad,CuDef*%
%ADD12R,1.000000X1.000000*%
%TD*%
%TA.AperFunction,ComponentPad*%
%ADD13O,1.400000X1.400000*%
%TD*%
%TA.AperFunction,ComponentPad*%
%ADD14C,1.400000*%
%TD*%
%TA.AperFunction,ComponentPad*%
%ADD15O,1.800000X1.800000*%
%TD*%
%TA.AperFunction,ComponentPad*%
%ADD16R,1.800000X1.800000*%
%TD*%
%TA.AperFunction,ComponentPad*%
%ADD17C,3.000000*%
%TD*%
%TA.AperFunction,ComponentPad*%
%ADD18R,3.000000X3.000000*%
%TD*%
%TA.AperFunction,ComponentPad*%
%ADD19C,1.600000*%
%TD*%
%TA.AperFunction,ComponentPad*%
%ADD20C,2.400000*%
%TD*%
%TA.AperFunction,ComponentPad*%
%ADD21R,2.400000X2.400000*%
%TD*%
%TA.AperFunction,ComponentPad*%
%ADD22C,1.800000*%
%TD*%
%TA.AperFunction,ComponentPad*%
%ADD23C,1.998980*%
%TD*%
%TA.AperFunction,ComponentPad*%
%ADD24R,1.000000X1.000000*%
%TD*%
%TA.AperFunction,ComponentPad*%
%ADD25C,1.000000*%
%TD*%
%TA.AperFunction,ComponentPad*%
%ADD26C,1.440000*%
%TD*%
%TA.AperFunction,ComponentPad*%
%ADD27O,2.400000X1.600000*%
%TD*%
%TA.AperFunction,ComponentPad*%
%ADD28R,2.400000X1.600000*%
%TD*%
%TA.AperFunction,ComponentPad*%
%ADD29O,1.600000X1.600000*%
%TD*%
%TA.AperFunction,ComponentPad*%
%ADD30R,1.600000X1.600000*%
%TD*%
%TA.AperFunction,Conductor*%
%ADD31C,1.000000*%
%TD*%
%TA.AperFunction,Conductor*%
%ADD32C,0.254000*%
%TD*%
%TA.AperFunction,NonConductor*%
%ADD33C,0.254000*%
%TD*%
G04 APERTURE END LIST*
D10*
%TO.C,AE1*%
X163544000Y-127806000D02*
X165044000Y-126306000D01*
X108644000Y-127806000D02*
X107144000Y-126306000D01*
X165034000Y-83306000D02*
X163534000Y-81806000D01*
X107144000Y-83316000D02*
X108644000Y-81806000D01*
X109664000Y-126786000D02*
X108164000Y-125276000D01*
X110684000Y-125766000D02*
X109184000Y-124266000D01*
X162524000Y-126786000D02*
X164024000Y-125286000D01*
X161504000Y-125766000D02*
X163004000Y-124266000D01*
X164024000Y-84326000D02*
X162524000Y-82826000D01*
X163004000Y-85346000D02*
X161504000Y-83846000D01*
X108164000Y-84316000D02*
X109664000Y-82826000D01*
X109184000Y-85346000D02*
X110684000Y-83846000D01*
X161504000Y-125766000D02*
X110684000Y-125766000D01*
X162524000Y-126786000D02*
X109664000Y-126786000D01*
X108644000Y-127806000D02*
X163544000Y-127806000D01*
X163534000Y-81806000D02*
X108644000Y-81806000D01*
X109664000Y-82826000D02*
X162524000Y-82826000D01*
X161504000Y-83846000D02*
X110684000Y-83846000D01*
X160484000Y-124736000D02*
X161984000Y-123236000D01*
X161984000Y-86366000D02*
X160484000Y-84866000D01*
X110204000Y-86366000D02*
X111704000Y-84866000D01*
X111694000Y-124746000D02*
X110194000Y-123246000D01*
X160484000Y-124736000D02*
X111694000Y-124746000D01*
X160484000Y-84866000D02*
X111704000Y-84866000D01*
X108164000Y-105316000D02*
X109184000Y-104296000D01*
X109184000Y-85346000D02*
X109184000Y-104296000D01*
X108164000Y-105316000D02*
X108164000Y-125276000D01*
X110192000Y-98806000D02*
X110692000Y-99306000D01*
X110192000Y-86364000D02*
X110192000Y-98806000D01*
X110192000Y-110806000D02*
X110712000Y-110296000D01*
X110192000Y-123258000D02*
X110192000Y-110806000D01*
X107156000Y-83316000D02*
X107146000Y-126294000D01*
X108164000Y-84316000D02*
X108164000Y-103786000D01*
X109184000Y-105826000D02*
X109184000Y-124266000D01*
X161984000Y-86366000D02*
X161984000Y-103786000D01*
X163004000Y-105826000D02*
X163004000Y-124266000D01*
X165044000Y-105826000D02*
X165044000Y-126306000D01*
X164024000Y-84326000D02*
X164024000Y-103786000D01*
X163004000Y-104196000D02*
X161984000Y-105416000D01*
X163004000Y-85346000D02*
X163004000Y-104196000D01*
X161984000Y-105416000D02*
X161984000Y-123236000D01*
X164024000Y-105416000D02*
X164024000Y-125286000D01*
X165034000Y-104196000D02*
X164024000Y-105416000D01*
X165034000Y-83306000D02*
X165034000Y-104196000D01*
%TD*%
D11*
%TO.P,AE1,*%
%TO.N,*%
X165044000Y-105826000D03*
X164024000Y-103786000D03*
X163004000Y-105826000D03*
X161984000Y-103786000D03*
X109184000Y-105826000D03*
X108164000Y-103786000D03*
D12*
%TO.P,AE1,2*%
%TO.N,GNDPWR*%
X110692000Y-110306000D03*
%TO.P,AE1,1*%
%TO.N,Net-(AE1-Pad1)*%
X110692000Y-99306000D03*
%TD*%
D13*
%TO.P,R8,2*%
%TO.N,Net-(DZ1-Pad1)*%
X148764000Y-91056000D03*
D14*
%TO.P,R8,1*%
%TO.N,Net-(C3-Pad1)*%
X141144000Y-91056000D03*
%TD*%
D13*
%TO.P,R3,2*%
%TO.N,Net-(R2-Pad1)*%
X149014000Y-120306000D03*
D14*
%TO.P,R3,1*%
%TO.N,Net-(D2-Pad2)*%
X141394000Y-120306000D03*
%TD*%
D15*
%TO.P,Q2,3*%
%TO.N,GNDPWR*%
X155894000Y-86476000D03*
%TO.P,Q2,2*%
%TO.N,Net-(D3-Pad2)*%
X155894000Y-89016000D03*
D16*
%TO.P,Q2,1*%
%TO.N,OUT*%
X155894000Y-91556000D03*
%TD*%
D17*
%TO.P,BT1,2*%
%TO.N,GNDPWR*%
X115394000Y-118886000D03*
D18*
%TO.P,BT1,1*%
%TO.N,/VCC*%
X115394000Y-113806000D03*
%TD*%
D19*
%TO.P,C1,2*%
%TO.N,/THR*%
X153394000Y-119556000D03*
%TO.P,C1,1*%
%TO.N,GNDPWR*%
X158394000Y-119556000D03*
%TD*%
%TO.P,C2,1*%
%TO.N,/CV*%
X134644000Y-119556000D03*
%TO.P,C2,2*%
%TO.N,GNDPWR*%
X129644000Y-119556000D03*
%TD*%
D20*
%TO.P,C3,2*%
%TO.N,GNDPWR*%
X133144000Y-93306000D03*
D21*
%TO.P,C3,1*%
%TO.N,Net-(C3-Pad1)*%
X125644000Y-93306000D03*
%TD*%
D22*
%TO.P,DL1,2*%
%TO.N,Net-(DL1-Pad2)*%
X122354000Y-119556000D03*
D16*
%TO.P,DL1,1*%
%TO.N,RST*%
X124894000Y-119556000D03*
%TD*%
D23*
%TO.P,L1,2*%
%TO.N,Net-(D3-Pad2)*%
X158224000Y-100886000D03*
%TO.P,L1,1*%
%TO.N,/VDD*%
X153144000Y-100886000D03*
%TD*%
D24*
%TO.P,Q1,1*%
%TO.N,RST*%
X123144000Y-113306000D03*
D25*
%TO.P,Q1,3*%
%TO.N,GNDPWR*%
X123144000Y-110766000D03*
%TO.P,Q1,2*%
%TO.N,Net-(DZ1-Pad2)*%
X121874000Y-112036000D03*
%TD*%
D13*
%TO.P,R1,2*%
%TO.N,Net-(R1-Pad2)*%
X149014000Y-106806000D03*
D14*
%TO.P,R1,1*%
%TO.N,Net-(D1-Pad1)*%
X141394000Y-106806000D03*
%TD*%
D26*
%TO.P,R2,3*%
%TO.N,Net-(R1-Pad2)*%
X155894000Y-109226000D03*
%TO.P,R2,2*%
%TO.N,/THR*%
X155894000Y-111766000D03*
%TO.P,R2,1*%
%TO.N,Net-(R2-Pad1)*%
X155894000Y-114306000D03*
%TD*%
D14*
%TO.P,R6,1*%
%TO.N,/VDD*%
X148644000Y-98806000D03*
D13*
%TO.P,R6,2*%
%TO.N,Net-(DL1-Pad2)*%
X141024000Y-98806000D03*
%TD*%
D14*
%TO.P,R9,1*%
%TO.N,Net-(DZ1-Pad1)*%
X148644000Y-95306000D03*
D13*
%TO.P,R9,2*%
%TO.N,GNDPWR*%
X141024000Y-95306000D03*
%TD*%
D18*
%TO.P,SW_SPST1,1*%
%TO.N,/VDD*%
X115394000Y-100806000D03*
D17*
%TO.P,SW_SPST1,2*%
%TO.N,/VCC*%
X115394000Y-105886000D03*
%TD*%
%TO.P,SW_SPST3,2*%
%TO.N,Net-(AE1-Pad1)*%
X115394000Y-92886000D03*
D18*
%TO.P,SW_SPST3,1*%
%TO.N,Net-(C3-Pad1)*%
X115394000Y-87806000D03*
%TD*%
D27*
%TO.P,U1,8*%
%TO.N,/VDD*%
X136014000Y-107306000D03*
%TO.P,U1,4*%
%TO.N,RST*%
X128394000Y-114926000D03*
%TO.P,U1,7*%
%TO.N,/DIS*%
X136014000Y-109846000D03*
%TO.P,U1,3*%
%TO.N,OUT*%
X128394000Y-112386000D03*
%TO.P,U1,6*%
%TO.N,/THR*%
X136014000Y-112386000D03*
%TO.P,U1,2*%
X128394000Y-109846000D03*
%TO.P,U1,5*%
%TO.N,/CV*%
X136014000Y-114926000D03*
D28*
%TO.P,U1,1*%
%TO.N,GNDPWR*%
X128394000Y-107306000D03*
%TD*%
D15*
%TO.P,D1,2*%
%TO.N,/DIS*%
X141274000Y-110806000D03*
D16*
%TO.P,D1,1*%
%TO.N,Net-(D1-Pad1)*%
X148894000Y-110806000D03*
%TD*%
D15*
%TO.P,D2,2*%
%TO.N,Net-(D2-Pad2)*%
X149014000Y-115806000D03*
D16*
%TO.P,D2,1*%
%TO.N,/DIS*%
X141394000Y-115806000D03*
%TD*%
%TO.P,D3,1*%
%TO.N,Net-(C3-Pad1)*%
X141144000Y-87056000D03*
D15*
%TO.P,D3,2*%
%TO.N,Net-(D3-Pad2)*%
X148764000Y-87056000D03*
%TD*%
D29*
%TO.P,DZ1,2*%
%TO.N,Net-(DZ1-Pad2)*%
X141024000Y-101806000D03*
D30*
%TO.P,DZ1,1*%
%TO.N,Net-(DZ1-Pad1)*%
X148644000Y-101806000D03*
%TD*%
D31*
%TO.N,Net-(AE1-Pad1)*%
X110692000Y-99306000D02*
X111644000Y-99306000D01*
X111644000Y-99306000D02*
X115394000Y-95556000D01*
X115394000Y-95556000D02*
X115394000Y-92886000D01*
%TO.N,GNDPWR*%
X123144000Y-110766000D02*
X123184000Y-110766000D01*
X129644000Y-119556000D02*
X129394000Y-119556000D01*
X115394000Y-118886000D02*
X115394000Y-118806000D01*
X115394000Y-118806000D02*
X111894000Y-115306000D01*
X112814000Y-116306000D02*
X112814000Y-116226000D01*
X112814000Y-116226000D02*
X111894000Y-115306000D01*
X115394000Y-118886000D02*
X115474000Y-118886000D01*
X115474000Y-118886000D02*
X120144002Y-123556002D01*
X112814000Y-116306000D02*
X115394000Y-118886000D01*
X158394000Y-119556000D02*
X160394000Y-117556000D01*
X160394000Y-117556000D02*
X160644000Y-117306000D01*
X160644000Y-117306000D02*
X160644000Y-114806002D01*
X160644000Y-114806002D02*
X160644000Y-104806000D01*
X160644000Y-104806000D02*
X160394000Y-104556000D01*
X160394000Y-104556000D02*
X160394000Y-88806000D01*
X160394000Y-88806000D02*
X158064000Y-86476000D01*
X158064000Y-86476000D02*
X155894000Y-86476000D01*
X111894000Y-115306000D02*
X111894000Y-110306000D01*
X111894000Y-110306000D02*
X111192000Y-110306000D01*
X158394000Y-119556000D02*
X160144000Y-121306000D01*
X160144000Y-121306000D02*
X160144000Y-122556000D01*
X160144000Y-122556000D02*
X159143998Y-123556002D01*
X159143998Y-123556002D02*
X125393998Y-123556002D01*
X125393998Y-123556002D02*
X120144002Y-123556002D01*
%TO.N,Net-(C3-Pad1)*%
X141144000Y-91056000D02*
X141144000Y-87056000D01*
X124394000Y-87737000D02*
X141144000Y-87737000D01*
X141144000Y-87737000D02*
X141144000Y-87556000D01*
X125644000Y-93306000D02*
X125644000Y-87737000D01*
X125644000Y-87737000D02*
X125644000Y-88056000D01*
X125644000Y-88056000D02*
X125644000Y-87737000D01*
X114413000Y-87737000D02*
X124394000Y-87737000D01*
X124394000Y-87737000D02*
X125644000Y-87737000D01*
%TO.N,Net-(D1-Pad1)*%
X148894000Y-110806000D02*
X147144000Y-110806000D01*
X143144000Y-106806000D02*
X141394000Y-106806000D01*
X147144000Y-110806000D02*
X143144000Y-106806000D01*
%TO.N,Net-(D2-Pad2)*%
X141394000Y-120306000D02*
X142644000Y-120306000D01*
X147144000Y-115806000D02*
X149014000Y-115806000D01*
X142644000Y-120306000D02*
X147144000Y-115806000D01*
%TO.N,Net-(D3-Pad2)*%
X148764000Y-87056000D02*
X152644000Y-87056000D01*
X152644000Y-87056000D02*
X153394000Y-87806000D01*
X155894000Y-89016000D02*
X154604000Y-89016000D01*
X154604000Y-89016000D02*
X153394000Y-87806000D01*
X155894000Y-89016000D02*
X156854000Y-89016000D01*
X156854000Y-89016000D02*
X158224000Y-90386000D01*
X158224000Y-90386000D02*
X158224000Y-100886000D01*
%TO.N,/VCC*%
X115394000Y-113806000D02*
X115394000Y-105886000D01*
%TO.N,/THR*%
X157644000Y-112806000D02*
X157644000Y-115434676D01*
X157644000Y-115434676D02*
X156583338Y-116495338D01*
X155894000Y-111766000D02*
X156604000Y-111766000D01*
X156604000Y-111766000D02*
X157644000Y-112806000D01*
X153394000Y-119556000D02*
X153394000Y-117806000D01*
X153394000Y-117806000D02*
X154704662Y-116495338D01*
X154704662Y-116495338D02*
X156583338Y-116495338D01*
X153144000Y-111766000D02*
X153144000Y-111806000D01*
X153144000Y-111806000D02*
X153144000Y-111766000D01*
X155894000Y-111766000D02*
X153144000Y-111766000D01*
X153144000Y-111766000D02*
X151934000Y-111766000D01*
X151934000Y-111766000D02*
X150144000Y-113556000D01*
X148644000Y-113556000D02*
X150144000Y-113556000D01*
X137974000Y-112386000D02*
X138894000Y-113306000D01*
X138894000Y-113306000D02*
X138894000Y-116806000D01*
X138894000Y-116806000D02*
X140394000Y-118306000D01*
X140394000Y-118306000D02*
X142394000Y-118306000D01*
X142394000Y-118306000D02*
X147144000Y-113556000D01*
X147144000Y-113556000D02*
X148644000Y-113556000D01*
X136014000Y-112386000D02*
X137974000Y-112386000D01*
%TO.N,/VDD*%
X115394000Y-100806000D02*
X115644000Y-100806000D01*
X115644000Y-100806000D02*
X120644000Y-95806000D01*
X146644000Y-95556000D02*
X144144000Y-93056000D01*
X144144000Y-93056000D02*
X138394000Y-93056000D01*
X138394000Y-93056000D02*
X137644000Y-92306000D01*
X148644000Y-98806000D02*
X146644000Y-98806000D01*
X146644000Y-98806000D02*
X147144000Y-98806000D01*
X147144000Y-98806000D02*
X146644000Y-98806000D01*
X146644000Y-95556000D02*
X146644000Y-98806000D01*
X146644000Y-98806000D02*
X146644000Y-105056000D01*
X153144000Y-100886000D02*
X153144000Y-103556000D01*
X153144000Y-103556000D02*
X151644000Y-105056000D01*
X151644000Y-105056000D02*
X149394000Y-105056000D01*
X120644000Y-95806000D02*
X127394000Y-95806000D01*
X127394000Y-95806000D02*
X129394000Y-93806000D01*
X138519000Y-106681000D02*
X140144000Y-105056000D01*
X140144000Y-105056000D02*
X142144000Y-105056000D01*
X142144000Y-105056000D02*
X146644000Y-105056000D01*
X146644000Y-105056000D02*
X149394000Y-105056000D01*
X135644000Y-90306000D02*
X137644000Y-92306000D01*
X130644000Y-90306000D02*
X135644000Y-90306000D01*
X129394000Y-91556000D02*
X130644000Y-90306000D01*
X129394000Y-93806000D02*
X129394000Y-91556000D01*
X136014000Y-107306000D02*
X137894000Y-107306000D01*
X137894000Y-107306000D02*
X138519000Y-106681000D01*
X136014000Y-107306000D02*
X137144000Y-107306000D01*
%TO.N,/DIS*%
X141274000Y-110806000D02*
X141274000Y-115686000D01*
X136014000Y-109846000D02*
X140314000Y-109846000D01*
X140314000Y-109846000D02*
X141274000Y-110806000D01*
X141130000Y-115630000D02*
X141250000Y-115750000D01*
X141274000Y-115686000D02*
X141394000Y-115806000D01*
%TO.N,/THR*%
X136014000Y-112386000D02*
X133974000Y-112386000D01*
X133974000Y-112386000D02*
X131434000Y-109846000D01*
X131434000Y-109846000D02*
X128394000Y-109846000D01*
%TO.N,/CV*%
X136014000Y-114926000D02*
X136014000Y-118186000D01*
X136014000Y-118186000D02*
X134644000Y-119556000D01*
%TO.N,Net-(DL1-Pad2)*%
X122354000Y-119556000D02*
X122354000Y-117016000D01*
X122354000Y-117016000D02*
X118768999Y-113430999D01*
X122333338Y-100245338D02*
X137704662Y-100245338D01*
X137704662Y-100245338D02*
X139144000Y-98806000D01*
X139144000Y-98806000D02*
X141024000Y-98806000D01*
X121708338Y-100870338D02*
X122333338Y-100245338D01*
X121708338Y-100870338D02*
X118768999Y-103809677D01*
X118768999Y-103809677D02*
X118768999Y-113430999D01*
%TO.N,RST*%
X124894000Y-119556000D02*
X124894000Y-115056000D01*
X124894000Y-115056000D02*
X123144000Y-113306000D01*
X128394000Y-114926000D02*
X124764000Y-114926000D01*
X124764000Y-114926000D02*
X123144000Y-113306000D01*
%TO.N,Net-(DZ1-Pad2)*%
X141024000Y-101806000D02*
X122894000Y-101806000D01*
X122894000Y-101806000D02*
X121644000Y-103056000D01*
X120269001Y-110430999D02*
X120269001Y-104430999D01*
X120269001Y-104430999D02*
X121644000Y-103056000D01*
X121874000Y-112036000D02*
X121874000Y-112035998D01*
X121874000Y-112035998D02*
X120269001Y-110430999D01*
%TO.N,Net-(DZ1-Pad1)*%
X148644000Y-95306000D02*
X148644000Y-95806000D01*
X148644000Y-95806000D02*
X150894000Y-98056000D01*
X148644000Y-101806000D02*
X150894000Y-99556000D01*
X150894000Y-99556000D02*
X150894000Y-98056000D01*
X148644000Y-95306000D02*
X148644000Y-91176000D01*
X148644000Y-91176000D02*
X148764000Y-91056000D01*
%TO.N,OUT*%
X159144000Y-116056000D02*
X159144000Y-107556000D01*
X159144000Y-107556000D02*
X158394000Y-106806000D01*
X152644000Y-122056000D02*
X155144000Y-122056000D01*
X155144000Y-122056000D02*
X156394000Y-120806000D01*
X156394000Y-120806000D02*
X156394000Y-118806000D01*
X156394000Y-118806000D02*
X159144000Y-116056000D01*
X155894000Y-91556000D02*
X155894000Y-104306000D01*
X155894000Y-104306000D02*
X158394000Y-106806000D01*
X128394000Y-112386000D02*
X130474000Y-112386000D01*
X130474000Y-112386000D02*
X132144000Y-114056000D01*
X132144000Y-114056000D02*
X132144000Y-120806000D01*
X132144000Y-120806000D02*
X133394000Y-122056000D01*
X133394000Y-122056000D02*
X152644000Y-122056000D01*
%TO.N,Net-(R1-Pad2)*%
X155894000Y-109226000D02*
X154064000Y-109226000D01*
X154064000Y-109226000D02*
X151644000Y-106806000D01*
X149014000Y-106806000D02*
X151644000Y-106806000D01*
%TO.N,Net-(R2-Pad1)*%
X155894000Y-114306000D02*
X152894000Y-114306000D01*
X152894000Y-114306000D02*
X151144000Y-116056000D01*
X151144000Y-116056000D02*
X151144000Y-119306000D01*
X151144000Y-119306000D02*
X150144000Y-120306000D01*
X150144000Y-120306000D02*
X149014000Y-120306000D01*
%TD*%
D32*
%TO.N,GNDPWR*%
G36*
X154402954Y-86111258D02*
X154523003Y-86349000D01*
X155767000Y-86349000D01*
X155767000Y-86329000D01*
X156021000Y-86329000D01*
X156021000Y-86349000D01*
X157264997Y-86349000D01*
X157385046Y-86111258D01*
X157184451Y-85681000D01*
X160146416Y-85681000D01*
X161169000Y-86703584D01*
X161169000Y-103207793D01*
X161149445Y-103227314D01*
X160999172Y-103589212D01*
X160998830Y-103981069D01*
X161148471Y-104343229D01*
X161425314Y-104620555D01*
X161545130Y-104670307D01*
X161358741Y-104893242D01*
X161299588Y-105001520D01*
X161231038Y-105104113D01*
X161223879Y-105140106D01*
X161206285Y-105172311D01*
X161193071Y-105294986D01*
X161169000Y-105416000D01*
X161169000Y-122898416D01*
X160146347Y-123921069D01*
X112031515Y-123930931D01*
X111007000Y-122906416D01*
X111007000Y-120399970D01*
X114059635Y-120399970D01*
X114219418Y-120718739D01*
X115010187Y-121028723D01*
X115859387Y-121012497D01*
X116568582Y-120718739D01*
X116728365Y-120399970D01*
X115394000Y-119065605D01*
X114059635Y-120399970D01*
X111007000Y-120399970D01*
X111007000Y-118502187D01*
X113251277Y-118502187D01*
X113267503Y-119351387D01*
X113561261Y-120060582D01*
X113880030Y-120220365D01*
X115214395Y-118886000D01*
X115573605Y-118886000D01*
X116907970Y-120220365D01*
X117226739Y-120060582D01*
X117536723Y-119269813D01*
X117520497Y-118420613D01*
X117226739Y-117711418D01*
X116907970Y-117551635D01*
X115573605Y-118886000D01*
X115214395Y-118886000D01*
X113880030Y-117551635D01*
X113561261Y-117711418D01*
X113251277Y-118502187D01*
X111007000Y-118502187D01*
X111007000Y-117372030D01*
X114059635Y-117372030D01*
X115394000Y-118706395D01*
X116728365Y-117372030D01*
X116568582Y-117053261D01*
X115777813Y-116743277D01*
X114928613Y-116759503D01*
X114219418Y-117053261D01*
X114059635Y-117372030D01*
X111007000Y-117372030D01*
X111007000Y-112306000D01*
X113246560Y-112306000D01*
X113246560Y-115306000D01*
X113295843Y-115553765D01*
X113436191Y-115763809D01*
X113646235Y-115904157D01*
X113894000Y-115953440D01*
X116894000Y-115953440D01*
X117141765Y-115904157D01*
X117351809Y-115763809D01*
X117492157Y-115553765D01*
X117541440Y-115306000D01*
X117541440Y-112306000D01*
X117492157Y-112058235D01*
X117351809Y-111848191D01*
X117141765Y-111707843D01*
X116894000Y-111658560D01*
X116529000Y-111658560D01*
X116529000Y-107727100D01*
X116601800Y-107697020D01*
X117202909Y-107096959D01*
X117528628Y-106312541D01*
X117529370Y-105463185D01*
X117205020Y-104678200D01*
X116604959Y-104077091D01*
X115820541Y-103751372D01*
X114971185Y-103750630D01*
X114186200Y-104074980D01*
X113585091Y-104675041D01*
X113259372Y-105459459D01*
X113258630Y-106308815D01*
X113582980Y-107093800D01*
X114183041Y-107694909D01*
X114259000Y-107726450D01*
X114259000Y-111658560D01*
X113894000Y-111658560D01*
X113646235Y-111707843D01*
X113436191Y-111848191D01*
X113295843Y-112058235D01*
X113246560Y-112306000D01*
X111007000Y-112306000D01*
X111007000Y-111441000D01*
X111318309Y-111441000D01*
X111551698Y-111344327D01*
X111730327Y-111165699D01*
X111827000Y-110932310D01*
X111827000Y-110591750D01*
X111668250Y-110433000D01*
X111499979Y-110433000D01*
X111526961Y-110303912D01*
X111503373Y-110179000D01*
X111668250Y-110179000D01*
X111827000Y-110020250D01*
X111827000Y-109679690D01*
X111730327Y-109446301D01*
X111551698Y-109267673D01*
X111318309Y-109171000D01*
X110977750Y-109171000D01*
X110819000Y-109329750D01*
X110819000Y-109501751D01*
X110719912Y-109481039D01*
X110565000Y-109510292D01*
X110565000Y-109329750D01*
X110406250Y-109171000D01*
X110065691Y-109171000D01*
X109999000Y-109198624D01*
X109999000Y-106404207D01*
X110018555Y-106384686D01*
X110168828Y-106022788D01*
X110169170Y-105630931D01*
X110019529Y-105268771D01*
X109742686Y-104991445D01*
X109670933Y-104961651D01*
X109760292Y-104872292D01*
X109936962Y-104607887D01*
X109999000Y-104296000D01*
X109999000Y-100415050D01*
X110192000Y-100453440D01*
X111192000Y-100453440D01*
X111254541Y-100441000D01*
X111644000Y-100441000D01*
X112078346Y-100354603D01*
X112446566Y-100108566D01*
X113246560Y-99308572D01*
X113246560Y-102306000D01*
X113295843Y-102553765D01*
X113436191Y-102763809D01*
X113646235Y-102904157D01*
X113894000Y-102953440D01*
X116894000Y-102953440D01*
X117141765Y-102904157D01*
X117351809Y-102763809D01*
X117492157Y-102553765D01*
X117541440Y-102306000D01*
X117541440Y-100513692D01*
X121114132Y-96941000D01*
X127394000Y-96941000D01*
X127828346Y-96854603D01*
X128196566Y-96608566D01*
X129165803Y-95639329D01*
X139731284Y-95639329D01*
X139874203Y-95984396D01*
X140221337Y-96372764D01*
X140690669Y-96598727D01*
X140897000Y-96476206D01*
X140897000Y-95433000D01*
X141151000Y-95433000D01*
X141151000Y-96476206D01*
X141357331Y-96598727D01*
X141826663Y-96372764D01*
X142173797Y-95984396D01*
X142316716Y-95639329D01*
X142193374Y-95433000D01*
X141151000Y-95433000D01*
X140897000Y-95433000D01*
X139854626Y-95433000D01*
X139731284Y-95639329D01*
X129165803Y-95639329D01*
X130196566Y-94608566D01*
X130200168Y-94603175D01*
X132026430Y-94603175D01*
X132149565Y-94890788D01*
X132831734Y-95150707D01*
X133561443Y-95129786D01*
X134138435Y-94890788D01*
X134261570Y-94603175D01*
X133144000Y-93485605D01*
X132026430Y-94603175D01*
X130200168Y-94603175D01*
X130308530Y-94441000D01*
X130442603Y-94240346D01*
X130529000Y-93806000D01*
X130529000Y-92993734D01*
X131299293Y-92993734D01*
X131320214Y-93723443D01*
X131559212Y-94300435D01*
X131846825Y-94423570D01*
X132964395Y-93306000D01*
X133323605Y-93306000D01*
X134441175Y-94423570D01*
X134728788Y-94300435D01*
X134988707Y-93618266D01*
X134967786Y-92888557D01*
X134728788Y-92311565D01*
X134441175Y-92188430D01*
X133323605Y-93306000D01*
X132964395Y-93306000D01*
X131846825Y-92188430D01*
X131559212Y-92311565D01*
X131299293Y-92993734D01*
X130529000Y-92993734D01*
X130529000Y-92026132D01*
X130546307Y-92008825D01*
X132026430Y-92008825D01*
X133144000Y-93126395D01*
X134261570Y-92008825D01*
X134138435Y-91721212D01*
X133456266Y-91461293D01*
X132726557Y-91482214D01*
X132149565Y-91721212D01*
X132026430Y-92008825D01*
X130546307Y-92008825D01*
X131114132Y-91441000D01*
X135173868Y-91441000D01*
X137591434Y-93858566D01*
X137959654Y-94104603D01*
X138394000Y-94191000D01*
X140321525Y-94191000D01*
X140221337Y-94239236D01*
X139874203Y-94627604D01*
X139731284Y-94972671D01*
X139854626Y-95179000D01*
X140897000Y-95179000D01*
X140897000Y-95159000D01*
X141151000Y-95159000D01*
X141151000Y-95179000D01*
X142193374Y-95179000D01*
X142316716Y-94972671D01*
X142173797Y-94627604D01*
X141826663Y-94239236D01*
X141726475Y-94191000D01*
X143673868Y-94191000D01*
X145509000Y-96026132D01*
X145509000Y-103921000D01*
X140144000Y-103921000D01*
X139709654Y-104007397D01*
X139434873Y-104191000D01*
X139341434Y-104253434D01*
X137716436Y-105878432D01*
X137716433Y-105878434D01*
X137423867Y-106171000D01*
X137284604Y-106171000D01*
X136999101Y-105980233D01*
X136449950Y-105871000D01*
X135578050Y-105871000D01*
X135028899Y-105980233D01*
X134563352Y-106291302D01*
X134252283Y-106756849D01*
X134143050Y-107306000D01*
X134252283Y-107855151D01*
X134563352Y-108320698D01*
X134945438Y-108576000D01*
X134563352Y-108831302D01*
X134252283Y-109296849D01*
X134143050Y-109846000D01*
X134252283Y-110395151D01*
X134563352Y-110860698D01*
X134945438Y-111116000D01*
X134743396Y-111251000D01*
X134444133Y-111251000D01*
X132236566Y-109043434D01*
X132108190Y-108957656D01*
X131868346Y-108797397D01*
X131434000Y-108711000D01*
X129792735Y-108711000D01*
X129953698Y-108644327D01*
X130132327Y-108465699D01*
X130229000Y-108232310D01*
X130229000Y-107591750D01*
X130070250Y-107433000D01*
X128521000Y-107433000D01*
X128521000Y-107453000D01*
X128267000Y-107453000D01*
X128267000Y-107433000D01*
X126717750Y-107433000D01*
X126559000Y-107591750D01*
X126559000Y-108232310D01*
X126655673Y-108465699D01*
X126834302Y-108644327D01*
X127067691Y-108741000D01*
X127078498Y-108741000D01*
X126943352Y-108831302D01*
X126632283Y-109296849D01*
X126523050Y-109846000D01*
X126632283Y-110395151D01*
X126943352Y-110860698D01*
X127325438Y-111116000D01*
X126943352Y-111371302D01*
X126632283Y-111836849D01*
X126523050Y-112386000D01*
X126632283Y-112935151D01*
X126943352Y-113400698D01*
X127325438Y-113656000D01*
X127123396Y-113791000D01*
X125234132Y-113791000D01*
X124291440Y-112848308D01*
X124291440Y-112806000D01*
X124242157Y-112558235D01*
X124101809Y-112348191D01*
X123891765Y-112207843D01*
X123644000Y-112158560D01*
X123008894Y-112158560D01*
X123009108Y-111913394D01*
X123449375Y-111882217D01*
X123717352Y-111771217D01*
X123754499Y-111556104D01*
X123144000Y-110945605D01*
X123129858Y-110959748D01*
X122950253Y-110780143D01*
X122964395Y-110766000D01*
X123323605Y-110766000D01*
X123934104Y-111376499D01*
X124149217Y-111339352D01*
X124292112Y-110911028D01*
X124260217Y-110460625D01*
X124149217Y-110192648D01*
X123934104Y-110155501D01*
X123323605Y-110766000D01*
X122964395Y-110766000D01*
X122353896Y-110155501D01*
X122138783Y-110192648D01*
X122012953Y-110569819D01*
X121419030Y-109975896D01*
X122533501Y-109975896D01*
X123144000Y-110586395D01*
X123754499Y-109975896D01*
X123717352Y-109760783D01*
X123289028Y-109617888D01*
X122838625Y-109649783D01*
X122570648Y-109760783D01*
X122533501Y-109975896D01*
X121419030Y-109975896D01*
X121404001Y-109960867D01*
X121404001Y-106379690D01*
X126559000Y-106379690D01*
X126559000Y-107020250D01*
X126717750Y-107179000D01*
X128267000Y-107179000D01*
X128267000Y-106029750D01*
X128521000Y-106029750D01*
X128521000Y-107179000D01*
X130070250Y-107179000D01*
X130229000Y-107020250D01*
X130229000Y-106379690D01*
X130132327Y-106146301D01*
X129953698Y-105967673D01*
X129720309Y-105871000D01*
X128679750Y-105871000D01*
X128521000Y-106029750D01*
X128267000Y-106029750D01*
X128108250Y-105871000D01*
X127067691Y-105871000D01*
X126834302Y-105967673D01*
X126655673Y-106146301D01*
X126559000Y-106379690D01*
X121404001Y-106379690D01*
X121404001Y-104901131D01*
X123364132Y-102941000D01*
X140161233Y-102941000D01*
X140446736Y-103131767D01*
X140995887Y-103241000D01*
X141052113Y-103241000D01*
X141601264Y-103131767D01*
X142066811Y-102820698D01*
X142377880Y-102355151D01*
X142487113Y-101806000D01*
X142377880Y-101256849D01*
X142066811Y-100791302D01*
X141601264Y-100480233D01*
X141052113Y-100371000D01*
X140995887Y-100371000D01*
X140446736Y-100480233D01*
X140161233Y-100671000D01*
X138884132Y-100671000D01*
X139614132Y-99941000D01*
X140339729Y-99941000D01*
X140486964Y-100039379D01*
X140997846Y-100141000D01*
X141050154Y-100141000D01*
X141561036Y-100039379D01*
X141994142Y-99749988D01*
X142283533Y-99316882D01*
X142385154Y-98806000D01*
X142283533Y-98295118D01*
X141994142Y-97862012D01*
X141561036Y-97572621D01*
X141050154Y-97471000D01*
X140997846Y-97471000D01*
X140486964Y-97572621D01*
X140339729Y-97671000D01*
X139144000Y-97671000D01*
X138709654Y-97757397D01*
X138341434Y-98003434D01*
X137234530Y-99110338D01*
X122333338Y-99110338D01*
X121927824Y-99191000D01*
X121898992Y-99196735D01*
X121530771Y-99442772D01*
X120905772Y-100067772D01*
X117966433Y-103007111D01*
X117720396Y-103375331D01*
X117633999Y-103809677D01*
X117633999Y-113430999D01*
X117720396Y-113865345D01*
X117847788Y-114056000D01*
X117966433Y-114233565D01*
X121219000Y-117486132D01*
X121219000Y-118520095D01*
X121053449Y-118685357D01*
X120819267Y-119249330D01*
X120818735Y-119859991D01*
X121051932Y-120424371D01*
X121483357Y-120856551D01*
X122047330Y-121090733D01*
X122657991Y-121091265D01*
X123222371Y-120858068D01*
X123392712Y-120688025D01*
X123395843Y-120703765D01*
X123536191Y-120913809D01*
X123746235Y-121054157D01*
X123994000Y-121103440D01*
X125794000Y-121103440D01*
X126041765Y-121054157D01*
X126251809Y-120913809D01*
X126392157Y-120703765D01*
X126420008Y-120563745D01*
X128815861Y-120563745D01*
X128889995Y-120809864D01*
X129427223Y-121002965D01*
X129997454Y-120975778D01*
X130398005Y-120809864D01*
X130472139Y-120563745D01*
X129644000Y-119735605D01*
X128815861Y-120563745D01*
X126420008Y-120563745D01*
X126441440Y-120456000D01*
X126441440Y-119339223D01*
X128197035Y-119339223D01*
X128224222Y-119909454D01*
X128390136Y-120310005D01*
X128636255Y-120384139D01*
X129464395Y-119556000D01*
X128636255Y-118727861D01*
X128390136Y-118801995D01*
X128197035Y-119339223D01*
X126441440Y-119339223D01*
X126441440Y-118656000D01*
X126420009Y-118548255D01*
X128815861Y-118548255D01*
X129644000Y-119376395D01*
X130472139Y-118548255D01*
X130398005Y-118302136D01*
X129860777Y-118109035D01*
X129290546Y-118136222D01*
X128889995Y-118302136D01*
X128815861Y-118548255D01*
X126420009Y-118548255D01*
X126392157Y-118408235D01*
X126251809Y-118198191D01*
X126041765Y-118057843D01*
X126029000Y-118055304D01*
X126029000Y-116061000D01*
X127123396Y-116061000D01*
X127408899Y-116251767D01*
X127958050Y-116361000D01*
X128829950Y-116361000D01*
X129379101Y-116251767D01*
X129844648Y-115940698D01*
X130155717Y-115475151D01*
X130264950Y-114926000D01*
X130155717Y-114376849D01*
X129844648Y-113911302D01*
X129462562Y-113656000D01*
X129664604Y-113521000D01*
X130003868Y-113521000D01*
X131009000Y-114526132D01*
X131009000Y-119070300D01*
X130897864Y-118801995D01*
X130651745Y-118727861D01*
X129823605Y-119556000D01*
X130651745Y-120384139D01*
X130897864Y-120310005D01*
X131009000Y-120000813D01*
X131009000Y-120806000D01*
X131095397Y-121240346D01*
X131226863Y-121437098D01*
X131341434Y-121608566D01*
X132591434Y-122858566D01*
X132959654Y-123104603D01*
X133394000Y-123191000D01*
X155144000Y-123191000D01*
X155578346Y-123104603D01*
X155946566Y-122858566D01*
X157196566Y-121608566D01*
X157311137Y-121437098D01*
X157442603Y-121240346D01*
X157529000Y-120806000D01*
X157529000Y-120600608D01*
X157565861Y-120563747D01*
X157639995Y-120809864D01*
X158177223Y-121002965D01*
X158747454Y-120975778D01*
X159148005Y-120809864D01*
X159222139Y-120563745D01*
X158394000Y-119735605D01*
X158379858Y-119749748D01*
X158200252Y-119570142D01*
X158214395Y-119556000D01*
X158573605Y-119556000D01*
X159401745Y-120384139D01*
X159647864Y-120310005D01*
X159840965Y-119772777D01*
X159813778Y-119202546D01*
X159647864Y-118801995D01*
X159401745Y-118727861D01*
X158573605Y-119556000D01*
X158214395Y-119556000D01*
X158200252Y-119541858D01*
X158379858Y-119362252D01*
X158394000Y-119376395D01*
X159222139Y-118548255D01*
X159148005Y-118302136D01*
X158673538Y-118131594D01*
X159946566Y-116858566D01*
X159971667Y-116821000D01*
X160192603Y-116490346D01*
X160279000Y-116056000D01*
X160279000Y-107556000D01*
X160192603Y-107121654D01*
X159946566Y-106753434D01*
X157029000Y-103835868D01*
X157029000Y-102002451D01*
X157296927Y-102270846D01*
X157897453Y-102520206D01*
X158547694Y-102520774D01*
X159148655Y-102272462D01*
X159608846Y-101813073D01*
X159858206Y-101212547D01*
X159858774Y-100562306D01*
X159610462Y-99961345D01*
X159359000Y-99709444D01*
X159359000Y-90386000D01*
X159332631Y-90253434D01*
X159272604Y-89951655D01*
X159026566Y-89583434D01*
X157656566Y-88213434D01*
X157493689Y-88104603D01*
X157288346Y-87967397D01*
X156983591Y-87906777D01*
X156979409Y-87900519D01*
X156741418Y-87741499D01*
X157131966Y-87383576D01*
X157385046Y-86840742D01*
X157264997Y-86603000D01*
X156021000Y-86603000D01*
X156021000Y-86623000D01*
X155767000Y-86623000D01*
X155767000Y-86603000D01*
X154523003Y-86603000D01*
X154402954Y-86840742D01*
X154656034Y-87383576D01*
X155046582Y-87741499D01*
X154979472Y-87786340D01*
X153446566Y-86253434D01*
X153308229Y-86161000D01*
X153078346Y-86007397D01*
X152644000Y-85921000D01*
X149805263Y-85921000D01*
X149446077Y-85681000D01*
X154603549Y-85681000D01*
X154402954Y-86111258D01*
X154402954Y-86111258D01*
G37*
X154402954Y-86111258D02*
X154523003Y-86349000D01*
X155767000Y-86349000D01*
X155767000Y-86329000D01*
X156021000Y-86329000D01*
X156021000Y-86349000D01*
X157264997Y-86349000D01*
X157385046Y-86111258D01*
X157184451Y-85681000D01*
X160146416Y-85681000D01*
X161169000Y-86703584D01*
X161169000Y-103207793D01*
X161149445Y-103227314D01*
X160999172Y-103589212D01*
X160998830Y-103981069D01*
X161148471Y-104343229D01*
X161425314Y-104620555D01*
X161545130Y-104670307D01*
X161358741Y-104893242D01*
X161299588Y-105001520D01*
X161231038Y-105104113D01*
X161223879Y-105140106D01*
X161206285Y-105172311D01*
X161193071Y-105294986D01*
X161169000Y-105416000D01*
X161169000Y-122898416D01*
X160146347Y-123921069D01*
X112031515Y-123930931D01*
X111007000Y-122906416D01*
X111007000Y-120399970D01*
X114059635Y-120399970D01*
X114219418Y-120718739D01*
X115010187Y-121028723D01*
X115859387Y-121012497D01*
X116568582Y-120718739D01*
X116728365Y-120399970D01*
X115394000Y-119065605D01*
X114059635Y-120399970D01*
X111007000Y-120399970D01*
X111007000Y-118502187D01*
X113251277Y-118502187D01*
X113267503Y-119351387D01*
X113561261Y-120060582D01*
X113880030Y-120220365D01*
X115214395Y-118886000D01*
X115573605Y-118886000D01*
X116907970Y-120220365D01*
X117226739Y-120060582D01*
X117536723Y-119269813D01*
X117520497Y-118420613D01*
X117226739Y-117711418D01*
X116907970Y-117551635D01*
X115573605Y-118886000D01*
X115214395Y-118886000D01*
X113880030Y-117551635D01*
X113561261Y-117711418D01*
X113251277Y-118502187D01*
X111007000Y-118502187D01*
X111007000Y-117372030D01*
X114059635Y-117372030D01*
X115394000Y-118706395D01*
X116728365Y-117372030D01*
X116568582Y-117053261D01*
X115777813Y-116743277D01*
X114928613Y-116759503D01*
X114219418Y-117053261D01*
X114059635Y-117372030D01*
X111007000Y-117372030D01*
X111007000Y-112306000D01*
X113246560Y-112306000D01*
X113246560Y-115306000D01*
X113295843Y-115553765D01*
X113436191Y-115763809D01*
X113646235Y-115904157D01*
X113894000Y-115953440D01*
X116894000Y-115953440D01*
X117141765Y-115904157D01*
X117351809Y-115763809D01*
X117492157Y-115553765D01*
X117541440Y-115306000D01*
X117541440Y-112306000D01*
X117492157Y-112058235D01*
X117351809Y-111848191D01*
X117141765Y-111707843D01*
X116894000Y-111658560D01*
X116529000Y-111658560D01*
X116529000Y-107727100D01*
X116601800Y-107697020D01*
X117202909Y-107096959D01*
X117528628Y-106312541D01*
X117529370Y-105463185D01*
X117205020Y-104678200D01*
X116604959Y-104077091D01*
X115820541Y-103751372D01*
X114971185Y-103750630D01*
X114186200Y-104074980D01*
X113585091Y-104675041D01*
X113259372Y-105459459D01*
X113258630Y-106308815D01*
X113582980Y-107093800D01*
X114183041Y-107694909D01*
X114259000Y-107726450D01*
X114259000Y-111658560D01*
X113894000Y-111658560D01*
X113646235Y-111707843D01*
X113436191Y-111848191D01*
X113295843Y-112058235D01*
X113246560Y-112306000D01*
X111007000Y-112306000D01*
X111007000Y-111441000D01*
X111318309Y-111441000D01*
X111551698Y-111344327D01*
X111730327Y-111165699D01*
X111827000Y-110932310D01*
X111827000Y-110591750D01*
X111668250Y-110433000D01*
X111499979Y-110433000D01*
X111526961Y-110303912D01*
X111503373Y-110179000D01*
X111668250Y-110179000D01*
X111827000Y-110020250D01*
X111827000Y-109679690D01*
X111730327Y-109446301D01*
X111551698Y-109267673D01*
X111318309Y-109171000D01*
X110977750Y-109171000D01*
X110819000Y-109329750D01*
X110819000Y-109501751D01*
X110719912Y-109481039D01*
X110565000Y-109510292D01*
X110565000Y-109329750D01*
X110406250Y-109171000D01*
X110065691Y-109171000D01*
X109999000Y-109198624D01*
X109999000Y-106404207D01*
X110018555Y-106384686D01*
X110168828Y-106022788D01*
X110169170Y-105630931D01*
X110019529Y-105268771D01*
X109742686Y-104991445D01*
X109670933Y-104961651D01*
X109760292Y-104872292D01*
X109936962Y-104607887D01*
X109999000Y-104296000D01*
X109999000Y-100415050D01*
X110192000Y-100453440D01*
X111192000Y-100453440D01*
X111254541Y-100441000D01*
X111644000Y-100441000D01*
X112078346Y-100354603D01*
X112446566Y-100108566D01*
X113246560Y-99308572D01*
X113246560Y-102306000D01*
X113295843Y-102553765D01*
X113436191Y-102763809D01*
X113646235Y-102904157D01*
X113894000Y-102953440D01*
X116894000Y-102953440D01*
X117141765Y-102904157D01*
X117351809Y-102763809D01*
X117492157Y-102553765D01*
X117541440Y-102306000D01*
X117541440Y-100513692D01*
X121114132Y-96941000D01*
X127394000Y-96941000D01*
X127828346Y-96854603D01*
X128196566Y-96608566D01*
X129165803Y-95639329D01*
X139731284Y-95639329D01*
X139874203Y-95984396D01*
X140221337Y-96372764D01*
X140690669Y-96598727D01*
X140897000Y-96476206D01*
X140897000Y-95433000D01*
X141151000Y-95433000D01*
X141151000Y-96476206D01*
X141357331Y-96598727D01*
X141826663Y-96372764D01*
X142173797Y-95984396D01*
X142316716Y-95639329D01*
X142193374Y-95433000D01*
X141151000Y-95433000D01*
X140897000Y-95433000D01*
X139854626Y-95433000D01*
X139731284Y-95639329D01*
X129165803Y-95639329D01*
X130196566Y-94608566D01*
X130200168Y-94603175D01*
X132026430Y-94603175D01*
X132149565Y-94890788D01*
X132831734Y-95150707D01*
X133561443Y-95129786D01*
X134138435Y-94890788D01*
X134261570Y-94603175D01*
X133144000Y-93485605D01*
X132026430Y-94603175D01*
X130200168Y-94603175D01*
X130308530Y-94441000D01*
X130442603Y-94240346D01*
X130529000Y-93806000D01*
X130529000Y-92993734D01*
X131299293Y-92993734D01*
X131320214Y-93723443D01*
X131559212Y-94300435D01*
X131846825Y-94423570D01*
X132964395Y-93306000D01*
X133323605Y-93306000D01*
X134441175Y-94423570D01*
X134728788Y-94300435D01*
X134988707Y-93618266D01*
X134967786Y-92888557D01*
X134728788Y-92311565D01*
X134441175Y-92188430D01*
X133323605Y-93306000D01*
X132964395Y-93306000D01*
X131846825Y-92188430D01*
X131559212Y-92311565D01*
X131299293Y-92993734D01*
X130529000Y-92993734D01*
X130529000Y-92026132D01*
X130546307Y-92008825D01*
X132026430Y-92008825D01*
X133144000Y-93126395D01*
X134261570Y-92008825D01*
X134138435Y-91721212D01*
X133456266Y-91461293D01*
X132726557Y-91482214D01*
X132149565Y-91721212D01*
X132026430Y-92008825D01*
X130546307Y-92008825D01*
X131114132Y-91441000D01*
X135173868Y-91441000D01*
X137591434Y-93858566D01*
X137959654Y-94104603D01*
X138394000Y-94191000D01*
X140321525Y-94191000D01*
X140221337Y-94239236D01*
X139874203Y-94627604D01*
X139731284Y-94972671D01*
X139854626Y-95179000D01*
X140897000Y-95179000D01*
X140897000Y-95159000D01*
X141151000Y-95159000D01*
X141151000Y-95179000D01*
X142193374Y-95179000D01*
X142316716Y-94972671D01*
X142173797Y-94627604D01*
X141826663Y-94239236D01*
X141726475Y-94191000D01*
X143673868Y-94191000D01*
X145509000Y-96026132D01*
X145509000Y-103921000D01*
X140144000Y-103921000D01*
X139709654Y-104007397D01*
X139434873Y-104191000D01*
X139341434Y-104253434D01*
X137716436Y-105878432D01*
X137716433Y-105878434D01*
X137423867Y-106171000D01*
X137284604Y-106171000D01*
X136999101Y-105980233D01*
X136449950Y-105871000D01*
X135578050Y-105871000D01*
X135028899Y-105980233D01*
X134563352Y-106291302D01*
X134252283Y-106756849D01*
X134143050Y-107306000D01*
X134252283Y-107855151D01*
X134563352Y-108320698D01*
X134945438Y-108576000D01*
X134563352Y-108831302D01*
X134252283Y-109296849D01*
X134143050Y-109846000D01*
X134252283Y-110395151D01*
X134563352Y-110860698D01*
X134945438Y-111116000D01*
X134743396Y-111251000D01*
X134444133Y-111251000D01*
X132236566Y-109043434D01*
X132108190Y-108957656D01*
X131868346Y-108797397D01*
X131434000Y-108711000D01*
X129792735Y-108711000D01*
X129953698Y-108644327D01*
X130132327Y-108465699D01*
X130229000Y-108232310D01*
X130229000Y-107591750D01*
X130070250Y-107433000D01*
X128521000Y-107433000D01*
X128521000Y-107453000D01*
X128267000Y-107453000D01*
X128267000Y-107433000D01*
X126717750Y-107433000D01*
X126559000Y-107591750D01*
X126559000Y-108232310D01*
X126655673Y-108465699D01*
X126834302Y-108644327D01*
X127067691Y-108741000D01*
X127078498Y-108741000D01*
X126943352Y-108831302D01*
X126632283Y-109296849D01*
X126523050Y-109846000D01*
X126632283Y-110395151D01*
X126943352Y-110860698D01*
X127325438Y-111116000D01*
X126943352Y-111371302D01*
X126632283Y-111836849D01*
X126523050Y-112386000D01*
X126632283Y-112935151D01*
X126943352Y-113400698D01*
X127325438Y-113656000D01*
X127123396Y-113791000D01*
X125234132Y-113791000D01*
X124291440Y-112848308D01*
X124291440Y-112806000D01*
X124242157Y-112558235D01*
X124101809Y-112348191D01*
X123891765Y-112207843D01*
X123644000Y-112158560D01*
X123008894Y-112158560D01*
X123009108Y-111913394D01*
X123449375Y-111882217D01*
X123717352Y-111771217D01*
X123754499Y-111556104D01*
X123144000Y-110945605D01*
X123129858Y-110959748D01*
X122950253Y-110780143D01*
X122964395Y-110766000D01*
X123323605Y-110766000D01*
X123934104Y-111376499D01*
X124149217Y-111339352D01*
X124292112Y-110911028D01*
X124260217Y-110460625D01*
X124149217Y-110192648D01*
X123934104Y-110155501D01*
X123323605Y-110766000D01*
X122964395Y-110766000D01*
X122353896Y-110155501D01*
X122138783Y-110192648D01*
X122012953Y-110569819D01*
X121419030Y-109975896D01*
X122533501Y-109975896D01*
X123144000Y-110586395D01*
X123754499Y-109975896D01*
X123717352Y-109760783D01*
X123289028Y-109617888D01*
X122838625Y-109649783D01*
X122570648Y-109760783D01*
X122533501Y-109975896D01*
X121419030Y-109975896D01*
X121404001Y-109960867D01*
X121404001Y-106379690D01*
X126559000Y-106379690D01*
X126559000Y-107020250D01*
X126717750Y-107179000D01*
X128267000Y-107179000D01*
X128267000Y-106029750D01*
X128521000Y-106029750D01*
X128521000Y-107179000D01*
X130070250Y-107179000D01*
X130229000Y-107020250D01*
X130229000Y-106379690D01*
X130132327Y-106146301D01*
X129953698Y-105967673D01*
X129720309Y-105871000D01*
X128679750Y-105871000D01*
X128521000Y-106029750D01*
X128267000Y-106029750D01*
X128108250Y-105871000D01*
X127067691Y-105871000D01*
X126834302Y-105967673D01*
X126655673Y-106146301D01*
X126559000Y-106379690D01*
X121404001Y-106379690D01*
X121404001Y-104901131D01*
X123364132Y-102941000D01*
X140161233Y-102941000D01*
X140446736Y-103131767D01*
X140995887Y-103241000D01*
X141052113Y-103241000D01*
X141601264Y-103131767D01*
X142066811Y-102820698D01*
X142377880Y-102355151D01*
X142487113Y-101806000D01*
X142377880Y-101256849D01*
X142066811Y-100791302D01*
X141601264Y-100480233D01*
X141052113Y-100371000D01*
X140995887Y-100371000D01*
X140446736Y-100480233D01*
X140161233Y-100671000D01*
X138884132Y-100671000D01*
X139614132Y-99941000D01*
X140339729Y-99941000D01*
X140486964Y-100039379D01*
X140997846Y-100141000D01*
X141050154Y-100141000D01*
X141561036Y-100039379D01*
X141994142Y-99749988D01*
X142283533Y-99316882D01*
X142385154Y-98806000D01*
X142283533Y-98295118D01*
X141994142Y-97862012D01*
X141561036Y-97572621D01*
X141050154Y-97471000D01*
X140997846Y-97471000D01*
X140486964Y-97572621D01*
X140339729Y-97671000D01*
X139144000Y-97671000D01*
X138709654Y-97757397D01*
X138341434Y-98003434D01*
X137234530Y-99110338D01*
X122333338Y-99110338D01*
X121927824Y-99191000D01*
X121898992Y-99196735D01*
X121530771Y-99442772D01*
X120905772Y-100067772D01*
X117966433Y-103007111D01*
X117720396Y-103375331D01*
X117633999Y-103809677D01*
X117633999Y-113430999D01*
X117720396Y-113865345D01*
X117847788Y-114056000D01*
X117966433Y-114233565D01*
X121219000Y-117486132D01*
X121219000Y-118520095D01*
X121053449Y-118685357D01*
X120819267Y-119249330D01*
X120818735Y-119859991D01*
X121051932Y-120424371D01*
X121483357Y-120856551D01*
X122047330Y-121090733D01*
X122657991Y-121091265D01*
X123222371Y-120858068D01*
X123392712Y-120688025D01*
X123395843Y-120703765D01*
X123536191Y-120913809D01*
X123746235Y-121054157D01*
X123994000Y-121103440D01*
X125794000Y-121103440D01*
X126041765Y-121054157D01*
X126251809Y-120913809D01*
X126392157Y-120703765D01*
X126420008Y-120563745D01*
X128815861Y-120563745D01*
X128889995Y-120809864D01*
X129427223Y-121002965D01*
X129997454Y-120975778D01*
X130398005Y-120809864D01*
X130472139Y-120563745D01*
X129644000Y-119735605D01*
X128815861Y-120563745D01*
X126420008Y-120563745D01*
X126441440Y-120456000D01*
X126441440Y-119339223D01*
X128197035Y-119339223D01*
X128224222Y-119909454D01*
X128390136Y-120310005D01*
X128636255Y-120384139D01*
X129464395Y-119556000D01*
X128636255Y-118727861D01*
X128390136Y-118801995D01*
X128197035Y-119339223D01*
X126441440Y-119339223D01*
X126441440Y-118656000D01*
X126420009Y-118548255D01*
X128815861Y-118548255D01*
X129644000Y-119376395D01*
X130472139Y-118548255D01*
X130398005Y-118302136D01*
X129860777Y-118109035D01*
X129290546Y-118136222D01*
X128889995Y-118302136D01*
X128815861Y-118548255D01*
X126420009Y-118548255D01*
X126392157Y-118408235D01*
X126251809Y-118198191D01*
X126041765Y-118057843D01*
X126029000Y-118055304D01*
X126029000Y-116061000D01*
X127123396Y-116061000D01*
X127408899Y-116251767D01*
X127958050Y-116361000D01*
X128829950Y-116361000D01*
X129379101Y-116251767D01*
X129844648Y-115940698D01*
X130155717Y-115475151D01*
X130264950Y-114926000D01*
X130155717Y-114376849D01*
X129844648Y-113911302D01*
X129462562Y-113656000D01*
X129664604Y-113521000D01*
X130003868Y-113521000D01*
X131009000Y-114526132D01*
X131009000Y-119070300D01*
X130897864Y-118801995D01*
X130651745Y-118727861D01*
X129823605Y-119556000D01*
X130651745Y-120384139D01*
X130897864Y-120310005D01*
X131009000Y-120000813D01*
X131009000Y-120806000D01*
X131095397Y-121240346D01*
X131226863Y-121437098D01*
X131341434Y-121608566D01*
X132591434Y-122858566D01*
X132959654Y-123104603D01*
X133394000Y-123191000D01*
X155144000Y-123191000D01*
X155578346Y-123104603D01*
X155946566Y-122858566D01*
X157196566Y-121608566D01*
X157311137Y-121437098D01*
X157442603Y-121240346D01*
X157529000Y-120806000D01*
X157529000Y-120600608D01*
X157565861Y-120563747D01*
X157639995Y-120809864D01*
X158177223Y-121002965D01*
X158747454Y-120975778D01*
X159148005Y-120809864D01*
X159222139Y-120563745D01*
X158394000Y-119735605D01*
X158379858Y-119749748D01*
X158200252Y-119570142D01*
X158214395Y-119556000D01*
X158573605Y-119556000D01*
X159401745Y-120384139D01*
X159647864Y-120310005D01*
X159840965Y-119772777D01*
X159813778Y-119202546D01*
X159647864Y-118801995D01*
X159401745Y-118727861D01*
X158573605Y-119556000D01*
X158214395Y-119556000D01*
X158200252Y-119541858D01*
X158379858Y-119362252D01*
X158394000Y-119376395D01*
X159222139Y-118548255D01*
X159148005Y-118302136D01*
X158673538Y-118131594D01*
X159946566Y-116858566D01*
X159971667Y-116821000D01*
X160192603Y-116490346D01*
X160279000Y-116056000D01*
X160279000Y-107556000D01*
X160192603Y-107121654D01*
X159946566Y-106753434D01*
X157029000Y-103835868D01*
X157029000Y-102002451D01*
X157296927Y-102270846D01*
X157897453Y-102520206D01*
X158547694Y-102520774D01*
X159148655Y-102272462D01*
X159608846Y-101813073D01*
X159858206Y-101212547D01*
X159858774Y-100562306D01*
X159610462Y-99961345D01*
X159359000Y-99709444D01*
X159359000Y-90386000D01*
X159332631Y-90253434D01*
X159272604Y-89951655D01*
X159026566Y-89583434D01*
X157656566Y-88213434D01*
X157493689Y-88104603D01*
X157288346Y-87967397D01*
X156983591Y-87906777D01*
X156979409Y-87900519D01*
X156741418Y-87741499D01*
X157131966Y-87383576D01*
X157385046Y-86840742D01*
X157264997Y-86603000D01*
X156021000Y-86603000D01*
X156021000Y-86623000D01*
X155767000Y-86623000D01*
X155767000Y-86603000D01*
X154523003Y-86603000D01*
X154402954Y-86840742D01*
X154656034Y-87383576D01*
X155046582Y-87741499D01*
X154979472Y-87786340D01*
X153446566Y-86253434D01*
X153308229Y-86161000D01*
X153078346Y-86007397D01*
X152644000Y-85921000D01*
X149805263Y-85921000D01*
X149446077Y-85681000D01*
X154603549Y-85681000D01*
X154402954Y-86111258D01*
D33*
G36*
X166767000Y-129429000D02*
X105521000Y-129429000D01*
X105521000Y-126306000D01*
X106329000Y-126306000D01*
X106391038Y-126617887D01*
X106567708Y-126882292D01*
X108067708Y-128382292D01*
X108332113Y-128558962D01*
X108644000Y-128621000D01*
X163544000Y-128621000D01*
X163855887Y-128558962D01*
X164120292Y-128382292D01*
X165620292Y-126882292D01*
X165796962Y-126617887D01*
X165859000Y-126306000D01*
X165859000Y-106404207D01*
X165878555Y-106384686D01*
X165909472Y-106310229D01*
X165924620Y-106308827D01*
X165970402Y-106163493D01*
X166028828Y-106022788D01*
X166028867Y-105977898D01*
X166042357Y-105935075D01*
X166029037Y-105783281D01*
X166029170Y-105630931D01*
X166012028Y-105589443D01*
X166008103Y-105544718D01*
X165924620Y-105343173D01*
X165909701Y-105341792D01*
X165879529Y-105268771D01*
X165602686Y-104991445D01*
X165528229Y-104960528D01*
X165526827Y-104945380D01*
X165483070Y-104931596D01*
X165661784Y-104715723D01*
X165719489Y-104608867D01*
X165786962Y-104507887D01*
X165794508Y-104469951D01*
X165812886Y-104435919D01*
X165825307Y-104315114D01*
X165849000Y-104196000D01*
X165849000Y-83306000D01*
X165786962Y-82994113D01*
X165610292Y-82729708D01*
X164110292Y-81229708D01*
X163845887Y-81053038D01*
X163534000Y-80991000D01*
X108644000Y-80991000D01*
X108642645Y-80991269D01*
X108641292Y-80991005D01*
X108486765Y-81022276D01*
X108332113Y-81053038D01*
X108330966Y-81053804D01*
X108329613Y-81054078D01*
X108198742Y-81142154D01*
X108067708Y-81229708D01*
X108066942Y-81230855D01*
X108065796Y-81231626D01*
X106565797Y-82741626D01*
X106390006Y-83006616D01*
X106329005Y-83318708D01*
X106340986Y-83377911D01*
X106331000Y-126293810D01*
X106331212Y-126294878D01*
X106329000Y-126306000D01*
X105521000Y-126306000D01*
X105521000Y-80183000D01*
X166767000Y-80183000D01*
X166767000Y-129429000D01*
X166767000Y-129429000D01*
G37*
X166767000Y-129429000D02*
X105521000Y-129429000D01*
X105521000Y-126306000D01*
X106329000Y-126306000D01*
X106391038Y-126617887D01*
X106567708Y-126882292D01*
X108067708Y-128382292D01*
X108332113Y-128558962D01*
X108644000Y-128621000D01*
X163544000Y-128621000D01*
X163855887Y-128558962D01*
X164120292Y-128382292D01*
X165620292Y-126882292D01*
X165796962Y-126617887D01*
X165859000Y-126306000D01*
X165859000Y-106404207D01*
X165878555Y-106384686D01*
X165909472Y-106310229D01*
X165924620Y-106308827D01*
X165970402Y-106163493D01*
X166028828Y-106022788D01*
X166028867Y-105977898D01*
X166042357Y-105935075D01*
X166029037Y-105783281D01*
X166029170Y-105630931D01*
X166012028Y-105589443D01*
X166008103Y-105544718D01*
X165924620Y-105343173D01*
X165909701Y-105341792D01*
X165879529Y-105268771D01*
X165602686Y-104991445D01*
X165528229Y-104960528D01*
X165526827Y-104945380D01*
X165483070Y-104931596D01*
X165661784Y-104715723D01*
X165719489Y-104608867D01*
X165786962Y-104507887D01*
X165794508Y-104469951D01*
X165812886Y-104435919D01*
X165825307Y-104315114D01*
X165849000Y-104196000D01*
X165849000Y-83306000D01*
X165786962Y-82994113D01*
X165610292Y-82729708D01*
X164110292Y-81229708D01*
X163845887Y-81053038D01*
X163534000Y-80991000D01*
X108644000Y-80991000D01*
X108642645Y-80991269D01*
X108641292Y-80991005D01*
X108486765Y-81022276D01*
X108332113Y-81053038D01*
X108330966Y-81053804D01*
X108329613Y-81054078D01*
X108198742Y-81142154D01*
X108067708Y-81229708D01*
X108066942Y-81230855D01*
X108065796Y-81231626D01*
X106565797Y-82741626D01*
X106390006Y-83006616D01*
X106329005Y-83318708D01*
X106340986Y-83377911D01*
X106331000Y-126293810D01*
X106331212Y-126294878D01*
X106329000Y-126306000D01*
X105521000Y-126306000D01*
X105521000Y-80183000D01*
X166767000Y-80183000D01*
X166767000Y-129429000D01*
G36*
X111088786Y-116104603D02*
X111091434Y-116108566D01*
X111850342Y-116867474D01*
X111891908Y-116929683D01*
X112011434Y-117108566D01*
X113289579Y-118386711D01*
X113259372Y-118459459D01*
X113258630Y-119308815D01*
X113582980Y-120093800D01*
X114183041Y-120694909D01*
X114967459Y-121020628D01*
X115816815Y-121021370D01*
X115949439Y-120966571D01*
X118912388Y-123929520D01*
X112031515Y-123930931D01*
X111007000Y-122906416D01*
X111007000Y-115982202D01*
X111088786Y-116104603D01*
X111088786Y-116104603D01*
G37*
X111088786Y-116104603D02*
X111091434Y-116108566D01*
X111850342Y-116867474D01*
X111891908Y-116929683D01*
X112011434Y-117108566D01*
X113289579Y-118386711D01*
X113259372Y-118459459D01*
X113258630Y-119308815D01*
X113582980Y-120093800D01*
X114183041Y-120694909D01*
X114967459Y-121020628D01*
X115816815Y-121021370D01*
X115949439Y-120966571D01*
X118912388Y-123929520D01*
X112031515Y-123930931D01*
X111007000Y-122906416D01*
X111007000Y-115982202D01*
X111088786Y-116104603D01*
G36*
X157580077Y-120771824D02*
X158107309Y-120990750D01*
X158223720Y-120990852D01*
X159009000Y-121776132D01*
X159009000Y-122085868D01*
X158673866Y-122421002D01*
X156384130Y-122421002D01*
X157196566Y-121608566D01*
X157321893Y-121421001D01*
X157442603Y-121240346D01*
X157529000Y-120806000D01*
X157529000Y-120720658D01*
X157580077Y-120771824D01*
X157580077Y-120771824D01*
G37*
X157580077Y-120771824D02*
X158107309Y-120990750D01*
X158223720Y-120990852D01*
X159009000Y-121776132D01*
X159009000Y-122085868D01*
X158673866Y-122421002D01*
X156384130Y-122421002D01*
X157196566Y-121608566D01*
X157321893Y-121421001D01*
X157442603Y-121240346D01*
X157529000Y-120806000D01*
X157529000Y-120720658D01*
X157580077Y-120771824D01*
G36*
X137591434Y-93858566D02*
X137959654Y-94104603D01*
X138394000Y-94191000D01*
X140309797Y-94191000D01*
X140053858Y-94362012D01*
X139764467Y-94795118D01*
X139662846Y-95306000D01*
X139764467Y-95816882D01*
X140053858Y-96249988D01*
X140486964Y-96539379D01*
X140997846Y-96641000D01*
X141050154Y-96641000D01*
X141561036Y-96539379D01*
X141994142Y-96249988D01*
X142283533Y-95816882D01*
X142385154Y-95306000D01*
X142283533Y-94795118D01*
X141994142Y-94362012D01*
X141738203Y-94191000D01*
X143673868Y-94191000D01*
X145509000Y-96026132D01*
X145509000Y-103921000D01*
X140144000Y-103921000D01*
X139709654Y-104007397D01*
X139434873Y-104191000D01*
X139341434Y-104253434D01*
X137716436Y-105878432D01*
X137716433Y-105878434D01*
X137423867Y-106171000D01*
X137284604Y-106171000D01*
X136999101Y-105980233D01*
X136449950Y-105871000D01*
X135578050Y-105871000D01*
X135028899Y-105980233D01*
X134563352Y-106291302D01*
X134252283Y-106756849D01*
X134143050Y-107306000D01*
X134252283Y-107855151D01*
X134563352Y-108320698D01*
X134945438Y-108576000D01*
X134563352Y-108831302D01*
X134252283Y-109296849D01*
X134143050Y-109846000D01*
X134252283Y-110395151D01*
X134563352Y-110860698D01*
X134945438Y-111116000D01*
X134743396Y-111251000D01*
X134444133Y-111251000D01*
X132236566Y-109043434D01*
X132108190Y-108957656D01*
X131868346Y-108797397D01*
X131434000Y-108711000D01*
X129807363Y-108711000D01*
X129841765Y-108704157D01*
X130051809Y-108563809D01*
X130192157Y-108353765D01*
X130241440Y-108106000D01*
X130241440Y-106506000D01*
X130192157Y-106258235D01*
X130051809Y-106048191D01*
X129841765Y-105907843D01*
X129594000Y-105858560D01*
X127194000Y-105858560D01*
X126946235Y-105907843D01*
X126736191Y-106048191D01*
X126595843Y-106258235D01*
X126546560Y-106506000D01*
X126546560Y-108106000D01*
X126595843Y-108353765D01*
X126736191Y-108563809D01*
X126946235Y-108704157D01*
X127090648Y-108732882D01*
X126943352Y-108831302D01*
X126632283Y-109296849D01*
X126523050Y-109846000D01*
X126632283Y-110395151D01*
X126943352Y-110860698D01*
X127325438Y-111116000D01*
X126943352Y-111371302D01*
X126632283Y-111836849D01*
X126523050Y-112386000D01*
X126632283Y-112935151D01*
X126943352Y-113400698D01*
X127325438Y-113656000D01*
X127123396Y-113791000D01*
X125234132Y-113791000D01*
X124291440Y-112848308D01*
X124291440Y-112806000D01*
X124242157Y-112558235D01*
X124101809Y-112348191D01*
X123891765Y-112207843D01*
X123644000Y-112158560D01*
X123008894Y-112158560D01*
X123009119Y-111900883D01*
X123368775Y-111901197D01*
X123541218Y-111829945D01*
X123618346Y-111814603D01*
X123683161Y-111771295D01*
X123786086Y-111728767D01*
X123865596Y-111649396D01*
X123986566Y-111568566D01*
X124066690Y-111448652D01*
X124105645Y-111409765D01*
X124126939Y-111358483D01*
X124232603Y-111200346D01*
X124269383Y-111015443D01*
X124278803Y-110992756D01*
X124278825Y-110967975D01*
X124319000Y-110766000D01*
X124279176Y-110565790D01*
X124279197Y-110541225D01*
X124269734Y-110518322D01*
X124232603Y-110331654D01*
X124127787Y-110174786D01*
X124106767Y-110123914D01*
X124067537Y-110084615D01*
X123986566Y-109963434D01*
X123866443Y-109883170D01*
X123787765Y-109804355D01*
X123684009Y-109761271D01*
X123618346Y-109717397D01*
X123541569Y-109702125D01*
X123370756Y-109631197D01*
X123184172Y-109631034D01*
X123184000Y-109631000D01*
X123144990Y-109631000D01*
X122919225Y-109630803D01*
X122501914Y-109803233D01*
X122182355Y-110122235D01*
X122009197Y-110539244D01*
X122009174Y-110566040D01*
X121404001Y-109960867D01*
X121404001Y-104901131D01*
X123364132Y-102941000D01*
X140161233Y-102941000D01*
X140446736Y-103131767D01*
X140995887Y-103241000D01*
X141052113Y-103241000D01*
X141601264Y-103131767D01*
X142066811Y-102820698D01*
X142377880Y-102355151D01*
X142487113Y-101806000D01*
X142377880Y-101256849D01*
X142066811Y-100791302D01*
X141601264Y-100480233D01*
X141052113Y-100371000D01*
X140995887Y-100371000D01*
X140446736Y-100480233D01*
X140161233Y-100671000D01*
X138884132Y-100671000D01*
X139614132Y-99941000D01*
X140339729Y-99941000D01*
X140486964Y-100039379D01*
X140997846Y-100141000D01*
X141050154Y-100141000D01*
X141561036Y-100039379D01*
X141994142Y-99749988D01*
X142283533Y-99316882D01*
X142385154Y-98806000D01*
X142283533Y-98295118D01*
X141994142Y-97862012D01*
X141561036Y-97572621D01*
X141050154Y-97471000D01*
X140997846Y-97471000D01*
X140486964Y-97572621D01*
X140339729Y-97671000D01*
X139144000Y-97671000D01*
X138709654Y-97757397D01*
X138341434Y-98003434D01*
X137234530Y-99110338D01*
X122333338Y-99110338D01*
X121927824Y-99191000D01*
X121898992Y-99196735D01*
X121530771Y-99442772D01*
X120905772Y-100067772D01*
X117966433Y-103007111D01*
X117720396Y-103375331D01*
X117633999Y-103809677D01*
X117633999Y-113430999D01*
X117720396Y-113865345D01*
X117847788Y-114056000D01*
X117966433Y-114233565D01*
X121219000Y-117486132D01*
X121219000Y-118520095D01*
X121053449Y-118685357D01*
X120819267Y-119249330D01*
X120818735Y-119859991D01*
X121051932Y-120424371D01*
X121483357Y-120856551D01*
X122047330Y-121090733D01*
X122657991Y-121091265D01*
X123222371Y-120858068D01*
X123392712Y-120688025D01*
X123395843Y-120703765D01*
X123536191Y-120913809D01*
X123746235Y-121054157D01*
X123994000Y-121103440D01*
X125794000Y-121103440D01*
X126041765Y-121054157D01*
X126251809Y-120913809D01*
X126392157Y-120703765D01*
X126441440Y-120456000D01*
X126441440Y-118656000D01*
X126392157Y-118408235D01*
X126251809Y-118198191D01*
X126041765Y-118057843D01*
X126029000Y-118055304D01*
X126029000Y-116061000D01*
X127123396Y-116061000D01*
X127408899Y-116251767D01*
X127958050Y-116361000D01*
X128829950Y-116361000D01*
X129379101Y-116251767D01*
X129844648Y-115940698D01*
X130155717Y-115475151D01*
X130264950Y-114926000D01*
X130155717Y-114376849D01*
X129844648Y-113911302D01*
X129462562Y-113656000D01*
X129664604Y-113521000D01*
X130003868Y-113521000D01*
X131009000Y-114526132D01*
X131009000Y-119101800D01*
X130861243Y-118744200D01*
X130457923Y-118340176D01*
X129930691Y-118121250D01*
X129359813Y-118120752D01*
X128832200Y-118338757D01*
X128428176Y-118742077D01*
X128209250Y-119269309D01*
X128208752Y-119840187D01*
X128426757Y-120367800D01*
X128830077Y-120771824D01*
X129357309Y-120990750D01*
X129928187Y-120991248D01*
X130455800Y-120773243D01*
X130859824Y-120369923D01*
X131009000Y-120010668D01*
X131009000Y-120806000D01*
X131095397Y-121240346D01*
X131216107Y-121421001D01*
X131341434Y-121608566D01*
X132153870Y-122421002D01*
X120614134Y-122421002D01*
X117521893Y-119328761D01*
X117528628Y-119312541D01*
X117529370Y-118463185D01*
X117205020Y-117678200D01*
X116604959Y-117077091D01*
X115820541Y-116751372D01*
X114971185Y-116750630D01*
X114951780Y-116758648D01*
X114146572Y-115953440D01*
X116894000Y-115953440D01*
X117141765Y-115904157D01*
X117351809Y-115763809D01*
X117492157Y-115553765D01*
X117541440Y-115306000D01*
X117541440Y-112306000D01*
X117492157Y-112058235D01*
X117351809Y-111848191D01*
X117141765Y-111707843D01*
X116894000Y-111658560D01*
X116529000Y-111658560D01*
X116529000Y-107727100D01*
X116601800Y-107697020D01*
X117202909Y-107096959D01*
X117528628Y-106312541D01*
X117529370Y-105463185D01*
X117205020Y-104678200D01*
X116604959Y-104077091D01*
X115820541Y-103751372D01*
X114971185Y-103750630D01*
X114186200Y-104074980D01*
X113585091Y-104675041D01*
X113259372Y-105459459D01*
X113258630Y-106308815D01*
X113582980Y-107093800D01*
X114183041Y-107694909D01*
X114259000Y-107726450D01*
X114259000Y-111658560D01*
X113894000Y-111658560D01*
X113646235Y-111707843D01*
X113436191Y-111848191D01*
X113295843Y-112058235D01*
X113246560Y-112306000D01*
X113246560Y-115053427D01*
X113029000Y-114835868D01*
X113029000Y-110306000D01*
X112942603Y-109871654D01*
X112696566Y-109503434D01*
X112328346Y-109257397D01*
X111894000Y-109171000D01*
X111254541Y-109171000D01*
X111192000Y-109158560D01*
X110192000Y-109158560D01*
X109999000Y-109196950D01*
X109999000Y-106404207D01*
X110018555Y-106384686D01*
X110049472Y-106310229D01*
X110064620Y-106308827D01*
X110110402Y-106163493D01*
X110168828Y-106022788D01*
X110168867Y-105977898D01*
X110182357Y-105935075D01*
X110169037Y-105783281D01*
X110169170Y-105630931D01*
X110152028Y-105589443D01*
X110148103Y-105544718D01*
X110064620Y-105343173D01*
X110049701Y-105341792D01*
X110019529Y-105268771D01*
X109742686Y-104991445D01*
X109670933Y-104961651D01*
X109760292Y-104872292D01*
X109936962Y-104607887D01*
X109999000Y-104296000D01*
X109999000Y-100415050D01*
X110192000Y-100453440D01*
X111192000Y-100453440D01*
X111254541Y-100441000D01*
X111644000Y-100441000D01*
X112078346Y-100354603D01*
X112446566Y-100108566D01*
X113246560Y-99308572D01*
X113246560Y-102306000D01*
X113295843Y-102553765D01*
X113436191Y-102763809D01*
X113646235Y-102904157D01*
X113894000Y-102953440D01*
X116894000Y-102953440D01*
X117141765Y-102904157D01*
X117351809Y-102763809D01*
X117492157Y-102553765D01*
X117541440Y-102306000D01*
X117541440Y-100513692D01*
X121114132Y-96941000D01*
X127394000Y-96941000D01*
X127828346Y-96854603D01*
X128196566Y-96608566D01*
X130196566Y-94608566D01*
X130308530Y-94441000D01*
X130442603Y-94240346D01*
X130529000Y-93806000D01*
X130529000Y-93669403D01*
X131308682Y-93669403D01*
X131587455Y-94344086D01*
X132103199Y-94860730D01*
X132777395Y-95140681D01*
X133507403Y-95141318D01*
X134182086Y-94862545D01*
X134698730Y-94346801D01*
X134978681Y-93672605D01*
X134979318Y-92942597D01*
X134700545Y-92267914D01*
X134184801Y-91751270D01*
X133510605Y-91471319D01*
X132780597Y-91470682D01*
X132105914Y-91749455D01*
X131589270Y-92265199D01*
X131309319Y-92939395D01*
X131308682Y-93669403D01*
X130529000Y-93669403D01*
X130529000Y-92026132D01*
X131114132Y-91441000D01*
X135173868Y-91441000D01*
X137591434Y-93858566D01*
X137591434Y-93858566D01*
G37*
X137591434Y-93858566D02*
X137959654Y-94104603D01*
X138394000Y-94191000D01*
X140309797Y-94191000D01*
X140053858Y-94362012D01*
X139764467Y-94795118D01*
X139662846Y-95306000D01*
X139764467Y-95816882D01*
X140053858Y-96249988D01*
X140486964Y-96539379D01*
X140997846Y-96641000D01*
X141050154Y-96641000D01*
X141561036Y-96539379D01*
X141994142Y-96249988D01*
X142283533Y-95816882D01*
X142385154Y-95306000D01*
X142283533Y-94795118D01*
X141994142Y-94362012D01*
X141738203Y-94191000D01*
X143673868Y-94191000D01*
X145509000Y-96026132D01*
X145509000Y-103921000D01*
X140144000Y-103921000D01*
X139709654Y-104007397D01*
X139434873Y-104191000D01*
X139341434Y-104253434D01*
X137716436Y-105878432D01*
X137716433Y-105878434D01*
X137423867Y-106171000D01*
X137284604Y-106171000D01*
X136999101Y-105980233D01*
X136449950Y-105871000D01*
X135578050Y-105871000D01*
X135028899Y-105980233D01*
X134563352Y-106291302D01*
X134252283Y-106756849D01*
X134143050Y-107306000D01*
X134252283Y-107855151D01*
X134563352Y-108320698D01*
X134945438Y-108576000D01*
X134563352Y-108831302D01*
X134252283Y-109296849D01*
X134143050Y-109846000D01*
X134252283Y-110395151D01*
X134563352Y-110860698D01*
X134945438Y-111116000D01*
X134743396Y-111251000D01*
X134444133Y-111251000D01*
X132236566Y-109043434D01*
X132108190Y-108957656D01*
X131868346Y-108797397D01*
X131434000Y-108711000D01*
X129807363Y-108711000D01*
X129841765Y-108704157D01*
X130051809Y-108563809D01*
X130192157Y-108353765D01*
X130241440Y-108106000D01*
X130241440Y-106506000D01*
X130192157Y-106258235D01*
X130051809Y-106048191D01*
X129841765Y-105907843D01*
X129594000Y-105858560D01*
X127194000Y-105858560D01*
X126946235Y-105907843D01*
X126736191Y-106048191D01*
X126595843Y-106258235D01*
X126546560Y-106506000D01*
X126546560Y-108106000D01*
X126595843Y-108353765D01*
X126736191Y-108563809D01*
X126946235Y-108704157D01*
X127090648Y-108732882D01*
X126943352Y-108831302D01*
X126632283Y-109296849D01*
X126523050Y-109846000D01*
X126632283Y-110395151D01*
X126943352Y-110860698D01*
X127325438Y-111116000D01*
X126943352Y-111371302D01*
X126632283Y-111836849D01*
X126523050Y-112386000D01*
X126632283Y-112935151D01*
X126943352Y-113400698D01*
X127325438Y-113656000D01*
X127123396Y-113791000D01*
X125234132Y-113791000D01*
X124291440Y-112848308D01*
X124291440Y-112806000D01*
X124242157Y-112558235D01*
X124101809Y-112348191D01*
X123891765Y-112207843D01*
X123644000Y-112158560D01*
X123008894Y-112158560D01*
X123009119Y-111900883D01*
X123368775Y-111901197D01*
X123541218Y-111829945D01*
X123618346Y-111814603D01*
X123683161Y-111771295D01*
X123786086Y-111728767D01*
X123865596Y-111649396D01*
X123986566Y-111568566D01*
X124066690Y-111448652D01*
X124105645Y-111409765D01*
X124126939Y-111358483D01*
X124232603Y-111200346D01*
X124269383Y-111015443D01*
X124278803Y-110992756D01*
X124278825Y-110967975D01*
X124319000Y-110766000D01*
X124279176Y-110565790D01*
X124279197Y-110541225D01*
X124269734Y-110518322D01*
X124232603Y-110331654D01*
X124127787Y-110174786D01*
X124106767Y-110123914D01*
X124067537Y-110084615D01*
X123986566Y-109963434D01*
X123866443Y-109883170D01*
X123787765Y-109804355D01*
X123684009Y-109761271D01*
X123618346Y-109717397D01*
X123541569Y-109702125D01*
X123370756Y-109631197D01*
X123184172Y-109631034D01*
X123184000Y-109631000D01*
X123144990Y-109631000D01*
X122919225Y-109630803D01*
X122501914Y-109803233D01*
X122182355Y-110122235D01*
X122009197Y-110539244D01*
X122009174Y-110566040D01*
X121404001Y-109960867D01*
X121404001Y-104901131D01*
X123364132Y-102941000D01*
X140161233Y-102941000D01*
X140446736Y-103131767D01*
X140995887Y-103241000D01*
X141052113Y-103241000D01*
X141601264Y-103131767D01*
X142066811Y-102820698D01*
X142377880Y-102355151D01*
X142487113Y-101806000D01*
X142377880Y-101256849D01*
X142066811Y-100791302D01*
X141601264Y-100480233D01*
X141052113Y-100371000D01*
X140995887Y-100371000D01*
X140446736Y-100480233D01*
X140161233Y-100671000D01*
X138884132Y-100671000D01*
X139614132Y-99941000D01*
X140339729Y-99941000D01*
X140486964Y-100039379D01*
X140997846Y-100141000D01*
X141050154Y-100141000D01*
X141561036Y-100039379D01*
X141994142Y-99749988D01*
X142283533Y-99316882D01*
X142385154Y-98806000D01*
X142283533Y-98295118D01*
X141994142Y-97862012D01*
X141561036Y-97572621D01*
X141050154Y-97471000D01*
X140997846Y-97471000D01*
X140486964Y-97572621D01*
X140339729Y-97671000D01*
X139144000Y-97671000D01*
X138709654Y-97757397D01*
X138341434Y-98003434D01*
X137234530Y-99110338D01*
X122333338Y-99110338D01*
X121927824Y-99191000D01*
X121898992Y-99196735D01*
X121530771Y-99442772D01*
X120905772Y-100067772D01*
X117966433Y-103007111D01*
X117720396Y-103375331D01*
X117633999Y-103809677D01*
X117633999Y-113430999D01*
X117720396Y-113865345D01*
X117847788Y-114056000D01*
X117966433Y-114233565D01*
X121219000Y-117486132D01*
X121219000Y-118520095D01*
X121053449Y-118685357D01*
X120819267Y-119249330D01*
X120818735Y-119859991D01*
X121051932Y-120424371D01*
X121483357Y-120856551D01*
X122047330Y-121090733D01*
X122657991Y-121091265D01*
X123222371Y-120858068D01*
X123392712Y-120688025D01*
X123395843Y-120703765D01*
X123536191Y-120913809D01*
X123746235Y-121054157D01*
X123994000Y-121103440D01*
X125794000Y-121103440D01*
X126041765Y-121054157D01*
X126251809Y-120913809D01*
X126392157Y-120703765D01*
X126441440Y-120456000D01*
X126441440Y-118656000D01*
X126392157Y-118408235D01*
X126251809Y-118198191D01*
X126041765Y-118057843D01*
X126029000Y-118055304D01*
X126029000Y-116061000D01*
X127123396Y-116061000D01*
X127408899Y-116251767D01*
X127958050Y-116361000D01*
X128829950Y-116361000D01*
X129379101Y-116251767D01*
X129844648Y-115940698D01*
X130155717Y-115475151D01*
X130264950Y-114926000D01*
X130155717Y-114376849D01*
X129844648Y-113911302D01*
X129462562Y-113656000D01*
X129664604Y-113521000D01*
X130003868Y-113521000D01*
X131009000Y-114526132D01*
X131009000Y-119101800D01*
X130861243Y-118744200D01*
X130457923Y-118340176D01*
X129930691Y-118121250D01*
X129359813Y-118120752D01*
X128832200Y-118338757D01*
X128428176Y-118742077D01*
X128209250Y-119269309D01*
X128208752Y-119840187D01*
X128426757Y-120367800D01*
X128830077Y-120771824D01*
X129357309Y-120990750D01*
X129928187Y-120991248D01*
X130455800Y-120773243D01*
X130859824Y-120369923D01*
X131009000Y-120010668D01*
X131009000Y-120806000D01*
X131095397Y-121240346D01*
X131216107Y-121421001D01*
X131341434Y-121608566D01*
X132153870Y-122421002D01*
X120614134Y-122421002D01*
X117521893Y-119328761D01*
X117528628Y-119312541D01*
X117529370Y-118463185D01*
X117205020Y-117678200D01*
X116604959Y-117077091D01*
X115820541Y-116751372D01*
X114971185Y-116750630D01*
X114951780Y-116758648D01*
X114146572Y-115953440D01*
X116894000Y-115953440D01*
X117141765Y-115904157D01*
X117351809Y-115763809D01*
X117492157Y-115553765D01*
X117541440Y-115306000D01*
X117541440Y-112306000D01*
X117492157Y-112058235D01*
X117351809Y-111848191D01*
X117141765Y-111707843D01*
X116894000Y-111658560D01*
X116529000Y-111658560D01*
X116529000Y-107727100D01*
X116601800Y-107697020D01*
X117202909Y-107096959D01*
X117528628Y-106312541D01*
X117529370Y-105463185D01*
X117205020Y-104678200D01*
X116604959Y-104077091D01*
X115820541Y-103751372D01*
X114971185Y-103750630D01*
X114186200Y-104074980D01*
X113585091Y-104675041D01*
X113259372Y-105459459D01*
X113258630Y-106308815D01*
X113582980Y-107093800D01*
X114183041Y-107694909D01*
X114259000Y-107726450D01*
X114259000Y-111658560D01*
X113894000Y-111658560D01*
X113646235Y-111707843D01*
X113436191Y-111848191D01*
X113295843Y-112058235D01*
X113246560Y-112306000D01*
X113246560Y-115053427D01*
X113029000Y-114835868D01*
X113029000Y-110306000D01*
X112942603Y-109871654D01*
X112696566Y-109503434D01*
X112328346Y-109257397D01*
X111894000Y-109171000D01*
X111254541Y-109171000D01*
X111192000Y-109158560D01*
X110192000Y-109158560D01*
X109999000Y-109196950D01*
X109999000Y-106404207D01*
X110018555Y-106384686D01*
X110049472Y-106310229D01*
X110064620Y-106308827D01*
X110110402Y-106163493D01*
X110168828Y-106022788D01*
X110168867Y-105977898D01*
X110182357Y-105935075D01*
X110169037Y-105783281D01*
X110169170Y-105630931D01*
X110152028Y-105589443D01*
X110148103Y-105544718D01*
X110064620Y-105343173D01*
X110049701Y-105341792D01*
X110019529Y-105268771D01*
X109742686Y-104991445D01*
X109670933Y-104961651D01*
X109760292Y-104872292D01*
X109936962Y-104607887D01*
X109999000Y-104296000D01*
X109999000Y-100415050D01*
X110192000Y-100453440D01*
X111192000Y-100453440D01*
X111254541Y-100441000D01*
X111644000Y-100441000D01*
X112078346Y-100354603D01*
X112446566Y-100108566D01*
X113246560Y-99308572D01*
X113246560Y-102306000D01*
X113295843Y-102553765D01*
X113436191Y-102763809D01*
X113646235Y-102904157D01*
X113894000Y-102953440D01*
X116894000Y-102953440D01*
X117141765Y-102904157D01*
X117351809Y-102763809D01*
X117492157Y-102553765D01*
X117541440Y-102306000D01*
X117541440Y-100513692D01*
X121114132Y-96941000D01*
X127394000Y-96941000D01*
X127828346Y-96854603D01*
X128196566Y-96608566D01*
X130196566Y-94608566D01*
X130308530Y-94441000D01*
X130442603Y-94240346D01*
X130529000Y-93806000D01*
X130529000Y-93669403D01*
X131308682Y-93669403D01*
X131587455Y-94344086D01*
X132103199Y-94860730D01*
X132777395Y-95140681D01*
X133507403Y-95141318D01*
X134182086Y-94862545D01*
X134698730Y-94346801D01*
X134978681Y-93672605D01*
X134979318Y-92942597D01*
X134700545Y-92267914D01*
X134184801Y-91751270D01*
X133510605Y-91471319D01*
X132780597Y-91470682D01*
X132105914Y-91749455D01*
X131589270Y-92265199D01*
X131309319Y-92939395D01*
X131308682Y-93669403D01*
X130529000Y-93669403D01*
X130529000Y-92026132D01*
X131114132Y-91441000D01*
X135173868Y-91441000D01*
X137591434Y-93858566D01*
G36*
X152176757Y-120367800D02*
X152580077Y-120771824D01*
X152939332Y-120921000D01*
X151134132Y-120921000D01*
X151946567Y-120108566D01*
X152022616Y-119994750D01*
X152176757Y-120367800D01*
X152176757Y-120367800D01*
G37*
X152176757Y-120367800D02*
X152580077Y-120771824D01*
X152939332Y-120921000D01*
X151134132Y-120921000D01*
X151946567Y-120108566D01*
X152022616Y-119994750D01*
X152176757Y-120367800D01*
G36*
X155591434Y-118003434D02*
X155345397Y-118371654D01*
X155259000Y-118806000D01*
X155259000Y-120335868D01*
X154673868Y-120921000D01*
X153848200Y-120921000D01*
X154205800Y-120773243D01*
X154609824Y-120369923D01*
X154828750Y-119842691D01*
X154829248Y-119271813D01*
X154611243Y-118744200D01*
X154529000Y-118661813D01*
X154529000Y-118276132D01*
X155174794Y-117630338D01*
X155964530Y-117630338D01*
X155591434Y-118003434D01*
X155591434Y-118003434D01*
G37*
X155591434Y-118003434D02*
X155345397Y-118371654D01*
X155259000Y-118806000D01*
X155259000Y-120335868D01*
X154673868Y-120921000D01*
X153848200Y-120921000D01*
X154205800Y-120773243D01*
X154609824Y-120369923D01*
X154828750Y-119842691D01*
X154829248Y-119271813D01*
X154611243Y-118744200D01*
X154529000Y-118661813D01*
X154529000Y-118276132D01*
X155174794Y-117630338D01*
X155964530Y-117630338D01*
X155591434Y-118003434D01*
G36*
X133426757Y-120367800D02*
X133830077Y-120771824D01*
X134189332Y-120921000D01*
X133864132Y-120921000D01*
X133279000Y-120335868D01*
X133279000Y-120010200D01*
X133426757Y-120367800D01*
X133426757Y-120367800D01*
G37*
X133426757Y-120367800D02*
X133830077Y-120771824D01*
X134189332Y-120921000D01*
X133864132Y-120921000D01*
X133279000Y-120335868D01*
X133279000Y-120010200D01*
X133426757Y-120367800D01*
G36*
X137759000Y-116806000D02*
X137845397Y-117240346D01*
X138091434Y-117608566D01*
X139591434Y-119108566D01*
X139959654Y-119354603D01*
X140374727Y-119437166D01*
X140262902Y-119548796D01*
X140059232Y-120039287D01*
X140058769Y-120570383D01*
X140203641Y-120921000D01*
X135098200Y-120921000D01*
X135455800Y-120773243D01*
X135859824Y-120369923D01*
X136078750Y-119842691D01*
X136078852Y-119726280D01*
X136816566Y-118988566D01*
X137062604Y-118620345D01*
X137149000Y-118186000D01*
X137149000Y-116151608D01*
X137464648Y-115940698D01*
X137759000Y-115500170D01*
X137759000Y-116806000D01*
X137759000Y-116806000D01*
G37*
X137759000Y-116806000D02*
X137845397Y-117240346D01*
X138091434Y-117608566D01*
X139591434Y-119108566D01*
X139959654Y-119354603D01*
X140374727Y-119437166D01*
X140262902Y-119548796D01*
X140059232Y-120039287D01*
X140058769Y-120570383D01*
X140203641Y-120921000D01*
X135098200Y-120921000D01*
X135455800Y-120773243D01*
X135859824Y-120369923D01*
X136078750Y-119842691D01*
X136078852Y-119726280D01*
X136816566Y-118988566D01*
X137062604Y-118620345D01*
X137149000Y-118186000D01*
X137149000Y-116151608D01*
X137464648Y-115940698D01*
X137759000Y-115500170D01*
X137759000Y-116806000D01*
G36*
X148396509Y-117224155D02*
X148983928Y-117341000D01*
X149044072Y-117341000D01*
X149631491Y-117224155D01*
X150009000Y-116971912D01*
X150009000Y-118835867D01*
X149683642Y-119161225D01*
X149551036Y-119072621D01*
X149040154Y-118971000D01*
X148987846Y-118971000D01*
X148476964Y-119072621D01*
X148043858Y-119362012D01*
X147754467Y-119795118D01*
X147652846Y-120306000D01*
X147754467Y-120816882D01*
X147824036Y-120921000D01*
X143634132Y-120921000D01*
X147614132Y-116941000D01*
X147972737Y-116941000D01*
X148396509Y-117224155D01*
X148396509Y-117224155D01*
G37*
X148396509Y-117224155D02*
X148983928Y-117341000D01*
X149044072Y-117341000D01*
X149631491Y-117224155D01*
X150009000Y-116971912D01*
X150009000Y-118835867D01*
X149683642Y-119161225D01*
X149551036Y-119072621D01*
X149040154Y-118971000D01*
X148987846Y-118971000D01*
X148476964Y-119072621D01*
X148043858Y-119362012D01*
X147754467Y-119795118D01*
X147652846Y-120306000D01*
X147754467Y-120816882D01*
X147824036Y-120921000D01*
X143634132Y-120921000D01*
X147614132Y-116941000D01*
X147972737Y-116941000D01*
X148396509Y-117224155D01*
G36*
X161169000Y-120836330D02*
X160946566Y-120503434D01*
X159999132Y-119556000D01*
X161169000Y-118386132D01*
X161169000Y-120836330D01*
X161169000Y-120836330D01*
G37*
X161169000Y-120836330D02*
X160946566Y-120503434D01*
X159999132Y-119556000D01*
X161169000Y-118386132D01*
X161169000Y-120836330D01*
G36*
X133171433Y-113188566D02*
X133534260Y-113430999D01*
X133539654Y-113434603D01*
X133974000Y-113521000D01*
X134743396Y-113521000D01*
X134945438Y-113656000D01*
X134563352Y-113911302D01*
X134252283Y-114376849D01*
X134143050Y-114926000D01*
X134252283Y-115475151D01*
X134563352Y-115940698D01*
X134879000Y-116151608D01*
X134879000Y-117715868D01*
X134474016Y-118120852D01*
X134359813Y-118120752D01*
X133832200Y-118338757D01*
X133428176Y-118742077D01*
X133279000Y-119101332D01*
X133279000Y-114056000D01*
X133243474Y-113877397D01*
X133192604Y-113621655D01*
X132946566Y-113253434D01*
X131276566Y-111583434D01*
X131148190Y-111497656D01*
X130908346Y-111337397D01*
X130474000Y-111251000D01*
X129664604Y-111251000D01*
X129462562Y-111116000D01*
X129664604Y-110981000D01*
X130963868Y-110981000D01*
X133171433Y-113188566D01*
X133171433Y-113188566D01*
G37*
X133171433Y-113188566D02*
X133534260Y-113430999D01*
X133539654Y-113434603D01*
X133974000Y-113521000D01*
X134743396Y-113521000D01*
X134945438Y-113656000D01*
X134563352Y-113911302D01*
X134252283Y-114376849D01*
X134143050Y-114926000D01*
X134252283Y-115475151D01*
X134563352Y-115940698D01*
X134879000Y-116151608D01*
X134879000Y-117715868D01*
X134474016Y-118120852D01*
X134359813Y-118120752D01*
X133832200Y-118338757D01*
X133428176Y-118742077D01*
X133279000Y-119101332D01*
X133279000Y-114056000D01*
X133243474Y-113877397D01*
X133192604Y-113621655D01*
X132946566Y-113253434D01*
X131276566Y-111583434D01*
X131148190Y-111497656D01*
X130908346Y-111337397D01*
X130474000Y-111251000D01*
X129664604Y-111251000D01*
X129462562Y-111116000D01*
X129664604Y-110981000D01*
X130963868Y-110981000D01*
X133171433Y-113188566D01*
G36*
X121069875Y-112837005D02*
X121230235Y-112997645D01*
X121647244Y-113170803D01*
X121996560Y-113171108D01*
X121996560Y-113806000D01*
X122045843Y-114053765D01*
X122186191Y-114263809D01*
X122396235Y-114404157D01*
X122644000Y-114453440D01*
X122686308Y-114453440D01*
X123759000Y-115526132D01*
X123759000Y-118055304D01*
X123746235Y-118057843D01*
X123536191Y-118198191D01*
X123489000Y-118268817D01*
X123489000Y-117016000D01*
X123402603Y-116581654D01*
X123156566Y-116213434D01*
X119903999Y-112960867D01*
X119903999Y-111671129D01*
X121069875Y-112837005D01*
X121069875Y-112837005D01*
G37*
X121069875Y-112837005D02*
X121230235Y-112997645D01*
X121647244Y-113170803D01*
X121996560Y-113171108D01*
X121996560Y-113806000D01*
X122045843Y-114053765D01*
X122186191Y-114263809D01*
X122396235Y-114404157D01*
X122644000Y-114453440D01*
X122686308Y-114453440D01*
X123759000Y-115526132D01*
X123759000Y-118055304D01*
X123746235Y-118057843D01*
X123536191Y-118198191D01*
X123489000Y-118268817D01*
X123489000Y-117016000D01*
X123402603Y-116581654D01*
X123156566Y-116213434D01*
X119903999Y-112960867D01*
X119903999Y-111671129D01*
X121069875Y-112837005D01*
G36*
X154270316Y-115446735D02*
X153934680Y-115671000D01*
X153902096Y-115692772D01*
X152591434Y-117003434D01*
X152345397Y-117371654D01*
X152279000Y-117705453D01*
X152279000Y-116526132D01*
X153364132Y-115441000D01*
X154299148Y-115441000D01*
X154270316Y-115446735D01*
X154270316Y-115446735D01*
G37*
X154270316Y-115446735D02*
X153934680Y-115671000D01*
X153902096Y-115692772D01*
X152591434Y-117003434D01*
X152345397Y-117371654D01*
X152279000Y-117705453D01*
X152279000Y-116526132D01*
X153364132Y-115441000D01*
X154299148Y-115441000D01*
X154270316Y-115446735D01*
G36*
X140058769Y-107070383D02*
X140261582Y-107561229D01*
X140636796Y-107937098D01*
X141127287Y-108140768D01*
X141658383Y-108141231D01*
X142142980Y-107941000D01*
X142673868Y-107941000D01*
X146341434Y-111608566D01*
X146709654Y-111854603D01*
X147144000Y-111941000D01*
X147393304Y-111941000D01*
X147395843Y-111953765D01*
X147536191Y-112163809D01*
X147746235Y-112304157D01*
X147994000Y-112353440D01*
X149741428Y-112353440D01*
X149673868Y-112421000D01*
X147144000Y-112421000D01*
X146709654Y-112507397D01*
X146341434Y-112753434D01*
X142941440Y-116153428D01*
X142941440Y-114906000D01*
X142892157Y-114658235D01*
X142751809Y-114448191D01*
X142541765Y-114307843D01*
X142409000Y-114281435D01*
X142409000Y-111862197D01*
X142722227Y-111393419D01*
X142839072Y-110806000D01*
X142722227Y-110218581D01*
X142389481Y-109720591D01*
X141891491Y-109387845D01*
X141354079Y-109280947D01*
X141116566Y-109043434D01*
X140988190Y-108957656D01*
X140748346Y-108797397D01*
X140314000Y-108711000D01*
X137284604Y-108711000D01*
X137082562Y-108576000D01*
X137284604Y-108441000D01*
X137894000Y-108441000D01*
X138328346Y-108354603D01*
X138696566Y-108108566D01*
X139321566Y-107483567D01*
X139321568Y-107483564D01*
X140059052Y-106746080D01*
X140058769Y-107070383D01*
X140058769Y-107070383D01*
G37*
X140058769Y-107070383D02*
X140261582Y-107561229D01*
X140636796Y-107937098D01*
X141127287Y-108140768D01*
X141658383Y-108141231D01*
X142142980Y-107941000D01*
X142673868Y-107941000D01*
X146341434Y-111608566D01*
X146709654Y-111854603D01*
X147144000Y-111941000D01*
X147393304Y-111941000D01*
X147395843Y-111953765D01*
X147536191Y-112163809D01*
X147746235Y-112304157D01*
X147994000Y-112353440D01*
X149741428Y-112353440D01*
X149673868Y-112421000D01*
X147144000Y-112421000D01*
X146709654Y-112507397D01*
X146341434Y-112753434D01*
X142941440Y-116153428D01*
X142941440Y-114906000D01*
X142892157Y-114658235D01*
X142751809Y-114448191D01*
X142541765Y-114307843D01*
X142409000Y-114281435D01*
X142409000Y-111862197D01*
X142722227Y-111393419D01*
X142839072Y-110806000D01*
X142722227Y-110218581D01*
X142389481Y-109720591D01*
X141891491Y-109387845D01*
X141354079Y-109280947D01*
X141116566Y-109043434D01*
X140988190Y-108957656D01*
X140748346Y-108797397D01*
X140314000Y-108711000D01*
X137284604Y-108711000D01*
X137082562Y-108576000D01*
X137284604Y-108441000D01*
X137894000Y-108441000D01*
X138328346Y-108354603D01*
X138696566Y-108108566D01*
X139321566Y-107483567D01*
X139321568Y-107483564D01*
X140059052Y-106746080D01*
X140058769Y-107070383D01*
G36*
X153144000Y-112941000D02*
X153345093Y-112901000D01*
X155112432Y-112901000D01*
X155125452Y-112914043D01*
X155419264Y-113036045D01*
X155127457Y-113156617D01*
X155113049Y-113171000D01*
X152894000Y-113171000D01*
X152459654Y-113257397D01*
X152199841Y-113430999D01*
X152091434Y-113503434D01*
X150427804Y-115167064D01*
X150129481Y-114720591D01*
X150085195Y-114691000D01*
X150144000Y-114691000D01*
X150578346Y-114604603D01*
X150946566Y-114358566D01*
X152404132Y-112901000D01*
X152942907Y-112901000D01*
X153144000Y-112941000D01*
X153144000Y-112941000D01*
G37*
X153144000Y-112941000D02*
X153345093Y-112901000D01*
X155112432Y-112901000D01*
X155125452Y-112914043D01*
X155419264Y-113036045D01*
X155127457Y-113156617D01*
X155113049Y-113171000D01*
X152894000Y-113171000D01*
X152459654Y-113257397D01*
X152199841Y-113430999D01*
X152091434Y-113503434D01*
X150427804Y-115167064D01*
X150129481Y-114720591D01*
X150085195Y-114691000D01*
X150144000Y-114691000D01*
X150578346Y-114604603D01*
X150946566Y-114358566D01*
X152404132Y-112901000D01*
X152942907Y-112901000D01*
X153144000Y-112941000D01*
G36*
X139825773Y-111393419D02*
X140139000Y-111862197D01*
X140139000Y-114379496D01*
X140036191Y-114448191D01*
X140029000Y-114458953D01*
X140029000Y-113306000D01*
X139942603Y-112871654D01*
X139780088Y-112628433D01*
X139696566Y-112503433D01*
X138776566Y-111583434D01*
X138648190Y-111497656D01*
X138408346Y-111337397D01*
X137974000Y-111251000D01*
X137284604Y-111251000D01*
X137082562Y-111116000D01*
X137284604Y-110981000D01*
X139743738Y-110981000D01*
X139825773Y-111393419D01*
X139825773Y-111393419D01*
G37*
X139825773Y-111393419D02*
X140139000Y-111862197D01*
X140139000Y-114379496D01*
X140036191Y-114448191D01*
X140029000Y-114458953D01*
X140029000Y-113306000D01*
X139942603Y-112871654D01*
X139780088Y-112628433D01*
X139696566Y-112503433D01*
X138776566Y-111583434D01*
X138648190Y-111497656D01*
X138408346Y-111337397D01*
X137974000Y-111251000D01*
X137284604Y-111251000D01*
X137082562Y-111116000D01*
X137284604Y-110981000D01*
X139743738Y-110981000D01*
X139825773Y-111393419D01*
G36*
X137759000Y-113776133D02*
X137759000Y-114351830D01*
X137464648Y-113911302D01*
X137082562Y-113656000D01*
X137284604Y-113521000D01*
X137503868Y-113521000D01*
X137759000Y-113776133D01*
X137759000Y-113776133D01*
G37*
X137759000Y-113776133D02*
X137759000Y-114351830D01*
X137464648Y-113911302D01*
X137082562Y-113656000D01*
X137284604Y-113521000D01*
X137503868Y-113521000D01*
X137759000Y-113776133D01*
G36*
X147754467Y-106295118D02*
X147652846Y-106806000D01*
X147754467Y-107316882D01*
X148043858Y-107749988D01*
X148476964Y-108039379D01*
X148987846Y-108141000D01*
X149040154Y-108141000D01*
X149551036Y-108039379D01*
X149698271Y-107941000D01*
X151173868Y-107941000D01*
X153261434Y-110028566D01*
X153629654Y-110274603D01*
X154064000Y-110361000D01*
X155112432Y-110361000D01*
X155125452Y-110374043D01*
X155419264Y-110496045D01*
X155127457Y-110616617D01*
X155113049Y-110631000D01*
X151934000Y-110631000D01*
X151499654Y-110717397D01*
X151234447Y-110894603D01*
X151131434Y-110963434D01*
X150441440Y-111653428D01*
X150441440Y-109906000D01*
X150392157Y-109658235D01*
X150251809Y-109448191D01*
X150041765Y-109307843D01*
X149794000Y-109258560D01*
X147994000Y-109258560D01*
X147746235Y-109307843D01*
X147536191Y-109448191D01*
X147478165Y-109535033D01*
X144134132Y-106191000D01*
X147824036Y-106191000D01*
X147754467Y-106295118D01*
X147754467Y-106295118D01*
G37*
X147754467Y-106295118D02*
X147652846Y-106806000D01*
X147754467Y-107316882D01*
X148043858Y-107749988D01*
X148476964Y-108039379D01*
X148987846Y-108141000D01*
X149040154Y-108141000D01*
X149551036Y-108039379D01*
X149698271Y-107941000D01*
X151173868Y-107941000D01*
X153261434Y-110028566D01*
X153629654Y-110274603D01*
X154064000Y-110361000D01*
X155112432Y-110361000D01*
X155125452Y-110374043D01*
X155419264Y-110496045D01*
X155127457Y-110616617D01*
X155113049Y-110631000D01*
X151934000Y-110631000D01*
X151499654Y-110717397D01*
X151234447Y-110894603D01*
X151131434Y-110963434D01*
X150441440Y-111653428D01*
X150441440Y-109906000D01*
X150392157Y-109658235D01*
X150251809Y-109448191D01*
X150041765Y-109307843D01*
X149794000Y-109258560D01*
X147994000Y-109258560D01*
X147746235Y-109307843D01*
X147536191Y-109448191D01*
X147478165Y-109535033D01*
X144134132Y-106191000D01*
X147824036Y-106191000D01*
X147754467Y-106295118D01*
G36*
X154759000Y-104306000D02*
X154845397Y-104740346D01*
X155067695Y-105073038D01*
X155091434Y-105108566D01*
X158009000Y-108026132D01*
X158009000Y-111565868D01*
X157406566Y-110963434D01*
X157303553Y-110894603D01*
X157038346Y-110717397D01*
X156693300Y-110648763D01*
X156662548Y-110617957D01*
X156368736Y-110495955D01*
X156660543Y-110375383D01*
X157042043Y-109994548D01*
X157248764Y-109496709D01*
X157249235Y-108957656D01*
X157043383Y-108459457D01*
X156662548Y-108077957D01*
X156164709Y-107871236D01*
X155625656Y-107870765D01*
X155127457Y-108076617D01*
X155113049Y-108091000D01*
X154534132Y-108091000D01*
X152446566Y-106003434D01*
X152411843Y-105980233D01*
X152338161Y-105931000D01*
X152446566Y-105858566D01*
X153946566Y-104358566D01*
X154192603Y-103990346D01*
X154206397Y-103921000D01*
X154279000Y-103556000D01*
X154279000Y-102062484D01*
X154528846Y-101813073D01*
X154759000Y-101258800D01*
X154759000Y-104306000D01*
X154759000Y-104306000D01*
G37*
X154759000Y-104306000D02*
X154845397Y-104740346D01*
X155067695Y-105073038D01*
X155091434Y-105108566D01*
X158009000Y-108026132D01*
X158009000Y-111565868D01*
X157406566Y-110963434D01*
X157303553Y-110894603D01*
X157038346Y-110717397D01*
X156693300Y-110648763D01*
X156662548Y-110617957D01*
X156368736Y-110495955D01*
X156660543Y-110375383D01*
X157042043Y-109994548D01*
X157248764Y-109496709D01*
X157249235Y-108957656D01*
X157043383Y-108459457D01*
X156662548Y-108077957D01*
X156164709Y-107871236D01*
X155625656Y-107870765D01*
X155127457Y-108076617D01*
X155113049Y-108091000D01*
X154534132Y-108091000D01*
X152446566Y-106003434D01*
X152411843Y-105980233D01*
X152338161Y-105931000D01*
X152446566Y-105858566D01*
X153946566Y-104358566D01*
X154192603Y-103990346D01*
X154206397Y-103921000D01*
X154279000Y-103556000D01*
X154279000Y-102062484D01*
X154528846Y-101813073D01*
X154759000Y-101258800D01*
X154759000Y-104306000D01*
G36*
X157296927Y-102270846D02*
X157897453Y-102520206D01*
X158547694Y-102520774D01*
X159148655Y-102272462D01*
X159259000Y-102162309D01*
X159259000Y-104556000D01*
X159345397Y-104990346D01*
X159509000Y-105235195D01*
X159509000Y-106315868D01*
X157029000Y-103835868D01*
X157029000Y-102002451D01*
X157296927Y-102270846D01*
X157296927Y-102270846D01*
G37*
X157296927Y-102270846D02*
X157897453Y-102520206D01*
X158547694Y-102520774D01*
X159148655Y-102272462D01*
X159259000Y-102162309D01*
X159259000Y-104556000D01*
X159345397Y-104990346D01*
X159509000Y-105235195D01*
X159509000Y-106315868D01*
X157029000Y-103835868D01*
X157029000Y-102002451D01*
X157296927Y-102270846D01*
G36*
X151509794Y-100559453D02*
X151509226Y-101209694D01*
X151757538Y-101810655D01*
X152009000Y-102062556D01*
X152009000Y-103085868D01*
X151173868Y-103921000D01*
X147779000Y-103921000D01*
X147779000Y-103240511D01*
X147844000Y-103253440D01*
X149444000Y-103253440D01*
X149691765Y-103204157D01*
X149901809Y-103063809D01*
X150042157Y-102853765D01*
X150091440Y-102606000D01*
X150091440Y-101963692D01*
X151519816Y-100535317D01*
X151509794Y-100559453D01*
X151509794Y-100559453D01*
G37*
X151509794Y-100559453D02*
X151509226Y-101209694D01*
X151757538Y-101810655D01*
X152009000Y-102062556D01*
X152009000Y-103085868D01*
X151173868Y-103921000D01*
X147779000Y-103921000D01*
X147779000Y-103240511D01*
X147844000Y-103253440D01*
X149444000Y-103253440D01*
X149691765Y-103204157D01*
X149901809Y-103063809D01*
X150042157Y-102853765D01*
X150091440Y-102606000D01*
X150091440Y-101963692D01*
X151519816Y-100535317D01*
X151509794Y-100559453D01*
G36*
X147648519Y-85970591D02*
X147315773Y-86468581D01*
X147198928Y-87056000D01*
X147315773Y-87643419D01*
X147648519Y-88141409D01*
X148146509Y-88474155D01*
X148733928Y-88591000D01*
X148794072Y-88591000D01*
X149381491Y-88474155D01*
X149805263Y-88191000D01*
X152173868Y-88191000D01*
X153801434Y-89818566D01*
X154169654Y-90064603D01*
X154604000Y-90151000D01*
X154606817Y-90151000D01*
X154536191Y-90198191D01*
X154395843Y-90408235D01*
X154346560Y-90656000D01*
X154346560Y-92456000D01*
X154395843Y-92703765D01*
X154536191Y-92913809D01*
X154746235Y-93054157D01*
X154759000Y-93056696D01*
X154759000Y-100514449D01*
X154530462Y-99961345D01*
X154071073Y-99501154D01*
X153470547Y-99251794D01*
X152820306Y-99251226D01*
X152219345Y-99499538D01*
X151995853Y-99722640D01*
X152029000Y-99556000D01*
X152029000Y-98056000D01*
X152016071Y-97991000D01*
X151942604Y-97621655D01*
X151696567Y-97253434D01*
X149978800Y-95535668D01*
X149979231Y-95041617D01*
X149779000Y-94557020D01*
X149779000Y-91932853D01*
X150023533Y-91566882D01*
X150125154Y-91056000D01*
X150023533Y-90545118D01*
X149734142Y-90112012D01*
X149301036Y-89822621D01*
X148790154Y-89721000D01*
X148737846Y-89721000D01*
X148226964Y-89822621D01*
X147793858Y-90112012D01*
X147504467Y-90545118D01*
X147402846Y-91056000D01*
X147504467Y-91566882D01*
X147509000Y-91573666D01*
X147509000Y-94558193D01*
X147433397Y-94740265D01*
X144946566Y-92253434D01*
X144847287Y-92187098D01*
X144578346Y-92007397D01*
X144144000Y-91921000D01*
X142167114Y-91921000D01*
X142275098Y-91813204D01*
X142478768Y-91322713D01*
X142479231Y-90791617D01*
X142279000Y-90307020D01*
X142279000Y-88556696D01*
X142291765Y-88554157D01*
X142501809Y-88413809D01*
X142642157Y-88203765D01*
X142691440Y-87956000D01*
X142691440Y-86156000D01*
X142642157Y-85908235D01*
X142501809Y-85698191D01*
X142476081Y-85681000D01*
X148081923Y-85681000D01*
X147648519Y-85970591D01*
X147648519Y-85970591D01*
G37*
X147648519Y-85970591D02*
X147315773Y-86468581D01*
X147198928Y-87056000D01*
X147315773Y-87643419D01*
X147648519Y-88141409D01*
X148146509Y-88474155D01*
X148733928Y-88591000D01*
X148794072Y-88591000D01*
X149381491Y-88474155D01*
X149805263Y-88191000D01*
X152173868Y-88191000D01*
X153801434Y-89818566D01*
X154169654Y-90064603D01*
X154604000Y-90151000D01*
X154606817Y-90151000D01*
X154536191Y-90198191D01*
X154395843Y-90408235D01*
X154346560Y-90656000D01*
X154346560Y-92456000D01*
X154395843Y-92703765D01*
X154536191Y-92913809D01*
X154746235Y-93054157D01*
X154759000Y-93056696D01*
X154759000Y-100514449D01*
X154530462Y-99961345D01*
X154071073Y-99501154D01*
X153470547Y-99251794D01*
X152820306Y-99251226D01*
X152219345Y-99499538D01*
X151995853Y-99722640D01*
X152029000Y-99556000D01*
X152029000Y-98056000D01*
X152016071Y-97991000D01*
X151942604Y-97621655D01*
X151696567Y-97253434D01*
X149978800Y-95535668D01*
X149979231Y-95041617D01*
X149779000Y-94557020D01*
X149779000Y-91932853D01*
X150023533Y-91566882D01*
X150125154Y-91056000D01*
X150023533Y-90545118D01*
X149734142Y-90112012D01*
X149301036Y-89822621D01*
X148790154Y-89721000D01*
X148737846Y-89721000D01*
X148226964Y-89822621D01*
X147793858Y-90112012D01*
X147504467Y-90545118D01*
X147402846Y-91056000D01*
X147504467Y-91566882D01*
X147509000Y-91573666D01*
X147509000Y-94558193D01*
X147433397Y-94740265D01*
X144946566Y-92253434D01*
X144847287Y-92187098D01*
X144578346Y-92007397D01*
X144144000Y-91921000D01*
X142167114Y-91921000D01*
X142275098Y-91813204D01*
X142478768Y-91322713D01*
X142479231Y-90791617D01*
X142279000Y-90307020D01*
X142279000Y-88556696D01*
X142291765Y-88554157D01*
X142501809Y-88413809D01*
X142642157Y-88203765D01*
X142691440Y-87956000D01*
X142691440Y-86156000D01*
X142642157Y-85908235D01*
X142501809Y-85698191D01*
X142476081Y-85681000D01*
X148081923Y-85681000D01*
X147648519Y-85970591D01*
G36*
X148377287Y-100140768D02*
X148703815Y-100141053D01*
X148486308Y-100358560D01*
X147844000Y-100358560D01*
X147779000Y-100371489D01*
X147779000Y-99941000D01*
X147896193Y-99941000D01*
X148377287Y-100140768D01*
X148377287Y-100140768D01*
G37*
X148377287Y-100140768D02*
X148703815Y-100141053D01*
X148486308Y-100358560D01*
X147844000Y-100358560D01*
X147779000Y-100371489D01*
X147779000Y-99941000D01*
X147896193Y-99941000D01*
X148377287Y-100140768D01*
G36*
X157089000Y-99709516D02*
X157029000Y-99769412D01*
X157029000Y-93056696D01*
X157041765Y-93054157D01*
X157089000Y-93022595D01*
X157089000Y-99709516D01*
X157089000Y-99709516D01*
G37*
X157089000Y-99709516D02*
X157029000Y-99769412D01*
X157029000Y-93056696D01*
X157041765Y-93054157D01*
X157089000Y-93022595D01*
X157089000Y-99709516D01*
G36*
X113646235Y-85707843D02*
X113436191Y-85848191D01*
X113295843Y-86058235D01*
X113246560Y-86306000D01*
X113246560Y-89306000D01*
X113295843Y-89553765D01*
X113436191Y-89763809D01*
X113646235Y-89904157D01*
X113894000Y-89953440D01*
X116894000Y-89953440D01*
X117141765Y-89904157D01*
X117351809Y-89763809D01*
X117492157Y-89553765D01*
X117541440Y-89306000D01*
X117541440Y-88872000D01*
X124509000Y-88872000D01*
X124509000Y-91458560D01*
X124444000Y-91458560D01*
X124196235Y-91507843D01*
X123986191Y-91648191D01*
X123845843Y-91858235D01*
X123796560Y-92106000D01*
X123796560Y-94506000D01*
X123829380Y-94671000D01*
X120644000Y-94671000D01*
X120209654Y-94757397D01*
X119934873Y-94941000D01*
X119841434Y-95003434D01*
X116186308Y-98658560D01*
X113896572Y-98658560D01*
X116196566Y-96358566D01*
X116199214Y-96354603D01*
X116442603Y-95990346D01*
X116529000Y-95556000D01*
X116529000Y-94727100D01*
X116601800Y-94697020D01*
X117202909Y-94096959D01*
X117528628Y-93312541D01*
X117529370Y-92463185D01*
X117205020Y-91678200D01*
X116604959Y-91077091D01*
X115820541Y-90751372D01*
X114971185Y-90750630D01*
X114186200Y-91074980D01*
X113585091Y-91675041D01*
X113259372Y-92459459D01*
X113258630Y-93308815D01*
X113582980Y-94093800D01*
X114183041Y-94694909D01*
X114259000Y-94726450D01*
X114259000Y-95085868D01*
X111186308Y-98158560D01*
X111007000Y-98158560D01*
X111007000Y-86715584D01*
X112041584Y-85681000D01*
X113781185Y-85681000D01*
X113646235Y-85707843D01*
X113646235Y-85707843D01*
G37*
X113646235Y-85707843D02*
X113436191Y-85848191D01*
X113295843Y-86058235D01*
X113246560Y-86306000D01*
X113246560Y-89306000D01*
X113295843Y-89553765D01*
X113436191Y-89763809D01*
X113646235Y-89904157D01*
X113894000Y-89953440D01*
X116894000Y-89953440D01*
X117141765Y-89904157D01*
X117351809Y-89763809D01*
X117492157Y-89553765D01*
X117541440Y-89306000D01*
X117541440Y-88872000D01*
X124509000Y-88872000D01*
X124509000Y-91458560D01*
X124444000Y-91458560D01*
X124196235Y-91507843D01*
X123986191Y-91648191D01*
X123845843Y-91858235D01*
X123796560Y-92106000D01*
X123796560Y-94506000D01*
X123829380Y-94671000D01*
X120644000Y-94671000D01*
X120209654Y-94757397D01*
X119934873Y-94941000D01*
X119841434Y-95003434D01*
X116186308Y-98658560D01*
X113896572Y-98658560D01*
X116196566Y-96358566D01*
X116199214Y-96354603D01*
X116442603Y-95990346D01*
X116529000Y-95556000D01*
X116529000Y-94727100D01*
X116601800Y-94697020D01*
X117202909Y-94096959D01*
X117528628Y-93312541D01*
X117529370Y-92463185D01*
X117205020Y-91678200D01*
X116604959Y-91077091D01*
X115820541Y-90751372D01*
X114971185Y-90750630D01*
X114186200Y-91074980D01*
X113585091Y-91675041D01*
X113259372Y-92459459D01*
X113258630Y-93308815D01*
X113582980Y-94093800D01*
X114183041Y-94694909D01*
X114259000Y-94726450D01*
X114259000Y-95085868D01*
X111186308Y-98158560D01*
X111007000Y-98158560D01*
X111007000Y-86715584D01*
X112041584Y-85681000D01*
X113781185Y-85681000D01*
X113646235Y-85707843D01*
G36*
X147841434Y-96608566D02*
X148703919Y-97471052D01*
X148379617Y-97470769D01*
X147895020Y-97671000D01*
X147779000Y-97671000D01*
X147779000Y-96515127D01*
X147841434Y-96608566D01*
X147841434Y-96608566D01*
G37*
X147841434Y-96608566D02*
X148703919Y-97471052D01*
X148379617Y-97470769D01*
X147895020Y-97671000D01*
X147779000Y-97671000D01*
X147779000Y-96515127D01*
X147841434Y-96608566D01*
G36*
X140009000Y-90308193D02*
X139809232Y-90789287D01*
X139808769Y-91320383D01*
X140011582Y-91811229D01*
X140121162Y-91921000D01*
X138864132Y-91921000D01*
X136446566Y-89503434D01*
X136151085Y-89306000D01*
X136078346Y-89257397D01*
X135644000Y-89171000D01*
X130644000Y-89171000D01*
X130209654Y-89257397D01*
X130136915Y-89306000D01*
X129841434Y-89503434D01*
X128591434Y-90753434D01*
X128345397Y-91121654D01*
X128259000Y-91556000D01*
X128259000Y-93335868D01*
X127491440Y-94103428D01*
X127491440Y-92106000D01*
X127442157Y-91858235D01*
X127301809Y-91648191D01*
X127091765Y-91507843D01*
X126844000Y-91458560D01*
X126779000Y-91458560D01*
X126779000Y-88872000D01*
X140009000Y-88872000D01*
X140009000Y-90308193D01*
X140009000Y-90308193D01*
G37*
X140009000Y-90308193D02*
X139809232Y-90789287D01*
X139808769Y-91320383D01*
X140011582Y-91811229D01*
X140121162Y-91921000D01*
X138864132Y-91921000D01*
X136446566Y-89503434D01*
X136151085Y-89306000D01*
X136078346Y-89257397D01*
X135644000Y-89171000D01*
X130644000Y-89171000D01*
X130209654Y-89257397D01*
X130136915Y-89306000D01*
X129841434Y-89503434D01*
X128591434Y-90753434D01*
X128345397Y-91121654D01*
X128259000Y-91556000D01*
X128259000Y-93335868D01*
X127491440Y-94103428D01*
X127491440Y-92106000D01*
X127442157Y-91858235D01*
X127301809Y-91648191D01*
X127091765Y-91507843D01*
X126844000Y-91458560D01*
X126779000Y-91458560D01*
X126779000Y-88872000D01*
X140009000Y-88872000D01*
X140009000Y-90308193D01*
G36*
X159259000Y-89276132D02*
X159259000Y-89931295D01*
X159026566Y-89583434D01*
X157656566Y-88213434D01*
X157493689Y-88104603D01*
X157288346Y-87967397D01*
X156983591Y-87906777D01*
X156979409Y-87900519D01*
X156748155Y-87746000D01*
X156950197Y-87611000D01*
X157593868Y-87611000D01*
X159259000Y-89276132D01*
X159259000Y-89276132D01*
G37*
X159259000Y-89276132D02*
X159259000Y-89931295D01*
X159026566Y-89583434D01*
X157656566Y-88213434D01*
X157493689Y-88104603D01*
X157288346Y-87967397D01*
X156983591Y-87906777D01*
X156979409Y-87900519D01*
X156748155Y-87746000D01*
X156950197Y-87611000D01*
X157593868Y-87611000D01*
X159259000Y-89276132D01*
G36*
X161169000Y-86703584D02*
X161169000Y-87975868D01*
X158874132Y-85681000D01*
X160146416Y-85681000D01*
X161169000Y-86703584D01*
X161169000Y-86703584D01*
G37*
X161169000Y-86703584D02*
X161169000Y-87975868D01*
X158874132Y-85681000D01*
X160146416Y-85681000D01*
X161169000Y-86703584D01*
G36*
X154475845Y-85858509D02*
X154359000Y-86445928D01*
X154359000Y-86506072D01*
X154475845Y-87093491D01*
X154808591Y-87591481D01*
X155039845Y-87746000D01*
X154979472Y-87786340D01*
X153446566Y-86253434D01*
X153308229Y-86161000D01*
X153078346Y-86007397D01*
X152644000Y-85921000D01*
X149805263Y-85921000D01*
X149446077Y-85681000D01*
X154594453Y-85681000D01*
X154475845Y-85858509D01*
X154475845Y-85858509D01*
G37*
X154475845Y-85858509D02*
X154359000Y-86445928D01*
X154359000Y-86506072D01*
X154475845Y-87093491D01*
X154808591Y-87591481D01*
X155039845Y-87746000D01*
X154979472Y-87786340D01*
X153446566Y-86253434D01*
X153308229Y-86161000D01*
X153078346Y-86007397D01*
X152644000Y-85921000D01*
X149805263Y-85921000D01*
X149446077Y-85681000D01*
X154594453Y-85681000D01*
X154475845Y-85858509D01*
G36*
X139786191Y-85698191D02*
X139645843Y-85908235D01*
X139596560Y-86156000D01*
X139596560Y-86602000D01*
X117541440Y-86602000D01*
X117541440Y-86306000D01*
X117492157Y-86058235D01*
X117351809Y-85848191D01*
X117141765Y-85707843D01*
X117006815Y-85681000D01*
X139811919Y-85681000D01*
X139786191Y-85698191D01*
X139786191Y-85698191D01*
G37*
X139786191Y-85698191D02*
X139645843Y-85908235D01*
X139596560Y-86156000D01*
X139596560Y-86602000D01*
X117541440Y-86602000D01*
X117541440Y-86306000D01*
X117492157Y-86058235D01*
X117351809Y-85848191D01*
X117141765Y-85707843D01*
X117006815Y-85681000D01*
X139811919Y-85681000D01*
X139786191Y-85698191D01*
%TD*%
M02*
