%TF.GenerationSoftware,KiCad,Pcbnew,no-vcs-found-e2d3fce~60~ubuntu14.04.1*%
%TF.CreationDate,2017-09-21T01:46:33-03:00*%
%TF.ProjectId,RFIDZapper,524649445A61707065722E6B69636164,rev?*%
%TF.SameCoordinates,Original*%
%TF.FileFunction,Soldermask,Bot*%
%TF.FilePolarity,Negative*%
%FSLAX46Y46*%
G04 Gerber Fmt 4.6, Leading zero omitted, Abs format (unit mm)*
G04 Created by KiCad (PCBNEW no-vcs-found-e2d3fce~60~ubuntu14.04.1) date Thu Sep 21 01:46:33 2017*
%MOMM*%
%LPD*%
G01*
G04 APERTURE LIST*
%ADD10C,0.700000*%
%ADD11R,1.000000X1.000000*%
%ADD12R,1.800000X1.800000*%
%ADD13O,1.800000X1.800000*%
%ADD14C,1.000000*%
%ADD15O,1.400000X1.400000*%
%ADD16C,1.400000*%
%ADD17C,3.000000*%
%ADD18R,3.000000X3.000000*%
%ADD19C,1.600000*%
%ADD20C,2.400000*%
%ADD21R,2.400000X2.400000*%
%ADD22C,1.800000*%
%ADD23C,1.998980*%
%ADD24C,1.440000*%
%ADD25O,2.400000X1.600000*%
%ADD26R,2.400000X1.600000*%
%ADD27O,1.600000X1.600000*%
%ADD28R,1.600000X1.600000*%
G04 APERTURE END LIST*
D10*
%TO.C,AE1*%
X164794000Y-105826000D03*
X163774000Y-103786000D03*
X162754000Y-105826000D03*
X161734000Y-103786000D03*
X108934000Y-105826000D03*
X107914000Y-103786000D03*
D11*
X110442000Y-110306000D03*
X110442000Y-99306000D03*
%TD*%
D12*
%TO.C,D3*%
X121944000Y-88056000D03*
D13*
X129564000Y-88056000D03*
%TD*%
D11*
%TO.C,Q1*%
X122144000Y-109306000D03*
D14*
X124684000Y-109306000D03*
X123414000Y-108036000D03*
%TD*%
D15*
%TO.C,R8*%
X129564000Y-92056000D03*
D16*
X121944000Y-92056000D03*
%TD*%
D15*
%TO.C,R3*%
X149014000Y-120306000D03*
D16*
X141394000Y-120306000D03*
%TD*%
D13*
%TO.C,Q2*%
X139974000Y-90806000D03*
X137434000Y-90806000D03*
D12*
X134894000Y-90806000D03*
%TD*%
D17*
%TO.C,BT1*%
X115394000Y-118886000D03*
D18*
X115394000Y-113806000D03*
%TD*%
D19*
%TO.C,C1*%
X153394000Y-119556000D03*
X158394000Y-119556000D03*
%TD*%
%TO.C,C2*%
X134644000Y-119556000D03*
X129644000Y-119556000D03*
%TD*%
D20*
%TO.C,C3*%
X150144000Y-94556000D03*
D21*
X157644000Y-94556000D03*
%TD*%
D22*
%TO.C,DL1*%
X122104000Y-118806000D03*
D12*
X124644000Y-118806000D03*
%TD*%
D23*
%TO.C,L1*%
X137474000Y-97976000D03*
X137474000Y-103056000D03*
%TD*%
D15*
%TO.C,R1*%
X149014000Y-106806000D03*
D16*
X141394000Y-106806000D03*
%TD*%
D24*
%TO.C,R2*%
X155894000Y-109226000D03*
X155894000Y-111766000D03*
X155894000Y-114306000D03*
%TD*%
D16*
%TO.C,R6*%
X129394000Y-103556000D03*
D15*
X121774000Y-103556000D03*
%TD*%
%TO.C,R9*%
X121774000Y-95806000D03*
D16*
X129394000Y-95806000D03*
%TD*%
D18*
%TO.C,SW_SPST1*%
X115394000Y-100806000D03*
D17*
X115394000Y-105886000D03*
%TD*%
%TO.C,SW_SPST3*%
X115394000Y-92886000D03*
D18*
X115394000Y-87806000D03*
%TD*%
D25*
%TO.C,U1*%
X136014000Y-107306000D03*
X128394000Y-114926000D03*
X136014000Y-109846000D03*
X128394000Y-112386000D03*
X136014000Y-112386000D03*
X128394000Y-109846000D03*
X136014000Y-114926000D03*
D26*
X128394000Y-107306000D03*
%TD*%
D13*
%TO.C,D1*%
X141274000Y-110806000D03*
D12*
X148894000Y-110806000D03*
%TD*%
D13*
%TO.C,D2*%
X149014000Y-115806000D03*
D12*
X141394000Y-115806000D03*
%TD*%
D27*
%TO.C,DZ1*%
X121774000Y-99806000D03*
D28*
X129394000Y-99806000D03*
%TD*%
M02*
