M48
;DRILL file {KiCad no-vcs-found-e2d3fce~60~ubuntu14.04.1} date Thu Sep 21 01:46:36 2017
;FORMAT={-:-/ absolute / inch / decimal}
FMAT,2
INCH,TZ
T1C0.012
T2C0.024
T3C0.028
T4C0.031
T5C0.035
T6C0.039
T7C0.039
T8C0.047
T9C0.060
%
G90
G05
M72
T1
X4.2486Y-4.0861
X4.2887Y-4.1664
X6.3675Y-4.0861
X6.4076Y-4.1664
X6.4478Y-4.0861
X6.488Y-4.1664
T2
X4.8088Y-4.3034
X4.8588Y-4.2534
X4.9088Y-4.3034
T3
X4.8009Y-3.6243
X5.1009Y-3.6243
X4.7943Y-3.7719
X5.0943Y-3.7719
X5.5667Y-4.7365
X5.8667Y-4.7365
X5.5667Y-4.205
X5.8667Y-4.205
X4.7943Y-4.077
X5.0943Y-4.077
T4
X6.0391Y-4.7069
X6.236Y-4.7069
X6.1376Y-4.3002
X6.1376Y-4.4002
X6.1376Y-4.5002
X5.1041Y-4.7069
X5.3009Y-4.7069
X4.7943Y-3.9294
X5.0943Y-3.9294
X5.0549Y-4.2246
X5.0549Y-4.3246
X5.0549Y-4.4246
X5.0549Y-4.5246
X5.3549Y-4.2246
X5.3549Y-4.3246
X5.3549Y-4.4246
X5.3549Y-4.5246
T5
X4.8072Y-4.6774
X4.9072Y-4.6774
X5.562Y-4.3624
X5.862Y-4.3624
X5.5667Y-4.5593
X5.8667Y-4.5593
X4.8009Y-3.4668
X5.1009Y-3.4668
T6
X5.3108Y-3.575
X5.4108Y-3.575
X5.5108Y-3.575
T7
X5.4124Y-3.8573
X5.4124Y-4.0573
T8
X5.9112Y-3.7227
X6.2065Y-3.7227
T9
X4.5431Y-3.4569
X4.5431Y-3.6569
X4.5431Y-3.9687
X4.5431Y-4.1687
X4.5431Y-4.4806
X4.5431Y-4.6806
T0
M30
