%TF.GenerationSoftware,KiCad,Pcbnew,no-vcs-found-e2505cb~60~ubuntu14.04.1*%
%TF.CreationDate,2017-09-17T03:07:11-03:00*%
%TF.ProjectId,RFIDZapper,524649445A61707065722E6B69636164,rev?*%
%TF.SameCoordinates,Original*%
%TF.FileFunction,Soldermask,Bot*%
%TF.FilePolarity,Negative*%
%FSLAX46Y46*%
G04 Gerber Fmt 4.6, Leading zero omitted, Abs format (unit mm)*
G04 Created by KiCad (PCBNEW no-vcs-found-e2505cb~60~ubuntu14.04.1) date Sun Sep 17 03:07:11 2017*
%MOMM*%
%LPD*%
G01*
G04 APERTURE LIST*
%ADD10C,0.010000*%
%ADD11C,1.440000*%
%ADD12R,1.000000X1.000000*%
%ADD13C,0.700000*%
%ADD14R,3.000000X3.000000*%
%ADD15C,3.000000*%
%ADD16C,1.600000*%
%ADD17C,1.200000*%
%ADD18R,1.200000X1.200000*%
%ADD19C,2.400000*%
%ADD20R,2.400000X2.400000*%
%ADD21O,3.500000X3.500000*%
%ADD22R,1.800000X1.800000*%
%ADD23O,1.800000X1.800000*%
%ADD24C,1.800000*%
%ADD25C,1.000000*%
%ADD26C,1.400000*%
%ADD27O,1.400000X1.400000*%
%ADD28C,1.998980*%
%ADD29O,1.600000X2.400000*%
%ADD30R,1.600000X2.400000*%
G04 APERTURE END LIST*
D10*
%TO.C,G\002A\002A\002A*%
G36*
X184385686Y-121889608D02*
X183339804Y-121889608D01*
X183339804Y-122935491D01*
X184385686Y-122935491D01*
X184385686Y-121889608D01*
X184385686Y-121889608D01*
G37*
X184385686Y-121889608D02*
X183339804Y-121889608D01*
X183339804Y-122935491D01*
X184385686Y-122935491D01*
X184385686Y-121889608D01*
G36*
X178110392Y-121889608D02*
X177064509Y-121889608D01*
X177064509Y-122935491D01*
X178110392Y-122935491D01*
X178110392Y-121889608D01*
X178110392Y-121889608D01*
G37*
X178110392Y-121889608D02*
X177064509Y-121889608D01*
X177064509Y-122935491D01*
X178110392Y-122935491D01*
X178110392Y-121889608D01*
G36*
X182933693Y-117349742D02*
X182981606Y-117306244D01*
X182991154Y-117196405D01*
X182991176Y-117183138D01*
X182983466Y-117066307D01*
X182939969Y-117018394D01*
X182830130Y-117008846D01*
X182816862Y-117008824D01*
X182700032Y-117016534D01*
X182652119Y-117060031D01*
X182642570Y-117169870D01*
X182642549Y-117183138D01*
X182650258Y-117299968D01*
X182693756Y-117347881D01*
X182803595Y-117357430D01*
X182816862Y-117357451D01*
X182933693Y-117349742D01*
X182933693Y-117349742D01*
G37*
X182933693Y-117349742D02*
X182981606Y-117306244D01*
X182991154Y-117196405D01*
X182991176Y-117183138D01*
X182983466Y-117066307D01*
X182939969Y-117018394D01*
X182830130Y-117008846D01*
X182816862Y-117008824D01*
X182700032Y-117016534D01*
X182652119Y-117060031D01*
X182642570Y-117169870D01*
X182642549Y-117183138D01*
X182650258Y-117299968D01*
X182693756Y-117347881D01*
X182803595Y-117357430D01*
X182816862Y-117357451D01*
X182933693Y-117349742D01*
G36*
X180144673Y-117349742D02*
X180192586Y-117306244D01*
X180202135Y-117196405D01*
X180202157Y-117183138D01*
X180194447Y-117066307D01*
X180150949Y-117018394D01*
X180041111Y-117008846D01*
X180027843Y-117008824D01*
X179911012Y-117016534D01*
X179863099Y-117060031D01*
X179853551Y-117169870D01*
X179853529Y-117183138D01*
X179861239Y-117299968D01*
X179904737Y-117347881D01*
X180014575Y-117357430D01*
X180027843Y-117357451D01*
X180144673Y-117349742D01*
X180144673Y-117349742D01*
G37*
X180144673Y-117349742D02*
X180192586Y-117306244D01*
X180202135Y-117196405D01*
X180202157Y-117183138D01*
X180194447Y-117066307D01*
X180150949Y-117018394D01*
X180041111Y-117008846D01*
X180027843Y-117008824D01*
X179911012Y-117016534D01*
X179863099Y-117060031D01*
X179853551Y-117169870D01*
X179853529Y-117183138D01*
X179861239Y-117299968D01*
X179904737Y-117347881D01*
X180014575Y-117357430D01*
X180027843Y-117357451D01*
X180144673Y-117349742D01*
G36*
X178110392Y-115614314D02*
X177064509Y-115614314D01*
X177064509Y-116660196D01*
X178110392Y-116660196D01*
X178110392Y-115614314D01*
X178110392Y-115614314D01*
G37*
X178110392Y-115614314D02*
X177064509Y-115614314D01*
X177064509Y-116660196D01*
X178110392Y-116660196D01*
X178110392Y-115614314D01*
G36*
X181248039Y-123284118D02*
X180550784Y-123284118D01*
X180550784Y-123632745D01*
X181248039Y-123632745D01*
X181248039Y-123284118D01*
X181248039Y-123284118D01*
G37*
X181248039Y-123284118D02*
X180550784Y-123284118D01*
X180550784Y-123632745D01*
X181248039Y-123632745D01*
X181248039Y-123284118D01*
G36*
X180202157Y-122935491D02*
X179853529Y-122935491D01*
X179853529Y-123632745D01*
X180202157Y-123632745D01*
X180202157Y-122935491D01*
X180202157Y-122935491D01*
G37*
X180202157Y-122935491D02*
X179853529Y-122935491D01*
X179853529Y-123632745D01*
X180202157Y-123632745D01*
X180202157Y-122935491D01*
G36*
X179447418Y-123276408D02*
X179495332Y-123232911D01*
X179504880Y-123123072D01*
X179504902Y-123109804D01*
X179497192Y-122992974D01*
X179453694Y-122945061D01*
X179343856Y-122935512D01*
X179330588Y-122935491D01*
X179213757Y-122943200D01*
X179165844Y-122986698D01*
X179156296Y-123096536D01*
X179156274Y-123109804D01*
X179163984Y-123226635D01*
X179207482Y-123274548D01*
X179317320Y-123284096D01*
X179330588Y-123284118D01*
X179447418Y-123276408D01*
X179447418Y-123276408D01*
G37*
X179447418Y-123276408D02*
X179495332Y-123232911D01*
X179504880Y-123123072D01*
X179504902Y-123109804D01*
X179497192Y-122992974D01*
X179453694Y-122945061D01*
X179343856Y-122935512D01*
X179330588Y-122935491D01*
X179213757Y-122943200D01*
X179165844Y-122986698D01*
X179156296Y-123096536D01*
X179156274Y-123109804D01*
X179163984Y-123226635D01*
X179207482Y-123274548D01*
X179317320Y-123284096D01*
X179330588Y-123284118D01*
X179447418Y-123276408D01*
G36*
X185082941Y-121192353D02*
X182642549Y-121192353D01*
X182642549Y-123284118D01*
X182991176Y-123284118D01*
X182991176Y-121540981D01*
X184734313Y-121540981D01*
X184734313Y-123284118D01*
X182991176Y-123284118D01*
X182642549Y-123284118D01*
X182642549Y-123632745D01*
X185082941Y-123632745D01*
X185082941Y-121192353D01*
X185082941Y-121192353D01*
G37*
X185082941Y-121192353D02*
X182642549Y-121192353D01*
X182642549Y-123284118D01*
X182991176Y-123284118D01*
X182991176Y-121540981D01*
X184734313Y-121540981D01*
X184734313Y-123284118D01*
X182991176Y-123284118D01*
X182642549Y-123284118D01*
X182642549Y-123632745D01*
X185082941Y-123632745D01*
X185082941Y-121192353D01*
G36*
X182236438Y-123625036D02*
X182284351Y-123581538D01*
X182293900Y-123471700D01*
X182293921Y-123458432D01*
X182286211Y-123341601D01*
X182242714Y-123293688D01*
X182132875Y-123284140D01*
X182119608Y-123284118D01*
X182002777Y-123276408D01*
X181954864Y-123232911D01*
X181945315Y-123123072D01*
X181945294Y-123109804D01*
X181953004Y-122992974D01*
X181996501Y-122945061D01*
X182106340Y-122935512D01*
X182119608Y-122935491D01*
X182236438Y-122927781D01*
X182284351Y-122884283D01*
X182293900Y-122774445D01*
X182293921Y-122761177D01*
X182286211Y-122644346D01*
X182242714Y-122596433D01*
X182132875Y-122586885D01*
X182119608Y-122586863D01*
X182002777Y-122579153D01*
X181954864Y-122535656D01*
X181945315Y-122425817D01*
X181945294Y-122412549D01*
X181953004Y-122295719D01*
X181996501Y-122247806D01*
X182106340Y-122238257D01*
X182119608Y-122238236D01*
X182236438Y-122230526D01*
X182284351Y-122187028D01*
X182293900Y-122077190D01*
X182293921Y-122063922D01*
X182286211Y-121947091D01*
X182242714Y-121899178D01*
X182132875Y-121889630D01*
X182119608Y-121889608D01*
X182002777Y-121881898D01*
X181954864Y-121838401D01*
X181945315Y-121728562D01*
X181945294Y-121715294D01*
X181953004Y-121598464D01*
X181996501Y-121550551D01*
X182106340Y-121541002D01*
X182119608Y-121540981D01*
X182236438Y-121533271D01*
X182284351Y-121489773D01*
X182293900Y-121379935D01*
X182293921Y-121366667D01*
X182286211Y-121249836D01*
X182242714Y-121201923D01*
X182132875Y-121192375D01*
X182119608Y-121192353D01*
X182002777Y-121200063D01*
X181954864Y-121243561D01*
X181945315Y-121353399D01*
X181945294Y-121366667D01*
X181937584Y-121483498D01*
X181894086Y-121531411D01*
X181784248Y-121540959D01*
X181770980Y-121540981D01*
X181654149Y-121533271D01*
X181606236Y-121489773D01*
X181596688Y-121379935D01*
X181596666Y-121366667D01*
X181588957Y-121249836D01*
X181545459Y-121201923D01*
X181435620Y-121192375D01*
X181422353Y-121192353D01*
X181248039Y-121192353D01*
X181248039Y-121889608D01*
X181945294Y-121889608D01*
X181945294Y-122238236D01*
X180550784Y-122238236D01*
X180550784Y-122935491D01*
X180725098Y-122935491D01*
X180841928Y-122927781D01*
X180889841Y-122884283D01*
X180899390Y-122774445D01*
X180899411Y-122761177D01*
X180907121Y-122644346D01*
X180950619Y-122596433D01*
X181060457Y-122586885D01*
X181073725Y-122586863D01*
X181190556Y-122594573D01*
X181238469Y-122638071D01*
X181248017Y-122747909D01*
X181248039Y-122761177D01*
X181596666Y-122761177D01*
X181604376Y-122644346D01*
X181647874Y-122596433D01*
X181757712Y-122586885D01*
X181770980Y-122586863D01*
X181887811Y-122594573D01*
X181935724Y-122638071D01*
X181945272Y-122747909D01*
X181945294Y-122761177D01*
X181937584Y-122878007D01*
X181894086Y-122925921D01*
X181784248Y-122935469D01*
X181770980Y-122935491D01*
X181654149Y-122927781D01*
X181606236Y-122884283D01*
X181596688Y-122774445D01*
X181596666Y-122761177D01*
X181248039Y-122761177D01*
X181255749Y-122878007D01*
X181299246Y-122925921D01*
X181409085Y-122935469D01*
X181422353Y-122935491D01*
X181539183Y-122943200D01*
X181587096Y-122986698D01*
X181596645Y-123096536D01*
X181596666Y-123109804D01*
X181604376Y-123226635D01*
X181647874Y-123274548D01*
X181757712Y-123284096D01*
X181770980Y-123284118D01*
X181887811Y-123291828D01*
X181935724Y-123335325D01*
X181945272Y-123445164D01*
X181945294Y-123458432D01*
X181953004Y-123575262D01*
X181996501Y-123623175D01*
X182106340Y-123632724D01*
X182119608Y-123632745D01*
X182236438Y-123625036D01*
X182236438Y-123625036D01*
G37*
X182236438Y-123625036D02*
X182284351Y-123581538D01*
X182293900Y-123471700D01*
X182293921Y-123458432D01*
X182286211Y-123341601D01*
X182242714Y-123293688D01*
X182132875Y-123284140D01*
X182119608Y-123284118D01*
X182002777Y-123276408D01*
X181954864Y-123232911D01*
X181945315Y-123123072D01*
X181945294Y-123109804D01*
X181953004Y-122992974D01*
X181996501Y-122945061D01*
X182106340Y-122935512D01*
X182119608Y-122935491D01*
X182236438Y-122927781D01*
X182284351Y-122884283D01*
X182293900Y-122774445D01*
X182293921Y-122761177D01*
X182286211Y-122644346D01*
X182242714Y-122596433D01*
X182132875Y-122586885D01*
X182119608Y-122586863D01*
X182002777Y-122579153D01*
X181954864Y-122535656D01*
X181945315Y-122425817D01*
X181945294Y-122412549D01*
X181953004Y-122295719D01*
X181996501Y-122247806D01*
X182106340Y-122238257D01*
X182119608Y-122238236D01*
X182236438Y-122230526D01*
X182284351Y-122187028D01*
X182293900Y-122077190D01*
X182293921Y-122063922D01*
X182286211Y-121947091D01*
X182242714Y-121899178D01*
X182132875Y-121889630D01*
X182119608Y-121889608D01*
X182002777Y-121881898D01*
X181954864Y-121838401D01*
X181945315Y-121728562D01*
X181945294Y-121715294D01*
X181953004Y-121598464D01*
X181996501Y-121550551D01*
X182106340Y-121541002D01*
X182119608Y-121540981D01*
X182236438Y-121533271D01*
X182284351Y-121489773D01*
X182293900Y-121379935D01*
X182293921Y-121366667D01*
X182286211Y-121249836D01*
X182242714Y-121201923D01*
X182132875Y-121192375D01*
X182119608Y-121192353D01*
X182002777Y-121200063D01*
X181954864Y-121243561D01*
X181945315Y-121353399D01*
X181945294Y-121366667D01*
X181937584Y-121483498D01*
X181894086Y-121531411D01*
X181784248Y-121540959D01*
X181770980Y-121540981D01*
X181654149Y-121533271D01*
X181606236Y-121489773D01*
X181596688Y-121379935D01*
X181596666Y-121366667D01*
X181588957Y-121249836D01*
X181545459Y-121201923D01*
X181435620Y-121192375D01*
X181422353Y-121192353D01*
X181248039Y-121192353D01*
X181248039Y-121889608D01*
X181945294Y-121889608D01*
X181945294Y-122238236D01*
X180550784Y-122238236D01*
X180550784Y-122935491D01*
X180725098Y-122935491D01*
X180841928Y-122927781D01*
X180889841Y-122884283D01*
X180899390Y-122774445D01*
X180899411Y-122761177D01*
X180907121Y-122644346D01*
X180950619Y-122596433D01*
X181060457Y-122586885D01*
X181073725Y-122586863D01*
X181190556Y-122594573D01*
X181238469Y-122638071D01*
X181248017Y-122747909D01*
X181248039Y-122761177D01*
X181596666Y-122761177D01*
X181604376Y-122644346D01*
X181647874Y-122596433D01*
X181757712Y-122586885D01*
X181770980Y-122586863D01*
X181887811Y-122594573D01*
X181935724Y-122638071D01*
X181945272Y-122747909D01*
X181945294Y-122761177D01*
X181937584Y-122878007D01*
X181894086Y-122925921D01*
X181784248Y-122935469D01*
X181770980Y-122935491D01*
X181654149Y-122927781D01*
X181606236Y-122884283D01*
X181596688Y-122774445D01*
X181596666Y-122761177D01*
X181248039Y-122761177D01*
X181255749Y-122878007D01*
X181299246Y-122925921D01*
X181409085Y-122935469D01*
X181422353Y-122935491D01*
X181539183Y-122943200D01*
X181587096Y-122986698D01*
X181596645Y-123096536D01*
X181596666Y-123109804D01*
X181604376Y-123226635D01*
X181647874Y-123274548D01*
X181757712Y-123284096D01*
X181770980Y-123284118D01*
X181887811Y-123291828D01*
X181935724Y-123335325D01*
X181945272Y-123445164D01*
X181945294Y-123458432D01*
X181953004Y-123575262D01*
X181996501Y-123623175D01*
X182106340Y-123632724D01*
X182119608Y-123632745D01*
X182236438Y-123625036D01*
G36*
X178807647Y-121192353D02*
X176367255Y-121192353D01*
X176367255Y-123284118D01*
X176715882Y-123284118D01*
X176715882Y-121540981D01*
X178459019Y-121540981D01*
X178459019Y-123284118D01*
X176715882Y-123284118D01*
X176367255Y-123284118D01*
X176367255Y-123632745D01*
X178807647Y-123632745D01*
X178807647Y-121192353D01*
X178807647Y-121192353D01*
G37*
X178807647Y-121192353D02*
X176367255Y-121192353D01*
X176367255Y-123284118D01*
X176715882Y-123284118D01*
X176715882Y-121540981D01*
X178459019Y-121540981D01*
X178459019Y-123284118D01*
X176715882Y-123284118D01*
X176367255Y-123284118D01*
X176367255Y-123632745D01*
X178807647Y-123632745D01*
X178807647Y-121192353D01*
G36*
X183979575Y-120836016D02*
X184027488Y-120792518D01*
X184037037Y-120682680D01*
X184037058Y-120669412D01*
X184029349Y-120552582D01*
X183985851Y-120504668D01*
X183876013Y-120495120D01*
X183862745Y-120495098D01*
X183745914Y-120502808D01*
X183698001Y-120546306D01*
X183688453Y-120656144D01*
X183688431Y-120669412D01*
X183696141Y-120786243D01*
X183739639Y-120834156D01*
X183849477Y-120843704D01*
X183862745Y-120843726D01*
X183979575Y-120836016D01*
X183979575Y-120836016D01*
G37*
X183979575Y-120836016D02*
X184027488Y-120792518D01*
X184037037Y-120682680D01*
X184037058Y-120669412D01*
X184029349Y-120552582D01*
X183985851Y-120504668D01*
X183876013Y-120495120D01*
X183862745Y-120495098D01*
X183745914Y-120502808D01*
X183698001Y-120546306D01*
X183688453Y-120656144D01*
X183688431Y-120669412D01*
X183696141Y-120786243D01*
X183739639Y-120834156D01*
X183849477Y-120843704D01*
X183862745Y-120843726D01*
X183979575Y-120836016D01*
G36*
X178807647Y-119797843D02*
X178110392Y-119797843D01*
X178110392Y-120146471D01*
X178807647Y-120146471D01*
X178807647Y-119797843D01*
X178807647Y-119797843D01*
G37*
X178807647Y-119797843D02*
X178110392Y-119797843D01*
X178110392Y-120146471D01*
X178807647Y-120146471D01*
X178807647Y-119797843D01*
G36*
X178110392Y-120495098D02*
X177413137Y-120495098D01*
X177413137Y-120146471D01*
X176715882Y-120146471D01*
X176715882Y-119972157D01*
X176708172Y-119855327D01*
X176664675Y-119807414D01*
X176554836Y-119797865D01*
X176541568Y-119797843D01*
X176367255Y-119797843D01*
X176367255Y-120843726D01*
X178110392Y-120843726D01*
X178110392Y-120495098D01*
X178110392Y-120495098D01*
G37*
X178110392Y-120495098D02*
X177413137Y-120495098D01*
X177413137Y-120146471D01*
X176715882Y-120146471D01*
X176715882Y-119972157D01*
X176708172Y-119855327D01*
X176664675Y-119807414D01*
X176554836Y-119797865D01*
X176541568Y-119797843D01*
X176367255Y-119797843D01*
X176367255Y-120843726D01*
X178110392Y-120843726D01*
X178110392Y-120495098D01*
G36*
X181596666Y-115962942D02*
X182293921Y-115962942D01*
X182293921Y-115788628D01*
X182301631Y-115671797D01*
X182345129Y-115623884D01*
X182454967Y-115614336D01*
X182468235Y-115614314D01*
X182585066Y-115606604D01*
X182632979Y-115563107D01*
X182642527Y-115453268D01*
X182642549Y-115440000D01*
X182642549Y-115265687D01*
X181596666Y-115265687D01*
X181596666Y-115962942D01*
X181596666Y-115962942D01*
G37*
X181596666Y-115962942D02*
X182293921Y-115962942D01*
X182293921Y-115788628D01*
X182301631Y-115671797D01*
X182345129Y-115623884D01*
X182454967Y-115614336D01*
X182468235Y-115614314D01*
X182585066Y-115606604D01*
X182632979Y-115563107D01*
X182642527Y-115453268D01*
X182642549Y-115440000D01*
X182642549Y-115265687D01*
X181596666Y-115265687D01*
X181596666Y-115962942D01*
G36*
X181422353Y-115962942D02*
X181305522Y-115970651D01*
X181257609Y-116014149D01*
X181248061Y-116123987D01*
X181248039Y-116137255D01*
X181240329Y-116254086D01*
X181196831Y-116301999D01*
X181086993Y-116311547D01*
X181073725Y-116311569D01*
X180956895Y-116319279D01*
X180908981Y-116362776D01*
X180899433Y-116472615D01*
X180899411Y-116485883D01*
X180899411Y-116660196D01*
X180202157Y-116660196D01*
X180202157Y-116485883D01*
X180209866Y-116369052D01*
X180253364Y-116321139D01*
X180363202Y-116311591D01*
X180376470Y-116311569D01*
X180493301Y-116303859D01*
X180541214Y-116260361D01*
X180550762Y-116150523D01*
X180550784Y-116137255D01*
X180550784Y-115962942D01*
X179853529Y-115962942D01*
X179853529Y-115788628D01*
X179861239Y-115671797D01*
X179904737Y-115623884D01*
X180014575Y-115614336D01*
X180027843Y-115614314D01*
X180144673Y-115606604D01*
X180192586Y-115563107D01*
X180202135Y-115453268D01*
X180202157Y-115440000D01*
X180194447Y-115323170D01*
X180150949Y-115275257D01*
X180041111Y-115265708D01*
X180027843Y-115265687D01*
X179911012Y-115257977D01*
X179863099Y-115214479D01*
X179853551Y-115104641D01*
X179853529Y-115091373D01*
X179853529Y-114917059D01*
X179156274Y-114917059D01*
X179156274Y-116660196D01*
X179330588Y-116660196D01*
X179447418Y-116667906D01*
X179495332Y-116711404D01*
X179504880Y-116821242D01*
X179504902Y-116834510D01*
X179497192Y-116951341D01*
X179453694Y-116999254D01*
X179343856Y-117008802D01*
X179330588Y-117008824D01*
X179156274Y-117008824D01*
X179156274Y-117183138D01*
X179504902Y-117183138D01*
X179512611Y-117066307D01*
X179556109Y-117018394D01*
X179665947Y-117008846D01*
X179679215Y-117008824D01*
X179796046Y-117001114D01*
X179843959Y-116957616D01*
X179853507Y-116847778D01*
X179853529Y-116834510D01*
X179861239Y-116717680D01*
X179904737Y-116669766D01*
X180014575Y-116660218D01*
X180027843Y-116660196D01*
X180144673Y-116667906D01*
X180192586Y-116711404D01*
X180202135Y-116821242D01*
X180202157Y-116834510D01*
X180209866Y-116951341D01*
X180253364Y-116999254D01*
X180363202Y-117008802D01*
X180376470Y-117008824D01*
X180550784Y-117008824D01*
X180550784Y-117706079D01*
X180899411Y-117706079D01*
X180899411Y-116660196D01*
X181945294Y-116660196D01*
X181945294Y-117357451D01*
X181248039Y-117357451D01*
X181248039Y-117531765D01*
X181240329Y-117648596D01*
X181196831Y-117696509D01*
X181086993Y-117706057D01*
X181073725Y-117706079D01*
X180899411Y-117706079D01*
X180550784Y-117706079D01*
X179853529Y-117706079D01*
X179853529Y-117531765D01*
X179845819Y-117414934D01*
X179802322Y-117367021D01*
X179692483Y-117357473D01*
X179679215Y-117357451D01*
X179562385Y-117349742D01*
X179514472Y-117306244D01*
X179504923Y-117196405D01*
X179504902Y-117183138D01*
X179156274Y-117183138D01*
X179156274Y-117706079D01*
X178459019Y-117706079D01*
X178459019Y-117880392D01*
X178451310Y-117997223D01*
X178407812Y-118045136D01*
X178297973Y-118054685D01*
X178284706Y-118054706D01*
X178167875Y-118062416D01*
X178119962Y-118105914D01*
X178110413Y-118215752D01*
X178110392Y-118229020D01*
X178459019Y-118229020D01*
X178466729Y-118112189D01*
X178510227Y-118064276D01*
X178620065Y-118054728D01*
X178633333Y-118054706D01*
X178750164Y-118062416D01*
X178798077Y-118105914D01*
X178807625Y-118215752D01*
X178807647Y-118229020D01*
X179156274Y-118229020D01*
X179163984Y-118112189D01*
X179207482Y-118064276D01*
X179317320Y-118054728D01*
X179330588Y-118054706D01*
X179447418Y-118062416D01*
X179495332Y-118105914D01*
X179504880Y-118215752D01*
X179504902Y-118229020D01*
X179853529Y-118229020D01*
X179861239Y-118112189D01*
X179904737Y-118064276D01*
X180014575Y-118054728D01*
X180027843Y-118054706D01*
X180144673Y-118062416D01*
X180192586Y-118105914D01*
X180202135Y-118215752D01*
X180202157Y-118229020D01*
X180194447Y-118345851D01*
X180150949Y-118393764D01*
X180041111Y-118403312D01*
X180027843Y-118403334D01*
X179911012Y-118395624D01*
X179863099Y-118352126D01*
X179853551Y-118242288D01*
X179853529Y-118229020D01*
X179504902Y-118229020D01*
X179497192Y-118345851D01*
X179453694Y-118393764D01*
X179343856Y-118403312D01*
X179330588Y-118403334D01*
X179213757Y-118395624D01*
X179165844Y-118352126D01*
X179156296Y-118242288D01*
X179156274Y-118229020D01*
X178807647Y-118229020D01*
X178799937Y-118345851D01*
X178756439Y-118393764D01*
X178646601Y-118403312D01*
X178633333Y-118403334D01*
X178516502Y-118395624D01*
X178468589Y-118352126D01*
X178459041Y-118242288D01*
X178459019Y-118229020D01*
X178110392Y-118229020D01*
X178102682Y-118345851D01*
X178059184Y-118393764D01*
X177949346Y-118403312D01*
X177936078Y-118403334D01*
X177761764Y-118403334D01*
X177761764Y-117706079D01*
X177064509Y-117706079D01*
X177064509Y-117880392D01*
X177072219Y-117997223D01*
X177115717Y-118045136D01*
X177225555Y-118054685D01*
X177238823Y-118054706D01*
X177355654Y-118062416D01*
X177403567Y-118105914D01*
X177413115Y-118215752D01*
X177413137Y-118229020D01*
X177405427Y-118345851D01*
X177361929Y-118393764D01*
X177252091Y-118403312D01*
X177238823Y-118403334D01*
X177064509Y-118403334D01*
X177064509Y-118577647D01*
X177413137Y-118577647D01*
X177420847Y-118460817D01*
X177464344Y-118412904D01*
X177574183Y-118403355D01*
X177587451Y-118403334D01*
X177704281Y-118411043D01*
X177752194Y-118454541D01*
X177761743Y-118564380D01*
X177761764Y-118577647D01*
X177754055Y-118694478D01*
X177710557Y-118742391D01*
X177600718Y-118751939D01*
X177587451Y-118751961D01*
X177470620Y-118744251D01*
X177422707Y-118700754D01*
X177413159Y-118590915D01*
X177413137Y-118577647D01*
X177064509Y-118577647D01*
X177064509Y-119100589D01*
X176715882Y-119100589D01*
X176715882Y-117706079D01*
X176367255Y-117706079D01*
X176367255Y-119449216D01*
X177064509Y-119449216D01*
X177064509Y-119623530D01*
X177072219Y-119740360D01*
X177115717Y-119788273D01*
X177225555Y-119797822D01*
X177238823Y-119797843D01*
X177413137Y-119797843D01*
X177413137Y-119100589D01*
X177587451Y-119100589D01*
X177704281Y-119108298D01*
X177752194Y-119151796D01*
X177761743Y-119261634D01*
X177761764Y-119274902D01*
X177761764Y-119449216D01*
X180202157Y-119449216D01*
X180202157Y-119100589D01*
X178110392Y-119100589D01*
X178110392Y-118751961D01*
X178807647Y-118751961D01*
X178807647Y-118577647D01*
X178815356Y-118460817D01*
X178858854Y-118412904D01*
X178968693Y-118403355D01*
X178981960Y-118403334D01*
X179098791Y-118411043D01*
X179146704Y-118454541D01*
X179156252Y-118564380D01*
X179156274Y-118577647D01*
X179156274Y-118751961D01*
X180899411Y-118751961D01*
X180899411Y-118577647D01*
X180891702Y-118460817D01*
X180848204Y-118412904D01*
X180738366Y-118403355D01*
X180725098Y-118403334D01*
X180608267Y-118395624D01*
X180560354Y-118352126D01*
X180550806Y-118242288D01*
X180550784Y-118229020D01*
X180550784Y-118054706D01*
X181248039Y-118054706D01*
X181248039Y-118229020D01*
X181255749Y-118345851D01*
X181299246Y-118393764D01*
X181409085Y-118403312D01*
X181422353Y-118403334D01*
X181596666Y-118403334D01*
X181596666Y-117706079D01*
X181945294Y-117706079D01*
X182293921Y-117706079D01*
X182293921Y-116660196D01*
X183339804Y-116660196D01*
X183339804Y-117183138D01*
X183688431Y-117183138D01*
X183696141Y-117066307D01*
X183739639Y-117018394D01*
X183849477Y-117008846D01*
X183862745Y-117008824D01*
X183979575Y-117001114D01*
X184027488Y-116957616D01*
X184037037Y-116847778D01*
X184037058Y-116834510D01*
X184029349Y-116717680D01*
X183985851Y-116669766D01*
X183876013Y-116660218D01*
X183862745Y-116660196D01*
X183745914Y-116652487D01*
X183698001Y-116608989D01*
X183688453Y-116499151D01*
X183688431Y-116485883D01*
X183696141Y-116369052D01*
X183739639Y-116321139D01*
X183849477Y-116311591D01*
X183862745Y-116311569D01*
X183979575Y-116319279D01*
X184027488Y-116362776D01*
X184037037Y-116472615D01*
X184037058Y-116485883D01*
X184044768Y-116602713D01*
X184088266Y-116650626D01*
X184198104Y-116660175D01*
X184211372Y-116660196D01*
X184328203Y-116667906D01*
X184376116Y-116711404D01*
X184385664Y-116821242D01*
X184385686Y-116834510D01*
X184377976Y-116951341D01*
X184334478Y-116999254D01*
X184224640Y-117008802D01*
X184211372Y-117008824D01*
X184094542Y-117016534D01*
X184046629Y-117060031D01*
X184037080Y-117169870D01*
X184037058Y-117183138D01*
X184029349Y-117299968D01*
X183985851Y-117347881D01*
X183876013Y-117357430D01*
X183862745Y-117357451D01*
X183745914Y-117349742D01*
X183698001Y-117306244D01*
X183688453Y-117196405D01*
X183688431Y-117183138D01*
X183339804Y-117183138D01*
X183339804Y-117706079D01*
X182293921Y-117706079D01*
X181945294Y-117706079D01*
X181945294Y-118229020D01*
X182293921Y-118229020D01*
X182301631Y-118112189D01*
X182345129Y-118064276D01*
X182454967Y-118054728D01*
X182468235Y-118054706D01*
X182585066Y-118062416D01*
X182632979Y-118105914D01*
X182642527Y-118215752D01*
X182642549Y-118229020D01*
X182634839Y-118345851D01*
X182591341Y-118393764D01*
X182481503Y-118403312D01*
X182468235Y-118403334D01*
X182351404Y-118395624D01*
X182303491Y-118352126D01*
X182293943Y-118242288D01*
X182293921Y-118229020D01*
X181945294Y-118229020D01*
X181945294Y-118403334D01*
X181596666Y-118403334D01*
X181422353Y-118403334D01*
X181539183Y-118411043D01*
X181587096Y-118454541D01*
X181596645Y-118564380D01*
X181596666Y-118577647D01*
X181596666Y-118751961D01*
X182293921Y-118751961D01*
X182293921Y-118926275D01*
X182642549Y-118926275D01*
X182650258Y-118809444D01*
X182693756Y-118761531D01*
X182803595Y-118751983D01*
X182816862Y-118751961D01*
X182933693Y-118759671D01*
X182981606Y-118803169D01*
X182991154Y-118913007D01*
X182991176Y-118926275D01*
X182998886Y-119043105D01*
X183042384Y-119091019D01*
X183152222Y-119100567D01*
X183165490Y-119100589D01*
X183282320Y-119092879D01*
X183330234Y-119049381D01*
X183339782Y-118939543D01*
X183339804Y-118926275D01*
X183347513Y-118809444D01*
X183391011Y-118761531D01*
X183500849Y-118751983D01*
X183514117Y-118751961D01*
X183630948Y-118759671D01*
X183678861Y-118803169D01*
X183688409Y-118913007D01*
X183688431Y-118926275D01*
X183680721Y-119043105D01*
X183637224Y-119091019D01*
X183527385Y-119100567D01*
X183514117Y-119100589D01*
X183397287Y-119108298D01*
X183349374Y-119151796D01*
X183339825Y-119261634D01*
X183339804Y-119274902D01*
X183332094Y-119391733D01*
X183288596Y-119439646D01*
X183178758Y-119449194D01*
X183165490Y-119449216D01*
X183048659Y-119441506D01*
X183000746Y-119398009D01*
X182991198Y-119288170D01*
X182991176Y-119274902D01*
X182983466Y-119158072D01*
X182939969Y-119110159D01*
X182830130Y-119100610D01*
X182816862Y-119100589D01*
X182700032Y-119092879D01*
X182652119Y-119049381D01*
X182642570Y-118939543D01*
X182642549Y-118926275D01*
X182293921Y-118926275D01*
X182293921Y-119449216D01*
X182119608Y-119449216D01*
X182002777Y-119456926D01*
X181954864Y-119500424D01*
X181945315Y-119610262D01*
X181945294Y-119623530D01*
X181937584Y-119740360D01*
X181894086Y-119788273D01*
X181784248Y-119797822D01*
X181770980Y-119797843D01*
X181654149Y-119805553D01*
X181606236Y-119849051D01*
X181596688Y-119958889D01*
X181596666Y-119972157D01*
X181588957Y-120088988D01*
X181545459Y-120136901D01*
X181435620Y-120146449D01*
X181422353Y-120146471D01*
X181305522Y-120138761D01*
X181257609Y-120095263D01*
X181248061Y-119985425D01*
X181248039Y-119972157D01*
X181240329Y-119855327D01*
X181196831Y-119807414D01*
X181086993Y-119797865D01*
X181073725Y-119797843D01*
X180956895Y-119790134D01*
X180908981Y-119746636D01*
X180899433Y-119636798D01*
X180899411Y-119623530D01*
X180899411Y-119449216D01*
X181596666Y-119449216D01*
X181596666Y-119100589D01*
X180550784Y-119100589D01*
X180550784Y-119797843D01*
X180725098Y-119797843D01*
X180841928Y-119805553D01*
X180889841Y-119849051D01*
X180899390Y-119958889D01*
X180899411Y-119972157D01*
X180891702Y-120088988D01*
X180848204Y-120136901D01*
X180738366Y-120146449D01*
X180725098Y-120146471D01*
X180608267Y-120154181D01*
X180560354Y-120197678D01*
X180550806Y-120307517D01*
X180550784Y-120320785D01*
X181596666Y-120320785D01*
X181604376Y-120203954D01*
X181647874Y-120156041D01*
X181757712Y-120146493D01*
X181770980Y-120146471D01*
X181887811Y-120154181D01*
X181935724Y-120197678D01*
X181945272Y-120307517D01*
X181945294Y-120320785D01*
X181937584Y-120437615D01*
X181894086Y-120485528D01*
X181784248Y-120495077D01*
X181770980Y-120495098D01*
X181654149Y-120487389D01*
X181606236Y-120443891D01*
X181596688Y-120334053D01*
X181596666Y-120320785D01*
X180550784Y-120320785D01*
X180543074Y-120437615D01*
X180499576Y-120485528D01*
X180389738Y-120495077D01*
X180376470Y-120495098D01*
X180202157Y-120495098D01*
X180202157Y-119797843D01*
X179853529Y-119797843D01*
X179853529Y-120495098D01*
X179679215Y-120495098D01*
X179562385Y-120487389D01*
X179514472Y-120443891D01*
X179504923Y-120334053D01*
X179504902Y-120320785D01*
X179497192Y-120203954D01*
X179453694Y-120156041D01*
X179343856Y-120146493D01*
X179330588Y-120146471D01*
X179213757Y-120154181D01*
X179165844Y-120197678D01*
X179156296Y-120307517D01*
X179156274Y-120320785D01*
X179156274Y-120495098D01*
X178459019Y-120495098D01*
X178459019Y-120669412D01*
X179853529Y-120669412D01*
X179861239Y-120552582D01*
X179904737Y-120504668D01*
X180014575Y-120495120D01*
X180027843Y-120495098D01*
X180144673Y-120502808D01*
X180192586Y-120546306D01*
X180202135Y-120656144D01*
X180202157Y-120669412D01*
X180194447Y-120786243D01*
X180150949Y-120834156D01*
X180041111Y-120843704D01*
X180027843Y-120843726D01*
X179911012Y-120836016D01*
X179863099Y-120792518D01*
X179853551Y-120682680D01*
X179853529Y-120669412D01*
X178459019Y-120669412D01*
X178459019Y-120843726D01*
X179504902Y-120843726D01*
X179504902Y-121018040D01*
X179497192Y-121134870D01*
X179453694Y-121182783D01*
X179343856Y-121192332D01*
X179330588Y-121192353D01*
X179156274Y-121192353D01*
X179156274Y-121366667D01*
X179504902Y-121366667D01*
X179512611Y-121249836D01*
X179556109Y-121201923D01*
X179665947Y-121192375D01*
X179679215Y-121192353D01*
X179796046Y-121200063D01*
X179843959Y-121243561D01*
X179853507Y-121353399D01*
X179853529Y-121366667D01*
X180202157Y-121366667D01*
X180209866Y-121249836D01*
X180253364Y-121201923D01*
X180363202Y-121192375D01*
X180376470Y-121192353D01*
X180493301Y-121200063D01*
X180541214Y-121243561D01*
X180550762Y-121353399D01*
X180550784Y-121366667D01*
X180543074Y-121483498D01*
X180499576Y-121531411D01*
X180389738Y-121540959D01*
X180376470Y-121540981D01*
X180259640Y-121533271D01*
X180211727Y-121489773D01*
X180202178Y-121379935D01*
X180202157Y-121366667D01*
X179853529Y-121366667D01*
X179845819Y-121483498D01*
X179802322Y-121531411D01*
X179692483Y-121540959D01*
X179679215Y-121540981D01*
X179562385Y-121533271D01*
X179514472Y-121489773D01*
X179504923Y-121379935D01*
X179504902Y-121366667D01*
X179156274Y-121366667D01*
X179156274Y-121889608D01*
X179330588Y-121889608D01*
X179447418Y-121897318D01*
X179495332Y-121940816D01*
X179504880Y-122050654D01*
X179504902Y-122063922D01*
X179497192Y-122180752D01*
X179453694Y-122228666D01*
X179343856Y-122238214D01*
X179330588Y-122238236D01*
X179213757Y-122245945D01*
X179165844Y-122289443D01*
X179156296Y-122399282D01*
X179156274Y-122412549D01*
X179156274Y-122586863D01*
X180202157Y-122586863D01*
X180202157Y-122412549D01*
X180194447Y-122295719D01*
X180150949Y-122247806D01*
X180041111Y-122238257D01*
X180027843Y-122238236D01*
X179853529Y-122238236D01*
X179853529Y-121540981D01*
X180027843Y-121540981D01*
X180144673Y-121548690D01*
X180192586Y-121592188D01*
X180202135Y-121702027D01*
X180202157Y-121715294D01*
X180202157Y-121889608D01*
X180899411Y-121889608D01*
X180899411Y-121192353D01*
X180550784Y-121192353D01*
X180550784Y-120495098D01*
X180725098Y-120495098D01*
X180841928Y-120502808D01*
X180889841Y-120546306D01*
X180899390Y-120656144D01*
X180899411Y-120669412D01*
X180899411Y-120843726D01*
X182642549Y-120843726D01*
X182642549Y-120669412D01*
X182634839Y-120552582D01*
X182591341Y-120504668D01*
X182481503Y-120495120D01*
X182468235Y-120495098D01*
X182293921Y-120495098D01*
X182293921Y-119797843D01*
X182991176Y-119797843D01*
X182991176Y-120843726D01*
X183339804Y-120843726D01*
X183339804Y-120146471D01*
X184037058Y-120146471D01*
X184037058Y-119797843D01*
X183339804Y-119797843D01*
X183339804Y-119623530D01*
X183347513Y-119506699D01*
X183391011Y-119458786D01*
X183500849Y-119449238D01*
X183514117Y-119449216D01*
X183630948Y-119441506D01*
X183678861Y-119398009D01*
X183688409Y-119288170D01*
X183688431Y-119274902D01*
X183696141Y-119158072D01*
X183739639Y-119110159D01*
X183849477Y-119100610D01*
X183862745Y-119100589D01*
X183979575Y-119108298D01*
X184027488Y-119151796D01*
X184037037Y-119261634D01*
X184037058Y-119274902D01*
X184037058Y-119449216D01*
X184734313Y-119449216D01*
X184734313Y-119623530D01*
X184726604Y-119740360D01*
X184683106Y-119788273D01*
X184573268Y-119797822D01*
X184560000Y-119797843D01*
X184385686Y-119797843D01*
X184385686Y-120843726D01*
X184734313Y-120843726D01*
X184734313Y-120146471D01*
X185082941Y-120146471D01*
X185082941Y-119100589D01*
X184908627Y-119100589D01*
X184791797Y-119092879D01*
X184743883Y-119049381D01*
X184734335Y-118939543D01*
X184734313Y-118926275D01*
X184742023Y-118809444D01*
X184785521Y-118761531D01*
X184895359Y-118751983D01*
X184908627Y-118751961D01*
X185082941Y-118751961D01*
X185082941Y-118054706D01*
X184908627Y-118054706D01*
X184791797Y-118062416D01*
X184743883Y-118105914D01*
X184734335Y-118215752D01*
X184734313Y-118229020D01*
X184726604Y-118345851D01*
X184683106Y-118393764D01*
X184573268Y-118403312D01*
X184560000Y-118403334D01*
X184385686Y-118403334D01*
X184385686Y-119100589D01*
X184037058Y-119100589D01*
X184037058Y-118403334D01*
X183688431Y-118403334D01*
X183688431Y-117706079D01*
X183862745Y-117706079D01*
X183979575Y-117713789D01*
X184027488Y-117757286D01*
X184037037Y-117867125D01*
X184037058Y-117880392D01*
X184044768Y-117997223D01*
X184088266Y-118045136D01*
X184198104Y-118054685D01*
X184211372Y-118054706D01*
X184328203Y-118046996D01*
X184376116Y-118003499D01*
X184385664Y-117893660D01*
X184385686Y-117880392D01*
X184377976Y-117763562D01*
X184334478Y-117715649D01*
X184224640Y-117706100D01*
X184211372Y-117706079D01*
X184094542Y-117698369D01*
X184046629Y-117654871D01*
X184037080Y-117545033D01*
X184037058Y-117531765D01*
X184037058Y-117357451D01*
X185082941Y-117357451D01*
X185082941Y-116660196D01*
X184385686Y-116660196D01*
X184385686Y-116311569D01*
X185082941Y-116311569D01*
X185082941Y-114917059D01*
X182991176Y-114917059D01*
X182991176Y-115440000D01*
X184037058Y-115440000D01*
X184037058Y-115265687D01*
X184734313Y-115265687D01*
X184734313Y-115962942D01*
X184560000Y-115962942D01*
X184443169Y-115955232D01*
X184395256Y-115911734D01*
X184385708Y-115801896D01*
X184385686Y-115788628D01*
X184377976Y-115671797D01*
X184334478Y-115623884D01*
X184224640Y-115614336D01*
X184211372Y-115614314D01*
X184094542Y-115606604D01*
X184046629Y-115563107D01*
X184037080Y-115453268D01*
X184037058Y-115440000D01*
X182991176Y-115440000D01*
X182991176Y-115614314D01*
X183688431Y-115614314D01*
X183688431Y-115788628D01*
X183680721Y-115905458D01*
X183637224Y-115953371D01*
X183527385Y-115962920D01*
X183514117Y-115962942D01*
X183397287Y-115970651D01*
X183349374Y-116014149D01*
X183339825Y-116123987D01*
X183339804Y-116137255D01*
X183332094Y-116254086D01*
X183288596Y-116301999D01*
X183178758Y-116311547D01*
X183165490Y-116311569D01*
X183048659Y-116303859D01*
X183000746Y-116260361D01*
X182991198Y-116150523D01*
X182991176Y-116137255D01*
X182983466Y-116020425D01*
X182939969Y-115972512D01*
X182830130Y-115962963D01*
X182816862Y-115962942D01*
X182700032Y-115970651D01*
X182652119Y-116014149D01*
X182642570Y-116123987D01*
X182642549Y-116137255D01*
X182642549Y-116311569D01*
X181596666Y-116311569D01*
X181596666Y-115962942D01*
X181422353Y-115962942D01*
X181422353Y-115962942D01*
G37*
X181422353Y-115962942D02*
X181305522Y-115970651D01*
X181257609Y-116014149D01*
X181248061Y-116123987D01*
X181248039Y-116137255D01*
X181240329Y-116254086D01*
X181196831Y-116301999D01*
X181086993Y-116311547D01*
X181073725Y-116311569D01*
X180956895Y-116319279D01*
X180908981Y-116362776D01*
X180899433Y-116472615D01*
X180899411Y-116485883D01*
X180899411Y-116660196D01*
X180202157Y-116660196D01*
X180202157Y-116485883D01*
X180209866Y-116369052D01*
X180253364Y-116321139D01*
X180363202Y-116311591D01*
X180376470Y-116311569D01*
X180493301Y-116303859D01*
X180541214Y-116260361D01*
X180550762Y-116150523D01*
X180550784Y-116137255D01*
X180550784Y-115962942D01*
X179853529Y-115962942D01*
X179853529Y-115788628D01*
X179861239Y-115671797D01*
X179904737Y-115623884D01*
X180014575Y-115614336D01*
X180027843Y-115614314D01*
X180144673Y-115606604D01*
X180192586Y-115563107D01*
X180202135Y-115453268D01*
X180202157Y-115440000D01*
X180194447Y-115323170D01*
X180150949Y-115275257D01*
X180041111Y-115265708D01*
X180027843Y-115265687D01*
X179911012Y-115257977D01*
X179863099Y-115214479D01*
X179853551Y-115104641D01*
X179853529Y-115091373D01*
X179853529Y-114917059D01*
X179156274Y-114917059D01*
X179156274Y-116660196D01*
X179330588Y-116660196D01*
X179447418Y-116667906D01*
X179495332Y-116711404D01*
X179504880Y-116821242D01*
X179504902Y-116834510D01*
X179497192Y-116951341D01*
X179453694Y-116999254D01*
X179343856Y-117008802D01*
X179330588Y-117008824D01*
X179156274Y-117008824D01*
X179156274Y-117183138D01*
X179504902Y-117183138D01*
X179512611Y-117066307D01*
X179556109Y-117018394D01*
X179665947Y-117008846D01*
X179679215Y-117008824D01*
X179796046Y-117001114D01*
X179843959Y-116957616D01*
X179853507Y-116847778D01*
X179853529Y-116834510D01*
X179861239Y-116717680D01*
X179904737Y-116669766D01*
X180014575Y-116660218D01*
X180027843Y-116660196D01*
X180144673Y-116667906D01*
X180192586Y-116711404D01*
X180202135Y-116821242D01*
X180202157Y-116834510D01*
X180209866Y-116951341D01*
X180253364Y-116999254D01*
X180363202Y-117008802D01*
X180376470Y-117008824D01*
X180550784Y-117008824D01*
X180550784Y-117706079D01*
X180899411Y-117706079D01*
X180899411Y-116660196D01*
X181945294Y-116660196D01*
X181945294Y-117357451D01*
X181248039Y-117357451D01*
X181248039Y-117531765D01*
X181240329Y-117648596D01*
X181196831Y-117696509D01*
X181086993Y-117706057D01*
X181073725Y-117706079D01*
X180899411Y-117706079D01*
X180550784Y-117706079D01*
X179853529Y-117706079D01*
X179853529Y-117531765D01*
X179845819Y-117414934D01*
X179802322Y-117367021D01*
X179692483Y-117357473D01*
X179679215Y-117357451D01*
X179562385Y-117349742D01*
X179514472Y-117306244D01*
X179504923Y-117196405D01*
X179504902Y-117183138D01*
X179156274Y-117183138D01*
X179156274Y-117706079D01*
X178459019Y-117706079D01*
X178459019Y-117880392D01*
X178451310Y-117997223D01*
X178407812Y-118045136D01*
X178297973Y-118054685D01*
X178284706Y-118054706D01*
X178167875Y-118062416D01*
X178119962Y-118105914D01*
X178110413Y-118215752D01*
X178110392Y-118229020D01*
X178459019Y-118229020D01*
X178466729Y-118112189D01*
X178510227Y-118064276D01*
X178620065Y-118054728D01*
X178633333Y-118054706D01*
X178750164Y-118062416D01*
X178798077Y-118105914D01*
X178807625Y-118215752D01*
X178807647Y-118229020D01*
X179156274Y-118229020D01*
X179163984Y-118112189D01*
X179207482Y-118064276D01*
X179317320Y-118054728D01*
X179330588Y-118054706D01*
X179447418Y-118062416D01*
X179495332Y-118105914D01*
X179504880Y-118215752D01*
X179504902Y-118229020D01*
X179853529Y-118229020D01*
X179861239Y-118112189D01*
X179904737Y-118064276D01*
X180014575Y-118054728D01*
X180027843Y-118054706D01*
X180144673Y-118062416D01*
X180192586Y-118105914D01*
X180202135Y-118215752D01*
X180202157Y-118229020D01*
X180194447Y-118345851D01*
X180150949Y-118393764D01*
X180041111Y-118403312D01*
X180027843Y-118403334D01*
X179911012Y-118395624D01*
X179863099Y-118352126D01*
X179853551Y-118242288D01*
X179853529Y-118229020D01*
X179504902Y-118229020D01*
X179497192Y-118345851D01*
X179453694Y-118393764D01*
X179343856Y-118403312D01*
X179330588Y-118403334D01*
X179213757Y-118395624D01*
X179165844Y-118352126D01*
X179156296Y-118242288D01*
X179156274Y-118229020D01*
X178807647Y-118229020D01*
X178799937Y-118345851D01*
X178756439Y-118393764D01*
X178646601Y-118403312D01*
X178633333Y-118403334D01*
X178516502Y-118395624D01*
X178468589Y-118352126D01*
X178459041Y-118242288D01*
X178459019Y-118229020D01*
X178110392Y-118229020D01*
X178102682Y-118345851D01*
X178059184Y-118393764D01*
X177949346Y-118403312D01*
X177936078Y-118403334D01*
X177761764Y-118403334D01*
X177761764Y-117706079D01*
X177064509Y-117706079D01*
X177064509Y-117880392D01*
X177072219Y-117997223D01*
X177115717Y-118045136D01*
X177225555Y-118054685D01*
X177238823Y-118054706D01*
X177355654Y-118062416D01*
X177403567Y-118105914D01*
X177413115Y-118215752D01*
X177413137Y-118229020D01*
X177405427Y-118345851D01*
X177361929Y-118393764D01*
X177252091Y-118403312D01*
X177238823Y-118403334D01*
X177064509Y-118403334D01*
X177064509Y-118577647D01*
X177413137Y-118577647D01*
X177420847Y-118460817D01*
X177464344Y-118412904D01*
X177574183Y-118403355D01*
X177587451Y-118403334D01*
X177704281Y-118411043D01*
X177752194Y-118454541D01*
X177761743Y-118564380D01*
X177761764Y-118577647D01*
X177754055Y-118694478D01*
X177710557Y-118742391D01*
X177600718Y-118751939D01*
X177587451Y-118751961D01*
X177470620Y-118744251D01*
X177422707Y-118700754D01*
X177413159Y-118590915D01*
X177413137Y-118577647D01*
X177064509Y-118577647D01*
X177064509Y-119100589D01*
X176715882Y-119100589D01*
X176715882Y-117706079D01*
X176367255Y-117706079D01*
X176367255Y-119449216D01*
X177064509Y-119449216D01*
X177064509Y-119623530D01*
X177072219Y-119740360D01*
X177115717Y-119788273D01*
X177225555Y-119797822D01*
X177238823Y-119797843D01*
X177413137Y-119797843D01*
X177413137Y-119100589D01*
X177587451Y-119100589D01*
X177704281Y-119108298D01*
X177752194Y-119151796D01*
X177761743Y-119261634D01*
X177761764Y-119274902D01*
X177761764Y-119449216D01*
X180202157Y-119449216D01*
X180202157Y-119100589D01*
X178110392Y-119100589D01*
X178110392Y-118751961D01*
X178807647Y-118751961D01*
X178807647Y-118577647D01*
X178815356Y-118460817D01*
X178858854Y-118412904D01*
X178968693Y-118403355D01*
X178981960Y-118403334D01*
X179098791Y-118411043D01*
X179146704Y-118454541D01*
X179156252Y-118564380D01*
X179156274Y-118577647D01*
X179156274Y-118751961D01*
X180899411Y-118751961D01*
X180899411Y-118577647D01*
X180891702Y-118460817D01*
X180848204Y-118412904D01*
X180738366Y-118403355D01*
X180725098Y-118403334D01*
X180608267Y-118395624D01*
X180560354Y-118352126D01*
X180550806Y-118242288D01*
X180550784Y-118229020D01*
X180550784Y-118054706D01*
X181248039Y-118054706D01*
X181248039Y-118229020D01*
X181255749Y-118345851D01*
X181299246Y-118393764D01*
X181409085Y-118403312D01*
X181422353Y-118403334D01*
X181596666Y-118403334D01*
X181596666Y-117706079D01*
X181945294Y-117706079D01*
X182293921Y-117706079D01*
X182293921Y-116660196D01*
X183339804Y-116660196D01*
X183339804Y-117183138D01*
X183688431Y-117183138D01*
X183696141Y-117066307D01*
X183739639Y-117018394D01*
X183849477Y-117008846D01*
X183862745Y-117008824D01*
X183979575Y-117001114D01*
X184027488Y-116957616D01*
X184037037Y-116847778D01*
X184037058Y-116834510D01*
X184029349Y-116717680D01*
X183985851Y-116669766D01*
X183876013Y-116660218D01*
X183862745Y-116660196D01*
X183745914Y-116652487D01*
X183698001Y-116608989D01*
X183688453Y-116499151D01*
X183688431Y-116485883D01*
X183696141Y-116369052D01*
X183739639Y-116321139D01*
X183849477Y-116311591D01*
X183862745Y-116311569D01*
X183979575Y-116319279D01*
X184027488Y-116362776D01*
X184037037Y-116472615D01*
X184037058Y-116485883D01*
X184044768Y-116602713D01*
X184088266Y-116650626D01*
X184198104Y-116660175D01*
X184211372Y-116660196D01*
X184328203Y-116667906D01*
X184376116Y-116711404D01*
X184385664Y-116821242D01*
X184385686Y-116834510D01*
X184377976Y-116951341D01*
X184334478Y-116999254D01*
X184224640Y-117008802D01*
X184211372Y-117008824D01*
X184094542Y-117016534D01*
X184046629Y-117060031D01*
X184037080Y-117169870D01*
X184037058Y-117183138D01*
X184029349Y-117299968D01*
X183985851Y-117347881D01*
X183876013Y-117357430D01*
X183862745Y-117357451D01*
X183745914Y-117349742D01*
X183698001Y-117306244D01*
X183688453Y-117196405D01*
X183688431Y-117183138D01*
X183339804Y-117183138D01*
X183339804Y-117706079D01*
X182293921Y-117706079D01*
X181945294Y-117706079D01*
X181945294Y-118229020D01*
X182293921Y-118229020D01*
X182301631Y-118112189D01*
X182345129Y-118064276D01*
X182454967Y-118054728D01*
X182468235Y-118054706D01*
X182585066Y-118062416D01*
X182632979Y-118105914D01*
X182642527Y-118215752D01*
X182642549Y-118229020D01*
X182634839Y-118345851D01*
X182591341Y-118393764D01*
X182481503Y-118403312D01*
X182468235Y-118403334D01*
X182351404Y-118395624D01*
X182303491Y-118352126D01*
X182293943Y-118242288D01*
X182293921Y-118229020D01*
X181945294Y-118229020D01*
X181945294Y-118403334D01*
X181596666Y-118403334D01*
X181422353Y-118403334D01*
X181539183Y-118411043D01*
X181587096Y-118454541D01*
X181596645Y-118564380D01*
X181596666Y-118577647D01*
X181596666Y-118751961D01*
X182293921Y-118751961D01*
X182293921Y-118926275D01*
X182642549Y-118926275D01*
X182650258Y-118809444D01*
X182693756Y-118761531D01*
X182803595Y-118751983D01*
X182816862Y-118751961D01*
X182933693Y-118759671D01*
X182981606Y-118803169D01*
X182991154Y-118913007D01*
X182991176Y-118926275D01*
X182998886Y-119043105D01*
X183042384Y-119091019D01*
X183152222Y-119100567D01*
X183165490Y-119100589D01*
X183282320Y-119092879D01*
X183330234Y-119049381D01*
X183339782Y-118939543D01*
X183339804Y-118926275D01*
X183347513Y-118809444D01*
X183391011Y-118761531D01*
X183500849Y-118751983D01*
X183514117Y-118751961D01*
X183630948Y-118759671D01*
X183678861Y-118803169D01*
X183688409Y-118913007D01*
X183688431Y-118926275D01*
X183680721Y-119043105D01*
X183637224Y-119091019D01*
X183527385Y-119100567D01*
X183514117Y-119100589D01*
X183397287Y-119108298D01*
X183349374Y-119151796D01*
X183339825Y-119261634D01*
X183339804Y-119274902D01*
X183332094Y-119391733D01*
X183288596Y-119439646D01*
X183178758Y-119449194D01*
X183165490Y-119449216D01*
X183048659Y-119441506D01*
X183000746Y-119398009D01*
X182991198Y-119288170D01*
X182991176Y-119274902D01*
X182983466Y-119158072D01*
X182939969Y-119110159D01*
X182830130Y-119100610D01*
X182816862Y-119100589D01*
X182700032Y-119092879D01*
X182652119Y-119049381D01*
X182642570Y-118939543D01*
X182642549Y-118926275D01*
X182293921Y-118926275D01*
X182293921Y-119449216D01*
X182119608Y-119449216D01*
X182002777Y-119456926D01*
X181954864Y-119500424D01*
X181945315Y-119610262D01*
X181945294Y-119623530D01*
X181937584Y-119740360D01*
X181894086Y-119788273D01*
X181784248Y-119797822D01*
X181770980Y-119797843D01*
X181654149Y-119805553D01*
X181606236Y-119849051D01*
X181596688Y-119958889D01*
X181596666Y-119972157D01*
X181588957Y-120088988D01*
X181545459Y-120136901D01*
X181435620Y-120146449D01*
X181422353Y-120146471D01*
X181305522Y-120138761D01*
X181257609Y-120095263D01*
X181248061Y-119985425D01*
X181248039Y-119972157D01*
X181240329Y-119855327D01*
X181196831Y-119807414D01*
X181086993Y-119797865D01*
X181073725Y-119797843D01*
X180956895Y-119790134D01*
X180908981Y-119746636D01*
X180899433Y-119636798D01*
X180899411Y-119623530D01*
X180899411Y-119449216D01*
X181596666Y-119449216D01*
X181596666Y-119100589D01*
X180550784Y-119100589D01*
X180550784Y-119797843D01*
X180725098Y-119797843D01*
X180841928Y-119805553D01*
X180889841Y-119849051D01*
X180899390Y-119958889D01*
X180899411Y-119972157D01*
X180891702Y-120088988D01*
X180848204Y-120136901D01*
X180738366Y-120146449D01*
X180725098Y-120146471D01*
X180608267Y-120154181D01*
X180560354Y-120197678D01*
X180550806Y-120307517D01*
X180550784Y-120320785D01*
X181596666Y-120320785D01*
X181604376Y-120203954D01*
X181647874Y-120156041D01*
X181757712Y-120146493D01*
X181770980Y-120146471D01*
X181887811Y-120154181D01*
X181935724Y-120197678D01*
X181945272Y-120307517D01*
X181945294Y-120320785D01*
X181937584Y-120437615D01*
X181894086Y-120485528D01*
X181784248Y-120495077D01*
X181770980Y-120495098D01*
X181654149Y-120487389D01*
X181606236Y-120443891D01*
X181596688Y-120334053D01*
X181596666Y-120320785D01*
X180550784Y-120320785D01*
X180543074Y-120437615D01*
X180499576Y-120485528D01*
X180389738Y-120495077D01*
X180376470Y-120495098D01*
X180202157Y-120495098D01*
X180202157Y-119797843D01*
X179853529Y-119797843D01*
X179853529Y-120495098D01*
X179679215Y-120495098D01*
X179562385Y-120487389D01*
X179514472Y-120443891D01*
X179504923Y-120334053D01*
X179504902Y-120320785D01*
X179497192Y-120203954D01*
X179453694Y-120156041D01*
X179343856Y-120146493D01*
X179330588Y-120146471D01*
X179213757Y-120154181D01*
X179165844Y-120197678D01*
X179156296Y-120307517D01*
X179156274Y-120320785D01*
X179156274Y-120495098D01*
X178459019Y-120495098D01*
X178459019Y-120669412D01*
X179853529Y-120669412D01*
X179861239Y-120552582D01*
X179904737Y-120504668D01*
X180014575Y-120495120D01*
X180027843Y-120495098D01*
X180144673Y-120502808D01*
X180192586Y-120546306D01*
X180202135Y-120656144D01*
X180202157Y-120669412D01*
X180194447Y-120786243D01*
X180150949Y-120834156D01*
X180041111Y-120843704D01*
X180027843Y-120843726D01*
X179911012Y-120836016D01*
X179863099Y-120792518D01*
X179853551Y-120682680D01*
X179853529Y-120669412D01*
X178459019Y-120669412D01*
X178459019Y-120843726D01*
X179504902Y-120843726D01*
X179504902Y-121018040D01*
X179497192Y-121134870D01*
X179453694Y-121182783D01*
X179343856Y-121192332D01*
X179330588Y-121192353D01*
X179156274Y-121192353D01*
X179156274Y-121366667D01*
X179504902Y-121366667D01*
X179512611Y-121249836D01*
X179556109Y-121201923D01*
X179665947Y-121192375D01*
X179679215Y-121192353D01*
X179796046Y-121200063D01*
X179843959Y-121243561D01*
X179853507Y-121353399D01*
X179853529Y-121366667D01*
X180202157Y-121366667D01*
X180209866Y-121249836D01*
X180253364Y-121201923D01*
X180363202Y-121192375D01*
X180376470Y-121192353D01*
X180493301Y-121200063D01*
X180541214Y-121243561D01*
X180550762Y-121353399D01*
X180550784Y-121366667D01*
X180543074Y-121483498D01*
X180499576Y-121531411D01*
X180389738Y-121540959D01*
X180376470Y-121540981D01*
X180259640Y-121533271D01*
X180211727Y-121489773D01*
X180202178Y-121379935D01*
X180202157Y-121366667D01*
X179853529Y-121366667D01*
X179845819Y-121483498D01*
X179802322Y-121531411D01*
X179692483Y-121540959D01*
X179679215Y-121540981D01*
X179562385Y-121533271D01*
X179514472Y-121489773D01*
X179504923Y-121379935D01*
X179504902Y-121366667D01*
X179156274Y-121366667D01*
X179156274Y-121889608D01*
X179330588Y-121889608D01*
X179447418Y-121897318D01*
X179495332Y-121940816D01*
X179504880Y-122050654D01*
X179504902Y-122063922D01*
X179497192Y-122180752D01*
X179453694Y-122228666D01*
X179343856Y-122238214D01*
X179330588Y-122238236D01*
X179213757Y-122245945D01*
X179165844Y-122289443D01*
X179156296Y-122399282D01*
X179156274Y-122412549D01*
X179156274Y-122586863D01*
X180202157Y-122586863D01*
X180202157Y-122412549D01*
X180194447Y-122295719D01*
X180150949Y-122247806D01*
X180041111Y-122238257D01*
X180027843Y-122238236D01*
X179853529Y-122238236D01*
X179853529Y-121540981D01*
X180027843Y-121540981D01*
X180144673Y-121548690D01*
X180192586Y-121592188D01*
X180202135Y-121702027D01*
X180202157Y-121715294D01*
X180202157Y-121889608D01*
X180899411Y-121889608D01*
X180899411Y-121192353D01*
X180550784Y-121192353D01*
X180550784Y-120495098D01*
X180725098Y-120495098D01*
X180841928Y-120502808D01*
X180889841Y-120546306D01*
X180899390Y-120656144D01*
X180899411Y-120669412D01*
X180899411Y-120843726D01*
X182642549Y-120843726D01*
X182642549Y-120669412D01*
X182634839Y-120552582D01*
X182591341Y-120504668D01*
X182481503Y-120495120D01*
X182468235Y-120495098D01*
X182293921Y-120495098D01*
X182293921Y-119797843D01*
X182991176Y-119797843D01*
X182991176Y-120843726D01*
X183339804Y-120843726D01*
X183339804Y-120146471D01*
X184037058Y-120146471D01*
X184037058Y-119797843D01*
X183339804Y-119797843D01*
X183339804Y-119623530D01*
X183347513Y-119506699D01*
X183391011Y-119458786D01*
X183500849Y-119449238D01*
X183514117Y-119449216D01*
X183630948Y-119441506D01*
X183678861Y-119398009D01*
X183688409Y-119288170D01*
X183688431Y-119274902D01*
X183696141Y-119158072D01*
X183739639Y-119110159D01*
X183849477Y-119100610D01*
X183862745Y-119100589D01*
X183979575Y-119108298D01*
X184027488Y-119151796D01*
X184037037Y-119261634D01*
X184037058Y-119274902D01*
X184037058Y-119449216D01*
X184734313Y-119449216D01*
X184734313Y-119623530D01*
X184726604Y-119740360D01*
X184683106Y-119788273D01*
X184573268Y-119797822D01*
X184560000Y-119797843D01*
X184385686Y-119797843D01*
X184385686Y-120843726D01*
X184734313Y-120843726D01*
X184734313Y-120146471D01*
X185082941Y-120146471D01*
X185082941Y-119100589D01*
X184908627Y-119100589D01*
X184791797Y-119092879D01*
X184743883Y-119049381D01*
X184734335Y-118939543D01*
X184734313Y-118926275D01*
X184742023Y-118809444D01*
X184785521Y-118761531D01*
X184895359Y-118751983D01*
X184908627Y-118751961D01*
X185082941Y-118751961D01*
X185082941Y-118054706D01*
X184908627Y-118054706D01*
X184791797Y-118062416D01*
X184743883Y-118105914D01*
X184734335Y-118215752D01*
X184734313Y-118229020D01*
X184726604Y-118345851D01*
X184683106Y-118393764D01*
X184573268Y-118403312D01*
X184560000Y-118403334D01*
X184385686Y-118403334D01*
X184385686Y-119100589D01*
X184037058Y-119100589D01*
X184037058Y-118403334D01*
X183688431Y-118403334D01*
X183688431Y-117706079D01*
X183862745Y-117706079D01*
X183979575Y-117713789D01*
X184027488Y-117757286D01*
X184037037Y-117867125D01*
X184037058Y-117880392D01*
X184044768Y-117997223D01*
X184088266Y-118045136D01*
X184198104Y-118054685D01*
X184211372Y-118054706D01*
X184328203Y-118046996D01*
X184376116Y-118003499D01*
X184385664Y-117893660D01*
X184385686Y-117880392D01*
X184377976Y-117763562D01*
X184334478Y-117715649D01*
X184224640Y-117706100D01*
X184211372Y-117706079D01*
X184094542Y-117698369D01*
X184046629Y-117654871D01*
X184037080Y-117545033D01*
X184037058Y-117531765D01*
X184037058Y-117357451D01*
X185082941Y-117357451D01*
X185082941Y-116660196D01*
X184385686Y-116660196D01*
X184385686Y-116311569D01*
X185082941Y-116311569D01*
X185082941Y-114917059D01*
X182991176Y-114917059D01*
X182991176Y-115440000D01*
X184037058Y-115440000D01*
X184037058Y-115265687D01*
X184734313Y-115265687D01*
X184734313Y-115962942D01*
X184560000Y-115962942D01*
X184443169Y-115955232D01*
X184395256Y-115911734D01*
X184385708Y-115801896D01*
X184385686Y-115788628D01*
X184377976Y-115671797D01*
X184334478Y-115623884D01*
X184224640Y-115614336D01*
X184211372Y-115614314D01*
X184094542Y-115606604D01*
X184046629Y-115563107D01*
X184037080Y-115453268D01*
X184037058Y-115440000D01*
X182991176Y-115440000D01*
X182991176Y-115614314D01*
X183688431Y-115614314D01*
X183688431Y-115788628D01*
X183680721Y-115905458D01*
X183637224Y-115953371D01*
X183527385Y-115962920D01*
X183514117Y-115962942D01*
X183397287Y-115970651D01*
X183349374Y-116014149D01*
X183339825Y-116123987D01*
X183339804Y-116137255D01*
X183332094Y-116254086D01*
X183288596Y-116301999D01*
X183178758Y-116311547D01*
X183165490Y-116311569D01*
X183048659Y-116303859D01*
X183000746Y-116260361D01*
X182991198Y-116150523D01*
X182991176Y-116137255D01*
X182983466Y-116020425D01*
X182939969Y-115972512D01*
X182830130Y-115962963D01*
X182816862Y-115962942D01*
X182700032Y-115970651D01*
X182652119Y-116014149D01*
X182642570Y-116123987D01*
X182642549Y-116137255D01*
X182642549Y-116311569D01*
X181596666Y-116311569D01*
X181596666Y-115962942D01*
X181422353Y-115962942D01*
G36*
X181596666Y-114917059D02*
X180550784Y-114917059D01*
X180550784Y-115265687D01*
X181596666Y-115265687D01*
X181596666Y-114917059D01*
X181596666Y-114917059D01*
G37*
X181596666Y-114917059D02*
X180550784Y-114917059D01*
X180550784Y-115265687D01*
X181596666Y-115265687D01*
X181596666Y-114917059D01*
G36*
X178807647Y-114917059D02*
X176367255Y-114917059D01*
X176367255Y-117008824D01*
X176715882Y-117008824D01*
X176715882Y-115265687D01*
X178459019Y-115265687D01*
X178459019Y-117008824D01*
X176715882Y-117008824D01*
X176367255Y-117008824D01*
X176367255Y-117357451D01*
X178807647Y-117357451D01*
X178807647Y-114917059D01*
X178807647Y-114917059D01*
G37*
X178807647Y-114917059D02*
X176367255Y-114917059D01*
X176367255Y-117008824D01*
X176715882Y-117008824D01*
X176715882Y-115265687D01*
X178459019Y-115265687D01*
X178459019Y-117008824D01*
X176715882Y-117008824D01*
X176367255Y-117008824D01*
X176367255Y-117357451D01*
X178807647Y-117357451D01*
X178807647Y-114917059D01*
G36*
X195567447Y-117942070D02*
X195478160Y-117944505D01*
X195424486Y-117949975D01*
X195398578Y-117959635D01*
X195392588Y-117974641D01*
X195395201Y-117986414D01*
X195408417Y-118019323D01*
X195439892Y-118093837D01*
X195487301Y-118204560D01*
X195548314Y-118346097D01*
X195620606Y-118513050D01*
X195701848Y-118700023D01*
X195789713Y-118901620D01*
X195806758Y-118940660D01*
X195894613Y-119142566D01*
X195975269Y-119329359D01*
X196046561Y-119495918D01*
X196106327Y-119637124D01*
X196152402Y-119747858D01*
X196182623Y-119822998D01*
X196194826Y-119857426D01*
X196194874Y-119859032D01*
X196169583Y-119852431D01*
X196103350Y-119829070D01*
X196002789Y-119791454D01*
X195874519Y-119742086D01*
X195725156Y-119683471D01*
X195611864Y-119638388D01*
X195451913Y-119575282D01*
X195308514Y-119520419D01*
X195188246Y-119476177D01*
X195097687Y-119444931D01*
X195043413Y-119429058D01*
X195030526Y-119428388D01*
X195035767Y-119455135D01*
X195052649Y-119525317D01*
X195079560Y-119632796D01*
X195114891Y-119771433D01*
X195157032Y-119935090D01*
X195204372Y-120117631D01*
X195255302Y-120312915D01*
X195308210Y-120514806D01*
X195361488Y-120717165D01*
X195413525Y-120913854D01*
X195462711Y-121098735D01*
X195507436Y-121265669D01*
X195546089Y-121408520D01*
X195577060Y-121521148D01*
X195598740Y-121597416D01*
X195604590Y-121616818D01*
X195605666Y-121645468D01*
X195577605Y-121658630D01*
X195512116Y-121661717D01*
X195448711Y-121666605D01*
X195415615Y-121678888D01*
X195414175Y-121684905D01*
X195431810Y-121716256D01*
X195471907Y-121780021D01*
X195529012Y-121868063D01*
X195597669Y-121972245D01*
X195672423Y-122084432D01*
X195747820Y-122196487D01*
X195818404Y-122300274D01*
X195878720Y-122387655D01*
X195923313Y-122450496D01*
X195946729Y-122480660D01*
X195948687Y-122482146D01*
X195960906Y-122459285D01*
X195986554Y-122395842D01*
X196022597Y-122299834D01*
X196066001Y-122179281D01*
X196099622Y-122083186D01*
X196147108Y-121940786D01*
X196183868Y-121820174D01*
X196207878Y-121728733D01*
X196217116Y-121673848D01*
X196215077Y-121661825D01*
X196175868Y-121644604D01*
X196110606Y-121632204D01*
X196103428Y-121631476D01*
X196014432Y-121623232D01*
X195815478Y-120931957D01*
X195764276Y-120752574D01*
X195718635Y-120589822D01*
X195680269Y-120450043D01*
X195650890Y-120339575D01*
X195632210Y-120264760D01*
X195625942Y-120231938D01*
X195626167Y-120231038D01*
X195651619Y-120237502D01*
X195717974Y-120260806D01*
X195818609Y-120298442D01*
X195946901Y-120347904D01*
X196096228Y-120406683D01*
X196209168Y-120451804D01*
X196368990Y-120515749D01*
X196512086Y-120572463D01*
X196631894Y-120619390D01*
X196721848Y-120653972D01*
X196775388Y-120673653D01*
X196787682Y-120677195D01*
X196783212Y-120652105D01*
X196767076Y-120588268D01*
X196742023Y-120496182D01*
X196719490Y-120416493D01*
X196696883Y-120337287D01*
X196662204Y-120215261D01*
X196617314Y-120056980D01*
X196564071Y-119869010D01*
X196504335Y-119657917D01*
X196439964Y-119430267D01*
X196372818Y-119192624D01*
X196332872Y-119051162D01*
X196019603Y-117941515D01*
X195700194Y-117941515D01*
X195567447Y-117942070D01*
X195567447Y-117942070D01*
G37*
X195567447Y-117942070D02*
X195478160Y-117944505D01*
X195424486Y-117949975D01*
X195398578Y-117959635D01*
X195392588Y-117974641D01*
X195395201Y-117986414D01*
X195408417Y-118019323D01*
X195439892Y-118093837D01*
X195487301Y-118204560D01*
X195548314Y-118346097D01*
X195620606Y-118513050D01*
X195701848Y-118700023D01*
X195789713Y-118901620D01*
X195806758Y-118940660D01*
X195894613Y-119142566D01*
X195975269Y-119329359D01*
X196046561Y-119495918D01*
X196106327Y-119637124D01*
X196152402Y-119747858D01*
X196182623Y-119822998D01*
X196194826Y-119857426D01*
X196194874Y-119859032D01*
X196169583Y-119852431D01*
X196103350Y-119829070D01*
X196002789Y-119791454D01*
X195874519Y-119742086D01*
X195725156Y-119683471D01*
X195611864Y-119638388D01*
X195451913Y-119575282D01*
X195308514Y-119520419D01*
X195188246Y-119476177D01*
X195097687Y-119444931D01*
X195043413Y-119429058D01*
X195030526Y-119428388D01*
X195035767Y-119455135D01*
X195052649Y-119525317D01*
X195079560Y-119632796D01*
X195114891Y-119771433D01*
X195157032Y-119935090D01*
X195204372Y-120117631D01*
X195255302Y-120312915D01*
X195308210Y-120514806D01*
X195361488Y-120717165D01*
X195413525Y-120913854D01*
X195462711Y-121098735D01*
X195507436Y-121265669D01*
X195546089Y-121408520D01*
X195577060Y-121521148D01*
X195598740Y-121597416D01*
X195604590Y-121616818D01*
X195605666Y-121645468D01*
X195577605Y-121658630D01*
X195512116Y-121661717D01*
X195448711Y-121666605D01*
X195415615Y-121678888D01*
X195414175Y-121684905D01*
X195431810Y-121716256D01*
X195471907Y-121780021D01*
X195529012Y-121868063D01*
X195597669Y-121972245D01*
X195672423Y-122084432D01*
X195747820Y-122196487D01*
X195818404Y-122300274D01*
X195878720Y-122387655D01*
X195923313Y-122450496D01*
X195946729Y-122480660D01*
X195948687Y-122482146D01*
X195960906Y-122459285D01*
X195986554Y-122395842D01*
X196022597Y-122299834D01*
X196066001Y-122179281D01*
X196099622Y-122083186D01*
X196147108Y-121940786D01*
X196183868Y-121820174D01*
X196207878Y-121728733D01*
X196217116Y-121673848D01*
X196215077Y-121661825D01*
X196175868Y-121644604D01*
X196110606Y-121632204D01*
X196103428Y-121631476D01*
X196014432Y-121623232D01*
X195815478Y-120931957D01*
X195764276Y-120752574D01*
X195718635Y-120589822D01*
X195680269Y-120450043D01*
X195650890Y-120339575D01*
X195632210Y-120264760D01*
X195625942Y-120231938D01*
X195626167Y-120231038D01*
X195651619Y-120237502D01*
X195717974Y-120260806D01*
X195818609Y-120298442D01*
X195946901Y-120347904D01*
X196096228Y-120406683D01*
X196209168Y-120451804D01*
X196368990Y-120515749D01*
X196512086Y-120572463D01*
X196631894Y-120619390D01*
X196721848Y-120653972D01*
X196775388Y-120673653D01*
X196787682Y-120677195D01*
X196783212Y-120652105D01*
X196767076Y-120588268D01*
X196742023Y-120496182D01*
X196719490Y-120416493D01*
X196696883Y-120337287D01*
X196662204Y-120215261D01*
X196617314Y-120056980D01*
X196564071Y-119869010D01*
X196504335Y-119657917D01*
X196439964Y-119430267D01*
X196372818Y-119192624D01*
X196332872Y-119051162D01*
X196019603Y-117941515D01*
X195700194Y-117941515D01*
X195567447Y-117942070D01*
G36*
X195869112Y-114948687D02*
X195821291Y-114984596D01*
X195800570Y-115013838D01*
X195755795Y-115084772D01*
X195688538Y-115194700D01*
X195600368Y-115340927D01*
X195492857Y-115520756D01*
X195367575Y-115731492D01*
X195226092Y-115970437D01*
X195069980Y-116234897D01*
X194900807Y-116522173D01*
X194720146Y-116829571D01*
X194529567Y-117154394D01*
X194330639Y-117493945D01*
X194124934Y-117845529D01*
X193914023Y-118206449D01*
X193699475Y-118574010D01*
X193482861Y-118945514D01*
X193265753Y-119318265D01*
X193049719Y-119689568D01*
X192836331Y-120056726D01*
X192627160Y-120417042D01*
X192423776Y-120767822D01*
X192227749Y-121106367D01*
X192040650Y-121429983D01*
X191864049Y-121735972D01*
X191699518Y-122021639D01*
X191548626Y-122284288D01*
X191412944Y-122521221D01*
X191294043Y-122729743D01*
X191193493Y-122907158D01*
X191112865Y-123050770D01*
X191053729Y-123157881D01*
X191017656Y-123225797D01*
X191006254Y-123250903D01*
X191008151Y-123331862D01*
X191032834Y-123410046D01*
X191040667Y-123429752D01*
X191046101Y-123447810D01*
X191051298Y-123464294D01*
X191058424Y-123479277D01*
X191069641Y-123492835D01*
X191087113Y-123505041D01*
X191113003Y-123515969D01*
X191149475Y-123525694D01*
X191198692Y-123534288D01*
X191262819Y-123541826D01*
X191344018Y-123548383D01*
X191444454Y-123554032D01*
X191566289Y-123558846D01*
X191711688Y-123562902D01*
X191882813Y-123566271D01*
X192081829Y-123569029D01*
X192310899Y-123571249D01*
X192572186Y-123573005D01*
X192867855Y-123574371D01*
X193200068Y-123575422D01*
X193570989Y-123576231D01*
X193982782Y-123576873D01*
X194437610Y-123577421D01*
X194937637Y-123577950D01*
X195485027Y-123578532D01*
X195974344Y-123579107D01*
X196560311Y-123579809D01*
X197097132Y-123580378D01*
X197586971Y-123580797D01*
X198031995Y-123581053D01*
X198434369Y-123581129D01*
X198796259Y-123581010D01*
X199119830Y-123580682D01*
X199407250Y-123580128D01*
X199660682Y-123579334D01*
X199882294Y-123578284D01*
X200074251Y-123576962D01*
X200238719Y-123575354D01*
X200377863Y-123573444D01*
X200493850Y-123571217D01*
X200588845Y-123568658D01*
X200665013Y-123565751D01*
X200724522Y-123562481D01*
X200769536Y-123558833D01*
X200802222Y-123554790D01*
X200824745Y-123550339D01*
X200839271Y-123545464D01*
X200840856Y-123544714D01*
X200918163Y-123482538D01*
X200973552Y-123392967D01*
X200996938Y-123295364D01*
X200993781Y-123251074D01*
X200979052Y-123219448D01*
X200939893Y-123146280D01*
X200877877Y-123034265D01*
X200794572Y-122886101D01*
X200754958Y-122816263D01*
X200006610Y-122816263D01*
X191999867Y-122816263D01*
X193156622Y-120795808D01*
X193345660Y-120465702D01*
X193546288Y-120115499D01*
X193755798Y-119749921D01*
X193971481Y-119373688D01*
X194190626Y-118991522D01*
X194410525Y-118608144D01*
X194628469Y-118228275D01*
X194841748Y-117856636D01*
X195047652Y-117497949D01*
X195243473Y-117156934D01*
X195426501Y-116838313D01*
X195594027Y-116546806D01*
X195743342Y-116287136D01*
X195871736Y-116064023D01*
X195946603Y-115934051D01*
X195978314Y-115885261D01*
X195999456Y-115863667D01*
X196000000Y-115863610D01*
X196016114Y-115884770D01*
X196053577Y-115943817D01*
X196108332Y-116034053D01*
X196176328Y-116148779D01*
X196253509Y-116281297D01*
X196267776Y-116306023D01*
X196556982Y-116808084D01*
X196830543Y-117283300D01*
X197093463Y-117740386D01*
X197350747Y-118188059D01*
X197607398Y-118635037D01*
X197868422Y-119090034D01*
X198138823Y-119561768D01*
X198423605Y-120058954D01*
X198727773Y-120590310D01*
X198790314Y-120699596D01*
X198957866Y-120992349D01*
X199118925Y-121273662D01*
X199271559Y-121540162D01*
X199413834Y-121788480D01*
X199543817Y-122015244D01*
X199659574Y-122217084D01*
X199759174Y-122390629D01*
X199840682Y-122532508D01*
X199902165Y-122639351D01*
X199941691Y-122707786D01*
X199956362Y-122732879D01*
X200006610Y-122816263D01*
X200754958Y-122816263D01*
X200691551Y-122704483D01*
X200570382Y-122492107D01*
X200432637Y-122251671D01*
X200279886Y-121985870D01*
X200113699Y-121697401D01*
X199935648Y-121388960D01*
X199747303Y-121063243D01*
X199550233Y-120722946D01*
X199346011Y-120370766D01*
X199136205Y-120009399D01*
X198922388Y-119641542D01*
X198706128Y-119269891D01*
X198488998Y-118897141D01*
X198272566Y-118525990D01*
X198058405Y-118159133D01*
X197848084Y-117799267D01*
X197643173Y-117449089D01*
X197445244Y-117111294D01*
X197255867Y-116788579D01*
X197076612Y-116483639D01*
X196909050Y-116199173D01*
X196754751Y-115937874D01*
X196615286Y-115702441D01*
X196492225Y-115495569D01*
X196387140Y-115319955D01*
X196301600Y-115178295D01*
X196237176Y-115073284D01*
X196195438Y-115007620D01*
X196178801Y-114984596D01*
X196080025Y-114924897D01*
X195973214Y-114912928D01*
X195869112Y-114948687D01*
X195869112Y-114948687D01*
G37*
X195869112Y-114948687D02*
X195821291Y-114984596D01*
X195800570Y-115013838D01*
X195755795Y-115084772D01*
X195688538Y-115194700D01*
X195600368Y-115340927D01*
X195492857Y-115520756D01*
X195367575Y-115731492D01*
X195226092Y-115970437D01*
X195069980Y-116234897D01*
X194900807Y-116522173D01*
X194720146Y-116829571D01*
X194529567Y-117154394D01*
X194330639Y-117493945D01*
X194124934Y-117845529D01*
X193914023Y-118206449D01*
X193699475Y-118574010D01*
X193482861Y-118945514D01*
X193265753Y-119318265D01*
X193049719Y-119689568D01*
X192836331Y-120056726D01*
X192627160Y-120417042D01*
X192423776Y-120767822D01*
X192227749Y-121106367D01*
X192040650Y-121429983D01*
X191864049Y-121735972D01*
X191699518Y-122021639D01*
X191548626Y-122284288D01*
X191412944Y-122521221D01*
X191294043Y-122729743D01*
X191193493Y-122907158D01*
X191112865Y-123050770D01*
X191053729Y-123157881D01*
X191017656Y-123225797D01*
X191006254Y-123250903D01*
X191008151Y-123331862D01*
X191032834Y-123410046D01*
X191040667Y-123429752D01*
X191046101Y-123447810D01*
X191051298Y-123464294D01*
X191058424Y-123479277D01*
X191069641Y-123492835D01*
X191087113Y-123505041D01*
X191113003Y-123515969D01*
X191149475Y-123525694D01*
X191198692Y-123534288D01*
X191262819Y-123541826D01*
X191344018Y-123548383D01*
X191444454Y-123554032D01*
X191566289Y-123558846D01*
X191711688Y-123562902D01*
X191882813Y-123566271D01*
X192081829Y-123569029D01*
X192310899Y-123571249D01*
X192572186Y-123573005D01*
X192867855Y-123574371D01*
X193200068Y-123575422D01*
X193570989Y-123576231D01*
X193982782Y-123576873D01*
X194437610Y-123577421D01*
X194937637Y-123577950D01*
X195485027Y-123578532D01*
X195974344Y-123579107D01*
X196560311Y-123579809D01*
X197097132Y-123580378D01*
X197586971Y-123580797D01*
X198031995Y-123581053D01*
X198434369Y-123581129D01*
X198796259Y-123581010D01*
X199119830Y-123580682D01*
X199407250Y-123580128D01*
X199660682Y-123579334D01*
X199882294Y-123578284D01*
X200074251Y-123576962D01*
X200238719Y-123575354D01*
X200377863Y-123573444D01*
X200493850Y-123571217D01*
X200588845Y-123568658D01*
X200665013Y-123565751D01*
X200724522Y-123562481D01*
X200769536Y-123558833D01*
X200802222Y-123554790D01*
X200824745Y-123550339D01*
X200839271Y-123545464D01*
X200840856Y-123544714D01*
X200918163Y-123482538D01*
X200973552Y-123392967D01*
X200996938Y-123295364D01*
X200993781Y-123251074D01*
X200979052Y-123219448D01*
X200939893Y-123146280D01*
X200877877Y-123034265D01*
X200794572Y-122886101D01*
X200754958Y-122816263D01*
X200006610Y-122816263D01*
X191999867Y-122816263D01*
X193156622Y-120795808D01*
X193345660Y-120465702D01*
X193546288Y-120115499D01*
X193755798Y-119749921D01*
X193971481Y-119373688D01*
X194190626Y-118991522D01*
X194410525Y-118608144D01*
X194628469Y-118228275D01*
X194841748Y-117856636D01*
X195047652Y-117497949D01*
X195243473Y-117156934D01*
X195426501Y-116838313D01*
X195594027Y-116546806D01*
X195743342Y-116287136D01*
X195871736Y-116064023D01*
X195946603Y-115934051D01*
X195978314Y-115885261D01*
X195999456Y-115863667D01*
X196000000Y-115863610D01*
X196016114Y-115884770D01*
X196053577Y-115943817D01*
X196108332Y-116034053D01*
X196176328Y-116148779D01*
X196253509Y-116281297D01*
X196267776Y-116306023D01*
X196556982Y-116808084D01*
X196830543Y-117283300D01*
X197093463Y-117740386D01*
X197350747Y-118188059D01*
X197607398Y-118635037D01*
X197868422Y-119090034D01*
X198138823Y-119561768D01*
X198423605Y-120058954D01*
X198727773Y-120590310D01*
X198790314Y-120699596D01*
X198957866Y-120992349D01*
X199118925Y-121273662D01*
X199271559Y-121540162D01*
X199413834Y-121788480D01*
X199543817Y-122015244D01*
X199659574Y-122217084D01*
X199759174Y-122390629D01*
X199840682Y-122532508D01*
X199902165Y-122639351D01*
X199941691Y-122707786D01*
X199956362Y-122732879D01*
X200006610Y-122816263D01*
X200754958Y-122816263D01*
X200691551Y-122704483D01*
X200570382Y-122492107D01*
X200432637Y-122251671D01*
X200279886Y-121985870D01*
X200113699Y-121697401D01*
X199935648Y-121388960D01*
X199747303Y-121063243D01*
X199550233Y-120722946D01*
X199346011Y-120370766D01*
X199136205Y-120009399D01*
X198922388Y-119641542D01*
X198706128Y-119269891D01*
X198488998Y-118897141D01*
X198272566Y-118525990D01*
X198058405Y-118159133D01*
X197848084Y-117799267D01*
X197643173Y-117449089D01*
X197445244Y-117111294D01*
X197255867Y-116788579D01*
X197076612Y-116483639D01*
X196909050Y-116199173D01*
X196754751Y-115937874D01*
X196615286Y-115702441D01*
X196492225Y-115495569D01*
X196387140Y-115319955D01*
X196301600Y-115178295D01*
X196237176Y-115073284D01*
X196195438Y-115007620D01*
X196178801Y-114984596D01*
X196080025Y-114924897D01*
X195973214Y-114912928D01*
X195869112Y-114948687D01*
G36*
X180590769Y-97764327D02*
X180481825Y-97765634D01*
X180385280Y-97767642D01*
X180306378Y-97770350D01*
X180250362Y-97773759D01*
X180222475Y-97777869D01*
X180220448Y-97779099D01*
X180214918Y-97799575D01*
X180203971Y-97849899D01*
X180188480Y-97925697D01*
X180169320Y-98022594D01*
X180147362Y-98136217D01*
X180123481Y-98262192D01*
X180115676Y-98303858D01*
X180091247Y-98432705D01*
X180068227Y-98550450D01*
X180047522Y-98652743D01*
X180030037Y-98735235D01*
X180016679Y-98793576D01*
X180008352Y-98823418D01*
X180006905Y-98826231D01*
X179985845Y-98837748D01*
X179938193Y-98859432D01*
X179869814Y-98888911D01*
X179786573Y-98923808D01*
X179694332Y-98961752D01*
X179598956Y-99000367D01*
X179506308Y-99037278D01*
X179422254Y-99070113D01*
X179352658Y-99096496D01*
X179303382Y-99114053D01*
X179280311Y-99120411D01*
X179259687Y-99110857D01*
X179214383Y-99083855D01*
X179148237Y-99041890D01*
X179065087Y-98987450D01*
X178968770Y-98923021D01*
X178863123Y-98851091D01*
X178837341Y-98833356D01*
X178729788Y-98759956D01*
X178630367Y-98693489D01*
X178542971Y-98636448D01*
X178471493Y-98591327D01*
X178419826Y-98560620D01*
X178391864Y-98546821D01*
X178389201Y-98546301D01*
X178368352Y-98558328D01*
X178327485Y-98591853D01*
X178270437Y-98643042D01*
X178201041Y-98708062D01*
X178123135Y-98783081D01*
X178040551Y-98864264D01*
X177957126Y-98947779D01*
X177876694Y-99029792D01*
X177803091Y-99106469D01*
X177740152Y-99173979D01*
X177691711Y-99228486D01*
X177661605Y-99266158D01*
X177653287Y-99281872D01*
X177662811Y-99303621D01*
X177689728Y-99350043D01*
X177731561Y-99417252D01*
X177785830Y-99501359D01*
X177850056Y-99598477D01*
X177921760Y-99704719D01*
X177939444Y-99730614D01*
X178035782Y-99872853D01*
X178111319Y-99987708D01*
X178166269Y-100075527D01*
X178200847Y-100136657D01*
X178215268Y-100171445D01*
X178215391Y-100178212D01*
X178196453Y-100228647D01*
X178167958Y-100299112D01*
X178132433Y-100383874D01*
X178092406Y-100477200D01*
X178050405Y-100573355D01*
X178008959Y-100666608D01*
X177970594Y-100751224D01*
X177937839Y-100821470D01*
X177913223Y-100871612D01*
X177899272Y-100895918D01*
X177898611Y-100896658D01*
X177869201Y-100911165D01*
X177807401Y-100929364D01*
X177715359Y-100950717D01*
X177595223Y-100974691D01*
X177557603Y-100981661D01*
X177442290Y-101002723D01*
X177324634Y-101024222D01*
X177214620Y-101044334D01*
X177122232Y-101061232D01*
X177075596Y-101069770D01*
X177001672Y-101084072D01*
X176940176Y-101097386D01*
X176899507Y-101107820D01*
X176888575Y-101111923D01*
X176883724Y-101131657D01*
X176879593Y-101180924D01*
X176876193Y-101254476D01*
X176873535Y-101347061D01*
X176871632Y-101453432D01*
X176870494Y-101568339D01*
X176870134Y-101686533D01*
X176870563Y-101802764D01*
X176871792Y-101911782D01*
X176873834Y-102008340D01*
X176876699Y-102087186D01*
X176880400Y-102143073D01*
X176884947Y-102170751D01*
X176886231Y-102172655D01*
X176906866Y-102178269D01*
X176957190Y-102189221D01*
X177032661Y-102204604D01*
X177128738Y-102223511D01*
X177240880Y-102245038D01*
X177364545Y-102268277D01*
X177377703Y-102270722D01*
X177502630Y-102294489D01*
X177616750Y-102317303D01*
X177715458Y-102338156D01*
X177794152Y-102356039D01*
X177848227Y-102369943D01*
X177873079Y-102378860D01*
X177873745Y-102379403D01*
X177885417Y-102400475D01*
X177907355Y-102448380D01*
X177937283Y-102517498D01*
X177972925Y-102602207D01*
X178012005Y-102696886D01*
X178052245Y-102795913D01*
X178091370Y-102893668D01*
X178127103Y-102984529D01*
X178157168Y-103062875D01*
X178179288Y-103123084D01*
X178191188Y-103159534D01*
X178192603Y-103166802D01*
X178183113Y-103185820D01*
X178156339Y-103229532D01*
X178114828Y-103294042D01*
X178061123Y-103375451D01*
X177997771Y-103469863D01*
X177927315Y-103573378D01*
X177922945Y-103579753D01*
X177851995Y-103684319D01*
X177788034Y-103780704D01*
X177733622Y-103864877D01*
X177691323Y-103932805D01*
X177663698Y-103980454D01*
X177653309Y-104003792D01*
X177653287Y-104004216D01*
X177665306Y-104024900D01*
X177698809Y-104065618D01*
X177749964Y-104122538D01*
X177814940Y-104191825D01*
X177889907Y-104269646D01*
X177971032Y-104352167D01*
X178054484Y-104435554D01*
X178136434Y-104515973D01*
X178213048Y-104589591D01*
X178280496Y-104652574D01*
X178334947Y-104701087D01*
X178372570Y-104731298D01*
X178388304Y-104739726D01*
X178410310Y-104730161D01*
X178456624Y-104703236D01*
X178523094Y-104661601D01*
X178605564Y-104607910D01*
X178699882Y-104544813D01*
X178788286Y-104484371D01*
X178890048Y-104414811D01*
X178984017Y-104351894D01*
X179065931Y-104298371D01*
X179131529Y-104256988D01*
X179176548Y-104230496D01*
X179195501Y-104221727D01*
X179228166Y-104226548D01*
X179284651Y-104246736D01*
X179358843Y-104279921D01*
X179405476Y-104303109D01*
X179477386Y-104338938D01*
X179539480Y-104367828D01*
X179584370Y-104386468D01*
X179603277Y-104391781D01*
X179614234Y-104376247D01*
X179636676Y-104332056D01*
X179669085Y-104262826D01*
X179709946Y-104172174D01*
X179757740Y-104063717D01*
X179810951Y-103941073D01*
X179868062Y-103807860D01*
X179927555Y-103667693D01*
X179987914Y-103524192D01*
X180047622Y-103380972D01*
X180105161Y-103241652D01*
X180159015Y-103109849D01*
X180207666Y-102989180D01*
X180249598Y-102883263D01*
X180283293Y-102795714D01*
X180307235Y-102730151D01*
X180319906Y-102690192D01*
X180321342Y-102679561D01*
X180304041Y-102661592D01*
X180265054Y-102630668D01*
X180211942Y-102592687D01*
X180196886Y-102582474D01*
X180035372Y-102458592D01*
X179905323Y-102323870D01*
X179804307Y-102175319D01*
X179729894Y-102009954D01*
X179729191Y-102007963D01*
X179695993Y-101882226D01*
X179676772Y-101740554D01*
X179672252Y-101596114D01*
X179683162Y-101462074D01*
X179695579Y-101399234D01*
X179754028Y-101230394D01*
X179840195Y-101070867D01*
X179949565Y-100926360D01*
X180077618Y-100802575D01*
X180219838Y-100705219D01*
X180262877Y-100682845D01*
X180449829Y-100610343D01*
X180638414Y-100572533D01*
X180827604Y-100569416D01*
X181016373Y-100600991D01*
X181203694Y-100667260D01*
X181237123Y-100682845D01*
X181359515Y-100756657D01*
X181479698Y-100855552D01*
X181588607Y-100970504D01*
X181677172Y-101092486D01*
X181712277Y-101155904D01*
X181770322Y-101288854D01*
X181806591Y-101411100D01*
X181823971Y-101536483D01*
X181825349Y-101678843D01*
X181824698Y-101694988D01*
X181801837Y-101887818D01*
X181750367Y-102063081D01*
X181669218Y-102222597D01*
X181557320Y-102368187D01*
X181413602Y-102501672D01*
X181303114Y-102582474D01*
X181247586Y-102621318D01*
X181204235Y-102654625D01*
X181180622Y-102676497D01*
X181178657Y-102679561D01*
X181182967Y-102700430D01*
X181199559Y-102749314D01*
X181226916Y-102822598D01*
X181263522Y-102916664D01*
X181307859Y-103027894D01*
X181358411Y-103152672D01*
X181413660Y-103287379D01*
X181472090Y-103428399D01*
X181532183Y-103572114D01*
X181592422Y-103714907D01*
X181651291Y-103853160D01*
X181707272Y-103983257D01*
X181758848Y-104101579D01*
X181804502Y-104204510D01*
X181842717Y-104288431D01*
X181871977Y-104349727D01*
X181890764Y-104384779D01*
X181896723Y-104391781D01*
X181921701Y-104384175D01*
X181970023Y-104363568D01*
X182034298Y-104333270D01*
X182094523Y-104303109D01*
X182175913Y-104263725D01*
X182242993Y-104236021D01*
X182289650Y-104222368D01*
X182304499Y-104221727D01*
X182328556Y-104233317D01*
X182376832Y-104262146D01*
X182445067Y-104305464D01*
X182528998Y-104360525D01*
X182624365Y-104424578D01*
X182711714Y-104484371D01*
X182812974Y-104553494D01*
X182906019Y-104615517D01*
X182986690Y-104667786D01*
X183050830Y-104707651D01*
X183094281Y-104732457D01*
X183112010Y-104739726D01*
X183131736Y-104727821D01*
X183172423Y-104694187D01*
X183230683Y-104641950D01*
X183303123Y-104574231D01*
X183386354Y-104494155D01*
X183476985Y-104404846D01*
X183494577Y-104387276D01*
X183586544Y-104294171D01*
X183669222Y-104208430D01*
X183739582Y-104133352D01*
X183794595Y-104072240D01*
X183831231Y-104028392D01*
X183846461Y-104005109D01*
X183846712Y-104003655D01*
X183837182Y-103981430D01*
X183810330Y-103934794D01*
X183768763Y-103867859D01*
X183715089Y-103784737D01*
X183651913Y-103689540D01*
X183585778Y-103592112D01*
X183515580Y-103489341D01*
X183451730Y-103395016D01*
X183396945Y-103313223D01*
X183353943Y-103248044D01*
X183325442Y-103203563D01*
X183314299Y-103184261D01*
X183317802Y-103161694D01*
X183332594Y-103112567D01*
X183356529Y-103042417D01*
X183387460Y-102956781D01*
X183423243Y-102861195D01*
X183461731Y-102761196D01*
X183500778Y-102662321D01*
X183538240Y-102570107D01*
X183571970Y-102490090D01*
X183599822Y-102427806D01*
X183619651Y-102388794D01*
X183626216Y-102379403D01*
X183648109Y-102371004D01*
X183699654Y-102357524D01*
X183776249Y-102339970D01*
X183873287Y-102319352D01*
X183986166Y-102296679D01*
X184110280Y-102272958D01*
X184122296Y-102270722D01*
X184246887Y-102247358D01*
X184360420Y-102225614D01*
X184458354Y-102206396D01*
X184536148Y-102190610D01*
X184589261Y-102179162D01*
X184613151Y-102172959D01*
X184613769Y-102172655D01*
X184618532Y-102152929D01*
X184622446Y-102103669D01*
X184625521Y-102030123D01*
X184627769Y-101937541D01*
X184629202Y-101831173D01*
X184629832Y-101716268D01*
X184629670Y-101598074D01*
X184628727Y-101481842D01*
X184627016Y-101372821D01*
X184624548Y-101276260D01*
X184621334Y-101197408D01*
X184617386Y-101141515D01*
X184612716Y-101113830D01*
X184611425Y-101111923D01*
X184587361Y-101104140D01*
X184537409Y-101092334D01*
X184469969Y-101078401D01*
X184424404Y-101069770D01*
X184349201Y-101056006D01*
X184249754Y-101037820D01*
X184136047Y-101017036D01*
X184018066Y-100995481D01*
X183942397Y-100981661D01*
X183814922Y-100957062D01*
X183714952Y-100934936D01*
X183644634Y-100915818D01*
X183606116Y-100900243D01*
X183601389Y-100896658D01*
X183585196Y-100871204D01*
X183558949Y-100819451D01*
X183525198Y-100747400D01*
X183486490Y-100661054D01*
X183445377Y-100566415D01*
X183404406Y-100469486D01*
X183366127Y-100376268D01*
X183333090Y-100292764D01*
X183307843Y-100224977D01*
X183292937Y-100178908D01*
X183290000Y-100163482D01*
X183299557Y-100139576D01*
X183326543Y-100091208D01*
X183368427Y-100022415D01*
X183422680Y-99937239D01*
X183486773Y-99839717D01*
X183558176Y-99733888D01*
X183568356Y-99719012D01*
X183640468Y-99612750D01*
X183705637Y-99514667D01*
X183761344Y-99428721D01*
X183805071Y-99358868D01*
X183834297Y-99309067D01*
X183846504Y-99283274D01*
X183846712Y-99281763D01*
X183834672Y-99260854D01*
X183801108Y-99219954D01*
X183749860Y-99162896D01*
X183684763Y-99093512D01*
X183609656Y-99015634D01*
X183528376Y-98933094D01*
X183444760Y-98849725D01*
X183362647Y-98769358D01*
X183285872Y-98695826D01*
X183218275Y-98632962D01*
X183163692Y-98584596D01*
X183125960Y-98554562D01*
X183110238Y-98546301D01*
X183086790Y-98556171D01*
X183037492Y-98584709D01*
X182964774Y-98630314D01*
X182871064Y-98691379D01*
X182758792Y-98766301D01*
X182630385Y-98853476D01*
X182488273Y-98951299D01*
X182334884Y-99058167D01*
X182328761Y-99062458D01*
X182279250Y-99094130D01*
X182238055Y-99115180D01*
X182219649Y-99120411D01*
X182196494Y-99114022D01*
X182147168Y-99096440D01*
X182077534Y-99070038D01*
X181993458Y-99037190D01*
X181900802Y-99000271D01*
X181805431Y-98961654D01*
X181713209Y-98923716D01*
X181629999Y-98888828D01*
X181561665Y-98859367D01*
X181514071Y-98837706D01*
X181493095Y-98826231D01*
X181486559Y-98806369D01*
X181474703Y-98756624D01*
X181458433Y-98681344D01*
X181438655Y-98584880D01*
X181416273Y-98471579D01*
X181392194Y-98345793D01*
X181384324Y-98303858D01*
X181360016Y-98174890D01*
X181337357Y-98056892D01*
X181317218Y-97954238D01*
X181300473Y-97871302D01*
X181287996Y-97812457D01*
X181280660Y-97782078D01*
X181279551Y-97779099D01*
X181260158Y-97774800D01*
X181211220Y-97771202D01*
X181137981Y-97768304D01*
X181045683Y-97766107D01*
X180939570Y-97764611D01*
X180824885Y-97763816D01*
X180706870Y-97763721D01*
X180590769Y-97764327D01*
X180590769Y-97764327D01*
G37*
X180590769Y-97764327D02*
X180481825Y-97765634D01*
X180385280Y-97767642D01*
X180306378Y-97770350D01*
X180250362Y-97773759D01*
X180222475Y-97777869D01*
X180220448Y-97779099D01*
X180214918Y-97799575D01*
X180203971Y-97849899D01*
X180188480Y-97925697D01*
X180169320Y-98022594D01*
X180147362Y-98136217D01*
X180123481Y-98262192D01*
X180115676Y-98303858D01*
X180091247Y-98432705D01*
X180068227Y-98550450D01*
X180047522Y-98652743D01*
X180030037Y-98735235D01*
X180016679Y-98793576D01*
X180008352Y-98823418D01*
X180006905Y-98826231D01*
X179985845Y-98837748D01*
X179938193Y-98859432D01*
X179869814Y-98888911D01*
X179786573Y-98923808D01*
X179694332Y-98961752D01*
X179598956Y-99000367D01*
X179506308Y-99037278D01*
X179422254Y-99070113D01*
X179352658Y-99096496D01*
X179303382Y-99114053D01*
X179280311Y-99120411D01*
X179259687Y-99110857D01*
X179214383Y-99083855D01*
X179148237Y-99041890D01*
X179065087Y-98987450D01*
X178968770Y-98923021D01*
X178863123Y-98851091D01*
X178837341Y-98833356D01*
X178729788Y-98759956D01*
X178630367Y-98693489D01*
X178542971Y-98636448D01*
X178471493Y-98591327D01*
X178419826Y-98560620D01*
X178391864Y-98546821D01*
X178389201Y-98546301D01*
X178368352Y-98558328D01*
X178327485Y-98591853D01*
X178270437Y-98643042D01*
X178201041Y-98708062D01*
X178123135Y-98783081D01*
X178040551Y-98864264D01*
X177957126Y-98947779D01*
X177876694Y-99029792D01*
X177803091Y-99106469D01*
X177740152Y-99173979D01*
X177691711Y-99228486D01*
X177661605Y-99266158D01*
X177653287Y-99281872D01*
X177662811Y-99303621D01*
X177689728Y-99350043D01*
X177731561Y-99417252D01*
X177785830Y-99501359D01*
X177850056Y-99598477D01*
X177921760Y-99704719D01*
X177939444Y-99730614D01*
X178035782Y-99872853D01*
X178111319Y-99987708D01*
X178166269Y-100075527D01*
X178200847Y-100136657D01*
X178215268Y-100171445D01*
X178215391Y-100178212D01*
X178196453Y-100228647D01*
X178167958Y-100299112D01*
X178132433Y-100383874D01*
X178092406Y-100477200D01*
X178050405Y-100573355D01*
X178008959Y-100666608D01*
X177970594Y-100751224D01*
X177937839Y-100821470D01*
X177913223Y-100871612D01*
X177899272Y-100895918D01*
X177898611Y-100896658D01*
X177869201Y-100911165D01*
X177807401Y-100929364D01*
X177715359Y-100950717D01*
X177595223Y-100974691D01*
X177557603Y-100981661D01*
X177442290Y-101002723D01*
X177324634Y-101024222D01*
X177214620Y-101044334D01*
X177122232Y-101061232D01*
X177075596Y-101069770D01*
X177001672Y-101084072D01*
X176940176Y-101097386D01*
X176899507Y-101107820D01*
X176888575Y-101111923D01*
X176883724Y-101131657D01*
X176879593Y-101180924D01*
X176876193Y-101254476D01*
X176873535Y-101347061D01*
X176871632Y-101453432D01*
X176870494Y-101568339D01*
X176870134Y-101686533D01*
X176870563Y-101802764D01*
X176871792Y-101911782D01*
X176873834Y-102008340D01*
X176876699Y-102087186D01*
X176880400Y-102143073D01*
X176884947Y-102170751D01*
X176886231Y-102172655D01*
X176906866Y-102178269D01*
X176957190Y-102189221D01*
X177032661Y-102204604D01*
X177128738Y-102223511D01*
X177240880Y-102245038D01*
X177364545Y-102268277D01*
X177377703Y-102270722D01*
X177502630Y-102294489D01*
X177616750Y-102317303D01*
X177715458Y-102338156D01*
X177794152Y-102356039D01*
X177848227Y-102369943D01*
X177873079Y-102378860D01*
X177873745Y-102379403D01*
X177885417Y-102400475D01*
X177907355Y-102448380D01*
X177937283Y-102517498D01*
X177972925Y-102602207D01*
X178012005Y-102696886D01*
X178052245Y-102795913D01*
X178091370Y-102893668D01*
X178127103Y-102984529D01*
X178157168Y-103062875D01*
X178179288Y-103123084D01*
X178191188Y-103159534D01*
X178192603Y-103166802D01*
X178183113Y-103185820D01*
X178156339Y-103229532D01*
X178114828Y-103294042D01*
X178061123Y-103375451D01*
X177997771Y-103469863D01*
X177927315Y-103573378D01*
X177922945Y-103579753D01*
X177851995Y-103684319D01*
X177788034Y-103780704D01*
X177733622Y-103864877D01*
X177691323Y-103932805D01*
X177663698Y-103980454D01*
X177653309Y-104003792D01*
X177653287Y-104004216D01*
X177665306Y-104024900D01*
X177698809Y-104065618D01*
X177749964Y-104122538D01*
X177814940Y-104191825D01*
X177889907Y-104269646D01*
X177971032Y-104352167D01*
X178054484Y-104435554D01*
X178136434Y-104515973D01*
X178213048Y-104589591D01*
X178280496Y-104652574D01*
X178334947Y-104701087D01*
X178372570Y-104731298D01*
X178388304Y-104739726D01*
X178410310Y-104730161D01*
X178456624Y-104703236D01*
X178523094Y-104661601D01*
X178605564Y-104607910D01*
X178699882Y-104544813D01*
X178788286Y-104484371D01*
X178890048Y-104414811D01*
X178984017Y-104351894D01*
X179065931Y-104298371D01*
X179131529Y-104256988D01*
X179176548Y-104230496D01*
X179195501Y-104221727D01*
X179228166Y-104226548D01*
X179284651Y-104246736D01*
X179358843Y-104279921D01*
X179405476Y-104303109D01*
X179477386Y-104338938D01*
X179539480Y-104367828D01*
X179584370Y-104386468D01*
X179603277Y-104391781D01*
X179614234Y-104376247D01*
X179636676Y-104332056D01*
X179669085Y-104262826D01*
X179709946Y-104172174D01*
X179757740Y-104063717D01*
X179810951Y-103941073D01*
X179868062Y-103807860D01*
X179927555Y-103667693D01*
X179987914Y-103524192D01*
X180047622Y-103380972D01*
X180105161Y-103241652D01*
X180159015Y-103109849D01*
X180207666Y-102989180D01*
X180249598Y-102883263D01*
X180283293Y-102795714D01*
X180307235Y-102730151D01*
X180319906Y-102690192D01*
X180321342Y-102679561D01*
X180304041Y-102661592D01*
X180265054Y-102630668D01*
X180211942Y-102592687D01*
X180196886Y-102582474D01*
X180035372Y-102458592D01*
X179905323Y-102323870D01*
X179804307Y-102175319D01*
X179729894Y-102009954D01*
X179729191Y-102007963D01*
X179695993Y-101882226D01*
X179676772Y-101740554D01*
X179672252Y-101596114D01*
X179683162Y-101462074D01*
X179695579Y-101399234D01*
X179754028Y-101230394D01*
X179840195Y-101070867D01*
X179949565Y-100926360D01*
X180077618Y-100802575D01*
X180219838Y-100705219D01*
X180262877Y-100682845D01*
X180449829Y-100610343D01*
X180638414Y-100572533D01*
X180827604Y-100569416D01*
X181016373Y-100600991D01*
X181203694Y-100667260D01*
X181237123Y-100682845D01*
X181359515Y-100756657D01*
X181479698Y-100855552D01*
X181588607Y-100970504D01*
X181677172Y-101092486D01*
X181712277Y-101155904D01*
X181770322Y-101288854D01*
X181806591Y-101411100D01*
X181823971Y-101536483D01*
X181825349Y-101678843D01*
X181824698Y-101694988D01*
X181801837Y-101887818D01*
X181750367Y-102063081D01*
X181669218Y-102222597D01*
X181557320Y-102368187D01*
X181413602Y-102501672D01*
X181303114Y-102582474D01*
X181247586Y-102621318D01*
X181204235Y-102654625D01*
X181180622Y-102676497D01*
X181178657Y-102679561D01*
X181182967Y-102700430D01*
X181199559Y-102749314D01*
X181226916Y-102822598D01*
X181263522Y-102916664D01*
X181307859Y-103027894D01*
X181358411Y-103152672D01*
X181413660Y-103287379D01*
X181472090Y-103428399D01*
X181532183Y-103572114D01*
X181592422Y-103714907D01*
X181651291Y-103853160D01*
X181707272Y-103983257D01*
X181758848Y-104101579D01*
X181804502Y-104204510D01*
X181842717Y-104288431D01*
X181871977Y-104349727D01*
X181890764Y-104384779D01*
X181896723Y-104391781D01*
X181921701Y-104384175D01*
X181970023Y-104363568D01*
X182034298Y-104333270D01*
X182094523Y-104303109D01*
X182175913Y-104263725D01*
X182242993Y-104236021D01*
X182289650Y-104222368D01*
X182304499Y-104221727D01*
X182328556Y-104233317D01*
X182376832Y-104262146D01*
X182445067Y-104305464D01*
X182528998Y-104360525D01*
X182624365Y-104424578D01*
X182711714Y-104484371D01*
X182812974Y-104553494D01*
X182906019Y-104615517D01*
X182986690Y-104667786D01*
X183050830Y-104707651D01*
X183094281Y-104732457D01*
X183112010Y-104739726D01*
X183131736Y-104727821D01*
X183172423Y-104694187D01*
X183230683Y-104641950D01*
X183303123Y-104574231D01*
X183386354Y-104494155D01*
X183476985Y-104404846D01*
X183494577Y-104387276D01*
X183586544Y-104294171D01*
X183669222Y-104208430D01*
X183739582Y-104133352D01*
X183794595Y-104072240D01*
X183831231Y-104028392D01*
X183846461Y-104005109D01*
X183846712Y-104003655D01*
X183837182Y-103981430D01*
X183810330Y-103934794D01*
X183768763Y-103867859D01*
X183715089Y-103784737D01*
X183651913Y-103689540D01*
X183585778Y-103592112D01*
X183515580Y-103489341D01*
X183451730Y-103395016D01*
X183396945Y-103313223D01*
X183353943Y-103248044D01*
X183325442Y-103203563D01*
X183314299Y-103184261D01*
X183317802Y-103161694D01*
X183332594Y-103112567D01*
X183356529Y-103042417D01*
X183387460Y-102956781D01*
X183423243Y-102861195D01*
X183461731Y-102761196D01*
X183500778Y-102662321D01*
X183538240Y-102570107D01*
X183571970Y-102490090D01*
X183599822Y-102427806D01*
X183619651Y-102388794D01*
X183626216Y-102379403D01*
X183648109Y-102371004D01*
X183699654Y-102357524D01*
X183776249Y-102339970D01*
X183873287Y-102319352D01*
X183986166Y-102296679D01*
X184110280Y-102272958D01*
X184122296Y-102270722D01*
X184246887Y-102247358D01*
X184360420Y-102225614D01*
X184458354Y-102206396D01*
X184536148Y-102190610D01*
X184589261Y-102179162D01*
X184613151Y-102172959D01*
X184613769Y-102172655D01*
X184618532Y-102152929D01*
X184622446Y-102103669D01*
X184625521Y-102030123D01*
X184627769Y-101937541D01*
X184629202Y-101831173D01*
X184629832Y-101716268D01*
X184629670Y-101598074D01*
X184628727Y-101481842D01*
X184627016Y-101372821D01*
X184624548Y-101276260D01*
X184621334Y-101197408D01*
X184617386Y-101141515D01*
X184612716Y-101113830D01*
X184611425Y-101111923D01*
X184587361Y-101104140D01*
X184537409Y-101092334D01*
X184469969Y-101078401D01*
X184424404Y-101069770D01*
X184349201Y-101056006D01*
X184249754Y-101037820D01*
X184136047Y-101017036D01*
X184018066Y-100995481D01*
X183942397Y-100981661D01*
X183814922Y-100957062D01*
X183714952Y-100934936D01*
X183644634Y-100915818D01*
X183606116Y-100900243D01*
X183601389Y-100896658D01*
X183585196Y-100871204D01*
X183558949Y-100819451D01*
X183525198Y-100747400D01*
X183486490Y-100661054D01*
X183445377Y-100566415D01*
X183404406Y-100469486D01*
X183366127Y-100376268D01*
X183333090Y-100292764D01*
X183307843Y-100224977D01*
X183292937Y-100178908D01*
X183290000Y-100163482D01*
X183299557Y-100139576D01*
X183326543Y-100091208D01*
X183368427Y-100022415D01*
X183422680Y-99937239D01*
X183486773Y-99839717D01*
X183558176Y-99733888D01*
X183568356Y-99719012D01*
X183640468Y-99612750D01*
X183705637Y-99514667D01*
X183761344Y-99428721D01*
X183805071Y-99358868D01*
X183834297Y-99309067D01*
X183846504Y-99283274D01*
X183846712Y-99281763D01*
X183834672Y-99260854D01*
X183801108Y-99219954D01*
X183749860Y-99162896D01*
X183684763Y-99093512D01*
X183609656Y-99015634D01*
X183528376Y-98933094D01*
X183444760Y-98849725D01*
X183362647Y-98769358D01*
X183285872Y-98695826D01*
X183218275Y-98632962D01*
X183163692Y-98584596D01*
X183125960Y-98554562D01*
X183110238Y-98546301D01*
X183086790Y-98556171D01*
X183037492Y-98584709D01*
X182964774Y-98630314D01*
X182871064Y-98691379D01*
X182758792Y-98766301D01*
X182630385Y-98853476D01*
X182488273Y-98951299D01*
X182334884Y-99058167D01*
X182328761Y-99062458D01*
X182279250Y-99094130D01*
X182238055Y-99115180D01*
X182219649Y-99120411D01*
X182196494Y-99114022D01*
X182147168Y-99096440D01*
X182077534Y-99070038D01*
X181993458Y-99037190D01*
X181900802Y-99000271D01*
X181805431Y-98961654D01*
X181713209Y-98923716D01*
X181629999Y-98888828D01*
X181561665Y-98859367D01*
X181514071Y-98837706D01*
X181493095Y-98826231D01*
X181486559Y-98806369D01*
X181474703Y-98756624D01*
X181458433Y-98681344D01*
X181438655Y-98584880D01*
X181416273Y-98471579D01*
X181392194Y-98345793D01*
X181384324Y-98303858D01*
X181360016Y-98174890D01*
X181337357Y-98056892D01*
X181317218Y-97954238D01*
X181300473Y-97871302D01*
X181287996Y-97812457D01*
X181280660Y-97782078D01*
X181279551Y-97779099D01*
X181260158Y-97774800D01*
X181211220Y-97771202D01*
X181137981Y-97768304D01*
X181045683Y-97766107D01*
X180939570Y-97764611D01*
X180824885Y-97763816D01*
X180706870Y-97763721D01*
X180590769Y-97764327D01*
G36*
X176045130Y-105570296D02*
X175943122Y-105621592D01*
X175857414Y-105698254D01*
X175809993Y-105766671D01*
X175786464Y-105817563D01*
X175771608Y-105874134D01*
X175762915Y-105947932D01*
X175760023Y-105996372D01*
X175752730Y-106148904D01*
X176400685Y-106148904D01*
X176400685Y-106193261D01*
X176385100Y-106264217D01*
X176343496Y-106330791D01*
X176291107Y-106375773D01*
X176210634Y-106405090D01*
X176118913Y-106404207D01*
X176021674Y-106373296D01*
X176009335Y-106367288D01*
X175950855Y-106341776D01*
X175908435Y-106338288D01*
X175869549Y-106359044D01*
X175828063Y-106399384D01*
X175801092Y-106430566D01*
X175796604Y-106450874D01*
X175813085Y-106474634D01*
X175819364Y-106481735D01*
X175890632Y-106537994D01*
X175984130Y-106577351D01*
X176091065Y-106598658D01*
X176202644Y-106600767D01*
X176310072Y-106582529D01*
X176381875Y-106555185D01*
X176473146Y-106491819D01*
X176540789Y-106404177D01*
X176585028Y-106291726D01*
X176606090Y-106153934D01*
X176606295Y-106023015D01*
X176594678Y-105939273D01*
X176400685Y-105939273D01*
X176398876Y-105954063D01*
X176389674Y-105964077D01*
X176367418Y-105970242D01*
X176326448Y-105973487D01*
X176261101Y-105974739D01*
X176183219Y-105974931D01*
X176084791Y-105973532D01*
X176014319Y-105969471D01*
X175974303Y-105962956D01*
X175965753Y-105956975D01*
X175977037Y-105910304D01*
X176005326Y-105854635D01*
X176042271Y-105804805D01*
X176061676Y-105786482D01*
X176122267Y-105757862D01*
X176196529Y-105748843D01*
X176269004Y-105759995D01*
X176306501Y-105777446D01*
X176353789Y-105823142D01*
X176388236Y-105883326D01*
X176400685Y-105939273D01*
X176594678Y-105939273D01*
X176586262Y-105878608D01*
X176542780Y-105759480D01*
X176476055Y-105665922D01*
X176386295Y-105598221D01*
X176273707Y-105556667D01*
X176271149Y-105556087D01*
X176156714Y-105547438D01*
X176045130Y-105570296D01*
X176045130Y-105570296D01*
G37*
X176045130Y-105570296D02*
X175943122Y-105621592D01*
X175857414Y-105698254D01*
X175809993Y-105766671D01*
X175786464Y-105817563D01*
X175771608Y-105874134D01*
X175762915Y-105947932D01*
X175760023Y-105996372D01*
X175752730Y-106148904D01*
X176400685Y-106148904D01*
X176400685Y-106193261D01*
X176385100Y-106264217D01*
X176343496Y-106330791D01*
X176291107Y-106375773D01*
X176210634Y-106405090D01*
X176118913Y-106404207D01*
X176021674Y-106373296D01*
X176009335Y-106367288D01*
X175950855Y-106341776D01*
X175908435Y-106338288D01*
X175869549Y-106359044D01*
X175828063Y-106399384D01*
X175801092Y-106430566D01*
X175796604Y-106450874D01*
X175813085Y-106474634D01*
X175819364Y-106481735D01*
X175890632Y-106537994D01*
X175984130Y-106577351D01*
X176091065Y-106598658D01*
X176202644Y-106600767D01*
X176310072Y-106582529D01*
X176381875Y-106555185D01*
X176473146Y-106491819D01*
X176540789Y-106404177D01*
X176585028Y-106291726D01*
X176606090Y-106153934D01*
X176606295Y-106023015D01*
X176594678Y-105939273D01*
X176400685Y-105939273D01*
X176398876Y-105954063D01*
X176389674Y-105964077D01*
X176367418Y-105970242D01*
X176326448Y-105973487D01*
X176261101Y-105974739D01*
X176183219Y-105974931D01*
X176084791Y-105973532D01*
X176014319Y-105969471D01*
X175974303Y-105962956D01*
X175965753Y-105956975D01*
X175977037Y-105910304D01*
X176005326Y-105854635D01*
X176042271Y-105804805D01*
X176061676Y-105786482D01*
X176122267Y-105757862D01*
X176196529Y-105748843D01*
X176269004Y-105759995D01*
X176306501Y-105777446D01*
X176353789Y-105823142D01*
X176388236Y-105883326D01*
X176400685Y-105939273D01*
X176594678Y-105939273D01*
X176586262Y-105878608D01*
X176542780Y-105759480D01*
X176476055Y-105665922D01*
X176386295Y-105598221D01*
X176273707Y-105556667D01*
X176271149Y-105556087D01*
X176156714Y-105547438D01*
X176045130Y-105570296D01*
G36*
X176987214Y-105547534D02*
X176921826Y-105563044D01*
X176863415Y-105585351D01*
X176801827Y-105617225D01*
X176745306Y-105653263D01*
X176702095Y-105688059D01*
X176680437Y-105716207D01*
X176679354Y-105722045D01*
X176691935Y-105742666D01*
X176723725Y-105775486D01*
X176747951Y-105796759D01*
X176816234Y-105853449D01*
X176878695Y-105811062D01*
X176960491Y-105767918D01*
X177039583Y-105754834D01*
X177114516Y-105766311D01*
X177196791Y-105803460D01*
X177255567Y-105864814D01*
X177291437Y-105951346D01*
X177304993Y-106064026D01*
X177305148Y-106079315D01*
X177294814Y-106188334D01*
X177262611Y-106273777D01*
X177208629Y-106338843D01*
X177167279Y-106370714D01*
X177127502Y-106386793D01*
X177074030Y-106392169D01*
X177047817Y-106392466D01*
X176976576Y-106387919D01*
X176922356Y-106371239D01*
X176882581Y-106347960D01*
X176817085Y-106303454D01*
X176748063Y-106358120D01*
X176708545Y-106391718D01*
X176683570Y-106417374D01*
X176679041Y-106425467D01*
X176692939Y-106450503D01*
X176728878Y-106485034D01*
X176778221Y-106522133D01*
X176832335Y-106554873D01*
X176853013Y-106565031D01*
X176938557Y-106590609D01*
X177039157Y-106600945D01*
X177140497Y-106595905D01*
X177228263Y-106575356D01*
X177244452Y-106568684D01*
X177343423Y-106504954D01*
X177421402Y-106415338D01*
X177476348Y-106303133D01*
X177506219Y-106171632D01*
X177509152Y-106141379D01*
X177507990Y-105987999D01*
X177480341Y-105855358D01*
X177426938Y-105744564D01*
X177348515Y-105656720D01*
X177245807Y-105592933D01*
X177119548Y-105554307D01*
X177119318Y-105554265D01*
X177047363Y-105544539D01*
X176987214Y-105547534D01*
X176987214Y-105547534D01*
G37*
X176987214Y-105547534D02*
X176921826Y-105563044D01*
X176863415Y-105585351D01*
X176801827Y-105617225D01*
X176745306Y-105653263D01*
X176702095Y-105688059D01*
X176680437Y-105716207D01*
X176679354Y-105722045D01*
X176691935Y-105742666D01*
X176723725Y-105775486D01*
X176747951Y-105796759D01*
X176816234Y-105853449D01*
X176878695Y-105811062D01*
X176960491Y-105767918D01*
X177039583Y-105754834D01*
X177114516Y-105766311D01*
X177196791Y-105803460D01*
X177255567Y-105864814D01*
X177291437Y-105951346D01*
X177304993Y-106064026D01*
X177305148Y-106079315D01*
X177294814Y-106188334D01*
X177262611Y-106273777D01*
X177208629Y-106338843D01*
X177167279Y-106370714D01*
X177127502Y-106386793D01*
X177074030Y-106392169D01*
X177047817Y-106392466D01*
X176976576Y-106387919D01*
X176922356Y-106371239D01*
X176882581Y-106347960D01*
X176817085Y-106303454D01*
X176748063Y-106358120D01*
X176708545Y-106391718D01*
X176683570Y-106417374D01*
X176679041Y-106425467D01*
X176692939Y-106450503D01*
X176728878Y-106485034D01*
X176778221Y-106522133D01*
X176832335Y-106554873D01*
X176853013Y-106565031D01*
X176938557Y-106590609D01*
X177039157Y-106600945D01*
X177140497Y-106595905D01*
X177228263Y-106575356D01*
X177244452Y-106568684D01*
X177343423Y-106504954D01*
X177421402Y-106415338D01*
X177476348Y-106303133D01*
X177506219Y-106171632D01*
X177509152Y-106141379D01*
X177507990Y-105987999D01*
X177480341Y-105855358D01*
X177426938Y-105744564D01*
X177348515Y-105656720D01*
X177245807Y-105592933D01*
X177119548Y-105554307D01*
X177119318Y-105554265D01*
X177047363Y-105544539D01*
X176987214Y-105547534D01*
G36*
X177639802Y-105552472D02*
X177555067Y-105581043D01*
X177524890Y-105600399D01*
X177508679Y-105615522D01*
X177506390Y-105631994D01*
X177520788Y-105657572D01*
X177554637Y-105700011D01*
X177564683Y-105712040D01*
X177637189Y-105798641D01*
X177698347Y-105773087D01*
X177780099Y-105756033D01*
X177857834Y-105772611D01*
X177925588Y-105821075D01*
X177975137Y-105872753D01*
X177980463Y-106236993D01*
X177985788Y-106601233D01*
X178192603Y-106601233D01*
X178192603Y-105557397D01*
X177983835Y-105557397D01*
X177983835Y-105661999D01*
X177914393Y-105611695D01*
X177829546Y-105568090D01*
X177734655Y-105548252D01*
X177639802Y-105552472D01*
X177639802Y-105552472D01*
G37*
X177639802Y-105552472D02*
X177555067Y-105581043D01*
X177524890Y-105600399D01*
X177508679Y-105615522D01*
X177506390Y-105631994D01*
X177520788Y-105657572D01*
X177554637Y-105700011D01*
X177564683Y-105712040D01*
X177637189Y-105798641D01*
X177698347Y-105773087D01*
X177780099Y-105756033D01*
X177857834Y-105772611D01*
X177925588Y-105821075D01*
X177975137Y-105872753D01*
X177980463Y-106236993D01*
X177985788Y-106601233D01*
X178192603Y-106601233D01*
X178192603Y-105557397D01*
X177983835Y-105557397D01*
X177983835Y-105661999D01*
X177914393Y-105611695D01*
X177829546Y-105568090D01*
X177734655Y-105548252D01*
X177639802Y-105552472D01*
G36*
X179045068Y-105888504D02*
X179044184Y-106022822D01*
X179040945Y-106127083D01*
X179034469Y-106205996D01*
X179023875Y-106264267D01*
X179008283Y-106306604D01*
X178986811Y-106337714D01*
X178958578Y-106362303D01*
X178956049Y-106364096D01*
X178910944Y-106382712D01*
X178850350Y-106392089D01*
X178836301Y-106392466D01*
X178774832Y-106385833D01*
X178724512Y-106368933D01*
X178716554Y-106364096D01*
X178687752Y-106339819D01*
X178665781Y-106309392D01*
X178649759Y-106268107D01*
X178638805Y-106211257D01*
X178632038Y-106134135D01*
X178628576Y-106032034D01*
X178627539Y-105900246D01*
X178627534Y-105888504D01*
X178627534Y-105557397D01*
X178418767Y-105557397D01*
X178418767Y-106601233D01*
X178523150Y-106601233D01*
X178580930Y-106600540D01*
X178612117Y-106595748D01*
X178624911Y-106582788D01*
X178627515Y-106557587D01*
X178627534Y-106549424D01*
X178627534Y-106497615D01*
X178709228Y-106549424D01*
X178766438Y-106581075D01*
X178819599Y-106596548D01*
X178886868Y-106600835D01*
X178896248Y-106600837D01*
X178970479Y-106595360D01*
X179035216Y-106581448D01*
X179058300Y-106572479D01*
X179130245Y-106521892D01*
X179191799Y-106451247D01*
X179231996Y-106373543D01*
X179235392Y-106362496D01*
X179240928Y-106325308D01*
X179245789Y-106259587D01*
X179249712Y-106171589D01*
X179252431Y-106067573D01*
X179253685Y-105953796D01*
X179253738Y-105927089D01*
X179253835Y-105557397D01*
X179045068Y-105557397D01*
X179045068Y-105888504D01*
X179045068Y-105888504D01*
G37*
X179045068Y-105888504D02*
X179044184Y-106022822D01*
X179040945Y-106127083D01*
X179034469Y-106205996D01*
X179023875Y-106264267D01*
X179008283Y-106306604D01*
X178986811Y-106337714D01*
X178958578Y-106362303D01*
X178956049Y-106364096D01*
X178910944Y-106382712D01*
X178850350Y-106392089D01*
X178836301Y-106392466D01*
X178774832Y-106385833D01*
X178724512Y-106368933D01*
X178716554Y-106364096D01*
X178687752Y-106339819D01*
X178665781Y-106309392D01*
X178649759Y-106268107D01*
X178638805Y-106211257D01*
X178632038Y-106134135D01*
X178628576Y-106032034D01*
X178627539Y-105900246D01*
X178627534Y-105888504D01*
X178627534Y-105557397D01*
X178418767Y-105557397D01*
X178418767Y-106601233D01*
X178523150Y-106601233D01*
X178580930Y-106600540D01*
X178612117Y-106595748D01*
X178624911Y-106582788D01*
X178627515Y-106557587D01*
X178627534Y-106549424D01*
X178627534Y-106497615D01*
X178709228Y-106549424D01*
X178766438Y-106581075D01*
X178819599Y-106596548D01*
X178886868Y-106600835D01*
X178896248Y-106600837D01*
X178970479Y-106595360D01*
X179035216Y-106581448D01*
X179058300Y-106572479D01*
X179130245Y-106521892D01*
X179191799Y-106451247D01*
X179231996Y-106373543D01*
X179235392Y-106362496D01*
X179240928Y-106325308D01*
X179245789Y-106259587D01*
X179249712Y-106171589D01*
X179252431Y-106067573D01*
X179253685Y-105953796D01*
X179253738Y-105927089D01*
X179253835Y-105557397D01*
X179045068Y-105557397D01*
X179045068Y-105888504D01*
G36*
X179771091Y-105554973D02*
X179664834Y-105589294D01*
X179582037Y-105641845D01*
X179516796Y-105713971D01*
X179473301Y-105798373D01*
X179444613Y-105905218D01*
X179431049Y-106025315D01*
X179432926Y-106149475D01*
X179450561Y-106268506D01*
X179484270Y-106373218D01*
X179493390Y-106392466D01*
X179533350Y-106458887D01*
X179581199Y-106507518D01*
X179636302Y-106544692D01*
X179693181Y-106575955D01*
X179741603Y-106593007D01*
X179797239Y-106599903D01*
X179853271Y-106600851D01*
X179965024Y-106592113D01*
X180045411Y-106568775D01*
X180121216Y-106520099D01*
X180190541Y-106450650D01*
X180243320Y-106371888D01*
X180264438Y-106319513D01*
X180273279Y-106269960D01*
X180280246Y-106197110D01*
X180283498Y-106131222D01*
X180074709Y-106131222D01*
X180069972Y-106207215D01*
X180059470Y-106264578D01*
X180056697Y-106272749D01*
X180014855Y-106336987D01*
X179949158Y-106377580D01*
X179863071Y-106392436D01*
X179858654Y-106392466D01*
X179800649Y-106388846D01*
X179759869Y-106373403D01*
X179719097Y-106339257D01*
X179714802Y-106334994D01*
X179677901Y-106290941D01*
X179656748Y-106242589D01*
X179644833Y-106177500D01*
X179639454Y-106081546D01*
X179645248Y-105984820D01*
X179660958Y-105900629D01*
X179674743Y-105861393D01*
X179717266Y-105805842D01*
X179778791Y-105771512D01*
X179850611Y-105758586D01*
X179924016Y-105767244D01*
X179990297Y-105797668D01*
X180040744Y-105850040D01*
X180042976Y-105853714D01*
X180057815Y-105897845D01*
X180068282Y-105965898D01*
X180074030Y-106047237D01*
X180074709Y-106131222D01*
X180283498Y-106131222D01*
X180284425Y-106112447D01*
X180285215Y-106058391D01*
X180284316Y-105971556D01*
X180280540Y-105909369D01*
X180272179Y-105861702D01*
X180257525Y-105818427D01*
X180237325Y-105774418D01*
X180171566Y-105677040D01*
X180084434Y-105604553D01*
X179981152Y-105559417D01*
X179866947Y-105544089D01*
X179771091Y-105554973D01*
X179771091Y-105554973D01*
G37*
X179771091Y-105554973D02*
X179664834Y-105589294D01*
X179582037Y-105641845D01*
X179516796Y-105713971D01*
X179473301Y-105798373D01*
X179444613Y-105905218D01*
X179431049Y-106025315D01*
X179432926Y-106149475D01*
X179450561Y-106268506D01*
X179484270Y-106373218D01*
X179493390Y-106392466D01*
X179533350Y-106458887D01*
X179581199Y-106507518D01*
X179636302Y-106544692D01*
X179693181Y-106575955D01*
X179741603Y-106593007D01*
X179797239Y-106599903D01*
X179853271Y-106600851D01*
X179965024Y-106592113D01*
X180045411Y-106568775D01*
X180121216Y-106520099D01*
X180190541Y-106450650D01*
X180243320Y-106371888D01*
X180264438Y-106319513D01*
X180273279Y-106269960D01*
X180280246Y-106197110D01*
X180283498Y-106131222D01*
X180074709Y-106131222D01*
X180069972Y-106207215D01*
X180059470Y-106264578D01*
X180056697Y-106272749D01*
X180014855Y-106336987D01*
X179949158Y-106377580D01*
X179863071Y-106392436D01*
X179858654Y-106392466D01*
X179800649Y-106388846D01*
X179759869Y-106373403D01*
X179719097Y-106339257D01*
X179714802Y-106334994D01*
X179677901Y-106290941D01*
X179656748Y-106242589D01*
X179644833Y-106177500D01*
X179639454Y-106081546D01*
X179645248Y-105984820D01*
X179660958Y-105900629D01*
X179674743Y-105861393D01*
X179717266Y-105805842D01*
X179778791Y-105771512D01*
X179850611Y-105758586D01*
X179924016Y-105767244D01*
X179990297Y-105797668D01*
X180040744Y-105850040D01*
X180042976Y-105853714D01*
X180057815Y-105897845D01*
X180068282Y-105965898D01*
X180074030Y-106047237D01*
X180074709Y-106131222D01*
X180283498Y-106131222D01*
X180284425Y-106112447D01*
X180285215Y-106058391D01*
X180284316Y-105971556D01*
X180280540Y-105909369D01*
X180272179Y-105861702D01*
X180257525Y-105818427D01*
X180237325Y-105774418D01*
X180171566Y-105677040D01*
X180084434Y-105604553D01*
X179981152Y-105559417D01*
X179866947Y-105544089D01*
X179771091Y-105554973D01*
G36*
X180702532Y-105561808D02*
X180594380Y-105590168D01*
X180504713Y-105633609D01*
X180483681Y-105648835D01*
X180434829Y-105687952D01*
X180497210Y-105760830D01*
X180559590Y-105833708D01*
X180650446Y-105791407D01*
X180728515Y-105764497D01*
X180813112Y-105750332D01*
X180892276Y-105749843D01*
X180954044Y-105763962D01*
X180960743Y-105767222D01*
X180997772Y-105802471D01*
X181017442Y-105851249D01*
X181014195Y-105898512D01*
X181011444Y-105904435D01*
X180995172Y-105927047D01*
X180970282Y-105943442D01*
X180930358Y-105955507D01*
X180868983Y-105965127D01*
X180779740Y-105974189D01*
X180771781Y-105974895D01*
X180649598Y-105992723D01*
X180556906Y-106023554D01*
X180489996Y-106069973D01*
X180445161Y-106134559D01*
X180418693Y-106219897D01*
X180418490Y-106220961D01*
X180413910Y-106325254D01*
X180441359Y-106416628D01*
X180499940Y-106493418D01*
X180588759Y-106553960D01*
X180600751Y-106559749D01*
X180690379Y-106587810D01*
X180798569Y-106601084D01*
X180912297Y-106599383D01*
X181018542Y-106582521D01*
X181069684Y-106566477D01*
X181125447Y-106541289D01*
X181183703Y-106509644D01*
X181236040Y-106476830D01*
X181274043Y-106448138D01*
X181289296Y-106428856D01*
X181289315Y-106428425D01*
X181277847Y-106410903D01*
X181248290Y-106377865D01*
X181220169Y-106349405D01*
X181179767Y-106311611D01*
X181154648Y-106295486D01*
X181136017Y-106297588D01*
X181119822Y-106310124D01*
X181051390Y-106355144D01*
X180965011Y-106387881D01*
X180871699Y-106406316D01*
X180782471Y-106408424D01*
X180708339Y-106392186D01*
X180698151Y-106387517D01*
X180651899Y-106350514D01*
X180626742Y-106302749D01*
X180624415Y-106253750D01*
X180646654Y-106213042D01*
X180664098Y-106200515D01*
X180695052Y-106191190D01*
X180750712Y-106180736D01*
X180821109Y-106170910D01*
X180851567Y-106167507D01*
X180980776Y-106146593D01*
X181079431Y-106113246D01*
X181149836Y-106066474D01*
X181184063Y-106024369D01*
X181222799Y-105930576D01*
X181229702Y-105835400D01*
X181206895Y-105745049D01*
X181156502Y-105665732D01*
X181080647Y-105603657D01*
X181032211Y-105580394D01*
X180932017Y-105555602D01*
X180818602Y-105549846D01*
X180702532Y-105561808D01*
X180702532Y-105561808D01*
G37*
X180702532Y-105561808D02*
X180594380Y-105590168D01*
X180504713Y-105633609D01*
X180483681Y-105648835D01*
X180434829Y-105687952D01*
X180497210Y-105760830D01*
X180559590Y-105833708D01*
X180650446Y-105791407D01*
X180728515Y-105764497D01*
X180813112Y-105750332D01*
X180892276Y-105749843D01*
X180954044Y-105763962D01*
X180960743Y-105767222D01*
X180997772Y-105802471D01*
X181017442Y-105851249D01*
X181014195Y-105898512D01*
X181011444Y-105904435D01*
X180995172Y-105927047D01*
X180970282Y-105943442D01*
X180930358Y-105955507D01*
X180868983Y-105965127D01*
X180779740Y-105974189D01*
X180771781Y-105974895D01*
X180649598Y-105992723D01*
X180556906Y-106023554D01*
X180489996Y-106069973D01*
X180445161Y-106134559D01*
X180418693Y-106219897D01*
X180418490Y-106220961D01*
X180413910Y-106325254D01*
X180441359Y-106416628D01*
X180499940Y-106493418D01*
X180588759Y-106553960D01*
X180600751Y-106559749D01*
X180690379Y-106587810D01*
X180798569Y-106601084D01*
X180912297Y-106599383D01*
X181018542Y-106582521D01*
X181069684Y-106566477D01*
X181125447Y-106541289D01*
X181183703Y-106509644D01*
X181236040Y-106476830D01*
X181274043Y-106448138D01*
X181289296Y-106428856D01*
X181289315Y-106428425D01*
X181277847Y-106410903D01*
X181248290Y-106377865D01*
X181220169Y-106349405D01*
X181179767Y-106311611D01*
X181154648Y-106295486D01*
X181136017Y-106297588D01*
X181119822Y-106310124D01*
X181051390Y-106355144D01*
X180965011Y-106387881D01*
X180871699Y-106406316D01*
X180782471Y-106408424D01*
X180708339Y-106392186D01*
X180698151Y-106387517D01*
X180651899Y-106350514D01*
X180626742Y-106302749D01*
X180624415Y-106253750D01*
X180646654Y-106213042D01*
X180664098Y-106200515D01*
X180695052Y-106191190D01*
X180750712Y-106180736D01*
X180821109Y-106170910D01*
X180851567Y-106167507D01*
X180980776Y-106146593D01*
X181079431Y-106113246D01*
X181149836Y-106066474D01*
X181184063Y-106024369D01*
X181222799Y-105930576D01*
X181229702Y-105835400D01*
X181206895Y-105745049D01*
X181156502Y-105665732D01*
X181080647Y-105603657D01*
X181032211Y-105580394D01*
X180932017Y-105555602D01*
X180818602Y-105549846D01*
X180702532Y-105561808D01*
G36*
X182143197Y-105552920D02*
X182124682Y-105557245D01*
X182047916Y-105592357D01*
X181975086Y-105650362D01*
X181916414Y-105721322D01*
X181882922Y-105792318D01*
X181876464Y-105833719D01*
X181871062Y-105904639D01*
X181866950Y-105999814D01*
X181864360Y-106113977D01*
X181863521Y-106231541D01*
X181863424Y-106601233D01*
X182072192Y-106601233D01*
X182072219Y-106266335D01*
X182073059Y-106131576D01*
X182076376Y-106026909D01*
X182083404Y-105947654D01*
X182095373Y-105889130D01*
X182113516Y-105846658D01*
X182139066Y-105815557D01*
X182173254Y-105791147D01*
X182201216Y-105776397D01*
X182248550Y-105756299D01*
X182285272Y-105752852D01*
X182330631Y-105764839D01*
X182338818Y-105767698D01*
X182382835Y-105785061D01*
X182416735Y-105805148D01*
X182441922Y-105832502D01*
X182459798Y-105871668D01*
X182471765Y-105927192D01*
X182479227Y-106003618D01*
X182483585Y-106105491D01*
X182486243Y-106237356D01*
X182486371Y-106245810D01*
X182491716Y-106601233D01*
X182698493Y-106601233D01*
X182698493Y-105557397D01*
X182489726Y-105557397D01*
X182489726Y-105663551D01*
X182432141Y-105619630D01*
X182343778Y-105571760D01*
X182243082Y-105548634D01*
X182143197Y-105552920D01*
X182143197Y-105552920D01*
G37*
X182143197Y-105552920D02*
X182124682Y-105557245D01*
X182047916Y-105592357D01*
X181975086Y-105650362D01*
X181916414Y-105721322D01*
X181882922Y-105792318D01*
X181876464Y-105833719D01*
X181871062Y-105904639D01*
X181866950Y-105999814D01*
X181864360Y-106113977D01*
X181863521Y-106231541D01*
X181863424Y-106601233D01*
X182072192Y-106601233D01*
X182072219Y-106266335D01*
X182073059Y-106131576D01*
X182076376Y-106026909D01*
X182083404Y-105947654D01*
X182095373Y-105889130D01*
X182113516Y-105846658D01*
X182139066Y-105815557D01*
X182173254Y-105791147D01*
X182201216Y-105776397D01*
X182248550Y-105756299D01*
X182285272Y-105752852D01*
X182330631Y-105764839D01*
X182338818Y-105767698D01*
X182382835Y-105785061D01*
X182416735Y-105805148D01*
X182441922Y-105832502D01*
X182459798Y-105871668D01*
X182471765Y-105927192D01*
X182479227Y-106003618D01*
X182483585Y-106105491D01*
X182486243Y-106237356D01*
X182486371Y-106245810D01*
X182491716Y-106601233D01*
X182698493Y-106601233D01*
X182698493Y-105557397D01*
X182489726Y-105557397D01*
X182489726Y-105663551D01*
X182432141Y-105619630D01*
X182343778Y-105571760D01*
X182243082Y-105548634D01*
X182143197Y-105552920D01*
G36*
X183158572Y-105570928D02*
X183055550Y-105624989D01*
X183002766Y-105669742D01*
X182934803Y-105758475D01*
X182892195Y-105865060D01*
X182873579Y-105993357D01*
X182872466Y-106038979D01*
X182872466Y-106148904D01*
X183516164Y-106148904D01*
X183515908Y-106196746D01*
X183498895Y-106274844D01*
X183449299Y-106341824D01*
X183413304Y-106370197D01*
X183332864Y-106404247D01*
X183242615Y-106406242D01*
X183146164Y-106376234D01*
X183125971Y-106366143D01*
X183043746Y-106322424D01*
X182995705Y-106356633D01*
X182942962Y-106397802D01*
X182918061Y-106429112D01*
X182917999Y-106456805D01*
X182935304Y-106482244D01*
X182969940Y-106510838D01*
X183022205Y-106543168D01*
X183055137Y-106560035D01*
X183151539Y-106590479D01*
X183262352Y-106602277D01*
X183373621Y-106595265D01*
X183471393Y-106569275D01*
X183481057Y-106565100D01*
X183550922Y-106528873D01*
X183600728Y-106488810D01*
X183641955Y-106433908D01*
X183670271Y-106383767D01*
X183689656Y-106344545D01*
X183702679Y-106308348D01*
X183710591Y-106266882D01*
X183714646Y-106211855D01*
X183716094Y-106134973D01*
X183716233Y-106079315D01*
X183715593Y-105985498D01*
X183713757Y-105939273D01*
X183516164Y-105939273D01*
X183514363Y-105954030D01*
X183505197Y-105964034D01*
X183483019Y-105970205D01*
X183442182Y-105973464D01*
X183377041Y-105974731D01*
X183297526Y-105974931D01*
X183207207Y-105974760D01*
X183146307Y-105973569D01*
X183109453Y-105970345D01*
X183091269Y-105964072D01*
X183086380Y-105953737D01*
X183089413Y-105938325D01*
X183090139Y-105935788D01*
X183102939Y-105890833D01*
X183109639Y-105866963D01*
X183127795Y-105836866D01*
X183162133Y-105800332D01*
X183170484Y-105793024D01*
X183230639Y-105761079D01*
X183304029Y-105747949D01*
X183376335Y-105754597D01*
X183425406Y-105775919D01*
X183468403Y-105820144D01*
X183501709Y-105879040D01*
X183516103Y-105936007D01*
X183516164Y-105939273D01*
X183713757Y-105939273D01*
X183712925Y-105918357D01*
X183707099Y-105869787D01*
X183696991Y-105831680D01*
X183681473Y-105795932D01*
X183675126Y-105783561D01*
X183621258Y-105695875D01*
X183562915Y-105633942D01*
X183498359Y-105592156D01*
X183386781Y-105553446D01*
X183271250Y-105546725D01*
X183158572Y-105570928D01*
X183158572Y-105570928D01*
G37*
X183158572Y-105570928D02*
X183055550Y-105624989D01*
X183002766Y-105669742D01*
X182934803Y-105758475D01*
X182892195Y-105865060D01*
X182873579Y-105993357D01*
X182872466Y-106038979D01*
X182872466Y-106148904D01*
X183516164Y-106148904D01*
X183515908Y-106196746D01*
X183498895Y-106274844D01*
X183449299Y-106341824D01*
X183413304Y-106370197D01*
X183332864Y-106404247D01*
X183242615Y-106406242D01*
X183146164Y-106376234D01*
X183125971Y-106366143D01*
X183043746Y-106322424D01*
X182995705Y-106356633D01*
X182942962Y-106397802D01*
X182918061Y-106429112D01*
X182917999Y-106456805D01*
X182935304Y-106482244D01*
X182969940Y-106510838D01*
X183022205Y-106543168D01*
X183055137Y-106560035D01*
X183151539Y-106590479D01*
X183262352Y-106602277D01*
X183373621Y-106595265D01*
X183471393Y-106569275D01*
X183481057Y-106565100D01*
X183550922Y-106528873D01*
X183600728Y-106488810D01*
X183641955Y-106433908D01*
X183670271Y-106383767D01*
X183689656Y-106344545D01*
X183702679Y-106308348D01*
X183710591Y-106266882D01*
X183714646Y-106211855D01*
X183716094Y-106134973D01*
X183716233Y-106079315D01*
X183715593Y-105985498D01*
X183713757Y-105939273D01*
X183516164Y-105939273D01*
X183514363Y-105954030D01*
X183505197Y-105964034D01*
X183483019Y-105970205D01*
X183442182Y-105973464D01*
X183377041Y-105974731D01*
X183297526Y-105974931D01*
X183207207Y-105974760D01*
X183146307Y-105973569D01*
X183109453Y-105970345D01*
X183091269Y-105964072D01*
X183086380Y-105953737D01*
X183089413Y-105938325D01*
X183090139Y-105935788D01*
X183102939Y-105890833D01*
X183109639Y-105866963D01*
X183127795Y-105836866D01*
X183162133Y-105800332D01*
X183170484Y-105793024D01*
X183230639Y-105761079D01*
X183304029Y-105747949D01*
X183376335Y-105754597D01*
X183425406Y-105775919D01*
X183468403Y-105820144D01*
X183501709Y-105879040D01*
X183516103Y-105936007D01*
X183516164Y-105939273D01*
X183713757Y-105939273D01*
X183712925Y-105918357D01*
X183707099Y-105869787D01*
X183696991Y-105831680D01*
X183681473Y-105795932D01*
X183675126Y-105783561D01*
X183621258Y-105695875D01*
X183562915Y-105633942D01*
X183498359Y-105592156D01*
X183386781Y-105553446D01*
X183271250Y-105546725D01*
X183158572Y-105570928D01*
G36*
X185230534Y-105555587D02*
X185143896Y-105578721D01*
X185125411Y-105587373D01*
X185032582Y-105651971D01*
X184959362Y-105734832D01*
X184917384Y-105816259D01*
X184903634Y-105877330D01*
X184894710Y-105961956D01*
X184890778Y-106059212D01*
X184892008Y-106158171D01*
X184898565Y-106247906D01*
X184909754Y-106314155D01*
X184944698Y-106395695D01*
X185003186Y-106474783D01*
X185075246Y-106539612D01*
X185124440Y-106568419D01*
X185211813Y-106594017D01*
X185313406Y-106602315D01*
X185415218Y-106593587D01*
X185503253Y-106568103D01*
X185518462Y-106560764D01*
X185607231Y-106497898D01*
X185672881Y-106414210D01*
X185716187Y-106307791D01*
X185737924Y-106176733D01*
X185738525Y-106076241D01*
X185525548Y-106076241D01*
X185523296Y-106176655D01*
X185515020Y-106249170D01*
X185498440Y-106300478D01*
X185471276Y-106337273D01*
X185431246Y-106366249D01*
X185425663Y-106369410D01*
X185372000Y-106386296D01*
X185304413Y-106391048D01*
X185238526Y-106383938D01*
X185190073Y-106365314D01*
X185149400Y-106327724D01*
X185122147Y-106277928D01*
X185106280Y-106209395D01*
X185099764Y-106115594D01*
X185099315Y-106074053D01*
X185100433Y-105993072D01*
X185104907Y-105937423D01*
X185114417Y-105897681D01*
X185130645Y-105864425D01*
X185139026Y-105851374D01*
X185197485Y-105792007D01*
X185270548Y-105759674D01*
X185349686Y-105757264D01*
X185386848Y-105767402D01*
X185442758Y-105794058D01*
X185481777Y-105828457D01*
X185506686Y-105876790D01*
X185520264Y-105945246D01*
X185525291Y-106040014D01*
X185525548Y-106076241D01*
X185738525Y-106076241D01*
X185738868Y-106019130D01*
X185738830Y-106018425D01*
X185723675Y-105884528D01*
X185692583Y-105777866D01*
X185642923Y-105693524D01*
X185572067Y-105626590D01*
X185508150Y-105587305D01*
X185426956Y-105559876D01*
X185329653Y-105549304D01*
X185230534Y-105555587D01*
X185230534Y-105555587D01*
G37*
X185230534Y-105555587D02*
X185143896Y-105578721D01*
X185125411Y-105587373D01*
X185032582Y-105651971D01*
X184959362Y-105734832D01*
X184917384Y-105816259D01*
X184903634Y-105877330D01*
X184894710Y-105961956D01*
X184890778Y-106059212D01*
X184892008Y-106158171D01*
X184898565Y-106247906D01*
X184909754Y-106314155D01*
X184944698Y-106395695D01*
X185003186Y-106474783D01*
X185075246Y-106539612D01*
X185124440Y-106568419D01*
X185211813Y-106594017D01*
X185313406Y-106602315D01*
X185415218Y-106593587D01*
X185503253Y-106568103D01*
X185518462Y-106560764D01*
X185607231Y-106497898D01*
X185672881Y-106414210D01*
X185716187Y-106307791D01*
X185737924Y-106176733D01*
X185738525Y-106076241D01*
X185525548Y-106076241D01*
X185523296Y-106176655D01*
X185515020Y-106249170D01*
X185498440Y-106300478D01*
X185471276Y-106337273D01*
X185431246Y-106366249D01*
X185425663Y-106369410D01*
X185372000Y-106386296D01*
X185304413Y-106391048D01*
X185238526Y-106383938D01*
X185190073Y-106365314D01*
X185149400Y-106327724D01*
X185122147Y-106277928D01*
X185106280Y-106209395D01*
X185099764Y-106115594D01*
X185099315Y-106074053D01*
X185100433Y-105993072D01*
X185104907Y-105937423D01*
X185114417Y-105897681D01*
X185130645Y-105864425D01*
X185139026Y-105851374D01*
X185197485Y-105792007D01*
X185270548Y-105759674D01*
X185349686Y-105757264D01*
X185386848Y-105767402D01*
X185442758Y-105794058D01*
X185481777Y-105828457D01*
X185506686Y-105876790D01*
X185520264Y-105945246D01*
X185525291Y-106040014D01*
X185525548Y-106076241D01*
X185738525Y-106076241D01*
X185738868Y-106019130D01*
X185738830Y-106018425D01*
X185723675Y-105884528D01*
X185692583Y-105777866D01*
X185642923Y-105693524D01*
X185572067Y-105626590D01*
X185508150Y-105587305D01*
X185426956Y-105559876D01*
X185329653Y-105549304D01*
X185230534Y-105555587D01*
G36*
X178244794Y-107244063D02*
X178238886Y-107285756D01*
X178221350Y-107294714D01*
X178192468Y-107270811D01*
X178190383Y-107268332D01*
X178140112Y-107230320D01*
X178067287Y-107203815D01*
X177983335Y-107192830D01*
X177975137Y-107192740D01*
X177907700Y-107199191D01*
X177842455Y-107216018D01*
X177791011Y-107239428D01*
X177767463Y-107260560D01*
X177771750Y-107282673D01*
X177794552Y-107321701D01*
X177828465Y-107366139D01*
X177868546Y-107412143D01*
X177894523Y-107435176D01*
X177913988Y-107439468D01*
X177934532Y-107429248D01*
X177937750Y-107427024D01*
X177995254Y-107405401D01*
X178066244Y-107405044D01*
X178136759Y-107425833D01*
X178142645Y-107428758D01*
X178175137Y-107449275D01*
X178200040Y-107475986D01*
X178218326Y-107513424D01*
X178230966Y-107566121D01*
X178238931Y-107638611D01*
X178243193Y-107735428D01*
X178244723Y-107861104D01*
X178244794Y-107905468D01*
X178244794Y-108236575D01*
X178454079Y-108236575D01*
X178449471Y-107719007D01*
X178444863Y-107201438D01*
X178344829Y-107196221D01*
X178244794Y-107191003D01*
X178244794Y-107244063D01*
X178244794Y-107244063D01*
G37*
X178244794Y-107244063D02*
X178238886Y-107285756D01*
X178221350Y-107294714D01*
X178192468Y-107270811D01*
X178190383Y-107268332D01*
X178140112Y-107230320D01*
X178067287Y-107203815D01*
X177983335Y-107192830D01*
X177975137Y-107192740D01*
X177907700Y-107199191D01*
X177842455Y-107216018D01*
X177791011Y-107239428D01*
X177767463Y-107260560D01*
X177771750Y-107282673D01*
X177794552Y-107321701D01*
X177828465Y-107366139D01*
X177868546Y-107412143D01*
X177894523Y-107435176D01*
X177913988Y-107439468D01*
X177934532Y-107429248D01*
X177937750Y-107427024D01*
X177995254Y-107405401D01*
X178066244Y-107405044D01*
X178136759Y-107425833D01*
X178142645Y-107428758D01*
X178175137Y-107449275D01*
X178200040Y-107475986D01*
X178218326Y-107513424D01*
X178230966Y-107566121D01*
X178238931Y-107638611D01*
X178243193Y-107735428D01*
X178244723Y-107861104D01*
X178244794Y-107905468D01*
X178244794Y-108236575D01*
X178454079Y-108236575D01*
X178449471Y-107719007D01*
X178444863Y-107201438D01*
X178344829Y-107196221D01*
X178244794Y-107191003D01*
X178244794Y-107244063D01*
G36*
X180201986Y-107201438D02*
X179959478Y-107929226D01*
X179929892Y-107826291D01*
X179914658Y-107772553D01*
X179892728Y-107694233D01*
X179866604Y-107600310D01*
X179838786Y-107499758D01*
X179827292Y-107458048D01*
X179754279Y-107192740D01*
X179651934Y-107192740D01*
X179592957Y-107194558D01*
X179561425Y-107201336D01*
X179550117Y-107215060D01*
X179549589Y-107220881D01*
X179554725Y-107244695D01*
X179569163Y-107296740D01*
X179591447Y-107372159D01*
X179620122Y-107466094D01*
X179653732Y-107573687D01*
X179681218Y-107660162D01*
X179719182Y-107778755D01*
X179755068Y-107890884D01*
X179787044Y-107990822D01*
X179813278Y-108072842D01*
X179831938Y-108131215D01*
X179839192Y-108153938D01*
X179865536Y-108236575D01*
X180052615Y-108236575D01*
X180104334Y-108066952D01*
X180132977Y-107972785D01*
X180166239Y-107863096D01*
X180198725Y-107755686D01*
X180212403Y-107710348D01*
X180235247Y-107636500D01*
X180254651Y-107577415D01*
X180268428Y-107539513D01*
X180274212Y-107528824D01*
X180281015Y-107546613D01*
X180295626Y-107591208D01*
X180315958Y-107656054D01*
X180339921Y-107734601D01*
X180342119Y-107741901D01*
X180371526Y-107839632D01*
X180402378Y-107942106D01*
X180430540Y-108035598D01*
X180447858Y-108093048D01*
X180491146Y-108236575D01*
X180678690Y-108236575D01*
X180793614Y-107875582D01*
X180831139Y-107757936D01*
X180868587Y-107640936D01*
X180903448Y-107532391D01*
X180933214Y-107440114D01*
X180955375Y-107371916D01*
X180958096Y-107363610D01*
X180978846Y-107296282D01*
X180993019Y-107242075D01*
X180998670Y-107208899D01*
X180997709Y-107202686D01*
X180976064Y-107197117D01*
X180931178Y-107193508D01*
X180894604Y-107192740D01*
X180861353Y-107192393D01*
X180835417Y-107193975D01*
X180814686Y-107201422D01*
X180797048Y-107218669D01*
X180780394Y-107249652D01*
X180762612Y-107298304D01*
X180741592Y-107368563D01*
X180715223Y-107464362D01*
X180681396Y-107589638D01*
X180681047Y-107590923D01*
X180653735Y-107690964D01*
X180629308Y-107778864D01*
X180609272Y-107849333D01*
X180595133Y-107897079D01*
X180588395Y-107916814D01*
X180588263Y-107916988D01*
X180581411Y-107903035D01*
X180565638Y-107860533D01*
X180542537Y-107794103D01*
X180513698Y-107708363D01*
X180480713Y-107607935D01*
X180464250Y-107557032D01*
X180346406Y-107190908D01*
X180201986Y-107201438D01*
X180201986Y-107201438D01*
G37*
X180201986Y-107201438D02*
X179959478Y-107929226D01*
X179929892Y-107826291D01*
X179914658Y-107772553D01*
X179892728Y-107694233D01*
X179866604Y-107600310D01*
X179838786Y-107499758D01*
X179827292Y-107458048D01*
X179754279Y-107192740D01*
X179651934Y-107192740D01*
X179592957Y-107194558D01*
X179561425Y-107201336D01*
X179550117Y-107215060D01*
X179549589Y-107220881D01*
X179554725Y-107244695D01*
X179569163Y-107296740D01*
X179591447Y-107372159D01*
X179620122Y-107466094D01*
X179653732Y-107573687D01*
X179681218Y-107660162D01*
X179719182Y-107778755D01*
X179755068Y-107890884D01*
X179787044Y-107990822D01*
X179813278Y-108072842D01*
X179831938Y-108131215D01*
X179839192Y-108153938D01*
X179865536Y-108236575D01*
X180052615Y-108236575D01*
X180104334Y-108066952D01*
X180132977Y-107972785D01*
X180166239Y-107863096D01*
X180198725Y-107755686D01*
X180212403Y-107710348D01*
X180235247Y-107636500D01*
X180254651Y-107577415D01*
X180268428Y-107539513D01*
X180274212Y-107528824D01*
X180281015Y-107546613D01*
X180295626Y-107591208D01*
X180315958Y-107656054D01*
X180339921Y-107734601D01*
X180342119Y-107741901D01*
X180371526Y-107839632D01*
X180402378Y-107942106D01*
X180430540Y-108035598D01*
X180447858Y-108093048D01*
X180491146Y-108236575D01*
X180678690Y-108236575D01*
X180793614Y-107875582D01*
X180831139Y-107757936D01*
X180868587Y-107640936D01*
X180903448Y-107532391D01*
X180933214Y-107440114D01*
X180955375Y-107371916D01*
X180958096Y-107363610D01*
X180978846Y-107296282D01*
X180993019Y-107242075D01*
X180998670Y-107208899D01*
X180997709Y-107202686D01*
X180976064Y-107197117D01*
X180931178Y-107193508D01*
X180894604Y-107192740D01*
X180861353Y-107192393D01*
X180835417Y-107193975D01*
X180814686Y-107201422D01*
X180797048Y-107218669D01*
X180780394Y-107249652D01*
X180762612Y-107298304D01*
X180741592Y-107368563D01*
X180715223Y-107464362D01*
X180681396Y-107589638D01*
X180681047Y-107590923D01*
X180653735Y-107690964D01*
X180629308Y-107778864D01*
X180609272Y-107849333D01*
X180595133Y-107897079D01*
X180588395Y-107916814D01*
X180588263Y-107916988D01*
X180581411Y-107903035D01*
X180565638Y-107860533D01*
X180542537Y-107794103D01*
X180513698Y-107708363D01*
X180480713Y-107607935D01*
X180464250Y-107557032D01*
X180346406Y-107190908D01*
X180201986Y-107201438D01*
G36*
X182454931Y-107244063D02*
X182449023Y-107285756D01*
X182431487Y-107294714D01*
X182402605Y-107270811D01*
X182400520Y-107268332D01*
X182347770Y-107228698D01*
X182273631Y-107203348D01*
X182189020Y-107193642D01*
X182104853Y-107200942D01*
X182038433Y-107223212D01*
X181998664Y-107247012D01*
X181975663Y-107267589D01*
X181973985Y-107271027D01*
X181982157Y-107292477D01*
X182008039Y-107330192D01*
X182037134Y-107365636D01*
X182076347Y-107408380D01*
X182102761Y-107428721D01*
X182125540Y-107431240D01*
X182150242Y-107422177D01*
X182228214Y-107402554D01*
X182305298Y-107410493D01*
X182372647Y-107443057D01*
X182421416Y-107497306D01*
X182430206Y-107515186D01*
X182439781Y-107548651D01*
X182446769Y-107599454D01*
X182451440Y-107671903D01*
X182454070Y-107770307D01*
X182454930Y-107898974D01*
X182454931Y-107905468D01*
X182454931Y-108236575D01*
X182664216Y-108236575D01*
X182659608Y-107719007D01*
X182655000Y-107201438D01*
X182554966Y-107196221D01*
X182454931Y-107191003D01*
X182454931Y-107244063D01*
X182454931Y-107244063D01*
G37*
X182454931Y-107244063D02*
X182449023Y-107285756D01*
X182431487Y-107294714D01*
X182402605Y-107270811D01*
X182400520Y-107268332D01*
X182347770Y-107228698D01*
X182273631Y-107203348D01*
X182189020Y-107193642D01*
X182104853Y-107200942D01*
X182038433Y-107223212D01*
X181998664Y-107247012D01*
X181975663Y-107267589D01*
X181973985Y-107271027D01*
X181982157Y-107292477D01*
X182008039Y-107330192D01*
X182037134Y-107365636D01*
X182076347Y-107408380D01*
X182102761Y-107428721D01*
X182125540Y-107431240D01*
X182150242Y-107422177D01*
X182228214Y-107402554D01*
X182305298Y-107410493D01*
X182372647Y-107443057D01*
X182421416Y-107497306D01*
X182430206Y-107515186D01*
X182439781Y-107548651D01*
X182446769Y-107599454D01*
X182451440Y-107671903D01*
X182454070Y-107770307D01*
X182454930Y-107898974D01*
X182454931Y-107905468D01*
X182454931Y-108236575D01*
X182664216Y-108236575D01*
X182659608Y-107719007D01*
X182655000Y-107201438D01*
X182554966Y-107196221D01*
X182454931Y-107191003D01*
X182454931Y-107244063D01*
G36*
X184103510Y-105569698D02*
X184013463Y-105620439D01*
X183942397Y-105695274D01*
X183890205Y-105769161D01*
X183890205Y-106076464D01*
X183890443Y-106187630D01*
X183891582Y-106269877D01*
X183894264Y-106329081D01*
X183899130Y-106371117D01*
X183906820Y-106401859D01*
X183917976Y-106427183D01*
X183930863Y-106449161D01*
X183995874Y-106522971D01*
X184079943Y-106573251D01*
X184175640Y-106599031D01*
X184275535Y-106599343D01*
X184372199Y-106573218D01*
X184458200Y-106519688D01*
X184459966Y-106518151D01*
X184469633Y-106511348D01*
X184477008Y-106512648D01*
X184482399Y-106525899D01*
X184486114Y-106554948D01*
X184488464Y-106603641D01*
X184489757Y-106675826D01*
X184490303Y-106775349D01*
X184490411Y-106896986D01*
X184490296Y-107025621D01*
X184489742Y-107123304D01*
X184488431Y-107193874D01*
X184486048Y-107241175D01*
X184482275Y-107269047D01*
X184476797Y-107281332D01*
X184469297Y-107281871D01*
X184459460Y-107274505D01*
X184459329Y-107274387D01*
X184392645Y-107232185D01*
X184306847Y-107203429D01*
X184216963Y-107193026D01*
X184116638Y-107210365D01*
X184023557Y-107260433D01*
X183944051Y-107337840D01*
X183890205Y-107404654D01*
X183884977Y-107820614D01*
X183879749Y-108236575D01*
X184088321Y-108236575D01*
X184093647Y-107869772D01*
X184098972Y-107502968D01*
X184155788Y-107452238D01*
X184204512Y-107417223D01*
X184256559Y-107403057D01*
X184292356Y-107401507D01*
X184348196Y-107405923D01*
X184389663Y-107424204D01*
X184431260Y-107460657D01*
X184490411Y-107519808D01*
X184490411Y-108236575D01*
X184699178Y-108236575D01*
X184699178Y-106073833D01*
X184490384Y-106073833D01*
X184488237Y-106171524D01*
X184480463Y-106242249D01*
X184465122Y-106293641D01*
X184440270Y-106333333D01*
X184418607Y-106356000D01*
X184372671Y-106380050D01*
X184308119Y-106392229D01*
X184239403Y-106391491D01*
X184180975Y-106376790D01*
X184174644Y-106373668D01*
X184135851Y-106337089D01*
X184109321Y-106274100D01*
X184094385Y-106182338D01*
X184090301Y-106075524D01*
X184094268Y-105966872D01*
X184107662Y-105886932D01*
X184132789Y-105830357D01*
X184171951Y-105791801D01*
X184223100Y-105767391D01*
X184275154Y-105752809D01*
X184316375Y-105753554D01*
X184362278Y-105767822D01*
X184415600Y-105796432D01*
X184452839Y-105839053D01*
X184476208Y-105900969D01*
X184487919Y-105987465D01*
X184490384Y-106073833D01*
X184699178Y-106073833D01*
X184699178Y-105557397D01*
X184594794Y-105557397D01*
X184536958Y-105558295D01*
X184505733Y-105563299D01*
X184492944Y-105575872D01*
X184490415Y-105599479D01*
X184490411Y-105601624D01*
X184490411Y-105645850D01*
X184408017Y-105597564D01*
X184307200Y-105556915D01*
X184203560Y-105548075D01*
X184103510Y-105569698D01*
X184103510Y-105569698D01*
G37*
X184103510Y-105569698D02*
X184013463Y-105620439D01*
X183942397Y-105695274D01*
X183890205Y-105769161D01*
X183890205Y-106076464D01*
X183890443Y-106187630D01*
X183891582Y-106269877D01*
X183894264Y-106329081D01*
X183899130Y-106371117D01*
X183906820Y-106401859D01*
X183917976Y-106427183D01*
X183930863Y-106449161D01*
X183995874Y-106522971D01*
X184079943Y-106573251D01*
X184175640Y-106599031D01*
X184275535Y-106599343D01*
X184372199Y-106573218D01*
X184458200Y-106519688D01*
X184459966Y-106518151D01*
X184469633Y-106511348D01*
X184477008Y-106512648D01*
X184482399Y-106525899D01*
X184486114Y-106554948D01*
X184488464Y-106603641D01*
X184489757Y-106675826D01*
X184490303Y-106775349D01*
X184490411Y-106896986D01*
X184490296Y-107025621D01*
X184489742Y-107123304D01*
X184488431Y-107193874D01*
X184486048Y-107241175D01*
X184482275Y-107269047D01*
X184476797Y-107281332D01*
X184469297Y-107281871D01*
X184459460Y-107274505D01*
X184459329Y-107274387D01*
X184392645Y-107232185D01*
X184306847Y-107203429D01*
X184216963Y-107193026D01*
X184116638Y-107210365D01*
X184023557Y-107260433D01*
X183944051Y-107337840D01*
X183890205Y-107404654D01*
X183884977Y-107820614D01*
X183879749Y-108236575D01*
X184088321Y-108236575D01*
X184093647Y-107869772D01*
X184098972Y-107502968D01*
X184155788Y-107452238D01*
X184204512Y-107417223D01*
X184256559Y-107403057D01*
X184292356Y-107401507D01*
X184348196Y-107405923D01*
X184389663Y-107424204D01*
X184431260Y-107460657D01*
X184490411Y-107519808D01*
X184490411Y-108236575D01*
X184699178Y-108236575D01*
X184699178Y-106073833D01*
X184490384Y-106073833D01*
X184488237Y-106171524D01*
X184480463Y-106242249D01*
X184465122Y-106293641D01*
X184440270Y-106333333D01*
X184418607Y-106356000D01*
X184372671Y-106380050D01*
X184308119Y-106392229D01*
X184239403Y-106391491D01*
X184180975Y-106376790D01*
X184174644Y-106373668D01*
X184135851Y-106337089D01*
X184109321Y-106274100D01*
X184094385Y-106182338D01*
X184090301Y-106075524D01*
X184094268Y-105966872D01*
X184107662Y-105886932D01*
X184132789Y-105830357D01*
X184171951Y-105791801D01*
X184223100Y-105767391D01*
X184275154Y-105752809D01*
X184316375Y-105753554D01*
X184362278Y-105767822D01*
X184415600Y-105796432D01*
X184452839Y-105839053D01*
X184476208Y-105900969D01*
X184487919Y-105987465D01*
X184490384Y-106073833D01*
X184699178Y-106073833D01*
X184699178Y-105557397D01*
X184594794Y-105557397D01*
X184536958Y-105558295D01*
X184505733Y-105563299D01*
X184492944Y-105575872D01*
X184490415Y-105599479D01*
X184490411Y-105601624D01*
X184490411Y-105645850D01*
X184408017Y-105597564D01*
X184307200Y-105556915D01*
X184203560Y-105548075D01*
X184103510Y-105569698D01*
G36*
X177203219Y-107206390D02*
X177125985Y-107230182D01*
X177119382Y-107233435D01*
X177026607Y-107296801D01*
X176959014Y-107379292D01*
X176915031Y-107483768D01*
X176893086Y-107613090D01*
X176890868Y-107649418D01*
X176884346Y-107801644D01*
X177207926Y-107801644D01*
X177321287Y-107801772D01*
X177404508Y-107802509D01*
X177462245Y-107804378D01*
X177499152Y-107807906D01*
X177519884Y-107813617D01*
X177529097Y-107822037D01*
X177531445Y-107833692D01*
X177531507Y-107838158D01*
X177524149Y-107878104D01*
X177506131Y-107927936D01*
X177503065Y-107934610D01*
X177456116Y-107996213D01*
X177388813Y-108036184D01*
X177308908Y-108053404D01*
X177224151Y-108046752D01*
X177142294Y-108015108D01*
X177107606Y-107991740D01*
X177061903Y-107955790D01*
X176983095Y-108020367D01*
X176939717Y-108057466D01*
X176919927Y-108081114D01*
X176919570Y-108098863D01*
X176931225Y-108114710D01*
X176961151Y-108139342D01*
X177009673Y-108171236D01*
X177047947Y-108193342D01*
X177137751Y-108228471D01*
X177241597Y-108247835D01*
X177345914Y-108250183D01*
X177437133Y-108234264D01*
X177448712Y-108230274D01*
X177552181Y-108178617D01*
X177630476Y-108107996D01*
X177688434Y-108013212D01*
X177714902Y-107944309D01*
X177730409Y-107869065D01*
X177737381Y-107773814D01*
X177736211Y-107670374D01*
X177728741Y-107586751D01*
X177531507Y-107586751D01*
X177530500Y-107603702D01*
X177523690Y-107615176D01*
X177505397Y-107622240D01*
X177469938Y-107625965D01*
X177411632Y-107627418D01*
X177324796Y-107627671D01*
X177314041Y-107627671D01*
X177222190Y-107627083D01*
X177159821Y-107624887D01*
X177121634Y-107620433D01*
X177102328Y-107613072D01*
X177096605Y-107602153D01*
X177096575Y-107601016D01*
X177110087Y-107540825D01*
X177144622Y-107478228D01*
X177191183Y-107428407D01*
X177204261Y-107419350D01*
X177283397Y-107388925D01*
X177363902Y-107390210D01*
X177409204Y-107406366D01*
X177454138Y-107441527D01*
X177495397Y-107493825D01*
X177523920Y-107549898D01*
X177531507Y-107586751D01*
X177728741Y-107586751D01*
X177727295Y-107570567D01*
X177711028Y-107486210D01*
X177698355Y-107448962D01*
X177648482Y-107364522D01*
X177579850Y-107289087D01*
X177502725Y-107233040D01*
X177469471Y-107217473D01*
X177390031Y-107199349D01*
X177296257Y-107195884D01*
X177203219Y-107206390D01*
X177203219Y-107206390D01*
G37*
X177203219Y-107206390D02*
X177125985Y-107230182D01*
X177119382Y-107233435D01*
X177026607Y-107296801D01*
X176959014Y-107379292D01*
X176915031Y-107483768D01*
X176893086Y-107613090D01*
X176890868Y-107649418D01*
X176884346Y-107801644D01*
X177207926Y-107801644D01*
X177321287Y-107801772D01*
X177404508Y-107802509D01*
X177462245Y-107804378D01*
X177499152Y-107807906D01*
X177519884Y-107813617D01*
X177529097Y-107822037D01*
X177531445Y-107833692D01*
X177531507Y-107838158D01*
X177524149Y-107878104D01*
X177506131Y-107927936D01*
X177503065Y-107934610D01*
X177456116Y-107996213D01*
X177388813Y-108036184D01*
X177308908Y-108053404D01*
X177224151Y-108046752D01*
X177142294Y-108015108D01*
X177107606Y-107991740D01*
X177061903Y-107955790D01*
X176983095Y-108020367D01*
X176939717Y-108057466D01*
X176919927Y-108081114D01*
X176919570Y-108098863D01*
X176931225Y-108114710D01*
X176961151Y-108139342D01*
X177009673Y-108171236D01*
X177047947Y-108193342D01*
X177137751Y-108228471D01*
X177241597Y-108247835D01*
X177345914Y-108250183D01*
X177437133Y-108234264D01*
X177448712Y-108230274D01*
X177552181Y-108178617D01*
X177630476Y-108107996D01*
X177688434Y-108013212D01*
X177714902Y-107944309D01*
X177730409Y-107869065D01*
X177737381Y-107773814D01*
X177736211Y-107670374D01*
X177728741Y-107586751D01*
X177531507Y-107586751D01*
X177530500Y-107603702D01*
X177523690Y-107615176D01*
X177505397Y-107622240D01*
X177469938Y-107625965D01*
X177411632Y-107627418D01*
X177324796Y-107627671D01*
X177314041Y-107627671D01*
X177222190Y-107627083D01*
X177159821Y-107624887D01*
X177121634Y-107620433D01*
X177102328Y-107613072D01*
X177096605Y-107602153D01*
X177096575Y-107601016D01*
X177110087Y-107540825D01*
X177144622Y-107478228D01*
X177191183Y-107428407D01*
X177204261Y-107419350D01*
X177283397Y-107388925D01*
X177363902Y-107390210D01*
X177409204Y-107406366D01*
X177454138Y-107441527D01*
X177495397Y-107493825D01*
X177523920Y-107549898D01*
X177531507Y-107586751D01*
X177728741Y-107586751D01*
X177727295Y-107570567D01*
X177711028Y-107486210D01*
X177698355Y-107448962D01*
X177648482Y-107364522D01*
X177579850Y-107289087D01*
X177502725Y-107233040D01*
X177469471Y-107217473D01*
X177390031Y-107199349D01*
X177296257Y-107195884D01*
X177203219Y-107206390D01*
G36*
X179075451Y-107196145D02*
X178955219Y-107208058D01*
X178862797Y-107232583D01*
X178792751Y-107272049D01*
X178739652Y-107328780D01*
X178729321Y-107344425D01*
X178716379Y-107366566D01*
X178706418Y-107389268D01*
X178698971Y-107417342D01*
X178693574Y-107455600D01*
X178689761Y-107508853D01*
X178687064Y-107581912D01*
X178685019Y-107679589D01*
X178683160Y-107806695D01*
X178682937Y-107823390D01*
X178677450Y-108236575D01*
X178782971Y-108236575D01*
X178841165Y-108235775D01*
X178872715Y-108230966D01*
X178885770Y-108218532D01*
X178888476Y-108194858D01*
X178888493Y-108189757D01*
X178890438Y-108158862D01*
X178899455Y-108158743D01*
X178910240Y-108171793D01*
X178958760Y-108210628D01*
X179031294Y-108237300D01*
X179118740Y-108250325D01*
X179211996Y-108248216D01*
X179288630Y-108233532D01*
X179374608Y-108194380D01*
X179446079Y-108133711D01*
X179486250Y-108074003D01*
X179510421Y-107990888D01*
X179511472Y-107946928D01*
X179315704Y-107946928D01*
X179289020Y-107997300D01*
X179238121Y-108035071D01*
X179214601Y-108044117D01*
X179151496Y-108054620D01*
X179078767Y-108053956D01*
X179008729Y-108043569D01*
X178953698Y-108024899D01*
X178933921Y-108011260D01*
X178909110Y-107967777D01*
X178893785Y-107901143D01*
X178892564Y-107890082D01*
X178884066Y-107801644D01*
X179047204Y-107801900D01*
X179148807Y-107805150D01*
X179221383Y-107815732D01*
X179270256Y-107835451D01*
X179300750Y-107866114D01*
X179312972Y-107892001D01*
X179315704Y-107946928D01*
X179511472Y-107946928D01*
X179512593Y-107900050D01*
X179493199Y-107815987D01*
X179477561Y-107784246D01*
X179434207Y-107725080D01*
X179383192Y-107682401D01*
X179318426Y-107653859D01*
X179233820Y-107637102D01*
X179123283Y-107629778D01*
X179075513Y-107628995D01*
X178888493Y-107627671D01*
X178888493Y-107556938D01*
X178892597Y-107503343D01*
X178902744Y-107460524D01*
X178905523Y-107454385D01*
X178941877Y-107419733D01*
X179001497Y-107396427D01*
X179074427Y-107385479D01*
X179150710Y-107387899D01*
X179220387Y-107404700D01*
X179250532Y-107419349D01*
X179285436Y-107438558D01*
X179312905Y-107443388D01*
X179343467Y-107431707D01*
X179387650Y-107401380D01*
X179405711Y-107387894D01*
X179440775Y-107353879D01*
X179447672Y-107322629D01*
X179424820Y-107290862D01*
X179370635Y-107255298D01*
X179332159Y-107235488D01*
X179283039Y-107213059D01*
X179240925Y-107199802D01*
X179194490Y-107193980D01*
X179132405Y-107193858D01*
X179075451Y-107196145D01*
X179075451Y-107196145D01*
G37*
X179075451Y-107196145D02*
X178955219Y-107208058D01*
X178862797Y-107232583D01*
X178792751Y-107272049D01*
X178739652Y-107328780D01*
X178729321Y-107344425D01*
X178716379Y-107366566D01*
X178706418Y-107389268D01*
X178698971Y-107417342D01*
X178693574Y-107455600D01*
X178689761Y-107508853D01*
X178687064Y-107581912D01*
X178685019Y-107679589D01*
X178683160Y-107806695D01*
X178682937Y-107823390D01*
X178677450Y-108236575D01*
X178782971Y-108236575D01*
X178841165Y-108235775D01*
X178872715Y-108230966D01*
X178885770Y-108218532D01*
X178888476Y-108194858D01*
X178888493Y-108189757D01*
X178890438Y-108158862D01*
X178899455Y-108158743D01*
X178910240Y-108171793D01*
X178958760Y-108210628D01*
X179031294Y-108237300D01*
X179118740Y-108250325D01*
X179211996Y-108248216D01*
X179288630Y-108233532D01*
X179374608Y-108194380D01*
X179446079Y-108133711D01*
X179486250Y-108074003D01*
X179510421Y-107990888D01*
X179511472Y-107946928D01*
X179315704Y-107946928D01*
X179289020Y-107997300D01*
X179238121Y-108035071D01*
X179214601Y-108044117D01*
X179151496Y-108054620D01*
X179078767Y-108053956D01*
X179008729Y-108043569D01*
X178953698Y-108024899D01*
X178933921Y-108011260D01*
X178909110Y-107967777D01*
X178893785Y-107901143D01*
X178892564Y-107890082D01*
X178884066Y-107801644D01*
X179047204Y-107801900D01*
X179148807Y-107805150D01*
X179221383Y-107815732D01*
X179270256Y-107835451D01*
X179300750Y-107866114D01*
X179312972Y-107892001D01*
X179315704Y-107946928D01*
X179511472Y-107946928D01*
X179512593Y-107900050D01*
X179493199Y-107815987D01*
X179477561Y-107784246D01*
X179434207Y-107725080D01*
X179383192Y-107682401D01*
X179318426Y-107653859D01*
X179233820Y-107637102D01*
X179123283Y-107629778D01*
X179075513Y-107628995D01*
X178888493Y-107627671D01*
X178888493Y-107556938D01*
X178892597Y-107503343D01*
X178902744Y-107460524D01*
X178905523Y-107454385D01*
X178941877Y-107419733D01*
X179001497Y-107396427D01*
X179074427Y-107385479D01*
X179150710Y-107387899D01*
X179220387Y-107404700D01*
X179250532Y-107419349D01*
X179285436Y-107438558D01*
X179312905Y-107443388D01*
X179343467Y-107431707D01*
X179387650Y-107401380D01*
X179405711Y-107387894D01*
X179440775Y-107353879D01*
X179447672Y-107322629D01*
X179424820Y-107290862D01*
X179370635Y-107255298D01*
X179332159Y-107235488D01*
X179283039Y-107213059D01*
X179240925Y-107199802D01*
X179194490Y-107193980D01*
X179132405Y-107193858D01*
X179075451Y-107196145D01*
G36*
X181224075Y-106778686D02*
X181124041Y-106783904D01*
X181119501Y-107510240D01*
X181114961Y-108236575D01*
X181219535Y-108236575D01*
X181277451Y-108235658D01*
X181308743Y-108230644D01*
X181321574Y-108218137D01*
X181324107Y-108194743D01*
X181324109Y-108193082D01*
X181325614Y-108163678D01*
X181334580Y-108153010D01*
X181357688Y-108161330D01*
X181401618Y-108188889D01*
X181413042Y-108196435D01*
X181507192Y-108239294D01*
X181609499Y-108252548D01*
X181710371Y-108235686D01*
X181759041Y-108214863D01*
X181818034Y-108173583D01*
X181873337Y-108119537D01*
X181889435Y-108099034D01*
X181909691Y-108069134D01*
X181924035Y-108041950D01*
X181933672Y-108010674D01*
X181939809Y-107968499D01*
X181943650Y-107908618D01*
X181946401Y-107824224D01*
X181947770Y-107769646D01*
X181948148Y-107731230D01*
X181739562Y-107731230D01*
X181738591Y-107757567D01*
X181728566Y-107868415D01*
X181707868Y-107948751D01*
X181673870Y-108001913D01*
X181623946Y-108031241D01*
X181555468Y-108040073D01*
X181517781Y-108038240D01*
X181439798Y-108018107D01*
X181399956Y-107989782D01*
X181364907Y-107933974D01*
X181341705Y-107853699D01*
X181331033Y-107757443D01*
X181333576Y-107653693D01*
X181350017Y-107550936D01*
X181361288Y-107509937D01*
X181394692Y-107456729D01*
X181450231Y-107419823D01*
X181518145Y-107401618D01*
X181588675Y-107404515D01*
X181652060Y-107430911D01*
X181659750Y-107436573D01*
X181699353Y-107480106D01*
X181724999Y-107540239D01*
X181737974Y-107622203D01*
X181739562Y-107731230D01*
X181948148Y-107731230D01*
X181948939Y-107650973D01*
X181946443Y-107551319D01*
X181940521Y-107476395D01*
X181934076Y-107440246D01*
X181892790Y-107348128D01*
X181827636Y-107275503D01*
X181745006Y-107224686D01*
X181651289Y-107197995D01*
X181552876Y-107197743D01*
X181456160Y-107226248D01*
X181411896Y-107251035D01*
X181369380Y-107278026D01*
X181339916Y-107294615D01*
X181333181Y-107297123D01*
X181330029Y-107280727D01*
X181327353Y-107235541D01*
X181325360Y-107167569D01*
X181324260Y-107082814D01*
X181324109Y-107035296D01*
X181324109Y-106773469D01*
X181224075Y-106778686D01*
X181224075Y-106778686D01*
G37*
X181224075Y-106778686D02*
X181124041Y-106783904D01*
X181119501Y-107510240D01*
X181114961Y-108236575D01*
X181219535Y-108236575D01*
X181277451Y-108235658D01*
X181308743Y-108230644D01*
X181321574Y-108218137D01*
X181324107Y-108194743D01*
X181324109Y-108193082D01*
X181325614Y-108163678D01*
X181334580Y-108153010D01*
X181357688Y-108161330D01*
X181401618Y-108188889D01*
X181413042Y-108196435D01*
X181507192Y-108239294D01*
X181609499Y-108252548D01*
X181710371Y-108235686D01*
X181759041Y-108214863D01*
X181818034Y-108173583D01*
X181873337Y-108119537D01*
X181889435Y-108099034D01*
X181909691Y-108069134D01*
X181924035Y-108041950D01*
X181933672Y-108010674D01*
X181939809Y-107968499D01*
X181943650Y-107908618D01*
X181946401Y-107824224D01*
X181947770Y-107769646D01*
X181948148Y-107731230D01*
X181739562Y-107731230D01*
X181738591Y-107757567D01*
X181728566Y-107868415D01*
X181707868Y-107948751D01*
X181673870Y-108001913D01*
X181623946Y-108031241D01*
X181555468Y-108040073D01*
X181517781Y-108038240D01*
X181439798Y-108018107D01*
X181399956Y-107989782D01*
X181364907Y-107933974D01*
X181341705Y-107853699D01*
X181331033Y-107757443D01*
X181333576Y-107653693D01*
X181350017Y-107550936D01*
X181361288Y-107509937D01*
X181394692Y-107456729D01*
X181450231Y-107419823D01*
X181518145Y-107401618D01*
X181588675Y-107404515D01*
X181652060Y-107430911D01*
X181659750Y-107436573D01*
X181699353Y-107480106D01*
X181724999Y-107540239D01*
X181737974Y-107622203D01*
X181739562Y-107731230D01*
X181948148Y-107731230D01*
X181948939Y-107650973D01*
X181946443Y-107551319D01*
X181940521Y-107476395D01*
X181934076Y-107440246D01*
X181892790Y-107348128D01*
X181827636Y-107275503D01*
X181745006Y-107224686D01*
X181651289Y-107197995D01*
X181552876Y-107197743D01*
X181456160Y-107226248D01*
X181411896Y-107251035D01*
X181369380Y-107278026D01*
X181339916Y-107294615D01*
X181333181Y-107297123D01*
X181330029Y-107280727D01*
X181327353Y-107235541D01*
X181325360Y-107167569D01*
X181324260Y-107082814D01*
X181324109Y-107035296D01*
X181324109Y-106773469D01*
X181224075Y-106778686D01*
G36*
X183263191Y-107196229D02*
X183142841Y-107210982D01*
X183049914Y-107242523D01*
X182980299Y-107292941D01*
X182929880Y-107364328D01*
X182929007Y-107366049D01*
X182916372Y-107392796D01*
X182906791Y-107419711D01*
X182899842Y-107451889D01*
X182895105Y-107494421D01*
X182892159Y-107552400D01*
X182890585Y-107630918D01*
X182889960Y-107735069D01*
X182889863Y-107840124D01*
X182889863Y-108236575D01*
X182994246Y-108236575D01*
X183052116Y-108235627D01*
X183083361Y-108230560D01*
X183096145Y-108218038D01*
X183098629Y-108194725D01*
X183098630Y-108193913D01*
X183098630Y-108151250D01*
X183142370Y-108191788D01*
X183205383Y-108229205D01*
X183290153Y-108249840D01*
X183387380Y-108252601D01*
X183487766Y-108236398D01*
X183498131Y-108233546D01*
X183587569Y-108192052D01*
X183656477Y-108128702D01*
X183702900Y-108049937D01*
X183724880Y-107962198D01*
X183724133Y-107946928D01*
X183525841Y-107946928D01*
X183499157Y-107997300D01*
X183448258Y-108035071D01*
X183424738Y-108044117D01*
X183371996Y-108052350D01*
X183301626Y-108053832D01*
X183229767Y-108049090D01*
X183172562Y-108038652D01*
X183163357Y-108035572D01*
X183131968Y-108006702D01*
X183109239Y-107952883D01*
X183098891Y-107883609D01*
X183098630Y-107870414D01*
X183098630Y-107801644D01*
X183259555Y-107801900D01*
X183360822Y-107805241D01*
X183433078Y-107816100D01*
X183481637Y-107836294D01*
X183511812Y-107867640D01*
X183523109Y-107892001D01*
X183525841Y-107946928D01*
X183724133Y-107946928D01*
X183720461Y-107871924D01*
X183687687Y-107785558D01*
X183649834Y-107734109D01*
X183597867Y-107688593D01*
X183535146Y-107657224D01*
X183455060Y-107638076D01*
X183350999Y-107629225D01*
X183285650Y-107628053D01*
X183098630Y-107627671D01*
X183098630Y-107556938D01*
X183102734Y-107503343D01*
X183112881Y-107460524D01*
X183115660Y-107454385D01*
X183152809Y-107418629D01*
X183213269Y-107395474D01*
X183287549Y-107385917D01*
X183366156Y-107390955D01*
X183439598Y-107411587D01*
X183454922Y-107418725D01*
X183492422Y-107436610D01*
X183520750Y-107442471D01*
X183549338Y-107433790D01*
X183587617Y-107408052D01*
X183635110Y-107370652D01*
X183675769Y-107338182D01*
X183613592Y-107283590D01*
X183542915Y-107235608D01*
X183458617Y-107206595D01*
X183354060Y-107194896D01*
X183263191Y-107196229D01*
X183263191Y-107196229D01*
G37*
X183263191Y-107196229D02*
X183142841Y-107210982D01*
X183049914Y-107242523D01*
X182980299Y-107292941D01*
X182929880Y-107364328D01*
X182929007Y-107366049D01*
X182916372Y-107392796D01*
X182906791Y-107419711D01*
X182899842Y-107451889D01*
X182895105Y-107494421D01*
X182892159Y-107552400D01*
X182890585Y-107630918D01*
X182889960Y-107735069D01*
X182889863Y-107840124D01*
X182889863Y-108236575D01*
X182994246Y-108236575D01*
X183052116Y-108235627D01*
X183083361Y-108230560D01*
X183096145Y-108218038D01*
X183098629Y-108194725D01*
X183098630Y-108193913D01*
X183098630Y-108151250D01*
X183142370Y-108191788D01*
X183205383Y-108229205D01*
X183290153Y-108249840D01*
X183387380Y-108252601D01*
X183487766Y-108236398D01*
X183498131Y-108233546D01*
X183587569Y-108192052D01*
X183656477Y-108128702D01*
X183702900Y-108049937D01*
X183724880Y-107962198D01*
X183724133Y-107946928D01*
X183525841Y-107946928D01*
X183499157Y-107997300D01*
X183448258Y-108035071D01*
X183424738Y-108044117D01*
X183371996Y-108052350D01*
X183301626Y-108053832D01*
X183229767Y-108049090D01*
X183172562Y-108038652D01*
X183163357Y-108035572D01*
X183131968Y-108006702D01*
X183109239Y-107952883D01*
X183098891Y-107883609D01*
X183098630Y-107870414D01*
X183098630Y-107801644D01*
X183259555Y-107801900D01*
X183360822Y-107805241D01*
X183433078Y-107816100D01*
X183481637Y-107836294D01*
X183511812Y-107867640D01*
X183523109Y-107892001D01*
X183525841Y-107946928D01*
X183724133Y-107946928D01*
X183720461Y-107871924D01*
X183687687Y-107785558D01*
X183649834Y-107734109D01*
X183597867Y-107688593D01*
X183535146Y-107657224D01*
X183455060Y-107638076D01*
X183350999Y-107629225D01*
X183285650Y-107628053D01*
X183098630Y-107627671D01*
X183098630Y-107556938D01*
X183102734Y-107503343D01*
X183112881Y-107460524D01*
X183115660Y-107454385D01*
X183152809Y-107418629D01*
X183213269Y-107395474D01*
X183287549Y-107385917D01*
X183366156Y-107390955D01*
X183439598Y-107411587D01*
X183454922Y-107418725D01*
X183492422Y-107436610D01*
X183520750Y-107442471D01*
X183549338Y-107433790D01*
X183587617Y-107408052D01*
X183635110Y-107370652D01*
X183675769Y-107338182D01*
X183613592Y-107283590D01*
X183542915Y-107235608D01*
X183458617Y-107206595D01*
X183354060Y-107194896D01*
X183263191Y-107196229D01*
G36*
X196126649Y-103057260D02*
X196076076Y-103113091D01*
X196052940Y-103186626D01*
X196063491Y-103261897D01*
X196092566Y-103305393D01*
X196150402Y-103337965D01*
X196196239Y-103346122D01*
X196231141Y-103342584D01*
X196249987Y-103323866D01*
X196257695Y-103277817D01*
X196259183Y-103192284D01*
X196259184Y-103190612D01*
X196257676Y-103104317D01*
X196249996Y-103057716D01*
X196231404Y-103038686D01*
X196198405Y-103035102D01*
X196126649Y-103057260D01*
X196126649Y-103057260D01*
G37*
X196126649Y-103057260D02*
X196076076Y-103113091D01*
X196052940Y-103186626D01*
X196063491Y-103261897D01*
X196092566Y-103305393D01*
X196150402Y-103337965D01*
X196196239Y-103346122D01*
X196231141Y-103342584D01*
X196249987Y-103323866D01*
X196257695Y-103277817D01*
X196259183Y-103192284D01*
X196259184Y-103190612D01*
X196257676Y-103104317D01*
X196249996Y-103057716D01*
X196231404Y-103038686D01*
X196198405Y-103035102D01*
X196126649Y-103057260D01*
G36*
X197362197Y-103043576D02*
X197350814Y-103077704D01*
X197352432Y-103093153D01*
X197376962Y-103141794D01*
X197420234Y-103162619D01*
X197459172Y-103148311D01*
X197474805Y-103109322D01*
X197477347Y-103082619D01*
X197460051Y-103045036D01*
X197410748Y-103035102D01*
X197362197Y-103043576D01*
X197362197Y-103043576D01*
G37*
X197362197Y-103043576D02*
X197350814Y-103077704D01*
X197352432Y-103093153D01*
X197376962Y-103141794D01*
X197420234Y-103162619D01*
X197459172Y-103148311D01*
X197474805Y-103109322D01*
X197477347Y-103082619D01*
X197460051Y-103045036D01*
X197410748Y-103035102D01*
X197362197Y-103043576D01*
G36*
X195517330Y-104058247D02*
X195488100Y-104091275D01*
X195500703Y-104116643D01*
X195543455Y-104123673D01*
X195590536Y-104115498D01*
X195595426Y-104086951D01*
X195594191Y-104083523D01*
X195561654Y-104054116D01*
X195517330Y-104058247D01*
X195517330Y-104058247D01*
G37*
X195517330Y-104058247D02*
X195488100Y-104091275D01*
X195500703Y-104116643D01*
X195543455Y-104123673D01*
X195590536Y-104115498D01*
X195595426Y-104086951D01*
X195594191Y-104083523D01*
X195561654Y-104054116D01*
X195517330Y-104058247D01*
G36*
X196917569Y-104195130D02*
X196907143Y-104229773D01*
X196926621Y-104271331D01*
X196958980Y-104279183D01*
X197001018Y-104264244D01*
X197010816Y-104243329D01*
X196989101Y-104208515D01*
X196958980Y-104193919D01*
X196917569Y-104195130D01*
X196917569Y-104195130D01*
G37*
X196917569Y-104195130D02*
X196907143Y-104229773D01*
X196926621Y-104271331D01*
X196958980Y-104279183D01*
X197001018Y-104264244D01*
X197010816Y-104243329D01*
X196989101Y-104208515D01*
X196958980Y-104193919D01*
X196917569Y-104195130D01*
G36*
X195968506Y-104067533D02*
X195935930Y-104110706D01*
X195925760Y-104179959D01*
X195926852Y-104193160D01*
X195948812Y-104249801D01*
X195988799Y-104277064D01*
X196031434Y-104264923D01*
X196033662Y-104262801D01*
X196050174Y-104219692D01*
X196051105Y-104156268D01*
X196038691Y-104096238D01*
X196015165Y-104063313D01*
X196014854Y-104063191D01*
X195968506Y-104067533D01*
X195968506Y-104067533D01*
G37*
X195968506Y-104067533D02*
X195935930Y-104110706D01*
X195925760Y-104179959D01*
X195926852Y-104193160D01*
X195948812Y-104249801D01*
X195988799Y-104277064D01*
X196031434Y-104264923D01*
X196033662Y-104262801D01*
X196050174Y-104219692D01*
X196051105Y-104156268D01*
X196038691Y-104096238D01*
X196015165Y-104063313D01*
X196014854Y-104063191D01*
X195968506Y-104067533D01*
G36*
X196434630Y-104071479D02*
X196424848Y-104084248D01*
X196391429Y-104154191D01*
X196400956Y-104228506D01*
X196404508Y-104238186D01*
X196440515Y-104271769D01*
X196493935Y-104278041D01*
X196527007Y-104261905D01*
X196543875Y-104214913D01*
X196539791Y-104148280D01*
X196518074Y-104088166D01*
X196502603Y-104069509D01*
X196465783Y-104049760D01*
X196434630Y-104071479D01*
X196434630Y-104071479D01*
G37*
X196434630Y-104071479D02*
X196424848Y-104084248D01*
X196391429Y-104154191D01*
X196400956Y-104228506D01*
X196404508Y-104238186D01*
X196440515Y-104271769D01*
X196493935Y-104278041D01*
X196527007Y-104261905D01*
X196543875Y-104214913D01*
X196539791Y-104148280D01*
X196518074Y-104088166D01*
X196502603Y-104069509D01*
X196465783Y-104049760D01*
X196434630Y-104071479D01*
G36*
X197069951Y-97728232D02*
X193163575Y-97734796D01*
X192081251Y-99393571D01*
X190998926Y-101052347D01*
X190998340Y-104117194D01*
X190997755Y-107182041D01*
X200354286Y-107182041D01*
X200354286Y-98343687D01*
X196930869Y-98350262D01*
X193507451Y-98356837D01*
X192563624Y-99806480D01*
X191619796Y-101256124D01*
X191619796Y-106560000D01*
X199706326Y-106560000D01*
X199706326Y-98991837D01*
X193835816Y-98993035D01*
X193038826Y-100221656D01*
X192241837Y-101450277D01*
X192241837Y-105912041D01*
X199084492Y-105912041D01*
X199077909Y-102756479D01*
X199071326Y-99600918D01*
X196642148Y-99594306D01*
X194212970Y-99587693D01*
X194035304Y-99853489D01*
X193977036Y-99941237D01*
X193895535Y-100064795D01*
X193795821Y-100216513D01*
X193682911Y-100388739D01*
X193561826Y-100573823D01*
X193437583Y-100764114D01*
X193373717Y-100862088D01*
X192889796Y-101604891D01*
X192889796Y-103942245D01*
X194056122Y-103942245D01*
X194056122Y-104953061D01*
X198125306Y-104953061D01*
X198125306Y-103890408D01*
X197632857Y-103890408D01*
X197626082Y-103921419D01*
X197597284Y-103936935D01*
X197533758Y-103942004D01*
X197502396Y-103942245D01*
X197371936Y-103942245D01*
X197502396Y-104114579D01*
X197562643Y-104198146D01*
X197608160Y-104268865D01*
X197631374Y-104314700D01*
X197632857Y-104321926D01*
X197619777Y-104339897D01*
X197575413Y-104350872D01*
X197492078Y-104356074D01*
X197412551Y-104356939D01*
X197305313Y-104355924D01*
X197239797Y-104351338D01*
X197205904Y-104340867D01*
X197193536Y-104322196D01*
X197192245Y-104306456D01*
X197200682Y-104275219D01*
X197234252Y-104257986D01*
X197305348Y-104249113D01*
X197320252Y-104248140D01*
X197426658Y-104241628D01*
X197140408Y-104241628D01*
X197118789Y-104319351D01*
X197061575Y-104366149D01*
X196980234Y-104372830D01*
X196977416Y-104372289D01*
X196898562Y-104360741D01*
X196839107Y-104356939D01*
X196804803Y-104353144D01*
X196786368Y-104333626D01*
X196778914Y-104286181D01*
X196777551Y-104203280D01*
X196784804Y-104090633D01*
X196811705Y-104019763D01*
X196865965Y-103982005D01*
X196955294Y-103968691D01*
X196964527Y-103968536D01*
X196673878Y-103968536D01*
X196673878Y-104512449D01*
X196609082Y-104512449D01*
X196566135Y-104506163D01*
X196547915Y-104477315D01*
X196544286Y-104416551D01*
X196540771Y-104356638D01*
X196527992Y-104341245D01*
X196513184Y-104351755D01*
X196452019Y-104380837D01*
X196382141Y-104370764D01*
X196325449Y-104325253D01*
X196296763Y-104253042D01*
X196286290Y-104159735D01*
X196294598Y-104069259D01*
X196318001Y-104010834D01*
X196367419Y-103974167D01*
X196375929Y-103972354D01*
X196181429Y-103972354D01*
X196181429Y-104242402D01*
X196180788Y-104363214D01*
X196177672Y-104441403D01*
X196170291Y-104486178D01*
X196156856Y-104506747D01*
X196135577Y-104512320D01*
X196128944Y-104512449D01*
X196085208Y-104494644D01*
X196061039Y-104435335D01*
X196060773Y-104434018D01*
X196042759Y-104379920D01*
X196012947Y-104367213D01*
X195996625Y-104370969D01*
X195920682Y-104372766D01*
X195857497Y-104334719D01*
X195812565Y-104268306D01*
X195798608Y-104213426D01*
X195735475Y-104213426D01*
X195695489Y-104298624D01*
X195677198Y-104319239D01*
X195591381Y-104371766D01*
X195481443Y-104380252D01*
X195410357Y-104366521D01*
X195364843Y-104337767D01*
X195352041Y-104306930D01*
X195362420Y-104279446D01*
X195401461Y-104266767D01*
X195472583Y-104264596D01*
X195555513Y-104258836D01*
X195600196Y-104240455D01*
X195604334Y-104233826D01*
X195594755Y-104214075D01*
X195544712Y-104203803D01*
X195470340Y-104201428D01*
X195325135Y-104201428D01*
X195342069Y-104130153D01*
X195382130Y-104034903D01*
X195449488Y-103982329D01*
X195535605Y-103968163D01*
X195629330Y-103989823D01*
X195697288Y-104046363D01*
X195734372Y-104125118D01*
X195735475Y-104213426D01*
X195798608Y-104213426D01*
X195791380Y-104185010D01*
X195799437Y-104096311D01*
X195832052Y-104027121D01*
X195863389Y-103994609D01*
X195909228Y-103977652D01*
X195985073Y-103971824D01*
X196026439Y-103971613D01*
X196181429Y-103972354D01*
X196375929Y-103972354D01*
X196402235Y-103966750D01*
X196460658Y-103967433D01*
X196541843Y-103967997D01*
X196563724Y-103968097D01*
X196673878Y-103968536D01*
X196964527Y-103968536D01*
X196986749Y-103968163D01*
X197064012Y-103971087D01*
X197102262Y-103983177D01*
X197114152Y-104009404D01*
X197114490Y-104018370D01*
X197106624Y-104051352D01*
X197073449Y-104059875D01*
X197027071Y-104054391D01*
X196959120Y-104051946D01*
X196925404Y-104065980D01*
X196931256Y-104087997D01*
X196982011Y-104109502D01*
X196991151Y-104111598D01*
X197081174Y-104140708D01*
X197128123Y-104183964D01*
X197140408Y-104241628D01*
X197426658Y-104241628D01*
X197448260Y-104240306D01*
X197333212Y-104086759D01*
X197259786Y-103984045D01*
X197248149Y-103962120D01*
X195248367Y-103962120D01*
X195248367Y-104159529D01*
X195247179Y-104259842D01*
X195241746Y-104319004D01*
X195229267Y-104347683D01*
X195206942Y-104356545D01*
X195196531Y-104356939D01*
X195161062Y-104347011D01*
X195146552Y-104308057D01*
X195144694Y-104264520D01*
X195131914Y-104161861D01*
X195095921Y-104095471D01*
X195040234Y-104071837D01*
X195040108Y-104071837D01*
X194999895Y-104055995D01*
X194989184Y-104007682D01*
X194995445Y-103962544D01*
X195024507Y-103957988D01*
X195048812Y-103966198D01*
X195121005Y-103978826D01*
X195178404Y-103975494D01*
X195248367Y-103962120D01*
X197248149Y-103962120D01*
X197222713Y-103914197D01*
X197224310Y-103870985D01*
X197266895Y-103848177D01*
X197352784Y-103839542D01*
X197425510Y-103838571D01*
X197528819Y-103839653D01*
X197590735Y-103844638D01*
X197621684Y-103856131D01*
X197632094Y-103876741D01*
X197632857Y-103890408D01*
X198125306Y-103890408D01*
X198125306Y-103193635D01*
X197606939Y-103193635D01*
X197606532Y-103310434D01*
X197603707Y-103384915D01*
X197596056Y-103426600D01*
X197581171Y-103445007D01*
X197556643Y-103449656D01*
X197542143Y-103449796D01*
X197498324Y-103443018D01*
X197480385Y-103412519D01*
X197477347Y-103359081D01*
X197471510Y-103296504D01*
X197448823Y-103271278D01*
X197425858Y-103268367D01*
X197375004Y-103293933D01*
X197336466Y-103359081D01*
X197300386Y-103423021D01*
X197255806Y-103447949D01*
X197232445Y-103449796D01*
X197187374Y-103446113D01*
X197171046Y-103428551D01*
X197183089Y-103387338D01*
X197223130Y-103312704D01*
X197226973Y-103305974D01*
X197262018Y-103237672D01*
X197269566Y-103196798D01*
X197265802Y-103190612D01*
X197088571Y-103190612D01*
X197088571Y-103449796D01*
X197023775Y-103449796D01*
X196982029Y-103444137D01*
X196963474Y-103417446D01*
X196959003Y-103355151D01*
X196958980Y-103346122D01*
X196958980Y-103242449D01*
X196855306Y-103242449D01*
X196788511Y-103238912D01*
X196758823Y-103222230D01*
X196751670Y-103183296D01*
X196751633Y-103177653D01*
X196751877Y-103175850D01*
X196622041Y-103175850D01*
X196622041Y-103449796D01*
X196490636Y-103449796D01*
X196362857Y-103449796D01*
X196222295Y-103449796D01*
X196126107Y-103443958D01*
X196057821Y-103421759D01*
X196001989Y-103382696D01*
X195949386Y-103328864D01*
X195926538Y-103270270D01*
X195922245Y-103200355D01*
X195938915Y-103077866D01*
X195989303Y-102994411D01*
X196073971Y-102949175D01*
X196099715Y-102943873D01*
X196191257Y-102929582D01*
X196278531Y-102916093D01*
X196278622Y-102916079D01*
X196362857Y-102903161D01*
X196362857Y-103449796D01*
X196490636Y-103449796D01*
X196498022Y-103184132D01*
X196501984Y-103064437D01*
X196507402Y-102986949D01*
X196516583Y-102942044D01*
X196531836Y-102920100D01*
X196555468Y-102911492D01*
X196563724Y-102910187D01*
X196589601Y-102908502D01*
X196606406Y-102918216D01*
X196616097Y-102948244D01*
X196620630Y-103007501D01*
X196621963Y-103104905D01*
X196622041Y-103175850D01*
X196751877Y-103175850D01*
X196757291Y-103135906D01*
X196783982Y-103117351D01*
X196846278Y-103112880D01*
X196855306Y-103112857D01*
X196927393Y-103106437D01*
X196957098Y-103085156D01*
X196958980Y-103073979D01*
X196941860Y-103046947D01*
X196885111Y-103035807D01*
X196855306Y-103035102D01*
X196788636Y-103031713D01*
X196758997Y-103015096D01*
X196751706Y-102975575D01*
X196751633Y-102966783D01*
X196754682Y-102925825D01*
X196772919Y-102908309D01*
X196819976Y-102908359D01*
X196871883Y-102914946D01*
X196955262Y-102924995D01*
X197023172Y-102930832D01*
X197040352Y-102931428D01*
X197062363Y-102935886D01*
X197076461Y-102955456D01*
X197084375Y-102999431D01*
X197087835Y-103077106D01*
X197088571Y-103190612D01*
X197265802Y-103190612D01*
X197252579Y-103168881D01*
X197225703Y-103116536D01*
X197219679Y-103046328D01*
X197234763Y-102984197D01*
X197250561Y-102964059D01*
X197305680Y-102940200D01*
X197389222Y-102923085D01*
X197477891Y-102915982D01*
X197548391Y-102922163D01*
X197548622Y-102922223D01*
X197575285Y-102932166D01*
X197592278Y-102951869D01*
X197601771Y-102991425D01*
X197605932Y-103060926D01*
X197606928Y-103170463D01*
X197606939Y-103193635D01*
X198125306Y-103193635D01*
X198125306Y-102638182D01*
X195559388Y-102638182D01*
X195536835Y-102641650D01*
X195472967Y-102625043D01*
X195373468Y-102590150D01*
X195245744Y-102539473D01*
X195128840Y-102491888D01*
X195030610Y-102453416D01*
X194960146Y-102427504D01*
X194926534Y-102417600D01*
X194925034Y-102417844D01*
X194929324Y-102444250D01*
X194945841Y-102511565D01*
X194972265Y-102610945D01*
X195006281Y-102733543D01*
X195025118Y-102799766D01*
X195067513Y-102945193D01*
X195100019Y-103048400D01*
X195126107Y-103117248D01*
X195149251Y-103159603D01*
X195172922Y-103183328D01*
X195200139Y-103196134D01*
X195268009Y-103218758D01*
X195186912Y-103450745D01*
X195151457Y-103550620D01*
X195122614Y-103628964D01*
X195104369Y-103675100D01*
X195100228Y-103682896D01*
X195084701Y-103662726D01*
X195047252Y-103608173D01*
X194994087Y-103528395D01*
X194951197Y-103462989D01*
X194891093Y-103369554D01*
X194843374Y-103293048D01*
X194814076Y-103243287D01*
X194807755Y-103229724D01*
X194829622Y-103219107D01*
X194861338Y-103216530D01*
X194899306Y-103207452D01*
X194900154Y-103170804D01*
X194896748Y-103159269D01*
X194881077Y-103105752D01*
X194856244Y-103016052D01*
X194824439Y-102898530D01*
X194787853Y-102761544D01*
X194748676Y-102613453D01*
X194709099Y-102462616D01*
X194671312Y-102317392D01*
X194637505Y-102186139D01*
X194609870Y-102077218D01*
X194590595Y-101998986D01*
X194581873Y-101959804D01*
X194581665Y-101956880D01*
X194606508Y-101963707D01*
X194670435Y-101986302D01*
X194764343Y-102021325D01*
X194879128Y-102065437D01*
X194904949Y-102075509D01*
X195022174Y-102120018D01*
X195119868Y-102154570D01*
X195189182Y-102176227D01*
X195221266Y-102182052D01*
X195222449Y-102180891D01*
X195212546Y-102152545D01*
X195184864Y-102083977D01*
X195142442Y-101982439D01*
X195088321Y-101855180D01*
X195025540Y-101709452D01*
X195003666Y-101659063D01*
X194784884Y-101156020D01*
X194954895Y-101148286D01*
X195043726Y-101146298D01*
X195110137Y-101148645D01*
X195138798Y-101154444D01*
X195149255Y-101182116D01*
X195171284Y-101252150D01*
X195202725Y-101356922D01*
X195241416Y-101488811D01*
X195285197Y-101640192D01*
X195331908Y-101803444D01*
X195379387Y-101970943D01*
X195425473Y-102135067D01*
X195468006Y-102288192D01*
X195504824Y-102422697D01*
X195533768Y-102530957D01*
X195552676Y-102605351D01*
X195559388Y-102638182D01*
X198125306Y-102638182D01*
X198125306Y-100832041D01*
X194056122Y-100832041D01*
X194056122Y-103475714D01*
X193330408Y-103475714D01*
X193330408Y-101749185D01*
X193881173Y-100901897D01*
X194431939Y-100054609D01*
X196524847Y-100054549D01*
X198617755Y-100054490D01*
X198617755Y-105471428D01*
X192682449Y-105471428D01*
X192682449Y-101596458D01*
X193385218Y-100514454D01*
X194087988Y-99432449D01*
X199265714Y-99432449D01*
X199265714Y-106119569D01*
X195669541Y-106112999D01*
X192073367Y-106106428D01*
X192068298Y-103747857D01*
X192063229Y-101389285D01*
X192900814Y-100106326D01*
X193738398Y-98823367D01*
X196813077Y-98816782D01*
X199887755Y-98810196D01*
X199887755Y-106741428D01*
X196123112Y-106741349D01*
X195676862Y-106741222D01*
X195239474Y-106740869D01*
X194814300Y-106740304D01*
X194404693Y-106739539D01*
X194014007Y-106738589D01*
X193645594Y-106737468D01*
X193302807Y-106736188D01*
X192989000Y-106734764D01*
X192707524Y-106733208D01*
X192461734Y-106731535D01*
X192254982Y-106729758D01*
X192090621Y-106727891D01*
X191972004Y-106725947D01*
X191911378Y-106724310D01*
X191464286Y-106707351D01*
X191464286Y-101169414D01*
X193421122Y-98154932D01*
X196957801Y-98172631D01*
X197381579Y-98174791D01*
X197790921Y-98176955D01*
X198182851Y-98179102D01*
X198554394Y-98181214D01*
X198902575Y-98183271D01*
X199224420Y-98185254D01*
X199516953Y-98187142D01*
X199777198Y-98188917D01*
X200002181Y-98190560D01*
X200188927Y-98192049D01*
X200334460Y-98193367D01*
X200435806Y-98194493D01*
X200489989Y-98195408D01*
X200498630Y-98195828D01*
X200499124Y-98221898D01*
X200499712Y-98297189D01*
X200500387Y-98419084D01*
X200501140Y-98584968D01*
X200501964Y-98792224D01*
X200502851Y-99038236D01*
X200503791Y-99320389D01*
X200504778Y-99636065D01*
X200505803Y-99982650D01*
X200506858Y-100357527D01*
X200507935Y-100758080D01*
X200509026Y-101181693D01*
X200510123Y-101625749D01*
X200511218Y-102087634D01*
X200512302Y-102564730D01*
X200512767Y-102775918D01*
X200522755Y-107350510D01*
X195760255Y-107357059D01*
X190997755Y-107363607D01*
X190997755Y-107804081D01*
X200976326Y-107804081D01*
X200976326Y-97721670D01*
X197069951Y-97728232D01*
X197069951Y-97728232D01*
G37*
X197069951Y-97728232D02*
X193163575Y-97734796D01*
X192081251Y-99393571D01*
X190998926Y-101052347D01*
X190998340Y-104117194D01*
X190997755Y-107182041D01*
X200354286Y-107182041D01*
X200354286Y-98343687D01*
X196930869Y-98350262D01*
X193507451Y-98356837D01*
X192563624Y-99806480D01*
X191619796Y-101256124D01*
X191619796Y-106560000D01*
X199706326Y-106560000D01*
X199706326Y-98991837D01*
X193835816Y-98993035D01*
X193038826Y-100221656D01*
X192241837Y-101450277D01*
X192241837Y-105912041D01*
X199084492Y-105912041D01*
X199077909Y-102756479D01*
X199071326Y-99600918D01*
X196642148Y-99594306D01*
X194212970Y-99587693D01*
X194035304Y-99853489D01*
X193977036Y-99941237D01*
X193895535Y-100064795D01*
X193795821Y-100216513D01*
X193682911Y-100388739D01*
X193561826Y-100573823D01*
X193437583Y-100764114D01*
X193373717Y-100862088D01*
X192889796Y-101604891D01*
X192889796Y-103942245D01*
X194056122Y-103942245D01*
X194056122Y-104953061D01*
X198125306Y-104953061D01*
X198125306Y-103890408D01*
X197632857Y-103890408D01*
X197626082Y-103921419D01*
X197597284Y-103936935D01*
X197533758Y-103942004D01*
X197502396Y-103942245D01*
X197371936Y-103942245D01*
X197502396Y-104114579D01*
X197562643Y-104198146D01*
X197608160Y-104268865D01*
X197631374Y-104314700D01*
X197632857Y-104321926D01*
X197619777Y-104339897D01*
X197575413Y-104350872D01*
X197492078Y-104356074D01*
X197412551Y-104356939D01*
X197305313Y-104355924D01*
X197239797Y-104351338D01*
X197205904Y-104340867D01*
X197193536Y-104322196D01*
X197192245Y-104306456D01*
X197200682Y-104275219D01*
X197234252Y-104257986D01*
X197305348Y-104249113D01*
X197320252Y-104248140D01*
X197426658Y-104241628D01*
X197140408Y-104241628D01*
X197118789Y-104319351D01*
X197061575Y-104366149D01*
X196980234Y-104372830D01*
X196977416Y-104372289D01*
X196898562Y-104360741D01*
X196839107Y-104356939D01*
X196804803Y-104353144D01*
X196786368Y-104333626D01*
X196778914Y-104286181D01*
X196777551Y-104203280D01*
X196784804Y-104090633D01*
X196811705Y-104019763D01*
X196865965Y-103982005D01*
X196955294Y-103968691D01*
X196964527Y-103968536D01*
X196673878Y-103968536D01*
X196673878Y-104512449D01*
X196609082Y-104512449D01*
X196566135Y-104506163D01*
X196547915Y-104477315D01*
X196544286Y-104416551D01*
X196540771Y-104356638D01*
X196527992Y-104341245D01*
X196513184Y-104351755D01*
X196452019Y-104380837D01*
X196382141Y-104370764D01*
X196325449Y-104325253D01*
X196296763Y-104253042D01*
X196286290Y-104159735D01*
X196294598Y-104069259D01*
X196318001Y-104010834D01*
X196367419Y-103974167D01*
X196375929Y-103972354D01*
X196181429Y-103972354D01*
X196181429Y-104242402D01*
X196180788Y-104363214D01*
X196177672Y-104441403D01*
X196170291Y-104486178D01*
X196156856Y-104506747D01*
X196135577Y-104512320D01*
X196128944Y-104512449D01*
X196085208Y-104494644D01*
X196061039Y-104435335D01*
X196060773Y-104434018D01*
X196042759Y-104379920D01*
X196012947Y-104367213D01*
X195996625Y-104370969D01*
X195920682Y-104372766D01*
X195857497Y-104334719D01*
X195812565Y-104268306D01*
X195798608Y-104213426D01*
X195735475Y-104213426D01*
X195695489Y-104298624D01*
X195677198Y-104319239D01*
X195591381Y-104371766D01*
X195481443Y-104380252D01*
X195410357Y-104366521D01*
X195364843Y-104337767D01*
X195352041Y-104306930D01*
X195362420Y-104279446D01*
X195401461Y-104266767D01*
X195472583Y-104264596D01*
X195555513Y-104258836D01*
X195600196Y-104240455D01*
X195604334Y-104233826D01*
X195594755Y-104214075D01*
X195544712Y-104203803D01*
X195470340Y-104201428D01*
X195325135Y-104201428D01*
X195342069Y-104130153D01*
X195382130Y-104034903D01*
X195449488Y-103982329D01*
X195535605Y-103968163D01*
X195629330Y-103989823D01*
X195697288Y-104046363D01*
X195734372Y-104125118D01*
X195735475Y-104213426D01*
X195798608Y-104213426D01*
X195791380Y-104185010D01*
X195799437Y-104096311D01*
X195832052Y-104027121D01*
X195863389Y-103994609D01*
X195909228Y-103977652D01*
X195985073Y-103971824D01*
X196026439Y-103971613D01*
X196181429Y-103972354D01*
X196375929Y-103972354D01*
X196402235Y-103966750D01*
X196460658Y-103967433D01*
X196541843Y-103967997D01*
X196563724Y-103968097D01*
X196673878Y-103968536D01*
X196964527Y-103968536D01*
X196986749Y-103968163D01*
X197064012Y-103971087D01*
X197102262Y-103983177D01*
X197114152Y-104009404D01*
X197114490Y-104018370D01*
X197106624Y-104051352D01*
X197073449Y-104059875D01*
X197027071Y-104054391D01*
X196959120Y-104051946D01*
X196925404Y-104065980D01*
X196931256Y-104087997D01*
X196982011Y-104109502D01*
X196991151Y-104111598D01*
X197081174Y-104140708D01*
X197128123Y-104183964D01*
X197140408Y-104241628D01*
X197426658Y-104241628D01*
X197448260Y-104240306D01*
X197333212Y-104086759D01*
X197259786Y-103984045D01*
X197248149Y-103962120D01*
X195248367Y-103962120D01*
X195248367Y-104159529D01*
X195247179Y-104259842D01*
X195241746Y-104319004D01*
X195229267Y-104347683D01*
X195206942Y-104356545D01*
X195196531Y-104356939D01*
X195161062Y-104347011D01*
X195146552Y-104308057D01*
X195144694Y-104264520D01*
X195131914Y-104161861D01*
X195095921Y-104095471D01*
X195040234Y-104071837D01*
X195040108Y-104071837D01*
X194999895Y-104055995D01*
X194989184Y-104007682D01*
X194995445Y-103962544D01*
X195024507Y-103957988D01*
X195048812Y-103966198D01*
X195121005Y-103978826D01*
X195178404Y-103975494D01*
X195248367Y-103962120D01*
X197248149Y-103962120D01*
X197222713Y-103914197D01*
X197224310Y-103870985D01*
X197266895Y-103848177D01*
X197352784Y-103839542D01*
X197425510Y-103838571D01*
X197528819Y-103839653D01*
X197590735Y-103844638D01*
X197621684Y-103856131D01*
X197632094Y-103876741D01*
X197632857Y-103890408D01*
X198125306Y-103890408D01*
X198125306Y-103193635D01*
X197606939Y-103193635D01*
X197606532Y-103310434D01*
X197603707Y-103384915D01*
X197596056Y-103426600D01*
X197581171Y-103445007D01*
X197556643Y-103449656D01*
X197542143Y-103449796D01*
X197498324Y-103443018D01*
X197480385Y-103412519D01*
X197477347Y-103359081D01*
X197471510Y-103296504D01*
X197448823Y-103271278D01*
X197425858Y-103268367D01*
X197375004Y-103293933D01*
X197336466Y-103359081D01*
X197300386Y-103423021D01*
X197255806Y-103447949D01*
X197232445Y-103449796D01*
X197187374Y-103446113D01*
X197171046Y-103428551D01*
X197183089Y-103387338D01*
X197223130Y-103312704D01*
X197226973Y-103305974D01*
X197262018Y-103237672D01*
X197269566Y-103196798D01*
X197265802Y-103190612D01*
X197088571Y-103190612D01*
X197088571Y-103449796D01*
X197023775Y-103449796D01*
X196982029Y-103444137D01*
X196963474Y-103417446D01*
X196959003Y-103355151D01*
X196958980Y-103346122D01*
X196958980Y-103242449D01*
X196855306Y-103242449D01*
X196788511Y-103238912D01*
X196758823Y-103222230D01*
X196751670Y-103183296D01*
X196751633Y-103177653D01*
X196751877Y-103175850D01*
X196622041Y-103175850D01*
X196622041Y-103449796D01*
X196490636Y-103449796D01*
X196362857Y-103449796D01*
X196222295Y-103449796D01*
X196126107Y-103443958D01*
X196057821Y-103421759D01*
X196001989Y-103382696D01*
X195949386Y-103328864D01*
X195926538Y-103270270D01*
X195922245Y-103200355D01*
X195938915Y-103077866D01*
X195989303Y-102994411D01*
X196073971Y-102949175D01*
X196099715Y-102943873D01*
X196191257Y-102929582D01*
X196278531Y-102916093D01*
X196278622Y-102916079D01*
X196362857Y-102903161D01*
X196362857Y-103449796D01*
X196490636Y-103449796D01*
X196498022Y-103184132D01*
X196501984Y-103064437D01*
X196507402Y-102986949D01*
X196516583Y-102942044D01*
X196531836Y-102920100D01*
X196555468Y-102911492D01*
X196563724Y-102910187D01*
X196589601Y-102908502D01*
X196606406Y-102918216D01*
X196616097Y-102948244D01*
X196620630Y-103007501D01*
X196621963Y-103104905D01*
X196622041Y-103175850D01*
X196751877Y-103175850D01*
X196757291Y-103135906D01*
X196783982Y-103117351D01*
X196846278Y-103112880D01*
X196855306Y-103112857D01*
X196927393Y-103106437D01*
X196957098Y-103085156D01*
X196958980Y-103073979D01*
X196941860Y-103046947D01*
X196885111Y-103035807D01*
X196855306Y-103035102D01*
X196788636Y-103031713D01*
X196758997Y-103015096D01*
X196751706Y-102975575D01*
X196751633Y-102966783D01*
X196754682Y-102925825D01*
X196772919Y-102908309D01*
X196819976Y-102908359D01*
X196871883Y-102914946D01*
X196955262Y-102924995D01*
X197023172Y-102930832D01*
X197040352Y-102931428D01*
X197062363Y-102935886D01*
X197076461Y-102955456D01*
X197084375Y-102999431D01*
X197087835Y-103077106D01*
X197088571Y-103190612D01*
X197265802Y-103190612D01*
X197252579Y-103168881D01*
X197225703Y-103116536D01*
X197219679Y-103046328D01*
X197234763Y-102984197D01*
X197250561Y-102964059D01*
X197305680Y-102940200D01*
X197389222Y-102923085D01*
X197477891Y-102915982D01*
X197548391Y-102922163D01*
X197548622Y-102922223D01*
X197575285Y-102932166D01*
X197592278Y-102951869D01*
X197601771Y-102991425D01*
X197605932Y-103060926D01*
X197606928Y-103170463D01*
X197606939Y-103193635D01*
X198125306Y-103193635D01*
X198125306Y-102638182D01*
X195559388Y-102638182D01*
X195536835Y-102641650D01*
X195472967Y-102625043D01*
X195373468Y-102590150D01*
X195245744Y-102539473D01*
X195128840Y-102491888D01*
X195030610Y-102453416D01*
X194960146Y-102427504D01*
X194926534Y-102417600D01*
X194925034Y-102417844D01*
X194929324Y-102444250D01*
X194945841Y-102511565D01*
X194972265Y-102610945D01*
X195006281Y-102733543D01*
X195025118Y-102799766D01*
X195067513Y-102945193D01*
X195100019Y-103048400D01*
X195126107Y-103117248D01*
X195149251Y-103159603D01*
X195172922Y-103183328D01*
X195200139Y-103196134D01*
X195268009Y-103218758D01*
X195186912Y-103450745D01*
X195151457Y-103550620D01*
X195122614Y-103628964D01*
X195104369Y-103675100D01*
X195100228Y-103682896D01*
X195084701Y-103662726D01*
X195047252Y-103608173D01*
X194994087Y-103528395D01*
X194951197Y-103462989D01*
X194891093Y-103369554D01*
X194843374Y-103293048D01*
X194814076Y-103243287D01*
X194807755Y-103229724D01*
X194829622Y-103219107D01*
X194861338Y-103216530D01*
X194899306Y-103207452D01*
X194900154Y-103170804D01*
X194896748Y-103159269D01*
X194881077Y-103105752D01*
X194856244Y-103016052D01*
X194824439Y-102898530D01*
X194787853Y-102761544D01*
X194748676Y-102613453D01*
X194709099Y-102462616D01*
X194671312Y-102317392D01*
X194637505Y-102186139D01*
X194609870Y-102077218D01*
X194590595Y-101998986D01*
X194581873Y-101959804D01*
X194581665Y-101956880D01*
X194606508Y-101963707D01*
X194670435Y-101986302D01*
X194764343Y-102021325D01*
X194879128Y-102065437D01*
X194904949Y-102075509D01*
X195022174Y-102120018D01*
X195119868Y-102154570D01*
X195189182Y-102176227D01*
X195221266Y-102182052D01*
X195222449Y-102180891D01*
X195212546Y-102152545D01*
X195184864Y-102083977D01*
X195142442Y-101982439D01*
X195088321Y-101855180D01*
X195025540Y-101709452D01*
X195003666Y-101659063D01*
X194784884Y-101156020D01*
X194954895Y-101148286D01*
X195043726Y-101146298D01*
X195110137Y-101148645D01*
X195138798Y-101154444D01*
X195149255Y-101182116D01*
X195171284Y-101252150D01*
X195202725Y-101356922D01*
X195241416Y-101488811D01*
X195285197Y-101640192D01*
X195331908Y-101803444D01*
X195379387Y-101970943D01*
X195425473Y-102135067D01*
X195468006Y-102288192D01*
X195504824Y-102422697D01*
X195533768Y-102530957D01*
X195552676Y-102605351D01*
X195559388Y-102638182D01*
X198125306Y-102638182D01*
X198125306Y-100832041D01*
X194056122Y-100832041D01*
X194056122Y-103475714D01*
X193330408Y-103475714D01*
X193330408Y-101749185D01*
X193881173Y-100901897D01*
X194431939Y-100054609D01*
X196524847Y-100054549D01*
X198617755Y-100054490D01*
X198617755Y-105471428D01*
X192682449Y-105471428D01*
X192682449Y-101596458D01*
X193385218Y-100514454D01*
X194087988Y-99432449D01*
X199265714Y-99432449D01*
X199265714Y-106119569D01*
X195669541Y-106112999D01*
X192073367Y-106106428D01*
X192068298Y-103747857D01*
X192063229Y-101389285D01*
X192900814Y-100106326D01*
X193738398Y-98823367D01*
X196813077Y-98816782D01*
X199887755Y-98810196D01*
X199887755Y-106741428D01*
X196123112Y-106741349D01*
X195676862Y-106741222D01*
X195239474Y-106740869D01*
X194814300Y-106740304D01*
X194404693Y-106739539D01*
X194014007Y-106738589D01*
X193645594Y-106737468D01*
X193302807Y-106736188D01*
X192989000Y-106734764D01*
X192707524Y-106733208D01*
X192461734Y-106731535D01*
X192254982Y-106729758D01*
X192090621Y-106727891D01*
X191972004Y-106725947D01*
X191911378Y-106724310D01*
X191464286Y-106707351D01*
X191464286Y-101169414D01*
X193421122Y-98154932D01*
X196957801Y-98172631D01*
X197381579Y-98174791D01*
X197790921Y-98176955D01*
X198182851Y-98179102D01*
X198554394Y-98181214D01*
X198902575Y-98183271D01*
X199224420Y-98185254D01*
X199516953Y-98187142D01*
X199777198Y-98188917D01*
X200002181Y-98190560D01*
X200188927Y-98192049D01*
X200334460Y-98193367D01*
X200435806Y-98194493D01*
X200489989Y-98195408D01*
X200498630Y-98195828D01*
X200499124Y-98221898D01*
X200499712Y-98297189D01*
X200500387Y-98419084D01*
X200501140Y-98584968D01*
X200501964Y-98792224D01*
X200502851Y-99038236D01*
X200503791Y-99320389D01*
X200504778Y-99636065D01*
X200505803Y-99982650D01*
X200506858Y-100357527D01*
X200507935Y-100758080D01*
X200509026Y-101181693D01*
X200510123Y-101625749D01*
X200511218Y-102087634D01*
X200512302Y-102564730D01*
X200512767Y-102775918D01*
X200522755Y-107350510D01*
X195760255Y-107357059D01*
X190997755Y-107363607D01*
X190997755Y-107804081D01*
X200976326Y-107804081D01*
X200976326Y-97721670D01*
X197069951Y-97728232D01*
%TD*%
D11*
%TO.C,R2*%
X179070000Y-79756000D03*
X179070000Y-77216000D03*
X179070000Y-74676000D03*
%TD*%
D12*
%TO.C,AE1*%
X168152000Y-106568000D03*
X168152000Y-117968000D03*
D13*
X207902000Y-110718000D03*
X207002000Y-112268000D03*
X205202000Y-112268000D03*
X206102000Y-110718000D03*
X169302000Y-112268000D03*
X170202000Y-113818000D03*
%TD*%
D14*
%TO.C,BT1*%
X203962000Y-80518000D03*
D15*
X203962000Y-85598000D03*
%TD*%
D16*
%TO.C,C1*%
X172466000Y-79676000D03*
X172466000Y-74676000D03*
%TD*%
D17*
%TO.C,C2*%
X162560000Y-94202000D03*
D18*
X162560000Y-92202000D03*
%TD*%
D19*
%TO.C,C3*%
X153670000Y-124594000D03*
D20*
X153670000Y-117094000D03*
%TD*%
D21*
%TO.C,D1*%
X162560000Y-59078000D03*
D22*
X165100000Y-42418000D03*
D23*
X162560000Y-42418000D03*
X160020000Y-42418000D03*
%TD*%
D24*
%TO.C,D2*%
X147574000Y-54864000D03*
D22*
X150114000Y-54864000D03*
%TD*%
D23*
%TO.C,D3*%
X145288000Y-93218000D03*
D22*
X155448000Y-93218000D03*
%TD*%
D12*
%TO.C,Q1*%
X177546000Y-86868000D03*
D25*
X180086000Y-86868000D03*
X178816000Y-85598000D03*
%TD*%
D23*
%TO.C,Q2*%
X173482000Y-42418000D03*
X176022000Y-42418000D03*
D22*
X178562000Y-42418000D03*
D21*
X176022000Y-59078000D03*
%TD*%
D12*
%TO.C,Q3*%
X177546000Y-67818000D03*
D25*
X180086000Y-67818000D03*
X178816000Y-66548000D03*
%TD*%
D23*
%TO.C,Q4*%
X186944000Y-42418000D03*
X189484000Y-42418000D03*
D22*
X192024000Y-42418000D03*
D21*
X189484000Y-59078000D03*
%TD*%
D26*
%TO.C,R1*%
X186944000Y-67818000D03*
D27*
X194564000Y-67818000D03*
%TD*%
%TO.C,R3*%
X194564000Y-86868000D03*
D26*
X186944000Y-86868000D03*
%TD*%
D27*
%TO.C,R4*%
X159512000Y-73406000D03*
D26*
X167132000Y-73406000D03*
%TD*%
D27*
%TO.C,R5*%
X167132000Y-81026000D03*
D26*
X159512000Y-81026000D03*
%TD*%
%TO.C,R6*%
X152908000Y-59436000D03*
D27*
X145288000Y-59436000D03*
%TD*%
D26*
%TO.C,R7*%
X145288000Y-67818000D03*
D27*
X152908000Y-67818000D03*
%TD*%
D26*
%TO.C,R8*%
X167132000Y-86868000D03*
D27*
X159512000Y-86868000D03*
%TD*%
%TO.C,R9*%
X145288000Y-86868000D03*
D26*
X152908000Y-86868000D03*
%TD*%
D27*
%TO.C,R10*%
X167132000Y-67818000D03*
D26*
X159512000Y-67818000D03*
%TD*%
D14*
%TO.C,SW_SPST1*%
X203962000Y-68326000D03*
D15*
X203962000Y-73406000D03*
%TD*%
%TO.C,SW_SPST2*%
X148844000Y-48514000D03*
D14*
X148844000Y-43434000D03*
%TD*%
D15*
%TO.C,SW_SPST3*%
X158242000Y-106172000D03*
D14*
X158242000Y-101092000D03*
%TD*%
D21*
%TO.C,U2*%
X202946000Y-59078000D03*
D22*
X205486000Y-42418000D03*
D23*
X202946000Y-42418000D03*
X200406000Y-42418000D03*
%TD*%
D28*
%TO.C,L1*%
X150368000Y-103632000D03*
X145288000Y-103632000D03*
%TD*%
D29*
%TO.C,U3*%
X145288000Y-73406000D03*
X152908000Y-81026000D03*
X147828000Y-73406000D03*
X150368000Y-81026000D03*
X150368000Y-73406000D03*
X147828000Y-81026000D03*
X152908000Y-73406000D03*
D30*
X145288000Y-81026000D03*
%TD*%
D29*
%TO.C,U1*%
X186690000Y-73406000D03*
X194310000Y-81026000D03*
X189230000Y-73406000D03*
X191770000Y-81026000D03*
X191770000Y-73406000D03*
X189230000Y-81026000D03*
X194310000Y-73406000D03*
D30*
X186690000Y-81026000D03*
%TD*%
M02*
