%TF.GenerationSoftware,KiCad,Pcbnew,no-vcs-found-e2505cb~60~ubuntu14.04.1*%
%TF.CreationDate,2017-09-17T03:07:11-03:00*%
%TF.ProjectId,RFIDZapper,524649445A61707065722E6B69636164,rev?*%
%TF.SameCoordinates,Original*%
%TF.FileFunction,Soldermask,Top*%
%TF.FilePolarity,Negative*%
%FSLAX46Y46*%
G04 Gerber Fmt 4.6, Leading zero omitted, Abs format (unit mm)*
G04 Created by KiCad (PCBNEW no-vcs-found-e2505cb~60~ubuntu14.04.1) date Sun Sep 17 03:07:11 2017*
%MOMM*%
%LPD*%
G01*
G04 APERTURE LIST*
%ADD10C,1.440000*%
%ADD11C,0.700000*%
%ADD12R,3.000000X3.000000*%
%ADD13C,3.000000*%
%ADD14C,1.600000*%
%ADD15C,1.200000*%
%ADD16R,1.200000X1.200000*%
%ADD17C,2.400000*%
%ADD18R,2.400000X2.400000*%
%ADD19O,3.500000X3.500000*%
%ADD20R,1.800000X1.800000*%
%ADD21O,1.800000X1.800000*%
%ADD22C,1.800000*%
%ADD23R,1.000000X1.000000*%
%ADD24C,1.000000*%
%ADD25C,1.400000*%
%ADD26O,1.400000X1.400000*%
%ADD27C,1.998980*%
%ADD28O,1.600000X2.400000*%
%ADD29R,1.600000X2.400000*%
G04 APERTURE END LIST*
D10*
%TO.C,R2*%
X179070000Y-79756000D03*
X179070000Y-77216000D03*
X179070000Y-74676000D03*
%TD*%
D11*
%TO.C,AE1*%
X207902000Y-110718000D03*
X207002000Y-112268000D03*
X205202000Y-112268000D03*
X206102000Y-110718000D03*
X169302000Y-112268000D03*
X170202000Y-113818000D03*
%TD*%
D12*
%TO.C,BT1*%
X203962000Y-80518000D03*
D13*
X203962000Y-85598000D03*
%TD*%
D14*
%TO.C,C1*%
X172466000Y-79676000D03*
X172466000Y-74676000D03*
%TD*%
D15*
%TO.C,C2*%
X162560000Y-94202000D03*
D16*
X162560000Y-92202000D03*
%TD*%
D17*
%TO.C,C3*%
X153670000Y-124594000D03*
D18*
X153670000Y-117094000D03*
%TD*%
D19*
%TO.C,D1*%
X162560000Y-59078000D03*
D20*
X165100000Y-42418000D03*
D21*
X162560000Y-42418000D03*
X160020000Y-42418000D03*
%TD*%
D22*
%TO.C,D2*%
X147574000Y-54864000D03*
D20*
X150114000Y-54864000D03*
%TD*%
D21*
%TO.C,D3*%
X145288000Y-93218000D03*
D20*
X155448000Y-93218000D03*
%TD*%
D23*
%TO.C,Q1*%
X177546000Y-86868000D03*
D24*
X180086000Y-86868000D03*
X178816000Y-85598000D03*
%TD*%
D21*
%TO.C,Q2*%
X173482000Y-42418000D03*
X176022000Y-42418000D03*
D20*
X178562000Y-42418000D03*
D19*
X176022000Y-59078000D03*
%TD*%
D23*
%TO.C,Q3*%
X177546000Y-67818000D03*
D24*
X180086000Y-67818000D03*
X178816000Y-66548000D03*
%TD*%
D21*
%TO.C,Q4*%
X186944000Y-42418000D03*
X189484000Y-42418000D03*
D20*
X192024000Y-42418000D03*
D19*
X189484000Y-59078000D03*
%TD*%
D25*
%TO.C,R1*%
X186944000Y-67818000D03*
D26*
X194564000Y-67818000D03*
%TD*%
%TO.C,R3*%
X194564000Y-86868000D03*
D25*
X186944000Y-86868000D03*
%TD*%
D26*
%TO.C,R4*%
X159512000Y-73406000D03*
D25*
X167132000Y-73406000D03*
%TD*%
D26*
%TO.C,R5*%
X167132000Y-81026000D03*
D25*
X159512000Y-81026000D03*
%TD*%
%TO.C,R6*%
X152908000Y-59436000D03*
D26*
X145288000Y-59436000D03*
%TD*%
D25*
%TO.C,R7*%
X145288000Y-67818000D03*
D26*
X152908000Y-67818000D03*
%TD*%
D25*
%TO.C,R8*%
X167132000Y-86868000D03*
D26*
X159512000Y-86868000D03*
%TD*%
%TO.C,R9*%
X145288000Y-86868000D03*
D25*
X152908000Y-86868000D03*
%TD*%
D26*
%TO.C,R10*%
X167132000Y-67818000D03*
D25*
X159512000Y-67818000D03*
%TD*%
D12*
%TO.C,SW_SPST1*%
X203962000Y-68326000D03*
D13*
X203962000Y-73406000D03*
%TD*%
%TO.C,SW_SPST2*%
X148844000Y-48514000D03*
D12*
X148844000Y-43434000D03*
%TD*%
D13*
%TO.C,SW_SPST3*%
X158242000Y-106172000D03*
D12*
X158242000Y-101092000D03*
%TD*%
D19*
%TO.C,U2*%
X202946000Y-59078000D03*
D20*
X205486000Y-42418000D03*
D21*
X202946000Y-42418000D03*
X200406000Y-42418000D03*
%TD*%
D27*
%TO.C,L1*%
X150368000Y-103632000D03*
X145288000Y-103632000D03*
%TD*%
D28*
%TO.C,U3*%
X145288000Y-73406000D03*
X152908000Y-81026000D03*
X147828000Y-73406000D03*
X150368000Y-81026000D03*
X150368000Y-73406000D03*
X147828000Y-81026000D03*
X152908000Y-73406000D03*
D29*
X145288000Y-81026000D03*
%TD*%
D28*
%TO.C,U1*%
X186690000Y-73406000D03*
X194310000Y-81026000D03*
X189230000Y-73406000D03*
X191770000Y-81026000D03*
X191770000Y-73406000D03*
X189230000Y-81026000D03*
X194310000Y-73406000D03*
D29*
X186690000Y-81026000D03*
%TD*%
M02*
