M48
;DRILL file {KiCad no-vcs-found-e2505cb~60~ubuntu14.04.1} date Sun Sep 17 03:07:18 2017
;FORMAT={-:-/ absolute / inch / decimal}
FMAT,2
INCH,TZ
T1C0.014
T2C0.024
T3C0.028
T4C0.031
T5C0.035
T6C0.039
T7C0.039
T8C0.047
T9C0.060
%
G90
G05
M72
T1
X6.6654Y-4.42
X6.7009Y-4.481
X8.0788Y-4.42
X8.1143Y-4.359
X8.1497Y-4.42
X8.1851Y-4.359
T2
X6.99Y-2.67
X7.04Y-2.62
X7.09Y-2.67
X6.99Y-3.42
X7.04Y-3.37
X7.09Y-3.42
X6.4Y-3.63
X6.4Y-3.7087
T3
X7.36Y-3.42
X7.66Y-3.42
X5.72Y-3.42
X6.02Y-3.42
X6.28Y-3.19
X6.58Y-3.19
X6.28Y-3.42
X6.58Y-3.42
X6.28Y-2.89
X6.58Y-2.89
X7.36Y-2.67
X7.66Y-2.67
X5.72Y-2.34
X6.02Y-2.34
X6.28Y-2.67
X6.58Y-2.67
X5.72Y-2.67
X6.02Y-2.67
T4
X5.72Y-2.89
X5.72Y-3.19
X5.82Y-2.89
X5.82Y-3.19
X5.92Y-2.89
X5.92Y-3.19
X6.02Y-2.89
X6.02Y-3.19
X6.79Y-2.94
X6.79Y-3.1369
X7.35Y-2.89
X7.35Y-3.19
X7.45Y-2.89
X7.45Y-3.19
X7.55Y-2.89
X7.55Y-3.19
X7.65Y-2.89
X7.65Y-3.19
X7.05Y-2.94
X7.05Y-3.04
X7.05Y-3.14
T5
X5.72Y-3.67
X6.12Y-3.67
X5.81Y-2.16
X5.91Y-2.16
T6
X6.83Y-1.67
X6.93Y-1.67
X7.03Y-1.67
X7.89Y-1.67
X7.99Y-1.67
X8.09Y-1.67
X6.3Y-1.67
X6.4Y-1.67
X6.5Y-1.67
X7.36Y-1.67
X7.46Y-1.67
X7.56Y-1.67
T7
X5.72Y-4.08
X5.92Y-4.08
T8
X6.05Y-4.61
X6.05Y-4.9053
T9
X6.23Y-3.98
X6.23Y-4.18
X8.03Y-3.17
X8.03Y-3.37
X8.03Y-2.69
X8.03Y-2.89
X5.86Y-1.71
X5.86Y-1.91
T0
M30
