%TF.GenerationSoftware,KiCad,Pcbnew,no-vcs-found-e2505cb~60~ubuntu14.04.1*%
%TF.CreationDate,2017-09-17T03:07:11-03:00*%
%TF.ProjectId,RFIDZapper,524649445A61707065722E6B69636164,rev?*%
%TF.SameCoordinates,Original*%
%TF.FileFunction,Copper,L2,Bot,Signal*%
%TF.FilePolarity,Positive*%
%FSLAX46Y46*%
G04 Gerber Fmt 4.6, Leading zero omitted, Abs format (unit mm)*
G04 Created by KiCad (PCBNEW no-vcs-found-e2505cb~60~ubuntu14.04.1) date Sun Sep 17 03:07:11 2017*
%MOMM*%
%LPD*%
G01*
G04 APERTURE LIST*
%TA.AperFunction,NonConductor*%
%ADD10C,0.300000*%
%TD*%
%TA.AperFunction,EtchedComponent*%
%ADD11C,0.500000*%
%TD*%
%TA.AperFunction,ComponentPad*%
%ADD12C,1.440000*%
%TD*%
%TA.AperFunction,SMDPad,CuDef*%
%ADD13R,1.000000X1.000000*%
%TD*%
%TA.AperFunction,ComponentPad*%
%ADD14C,0.700000*%
%TD*%
%TA.AperFunction,ComponentPad*%
%ADD15R,3.000000X3.000000*%
%TD*%
%TA.AperFunction,ComponentPad*%
%ADD16C,3.000000*%
%TD*%
%TA.AperFunction,ComponentPad*%
%ADD17C,1.600000*%
%TD*%
%TA.AperFunction,ComponentPad*%
%ADD18C,1.200000*%
%TD*%
%TA.AperFunction,ComponentPad*%
%ADD19R,1.200000X1.200000*%
%TD*%
%TA.AperFunction,ComponentPad*%
%ADD20C,2.400000*%
%TD*%
%TA.AperFunction,ComponentPad*%
%ADD21R,2.400000X2.400000*%
%TD*%
%TA.AperFunction,ComponentPad*%
%ADD22R,1.800000X1.800000*%
%TD*%
%TA.AperFunction,ComponentPad*%
%ADD23O,1.800000X1.800000*%
%TD*%
%TA.AperFunction,ComponentPad*%
%ADD24C,1.800000*%
%TD*%
%TA.AperFunction,ComponentPad*%
%ADD25R,1.000000X1.000000*%
%TD*%
%TA.AperFunction,ComponentPad*%
%ADD26C,1.000000*%
%TD*%
%TA.AperFunction,ComponentPad*%
%ADD27C,1.400000*%
%TD*%
%TA.AperFunction,ComponentPad*%
%ADD28O,1.400000X1.400000*%
%TD*%
%TA.AperFunction,ComponentPad*%
%ADD29C,1.998980*%
%TD*%
%TA.AperFunction,ComponentPad*%
%ADD30O,1.600000X2.400000*%
%TD*%
%TA.AperFunction,ComponentPad*%
%ADD31R,1.600000X2.400000*%
%TD*%
%TA.AperFunction,Conductor*%
%ADD32C,1.000000*%
%TD*%
%TA.AperFunction,Conductor*%
%ADD33C,0.254000*%
%TD*%
%TA.AperFunction,NonConductor*%
%ADD34C,0.254000*%
%TD*%
G04 APERTURE END LIST*
D10*
X199464285Y-127178571D02*
X199464285Y-125678571D01*
X198821428Y-127178571D02*
X198821428Y-126392857D01*
X198892857Y-126250000D01*
X199035714Y-126178571D01*
X199250000Y-126178571D01*
X199392857Y-126250000D01*
X199464285Y-126321428D01*
X198321428Y-126178571D02*
X197750000Y-126178571D01*
X198107142Y-125678571D02*
X198107142Y-126964285D01*
X198035714Y-127107142D01*
X197892857Y-127178571D01*
X197750000Y-127178571D01*
X197464285Y-126178571D02*
X196892857Y-126178571D01*
X197250000Y-125678571D02*
X197250000Y-126964285D01*
X197178571Y-127107142D01*
X197035714Y-127178571D01*
X196892857Y-127178571D01*
X196392857Y-126178571D02*
X196392857Y-127678571D01*
X196392857Y-126250000D02*
X196250000Y-126178571D01*
X195964285Y-126178571D01*
X195821428Y-126250000D01*
X195750000Y-126321428D01*
X195678571Y-126464285D01*
X195678571Y-126892857D01*
X195750000Y-127035714D01*
X195821428Y-127107142D01*
X195964285Y-127178571D01*
X196250000Y-127178571D01*
X196392857Y-127107142D01*
X195035714Y-127035714D02*
X194964285Y-127107142D01*
X195035714Y-127178571D01*
X195107142Y-127107142D01*
X195035714Y-127035714D01*
X195035714Y-127178571D01*
X195035714Y-126250000D02*
X194964285Y-126321428D01*
X195035714Y-126392857D01*
X195107142Y-126321428D01*
X195035714Y-126250000D01*
X195035714Y-126392857D01*
X193250000Y-125607142D02*
X194535714Y-127535714D01*
X191678571Y-125607142D02*
X192964285Y-127535714D01*
X190535714Y-126178571D02*
X190535714Y-127392857D01*
X190607142Y-127535714D01*
X190678571Y-127607142D01*
X190821428Y-127678571D01*
X191035714Y-127678571D01*
X191178571Y-127607142D01*
X190535714Y-127107142D02*
X190678571Y-127178571D01*
X190964285Y-127178571D01*
X191107142Y-127107142D01*
X191178571Y-127035714D01*
X191250000Y-126892857D01*
X191250000Y-126464285D01*
X191178571Y-126321428D01*
X191107142Y-126250000D01*
X190964285Y-126178571D01*
X190678571Y-126178571D01*
X190535714Y-126250000D01*
X189821428Y-127178571D02*
X189821428Y-126178571D01*
X189821428Y-125678571D02*
X189892857Y-125750000D01*
X189821428Y-125821428D01*
X189750000Y-125750000D01*
X189821428Y-125678571D01*
X189821428Y-125821428D01*
X189321428Y-126178571D02*
X188750000Y-126178571D01*
X189107142Y-125678571D02*
X189107142Y-126964285D01*
X189035714Y-127107142D01*
X188892857Y-127178571D01*
X188750000Y-127178571D01*
X188250000Y-127035714D02*
X188178571Y-127107142D01*
X188250000Y-127178571D01*
X188321428Y-127107142D01*
X188250000Y-127035714D01*
X188250000Y-127178571D01*
X187535714Y-127178571D02*
X187535714Y-126178571D01*
X187535714Y-125678571D02*
X187607142Y-125750000D01*
X187535714Y-125821428D01*
X187464285Y-125750000D01*
X187535714Y-125678571D01*
X187535714Y-125821428D01*
X186607142Y-127178571D02*
X186750000Y-127107142D01*
X186821428Y-127035714D01*
X186892857Y-126892857D01*
X186892857Y-126464285D01*
X186821428Y-126321428D01*
X186750000Y-126250000D01*
X186607142Y-126178571D01*
X186392857Y-126178571D01*
X186250000Y-126250000D01*
X186178571Y-126321428D01*
X186107142Y-126464285D01*
X186107142Y-126892857D01*
X186178571Y-127035714D01*
X186250000Y-127107142D01*
X186392857Y-127178571D01*
X186607142Y-127178571D01*
X184392857Y-125607142D02*
X185678571Y-127535714D01*
X184035714Y-126178571D02*
X183678571Y-127178571D01*
X183321428Y-126178571D01*
X182035714Y-125678571D02*
X182750000Y-125678571D01*
X182821428Y-126392857D01*
X182750000Y-126321428D01*
X182607142Y-126250000D01*
X182250000Y-126250000D01*
X182107142Y-126321428D01*
X182035714Y-126392857D01*
X181964285Y-126535714D01*
X181964285Y-126892857D01*
X182035714Y-127035714D01*
X182107142Y-127107142D01*
X182250000Y-127178571D01*
X182607142Y-127178571D01*
X182750000Y-127107142D01*
X182821428Y-127035714D01*
X181321428Y-127178571D02*
X181321428Y-125678571D01*
X180964285Y-125678571D01*
X180750000Y-125750000D01*
X180607142Y-125892857D01*
X180535714Y-126035714D01*
X180464285Y-126321428D01*
X180464285Y-126535714D01*
X180535714Y-126821428D01*
X180607142Y-126964285D01*
X180750000Y-127107142D01*
X180964285Y-127178571D01*
X181321428Y-127178571D01*
X179392857Y-125678571D02*
X179392857Y-126750000D01*
X179464285Y-126964285D01*
X179607142Y-127107142D01*
X179821428Y-127178571D01*
X179964285Y-127178571D01*
X178678571Y-127178571D02*
X178678571Y-125678571D01*
X178678571Y-126250000D02*
X178535714Y-126178571D01*
X178250000Y-126178571D01*
X178107142Y-126250000D01*
X178035714Y-126321428D01*
X177964285Y-126464285D01*
X177964285Y-126892857D01*
X178035714Y-127035714D01*
X178107142Y-127107142D01*
X178250000Y-127178571D01*
X178535714Y-127178571D01*
X178678571Y-127107142D01*
X198214285Y-111785714D02*
X198285714Y-111857142D01*
X198500000Y-111928571D01*
X198642857Y-111928571D01*
X198857142Y-111857142D01*
X199000000Y-111714285D01*
X199071428Y-111571428D01*
X199142857Y-111285714D01*
X199142857Y-111071428D01*
X199071428Y-110785714D01*
X199000000Y-110642857D01*
X198857142Y-110500000D01*
X198642857Y-110428571D01*
X198500000Y-110428571D01*
X198285714Y-110500000D01*
X198214285Y-110571428D01*
X197571428Y-111142857D02*
X197071428Y-111142857D01*
X196857142Y-111928571D02*
X197571428Y-111928571D01*
X197571428Y-110428571D01*
X196857142Y-110428571D01*
X195357142Y-111928571D02*
X195857142Y-111214285D01*
X196214285Y-111928571D02*
X196214285Y-110428571D01*
X195642857Y-110428571D01*
X195500000Y-110500000D01*
X195428571Y-110571428D01*
X195357142Y-110714285D01*
X195357142Y-110928571D01*
X195428571Y-111071428D01*
X195500000Y-111142857D01*
X195642857Y-111214285D01*
X196214285Y-111214285D01*
X194714285Y-111928571D02*
X194714285Y-110428571D01*
X193857142Y-111928571D01*
X193857142Y-110428571D01*
X191285714Y-111928571D02*
X192000000Y-111928571D01*
X192000000Y-110428571D01*
X190785714Y-111928571D02*
X190785714Y-110928571D01*
X190785714Y-110428571D02*
X190857142Y-110500000D01*
X190785714Y-110571428D01*
X190714285Y-110500000D01*
X190785714Y-110428571D01*
X190785714Y-110571428D01*
X189428571Y-111857142D02*
X189571428Y-111928571D01*
X189857142Y-111928571D01*
X190000000Y-111857142D01*
X190071428Y-111785714D01*
X190142857Y-111642857D01*
X190142857Y-111214285D01*
X190071428Y-111071428D01*
X190000000Y-111000000D01*
X189857142Y-110928571D01*
X189571428Y-110928571D01*
X189428571Y-111000000D01*
X188214285Y-111857142D02*
X188357142Y-111928571D01*
X188642857Y-111928571D01*
X188785714Y-111857142D01*
X188857142Y-111714285D01*
X188857142Y-111142857D01*
X188785714Y-111000000D01*
X188642857Y-110928571D01*
X188357142Y-110928571D01*
X188214285Y-111000000D01*
X188142857Y-111142857D01*
X188142857Y-111285714D01*
X188857142Y-111428571D01*
X187500000Y-110928571D02*
X187500000Y-111928571D01*
X187500000Y-111071428D02*
X187428571Y-111000000D01*
X187285714Y-110928571D01*
X187071428Y-110928571D01*
X186928571Y-111000000D01*
X186857142Y-111142857D01*
X186857142Y-111928571D01*
X185500000Y-111857142D02*
X185642857Y-111928571D01*
X185928571Y-111928571D01*
X186071428Y-111857142D01*
X186142857Y-111785714D01*
X186214285Y-111642857D01*
X186214285Y-111214285D01*
X186142857Y-111071428D01*
X186071428Y-111000000D01*
X185928571Y-110928571D01*
X185642857Y-110928571D01*
X185500000Y-111000000D01*
X184285714Y-111857142D02*
X184428571Y-111928571D01*
X184714285Y-111928571D01*
X184857142Y-111857142D01*
X184928571Y-111714285D01*
X184928571Y-111142857D01*
X184857142Y-111000000D01*
X184714285Y-110928571D01*
X184428571Y-110928571D01*
X184285714Y-111000000D01*
X184214285Y-111142857D01*
X184214285Y-111285714D01*
X184928571Y-111428571D01*
X182571428Y-110928571D02*
X182214285Y-111928571D01*
X181857142Y-110928571D01*
X180500000Y-111928571D02*
X181357142Y-111928571D01*
X180928571Y-111928571D02*
X180928571Y-110428571D01*
X181071428Y-110642857D01*
X181214285Y-110785714D01*
X181357142Y-110857142D01*
X179857142Y-111785714D02*
X179785714Y-111857142D01*
X179857142Y-111928571D01*
X179928571Y-111857142D01*
X179857142Y-111785714D01*
X179857142Y-111928571D01*
X179214285Y-110571428D02*
X179142857Y-110500000D01*
X179000000Y-110428571D01*
X178642857Y-110428571D01*
X178500000Y-110500000D01*
X178428571Y-110571428D01*
X178357142Y-110714285D01*
X178357142Y-110857142D01*
X178428571Y-111071428D01*
X179285714Y-111928571D01*
X178357142Y-111928571D01*
D11*
%TO.C,AE1*%
X169302000Y-113468000D02*
X170202000Y-112618000D01*
X207002000Y-111068000D02*
X207902000Y-111918000D01*
X205202000Y-111068000D02*
X206102000Y-111918000D01*
X169302000Y-113468000D02*
X169302000Y-131268000D01*
X170202000Y-94018000D02*
X170202000Y-112618000D01*
X170202000Y-130518000D02*
X170202000Y-113818000D01*
X171102000Y-94768000D02*
X171102000Y-129768000D01*
X169302000Y-93268000D02*
X169302000Y-112268000D01*
X205202000Y-129768000D02*
X205202000Y-112268000D01*
X206102000Y-130518000D02*
X206102000Y-111918000D01*
X207002000Y-131268000D02*
X207002000Y-112268000D01*
X171102000Y-129768000D02*
X205202000Y-129768000D01*
X170202000Y-130518000D02*
X206102000Y-130518000D01*
X207002000Y-131268000D02*
X169302000Y-131268000D01*
X171102000Y-94768000D02*
X205202000Y-94768000D01*
X170202000Y-94018000D02*
X206102000Y-94018000D01*
X205202000Y-94768000D02*
X205202000Y-111068000D01*
X206102000Y-94018000D02*
X206102000Y-110718000D01*
X207002000Y-93268000D02*
X169302000Y-93268000D01*
X207002000Y-93268000D02*
X207002000Y-111068000D01*
X207902000Y-92518000D02*
X207902000Y-110718000D01*
X207902000Y-132018000D02*
X207902000Y-111918000D01*
X168402000Y-92518000D02*
X207902000Y-92518000D01*
X168402000Y-132018000D02*
X207902000Y-132018000D01*
X168402000Y-117968000D02*
X168402000Y-132018000D01*
X168402000Y-106568000D02*
X168402000Y-92518000D01*
%TD*%
D12*
%TO.P,R2,1*%
%TO.N,/THR*%
X179070000Y-79756000D03*
%TO.P,R2,2*%
X179070000Y-77216000D03*
%TO.P,R2,3*%
%TO.N,/DIS*%
X179070000Y-74676000D03*
%TD*%
D13*
%TO.P,AE1,1*%
%TO.N,Net-(AE1-Pad1)*%
X168152000Y-106568000D03*
%TO.P,AE1,2*%
%TO.N,GNDPWR*%
X168152000Y-117968000D03*
D14*
%TO.P,AE1,*%
%TO.N,*%
X207902000Y-110718000D03*
X207002000Y-112268000D03*
X205202000Y-112268000D03*
X206102000Y-110718000D03*
X169302000Y-112268000D03*
X170202000Y-113818000D03*
%TD*%
D15*
%TO.P,BT1,1*%
%TO.N,/VCC*%
X203962000Y-80518000D03*
D16*
%TO.P,BT1,2*%
%TO.N,GNDPWR*%
X203962000Y-85598000D03*
%TD*%
D17*
%TO.P,C1,2*%
%TO.N,GNDPWR*%
X172466000Y-79676000D03*
%TO.P,C1,1*%
%TO.N,/THR*%
X172466000Y-74676000D03*
%TD*%
D18*
%TO.P,C2,2*%
%TO.N,GNDPWR*%
X162560000Y-94202000D03*
D19*
%TO.P,C2,1*%
%TO.N,Net-(C2-Pad1)*%
X162560000Y-92202000D03*
%TD*%
D20*
%TO.P,C3,2*%
%TO.N,GNDPWR*%
X153670000Y-124594000D03*
D21*
%TO.P,C3,1*%
%TO.N,Net-(C3-Pad1)*%
X153670000Y-117094000D03*
%TD*%
D22*
%TO.P,D1,1*%
%TO.N,Net-(D1-Pad1)*%
X165100000Y-42418000D03*
D23*
%TO.P,D1,2*%
%TO.N,C*%
X162560000Y-42418000D03*
%TO.P,D1,3*%
%TO.N,Net-(D1-Pad3)*%
X160020000Y-42418000D03*
%TD*%
D24*
%TO.P,D2,2*%
%TO.N,Net-(D2-Pad2)*%
X147574000Y-54864000D03*
D22*
%TO.P,D2,1*%
%TO.N,GNDPWR*%
X150114000Y-54864000D03*
%TD*%
D23*
%TO.P,D3,2*%
%TO.N,Net-(D3-Pad2)*%
X145288000Y-93218000D03*
D22*
%TO.P,D3,1*%
%TO.N,Net-(C3-Pad1)*%
X155448000Y-93218000D03*
%TD*%
D25*
%TO.P,Q1,1*%
%TO.N,A*%
X177546000Y-86868000D03*
D26*
%TO.P,Q1,3*%
%TO.N,GNDPWR*%
X180086000Y-86868000D03*
%TO.P,Q1,2*%
%TO.N,Net-(Q1-Pad2)*%
X178816000Y-85598000D03*
%TD*%
D23*
%TO.P,Q2,3*%
%TO.N,GNDPWR*%
X173482000Y-42418000D03*
%TO.P,Q2,2*%
%TO.N,Net-(D3-Pad2)*%
X176022000Y-42418000D03*
D22*
%TO.P,Q2,1*%
%TO.N,A*%
X178562000Y-42418000D03*
%TD*%
D25*
%TO.P,Q3,1*%
%TO.N,Net-(Q3-Pad1)*%
X177546000Y-67818000D03*
D26*
%TO.P,Q3,3*%
%TO.N,GNDPWR*%
X180086000Y-67818000D03*
%TO.P,Q3,2*%
%TO.N,Net-(Q3-Pad2)*%
X178816000Y-66548000D03*
%TD*%
D23*
%TO.P,Q4,3*%
%TO.N,/VDD*%
X186944000Y-42418000D03*
%TO.P,Q4,2*%
%TO.N,C*%
X189484000Y-42418000D03*
D22*
%TO.P,Q4,1*%
%TO.N,Net-(Q3-Pad1)*%
X192024000Y-42418000D03*
%TD*%
D27*
%TO.P,R1,1*%
%TO.N,/VDD*%
X186944000Y-67818000D03*
D28*
%TO.P,R1,2*%
%TO.N,/DIS*%
X194564000Y-67818000D03*
%TD*%
%TO.P,R3,2*%
%TO.N,Q*%
X194564000Y-86868000D03*
D27*
%TO.P,R3,1*%
%TO.N,Net-(Q1-Pad2)*%
X186944000Y-86868000D03*
%TD*%
D28*
%TO.P,R4,2*%
%TO.N,A*%
X159512000Y-73406000D03*
D27*
%TO.P,R4,1*%
%TO.N,/VDD*%
X167132000Y-73406000D03*
%TD*%
D28*
%TO.P,R5,2*%
%TO.N,GNDPWR*%
X167132000Y-81026000D03*
D27*
%TO.P,R5,1*%
%TO.N,Net-(C2-Pad1)*%
X159512000Y-81026000D03*
%TD*%
%TO.P,R6,1*%
%TO.N,Net-(D1-Pad1)*%
X152908000Y-59436000D03*
D28*
%TO.P,R6,2*%
%TO.N,Net-(D2-Pad2)*%
X145288000Y-59436000D03*
%TD*%
D27*
%TO.P,R7,1*%
%TO.N,/VDD*%
X145288000Y-67818000D03*
D28*
%TO.P,R7,2*%
%TO.N,Net-(Q3-Pad2)*%
X152908000Y-67818000D03*
%TD*%
D27*
%TO.P,R8,1*%
%TO.N,Net-(C3-Pad1)*%
X167132000Y-86868000D03*
D28*
%TO.P,R8,2*%
%TO.N,B*%
X159512000Y-86868000D03*
%TD*%
%TO.P,R9,2*%
%TO.N,GNDPWR*%
X145288000Y-86868000D03*
D27*
%TO.P,R9,1*%
%TO.N,B*%
X152908000Y-86868000D03*
%TD*%
D28*
%TO.P,R10,2*%
%TO.N,Net-(Q3-Pad1)*%
X167132000Y-67818000D03*
D27*
%TO.P,R10,1*%
%TO.N,/VDD*%
X159512000Y-67818000D03*
%TD*%
D15*
%TO.P,SW_SPST1,1*%
%TO.N,/VCC*%
X203962000Y-68326000D03*
D16*
%TO.P,SW_SPST1,2*%
%TO.N,/VDD*%
X203962000Y-73406000D03*
%TD*%
%TO.P,SW_SPST2,2*%
%TO.N,Net-(D1-Pad3)*%
X148844000Y-48514000D03*
D15*
%TO.P,SW_SPST2,1*%
%TO.N,GNDPWR*%
X148844000Y-43434000D03*
%TD*%
D16*
%TO.P,SW_SPST3,2*%
%TO.N,Net-(AE1-Pad1)*%
X158242000Y-106172000D03*
D15*
%TO.P,SW_SPST3,1*%
%TO.N,Net-(C3-Pad1)*%
X158242000Y-101092000D03*
%TD*%
D22*
%TO.P,U2,1*%
%TO.N,/VDD*%
X205486000Y-42418000D03*
D23*
%TO.P,U2,2*%
%TO.N,GNDPWR*%
X202946000Y-42418000D03*
%TO.P,U2,3*%
%TO.N,Net-(C2-Pad1)*%
X200406000Y-42418000D03*
%TD*%
D29*
%TO.P,L1,2*%
%TO.N,Net-(D3-Pad2)*%
X150368000Y-103632000D03*
%TO.P,L1,1*%
%TO.N,Net-(D1-Pad1)*%
X145288000Y-103632000D03*
%TD*%
D30*
%TO.P,U3,8*%
%TO.N,Net-(U3-Pad8)*%
X145288000Y-73406000D03*
%TO.P,U3,4*%
%TO.N,GNDPWR*%
X152908000Y-81026000D03*
%TO.P,U3,7*%
%TO.N,/VDD*%
X147828000Y-73406000D03*
%TO.P,U3,3*%
%TO.N,Net-(C2-Pad1)*%
X150368000Y-81026000D03*
%TO.P,U3,6*%
%TO.N,Net-(Q3-Pad2)*%
X150368000Y-73406000D03*
%TO.P,U3,2*%
%TO.N,B*%
X147828000Y-81026000D03*
%TO.P,U3,5*%
%TO.N,Net-(U3-Pad5)*%
X152908000Y-73406000D03*
D31*
%TO.P,U3,1*%
%TO.N,Net-(U3-Pad1)*%
X145288000Y-81026000D03*
%TD*%
D30*
%TO.P,U1,8*%
%TO.N,/VDD*%
X186690000Y-73406000D03*
%TO.P,U1,4*%
X194310000Y-81026000D03*
%TO.P,U1,7*%
%TO.N,/DIS*%
X189230000Y-73406000D03*
%TO.P,U1,3*%
%TO.N,Q*%
X191770000Y-81026000D03*
%TO.P,U1,6*%
%TO.N,/THR*%
X191770000Y-73406000D03*
%TO.P,U1,2*%
X189230000Y-81026000D03*
%TO.P,U1,5*%
%TO.N,Net-(U1-Pad5)*%
X194310000Y-73406000D03*
D31*
%TO.P,U1,1*%
%TO.N,GNDPWR*%
X186690000Y-81026000D03*
%TD*%
D32*
%TO.N,Net-(AE1-Pad1)*%
X168152000Y-106568000D02*
X158638000Y-106568000D01*
X158638000Y-106568000D02*
X158242000Y-106172000D01*
X158354000Y-106060000D02*
X158242000Y-106172000D01*
%TO.N,GNDPWR*%
X168152000Y-117968000D02*
X160296000Y-117968000D01*
X160296000Y-117968000D02*
X153670000Y-124594000D01*
%TO.N,Net-(C2-Pad1)*%
X162560000Y-92202000D02*
X162560000Y-91440000D01*
X163830000Y-90170000D02*
X166116000Y-90170000D01*
X162560000Y-91440000D02*
X163830000Y-90170000D01*
X171958000Y-90170000D02*
X166116000Y-90170000D01*
X175260000Y-90170000D02*
X171958000Y-90170000D01*
X200406000Y-42418000D02*
X200406000Y-39624000D01*
X207264000Y-90170000D02*
X204724000Y-90170000D01*
X209804000Y-87630000D02*
X207264000Y-90170000D01*
X209804000Y-39878000D02*
X209804000Y-87630000D01*
X208026000Y-38100000D02*
X209804000Y-39878000D01*
X201930000Y-38100000D02*
X208026000Y-38100000D01*
X200406000Y-39624000D02*
X201930000Y-38100000D01*
X204724000Y-90170000D02*
X175260000Y-90170000D01*
X175260000Y-90170000D02*
X170180000Y-90170000D01*
X170180000Y-90170000D02*
X169926000Y-90170000D01*
X163068000Y-84328000D02*
X159766000Y-84328000D01*
X168656000Y-84328000D02*
X169926000Y-85598000D01*
X169926000Y-85598000D02*
X169926000Y-89408000D01*
X163068000Y-84328000D02*
X168656000Y-84328000D01*
X169926000Y-90170000D02*
X169926000Y-89408000D01*
X159512000Y-81026000D02*
X159512000Y-84328000D01*
X159512000Y-84328000D02*
X159766000Y-84328000D01*
X150368000Y-81026000D02*
X150368000Y-83058000D01*
X155194000Y-84328000D02*
X153416000Y-84328000D01*
X155702000Y-84328000D02*
X155194000Y-84328000D01*
X159766000Y-84328000D02*
X155702000Y-84328000D01*
X151638000Y-84328000D02*
X153416000Y-84328000D01*
X150368000Y-83058000D02*
X151638000Y-84328000D01*
%TO.N,Net-(C3-Pad1)*%
X158242000Y-101092000D02*
X153670000Y-101092000D01*
X153670000Y-106426000D02*
X153924000Y-106426000D01*
X153924000Y-106426000D02*
X153670000Y-106426000D01*
X153670000Y-117094000D02*
X153670000Y-106426000D01*
X153670000Y-106426000D02*
X153670000Y-101092000D01*
X153670000Y-101092000D02*
X153670000Y-94996000D01*
X158750000Y-89916000D02*
X159512000Y-89916000D01*
X153670000Y-94996000D02*
X158750000Y-89916000D01*
X167132000Y-86868000D02*
X164084000Y-86868000D01*
X161036000Y-89916000D02*
X159512000Y-89916000D01*
X164084000Y-86868000D02*
X161036000Y-89916000D01*
%TO.N,Net-(D1-Pad1)*%
X155448000Y-50038000D02*
X160274000Y-50038000D01*
X152908000Y-52578000D02*
X155448000Y-50038000D01*
X139065000Y-92583000D02*
X139065000Y-65151000D01*
X139065000Y-65151000D02*
X141224000Y-62992000D01*
X143002000Y-61214000D02*
X141224000Y-62992000D01*
X151130000Y-61214000D02*
X143002000Y-61214000D01*
X152908000Y-59436000D02*
X151130000Y-61214000D01*
X145288000Y-98806000D02*
X139065000Y-92583000D01*
X145288000Y-98806000D02*
X145288000Y-103632000D01*
X152908000Y-59436000D02*
X152908000Y-52578000D01*
X160274000Y-50038000D02*
X165100000Y-45212000D01*
X165100000Y-45212000D02*
X165100000Y-42418000D01*
%TO.N,C*%
X162560000Y-42418000D02*
X162560000Y-39878000D01*
X192786000Y-37846000D02*
X172974000Y-37846000D01*
X189484000Y-43688000D02*
X191008000Y-45212000D01*
X191008000Y-45212000D02*
X193294000Y-45212000D01*
X193294000Y-45212000D02*
X194564000Y-43942000D01*
X194564000Y-43942000D02*
X194564000Y-39624000D01*
X194564000Y-39624000D02*
X192786000Y-37846000D01*
X189484000Y-42418000D02*
X189484000Y-43688000D01*
X162560000Y-39878000D02*
X164592000Y-37846000D01*
X164592000Y-37846000D02*
X172974000Y-37846000D01*
%TO.N,Net-(D1-Pad3)*%
X160020000Y-42418000D02*
X160020000Y-45974000D01*
X157480000Y-48514000D02*
X153416000Y-48514000D01*
X160020000Y-45974000D02*
X157480000Y-48514000D01*
X148844000Y-48514000D02*
X153416000Y-48514000D01*
%TO.N,Net-(D2-Pad2)*%
X145288000Y-59436000D02*
X145288000Y-57150000D01*
X145288000Y-57150000D02*
X147574000Y-54864000D01*
%TO.N,Net-(D3-Pad2)*%
X169926000Y-53340000D02*
X170688000Y-52578000D01*
X158750000Y-53340000D02*
X169926000Y-53340000D01*
X158242000Y-53848000D02*
X158750000Y-53340000D01*
X145288000Y-93218000D02*
X143510000Y-93218000D01*
X141732000Y-88646000D02*
X141755998Y-88646000D01*
X141732000Y-91440000D02*
X141732000Y-88646000D01*
X143510000Y-93218000D02*
X141732000Y-91440000D01*
X150368000Y-103632000D02*
X150368000Y-95504000D01*
X148082000Y-93218000D02*
X145288000Y-93218000D01*
X150368000Y-95504000D02*
X148082000Y-93218000D01*
X147320000Y-64262000D02*
X143928676Y-64262000D01*
X143928676Y-64262000D02*
X141755998Y-66434678D01*
X141755998Y-66434678D02*
X141755998Y-88646000D01*
X156210000Y-61976000D02*
X153900002Y-64285998D01*
X156210000Y-55880000D02*
X156210000Y-61976000D01*
X158242000Y-53848000D02*
X156210000Y-55880000D01*
X145518002Y-64262000D02*
X145518002Y-64285998D01*
X145518002Y-64285998D02*
X145518002Y-64262000D01*
X152400000Y-64285998D02*
X152400000Y-64262000D01*
X153900002Y-64285998D02*
X152400000Y-64285998D01*
X152400000Y-64262000D02*
X147320000Y-64262000D01*
X147320000Y-64262000D02*
X145518002Y-64262000D01*
X176022000Y-47244000D02*
X170688000Y-52578000D01*
X176022000Y-42418000D02*
X176022000Y-47244000D01*
X152400000Y-64262000D02*
X152400000Y-64262000D01*
%TO.N,Net-(Q1-Pad2)*%
X178816000Y-85598000D02*
X179832000Y-84582000D01*
X186944000Y-85852000D02*
X186944000Y-86868000D01*
X185674000Y-84582000D02*
X186944000Y-85852000D01*
X184150000Y-84582000D02*
X185674000Y-84582000D01*
X179832000Y-84582000D02*
X184150000Y-84582000D01*
%TO.N,A*%
X171727998Y-54840002D02*
X173482000Y-53086000D01*
X159535998Y-54840002D02*
X171727998Y-54840002D01*
X157988000Y-56388000D02*
X159535998Y-54840002D01*
X157988000Y-57658000D02*
X157988000Y-56388000D01*
X152654000Y-65786000D02*
X154686000Y-65786000D01*
X157988000Y-62484000D02*
X157988000Y-57658000D01*
X154686000Y-65786000D02*
X157988000Y-62484000D01*
X146558000Y-78232000D02*
X145796000Y-78232000D01*
X145796000Y-78232000D02*
X143256000Y-75692000D01*
X143256000Y-67056000D02*
X143764000Y-66548000D01*
X143256000Y-75692000D02*
X143256000Y-67056000D01*
X147828000Y-65786000D02*
X144526000Y-65786000D01*
X144526000Y-65786000D02*
X143764000Y-66548000D01*
X152146000Y-65786000D02*
X152654000Y-65786000D01*
X178562000Y-48006000D02*
X173482000Y-53086000D01*
X178562000Y-42418000D02*
X178562000Y-48006000D01*
X152146000Y-65786000D02*
X147828000Y-65786000D01*
X159512000Y-77216000D02*
X157734000Y-77216000D01*
X157734000Y-77216000D02*
X156718000Y-78232000D01*
X156718000Y-78232000D02*
X146558000Y-78232000D01*
X177546000Y-86868000D02*
X176276000Y-86868000D01*
X173482000Y-77216000D02*
X175260000Y-78994000D01*
X159512000Y-77216000D02*
X159512000Y-73406000D01*
X159512000Y-77216000D02*
X173482000Y-77216000D01*
X175260000Y-85852000D02*
X175260000Y-78994000D01*
X176276000Y-86868000D02*
X175260000Y-85852000D01*
%TO.N,Net-(Q3-Pad1)*%
X167132000Y-67818000D02*
X170434000Y-67818000D01*
X170434000Y-67818000D02*
X172339000Y-69723000D01*
X192024000Y-42418000D02*
X192024000Y-40894000D01*
X180975000Y-69723000D02*
X182880000Y-67818000D01*
X182880000Y-67818000D02*
X182880000Y-41656000D01*
X182880000Y-41656000D02*
X184912000Y-39624000D01*
X184912000Y-39624000D02*
X190754000Y-39624000D01*
X180975000Y-69723000D02*
X180594000Y-69723000D01*
X192024000Y-40894000D02*
X190754000Y-39624000D01*
X180594000Y-69723000D02*
X180086000Y-69723000D01*
X180086000Y-69723000D02*
X172339000Y-69723000D01*
X177546000Y-67818000D02*
X177546000Y-69723000D01*
X177546000Y-69723000D02*
X180594000Y-69723000D01*
X177546000Y-69723000D02*
X177546000Y-69596000D01*
X177546000Y-69596000D02*
X177546000Y-69723000D01*
%TO.N,Net-(Q3-Pad2)*%
X162560000Y-64262000D02*
X158750000Y-64262000D01*
X158750000Y-64262000D02*
X155194000Y-67818000D01*
X152908000Y-67818000D02*
X155194000Y-67818000D01*
X178816000Y-66548000D02*
X178816000Y-65278000D01*
X178816000Y-65278000D02*
X177800000Y-64262000D01*
X177800000Y-64262000D02*
X162560000Y-64262000D01*
X150368000Y-73406000D02*
X150368000Y-69342000D01*
X151892000Y-67818000D02*
X152908000Y-67818000D01*
X150368000Y-69342000D02*
X151892000Y-67818000D01*
%TO.N,Q*%
X194564000Y-86868000D02*
X194564000Y-85598000D01*
X194564000Y-85598000D02*
X192024000Y-83058000D01*
X192024000Y-81026000D02*
X192024000Y-83058000D01*
%TO.N,B*%
X159512000Y-86868000D02*
X152908000Y-86868000D01*
X147828000Y-81026000D02*
X147828000Y-84074000D01*
X150622000Y-86868000D02*
X152908000Y-86868000D01*
X147828000Y-84074000D02*
X150622000Y-86868000D01*
%TO.N,/VCC*%
X203962000Y-80518000D02*
X203962000Y-73406000D01*
%TO.N,/THR*%
X179070000Y-77216000D02*
X177546000Y-77216000D01*
X175006000Y-74676000D02*
X172466000Y-74676000D01*
X177546000Y-77216000D02*
X175006000Y-74676000D01*
X192024000Y-73406000D02*
X192024000Y-75946000D01*
X190754000Y-77216000D02*
X189484000Y-77216000D01*
X192024000Y-75946000D02*
X190754000Y-77216000D01*
X189484000Y-81026000D02*
X189484000Y-77216000D01*
X189484000Y-77216000D02*
X189230000Y-77216000D01*
X179070000Y-77216000D02*
X189230000Y-77216000D01*
X179070000Y-77216000D02*
X179070000Y-79756000D01*
%TO.N,/VDD*%
X186944000Y-42418000D02*
X186944000Y-46482000D01*
X188722000Y-48260000D02*
X197358000Y-48260000D01*
X186944000Y-46482000D02*
X188722000Y-48260000D01*
X159512000Y-67818000D02*
X159512000Y-71374000D01*
X159512000Y-71374000D02*
X159512000Y-71120000D01*
X159512000Y-71120000D02*
X159512000Y-71374000D01*
X205486000Y-42418000D02*
X205486000Y-45974000D01*
X203200000Y-48260000D02*
X197358000Y-48260000D01*
X205486000Y-45974000D02*
X203200000Y-48260000D01*
X147828000Y-73406000D02*
X147828000Y-74676000D01*
X157988000Y-71374000D02*
X156210000Y-73152000D01*
X156210000Y-73152000D02*
X156210000Y-75184000D01*
X156210000Y-75184000D02*
X154940000Y-76454000D01*
X154940000Y-76454000D02*
X150622000Y-76454000D01*
X157988000Y-71374000D02*
X159512000Y-71374000D01*
X159512000Y-71374000D02*
X169672000Y-71374000D01*
X149606000Y-76454000D02*
X150622000Y-76454000D01*
X147828000Y-74676000D02*
X149606000Y-76454000D01*
X167132000Y-71374000D02*
X169672000Y-71374000D01*
X169672000Y-71374000D02*
X186944000Y-71374000D01*
X186944000Y-71374000D02*
X186944000Y-71120000D01*
X167132000Y-71374000D02*
X167132000Y-73406000D01*
X147828000Y-73406000D02*
X147828000Y-69342000D01*
X146304000Y-67818000D02*
X145288000Y-67818000D01*
X147828000Y-69342000D02*
X146304000Y-67818000D01*
X186944000Y-65786000D02*
X186944000Y-65532000D01*
X186944000Y-65532000D02*
X188722000Y-63754000D01*
X196342000Y-63754000D02*
X197358000Y-63754000D01*
X196342000Y-63754000D02*
X188722000Y-63754000D01*
X203962000Y-68326000D02*
X197358000Y-68326000D01*
X197358000Y-48260000D02*
X197358000Y-48514000D01*
X197358000Y-48514000D02*
X197358000Y-63754000D01*
X197358000Y-63754000D02*
X197358000Y-68326000D01*
X197358000Y-79502000D02*
X195834000Y-81026000D01*
X194564000Y-81026000D02*
X195834000Y-81026000D01*
X197358000Y-68326000D02*
X197358000Y-79502000D01*
X186944000Y-67818000D02*
X186944000Y-65786000D01*
X186944000Y-73406000D02*
X186944000Y-71120000D01*
X186944000Y-71120000D02*
X186944000Y-67818000D01*
%TO.N,/DIS*%
X183896000Y-75692000D02*
X181356000Y-75692000D01*
X180340000Y-74676000D02*
X179070000Y-74676000D01*
X181356000Y-75692000D02*
X180340000Y-74676000D01*
X189484000Y-73406000D02*
X189484000Y-74930000D01*
X188722000Y-75692000D02*
X183896000Y-75692000D01*
X189484000Y-74930000D02*
X188722000Y-75692000D01*
X189484000Y-73406000D02*
X189484000Y-70358000D01*
X192024000Y-67818000D02*
X194564000Y-67818000D01*
X189484000Y-70358000D02*
X192024000Y-67818000D01*
%TD*%
D33*
%TO.N,GNDPWR*%
G36*
X211455000Y-133731000D02*
X137287000Y-133731000D01*
X137287000Y-125891175D01*
X152552430Y-125891175D01*
X152675565Y-126178788D01*
X153357734Y-126438707D01*
X154087443Y-126417786D01*
X154664435Y-126178788D01*
X154787570Y-125891175D01*
X153670000Y-124773605D01*
X152552430Y-125891175D01*
X137287000Y-125891175D01*
X137287000Y-124281734D01*
X151825293Y-124281734D01*
X151846214Y-125011443D01*
X152085212Y-125588435D01*
X152372825Y-125711570D01*
X153490395Y-124594000D01*
X153849605Y-124594000D01*
X154967175Y-125711570D01*
X155254788Y-125588435D01*
X155514707Y-124906266D01*
X155493786Y-124176557D01*
X155254788Y-123599565D01*
X154967175Y-123476430D01*
X153849605Y-124594000D01*
X153490395Y-124594000D01*
X152372825Y-123476430D01*
X152085212Y-123599565D01*
X151825293Y-124281734D01*
X137287000Y-124281734D01*
X137287000Y-123296825D01*
X152552430Y-123296825D01*
X153670000Y-124414395D01*
X154787570Y-123296825D01*
X154664435Y-123009212D01*
X153982266Y-122749293D01*
X153252557Y-122770214D01*
X152675565Y-123009212D01*
X152552430Y-123296825D01*
X137287000Y-123296825D01*
X137287000Y-65151000D01*
X137930000Y-65151000D01*
X137930000Y-92583000D01*
X138016397Y-93017346D01*
X138138688Y-93200367D01*
X138262434Y-93385566D01*
X144153000Y-99276132D01*
X144153000Y-102455516D01*
X143903154Y-102704927D01*
X143653794Y-103305453D01*
X143653226Y-103955694D01*
X143901538Y-104556655D01*
X144360927Y-105016846D01*
X144961453Y-105266206D01*
X145611694Y-105266774D01*
X146212655Y-105018462D01*
X146672846Y-104559073D01*
X146922206Y-103958547D01*
X146922774Y-103308306D01*
X146674462Y-102707345D01*
X146423000Y-102455444D01*
X146423000Y-98806000D01*
X146336603Y-98371654D01*
X146090566Y-98003434D01*
X140200000Y-92112868D01*
X140200000Y-65621132D01*
X143472132Y-62349000D01*
X151130000Y-62349000D01*
X151564346Y-62262603D01*
X151932566Y-62016566D01*
X153181786Y-60767346D01*
X153663229Y-60568418D01*
X154039098Y-60193204D01*
X154242768Y-59702713D01*
X154243231Y-59171617D01*
X154043000Y-58687020D01*
X154043000Y-53048132D01*
X155918133Y-51173000D01*
X160274000Y-51173000D01*
X160708346Y-51086603D01*
X161076566Y-50840566D01*
X165902566Y-46014566D01*
X166148604Y-45646345D01*
X166235000Y-45212000D01*
X166235000Y-43918696D01*
X166247765Y-43916157D01*
X166457809Y-43775809D01*
X166598157Y-43565765D01*
X166647440Y-43318000D01*
X166647440Y-42782740D01*
X171990964Y-42782740D01*
X172169760Y-43214417D01*
X172574424Y-43655966D01*
X173117258Y-43909046D01*
X173355000Y-43788997D01*
X173355000Y-42545000D01*
X172111622Y-42545000D01*
X171990964Y-42782740D01*
X166647440Y-42782740D01*
X166647440Y-42053260D01*
X171990964Y-42053260D01*
X172111622Y-42291000D01*
X173355000Y-42291000D01*
X173355000Y-41047003D01*
X173117258Y-40926954D01*
X172574424Y-41180034D01*
X172169760Y-41621583D01*
X171990964Y-42053260D01*
X166647440Y-42053260D01*
X166647440Y-41518000D01*
X166598157Y-41270235D01*
X166457809Y-41060191D01*
X166247765Y-40919843D01*
X166000000Y-40870560D01*
X164200000Y-40870560D01*
X163952235Y-40919843D01*
X163742191Y-41060191D01*
X163695000Y-41130817D01*
X163695000Y-40348132D01*
X165062132Y-38981000D01*
X183949868Y-38981000D01*
X182077434Y-40853434D01*
X181831397Y-41221654D01*
X181745000Y-41656000D01*
X181745000Y-67347868D01*
X181227216Y-67865652D01*
X181202217Y-67512625D01*
X181091217Y-67244648D01*
X180876104Y-67207501D01*
X180265605Y-67818000D01*
X180279748Y-67832143D01*
X180100143Y-68011748D01*
X180086000Y-67997605D01*
X180071858Y-68011748D01*
X179892253Y-67832143D01*
X179906395Y-67818000D01*
X179892253Y-67803858D01*
X180071858Y-67624253D01*
X180086000Y-67638395D01*
X180696499Y-67027896D01*
X180659352Y-66812783D01*
X180231028Y-66669888D01*
X179950877Y-66689727D01*
X179951197Y-66323225D01*
X179951000Y-66322748D01*
X179951000Y-65278000D01*
X179864603Y-64843654D01*
X179618566Y-64475434D01*
X178602566Y-63459434D01*
X178393372Y-63319655D01*
X178234346Y-63213397D01*
X177800000Y-63127000D01*
X158897185Y-63127000D01*
X159036603Y-62918346D01*
X159123000Y-62484000D01*
X159123000Y-59078000D01*
X160128275Y-59078000D01*
X160309822Y-59990700D01*
X160826825Y-60764450D01*
X161600575Y-61281453D01*
X162513275Y-61463000D01*
X162606725Y-61463000D01*
X163519425Y-61281453D01*
X164293175Y-60764450D01*
X164810178Y-59990700D01*
X164991725Y-59078000D01*
X173590275Y-59078000D01*
X173771822Y-59990700D01*
X174288825Y-60764450D01*
X175062575Y-61281453D01*
X175975275Y-61463000D01*
X176068725Y-61463000D01*
X176981425Y-61281453D01*
X177755175Y-60764450D01*
X178272178Y-59990700D01*
X178453725Y-59078000D01*
X178272178Y-58165300D01*
X177755175Y-57391550D01*
X176981425Y-56874547D01*
X176068725Y-56693000D01*
X175975275Y-56693000D01*
X175062575Y-56874547D01*
X174288825Y-57391550D01*
X173771822Y-58165300D01*
X173590275Y-59078000D01*
X164991725Y-59078000D01*
X164810178Y-58165300D01*
X164293175Y-57391550D01*
X163519425Y-56874547D01*
X162606725Y-56693000D01*
X162513275Y-56693000D01*
X161600575Y-56874547D01*
X160826825Y-57391550D01*
X160309822Y-58165300D01*
X160128275Y-59078000D01*
X159123000Y-59078000D01*
X159123000Y-56858132D01*
X160006130Y-55975002D01*
X171727998Y-55975002D01*
X172162344Y-55888605D01*
X172530564Y-55642568D01*
X179364566Y-48808566D01*
X179440886Y-48694345D01*
X179610603Y-48440346D01*
X179697000Y-48006000D01*
X179697000Y-43918696D01*
X179709765Y-43916157D01*
X179919809Y-43775809D01*
X180060157Y-43565765D01*
X180109440Y-43318000D01*
X180109440Y-41518000D01*
X180060157Y-41270235D01*
X179919809Y-41060191D01*
X179709765Y-40919843D01*
X179462000Y-40870560D01*
X177662000Y-40870560D01*
X177414235Y-40919843D01*
X177204191Y-41060191D01*
X177063843Y-41270235D01*
X177061534Y-41281845D01*
X176639491Y-40999845D01*
X176052072Y-40883000D01*
X175991928Y-40883000D01*
X175404509Y-40999845D01*
X174906519Y-41332591D01*
X174747499Y-41570582D01*
X174389576Y-41180034D01*
X173846742Y-40926954D01*
X173609000Y-41047003D01*
X173609000Y-42291000D01*
X173629000Y-42291000D01*
X173629000Y-42545000D01*
X173609000Y-42545000D01*
X173609000Y-43788997D01*
X173846742Y-43909046D01*
X174389576Y-43655966D01*
X174747499Y-43265418D01*
X174887000Y-43474197D01*
X174887000Y-46773868D01*
X169455868Y-52205000D01*
X158750000Y-52205000D01*
X158355687Y-52283434D01*
X158315654Y-52291397D01*
X157947433Y-52537434D01*
X157439434Y-53045434D01*
X155407434Y-55077434D01*
X155161397Y-55445654D01*
X155075000Y-55880000D01*
X155075000Y-61505867D01*
X153429870Y-63150998D01*
X152520646Y-63150998D01*
X152400000Y-63127000D01*
X143928676Y-63127000D01*
X143494331Y-63213396D01*
X143126110Y-63459434D01*
X140953432Y-65632112D01*
X140707395Y-66000332D01*
X140620998Y-66434678D01*
X140620998Y-88525354D01*
X140597000Y-88646000D01*
X140597000Y-91440000D01*
X140683397Y-91874346D01*
X140855951Y-92132591D01*
X140929434Y-92242566D01*
X142707434Y-94020566D01*
X143075654Y-94266603D01*
X143510000Y-94353000D01*
X144246737Y-94353000D01*
X144670509Y-94636155D01*
X145257928Y-94753000D01*
X145318072Y-94753000D01*
X145905491Y-94636155D01*
X146329263Y-94353000D01*
X147611868Y-94353000D01*
X149233000Y-95974132D01*
X149233000Y-102455516D01*
X148983154Y-102704927D01*
X148733794Y-103305453D01*
X148733226Y-103955694D01*
X148981538Y-104556655D01*
X149440927Y-105016846D01*
X150041453Y-105266206D01*
X150691694Y-105266774D01*
X151292655Y-105018462D01*
X151752846Y-104559073D01*
X152002206Y-103958547D01*
X152002774Y-103308306D01*
X151754462Y-102707345D01*
X151503000Y-102455444D01*
X151503000Y-95504000D01*
X151416603Y-95069654D01*
X151170566Y-94701434D01*
X148884566Y-92415434D01*
X148836025Y-92383000D01*
X148516346Y-92169397D01*
X148082000Y-92083000D01*
X146329263Y-92083000D01*
X145905491Y-91799845D01*
X145318072Y-91683000D01*
X145257928Y-91683000D01*
X144670509Y-91799845D01*
X144246737Y-92083000D01*
X143980132Y-92083000D01*
X142867000Y-90969868D01*
X142867000Y-88766646D01*
X142890998Y-88646000D01*
X142890998Y-87201329D01*
X143995284Y-87201329D01*
X144138203Y-87546396D01*
X144485337Y-87934764D01*
X144954669Y-88160727D01*
X145161000Y-88038206D01*
X145161000Y-86995000D01*
X145415000Y-86995000D01*
X145415000Y-88038206D01*
X145621331Y-88160727D01*
X146090663Y-87934764D01*
X146437797Y-87546396D01*
X146580716Y-87201329D01*
X146457374Y-86995000D01*
X145415000Y-86995000D01*
X145161000Y-86995000D01*
X144118626Y-86995000D01*
X143995284Y-87201329D01*
X142890998Y-87201329D01*
X142890998Y-86534671D01*
X143995284Y-86534671D01*
X144118626Y-86741000D01*
X145161000Y-86741000D01*
X145161000Y-85697794D01*
X145415000Y-85697794D01*
X145415000Y-86741000D01*
X146457374Y-86741000D01*
X146580716Y-86534671D01*
X146437797Y-86189604D01*
X146090663Y-85801236D01*
X145621331Y-85575273D01*
X145415000Y-85697794D01*
X145161000Y-85697794D01*
X144954669Y-85575273D01*
X144485337Y-85801236D01*
X144138203Y-86189604D01*
X143995284Y-86534671D01*
X142890998Y-86534671D01*
X142890998Y-76932130D01*
X144993433Y-79034566D01*
X145208936Y-79178560D01*
X144488000Y-79178560D01*
X144240235Y-79227843D01*
X144030191Y-79368191D01*
X143889843Y-79578235D01*
X143840560Y-79826000D01*
X143840560Y-82226000D01*
X143889843Y-82473765D01*
X144030191Y-82683809D01*
X144240235Y-82824157D01*
X144488000Y-82873440D01*
X146088000Y-82873440D01*
X146335765Y-82824157D01*
X146545809Y-82683809D01*
X146686157Y-82473765D01*
X146693000Y-82439363D01*
X146693000Y-84074000D01*
X146779397Y-84508346D01*
X146949114Y-84762345D01*
X147025434Y-84876566D01*
X149819434Y-87670566D01*
X150187655Y-87916604D01*
X150622000Y-88003000D01*
X152160193Y-88003000D01*
X152641287Y-88202768D01*
X153172383Y-88203231D01*
X153656980Y-88003000D01*
X158827729Y-88003000D01*
X158974964Y-88101379D01*
X159485846Y-88203000D01*
X159538154Y-88203000D01*
X160049036Y-88101379D01*
X160482142Y-87811988D01*
X160771533Y-87378882D01*
X160873154Y-86868000D01*
X160771533Y-86357118D01*
X160482142Y-85924012D01*
X160049036Y-85634621D01*
X159538154Y-85533000D01*
X159485846Y-85533000D01*
X158974964Y-85634621D01*
X158827729Y-85733000D01*
X153655807Y-85733000D01*
X153174713Y-85533232D01*
X152643617Y-85532769D01*
X152159020Y-85733000D01*
X151092132Y-85733000D01*
X148963000Y-83603868D01*
X148963000Y-82296604D01*
X149098000Y-82094562D01*
X149233000Y-82296604D01*
X149233000Y-83058000D01*
X149319397Y-83492346D01*
X149417826Y-83639655D01*
X149565434Y-83860566D01*
X150835434Y-85130566D01*
X151203654Y-85376603D01*
X151638000Y-85463000D01*
X168185868Y-85463000D01*
X168791000Y-86068132D01*
X168791000Y-89035000D01*
X163830000Y-89035000D01*
X163445687Y-89111445D01*
X164554132Y-88003000D01*
X166384193Y-88003000D01*
X166865287Y-88202768D01*
X167396383Y-88203231D01*
X167887229Y-88000418D01*
X168263098Y-87625204D01*
X168466768Y-87134713D01*
X168467231Y-86603617D01*
X168264418Y-86112771D01*
X167889204Y-85736902D01*
X167398713Y-85533232D01*
X166867617Y-85532769D01*
X166383020Y-85733000D01*
X164084000Y-85733000D01*
X163649654Y-85819397D01*
X163493087Y-85924012D01*
X163281434Y-86065434D01*
X160565868Y-88781000D01*
X158750000Y-88781000D01*
X158315654Y-88867397D01*
X158064819Y-89035000D01*
X157947434Y-89113434D01*
X155390308Y-91670560D01*
X154548000Y-91670560D01*
X154300235Y-91719843D01*
X154090191Y-91860191D01*
X153949843Y-92070235D01*
X153900560Y-92318000D01*
X153900560Y-93160308D01*
X152867434Y-94193434D01*
X152621397Y-94561654D01*
X152535000Y-94996000D01*
X152535000Y-115246560D01*
X152470000Y-115246560D01*
X152222235Y-115295843D01*
X152012191Y-115436191D01*
X151871843Y-115646235D01*
X151822560Y-115894000D01*
X151822560Y-118294000D01*
X151871843Y-118541765D01*
X152012191Y-118751809D01*
X152222235Y-118892157D01*
X152470000Y-118941440D01*
X154870000Y-118941440D01*
X155117765Y-118892157D01*
X155327809Y-118751809D01*
X155468157Y-118541765D01*
X155517440Y-118294000D01*
X155517440Y-115894000D01*
X155468157Y-115646235D01*
X155327809Y-115436191D01*
X155117765Y-115295843D01*
X154870000Y-115246560D01*
X154805000Y-115246560D01*
X154805000Y-107111181D01*
X154972603Y-106860346D01*
X155025420Y-106594815D01*
X156106630Y-106594815D01*
X156430980Y-107379800D01*
X157031041Y-107980909D01*
X157815459Y-108306628D01*
X158664815Y-108307370D01*
X159449800Y-107983020D01*
X159730309Y-107703000D01*
X167589459Y-107703000D01*
X167652000Y-107715440D01*
X168417000Y-107715440D01*
X168417000Y-111830799D01*
X168317172Y-112071212D01*
X168316830Y-112463069D01*
X168466471Y-112825229D01*
X168598910Y-112957899D01*
X168587170Y-112975468D01*
X168494373Y-113106112D01*
X168491507Y-113118639D01*
X168484367Y-113129325D01*
X168453105Y-113286487D01*
X168417360Y-113442725D01*
X168419507Y-113455398D01*
X168417000Y-113468000D01*
X168417000Y-116853750D01*
X168279000Y-116991750D01*
X168279000Y-117107466D01*
X168063325Y-117150367D01*
X168025000Y-117175975D01*
X168025000Y-116991750D01*
X167866250Y-116833000D01*
X167525691Y-116833000D01*
X167292302Y-116929673D01*
X167113673Y-117108301D01*
X167017000Y-117341690D01*
X167017000Y-117682250D01*
X167175750Y-117841000D01*
X167542262Y-117841000D01*
X167517000Y-117968000D01*
X167517000Y-118095000D01*
X167175750Y-118095000D01*
X167017000Y-118253750D01*
X167017000Y-118594310D01*
X167113673Y-118827699D01*
X167292302Y-119006327D01*
X167517000Y-119099400D01*
X167517000Y-132018000D01*
X167584367Y-132356675D01*
X167776210Y-132643790D01*
X168063325Y-132835633D01*
X168402000Y-132903000D01*
X207902000Y-132903000D01*
X208240675Y-132835633D01*
X208527790Y-132643790D01*
X208719633Y-132356675D01*
X208787000Y-132018000D01*
X208787000Y-111918000D01*
X208784493Y-111905398D01*
X208786640Y-111892725D01*
X208750895Y-111736487D01*
X208719633Y-111579325D01*
X208712493Y-111568639D01*
X208709627Y-111556112D01*
X208616830Y-111425468D01*
X208605100Y-111407913D01*
X208736555Y-111276686D01*
X208886828Y-110914788D01*
X208887170Y-110522931D01*
X208787000Y-110280500D01*
X208787000Y-92518000D01*
X208719633Y-92179325D01*
X208527790Y-91892210D01*
X208240675Y-91700367D01*
X207902000Y-91633000D01*
X168402000Y-91633000D01*
X168063325Y-91700367D01*
X167776210Y-91892210D01*
X167584367Y-92179325D01*
X167517000Y-92518000D01*
X167517000Y-105433000D01*
X160246725Y-105433000D01*
X160053020Y-104964200D01*
X159452959Y-104363091D01*
X158668541Y-104037372D01*
X157819185Y-104036630D01*
X157034200Y-104360980D01*
X156433091Y-104961041D01*
X156107372Y-105745459D01*
X156106630Y-106594815D01*
X155025420Y-106594815D01*
X155059000Y-106426000D01*
X154972603Y-105991654D01*
X154805000Y-105740819D01*
X154805000Y-102227000D01*
X156094560Y-102227000D01*
X156094560Y-102592000D01*
X156143843Y-102839765D01*
X156284191Y-103049809D01*
X156494235Y-103190157D01*
X156742000Y-103239440D01*
X159742000Y-103239440D01*
X159989765Y-103190157D01*
X160199809Y-103049809D01*
X160340157Y-102839765D01*
X160389440Y-102592000D01*
X160389440Y-99592000D01*
X160340157Y-99344235D01*
X160199809Y-99134191D01*
X159989765Y-98993843D01*
X159742000Y-98944560D01*
X156742000Y-98944560D01*
X156494235Y-98993843D01*
X156284191Y-99134191D01*
X156143843Y-99344235D01*
X156094560Y-99592000D01*
X156094560Y-99957000D01*
X154805000Y-99957000D01*
X154805000Y-95466132D01*
X155206397Y-95064735D01*
X161876870Y-95064735D01*
X161926383Y-95290164D01*
X162391036Y-95449807D01*
X162881413Y-95419482D01*
X163193617Y-95290164D01*
X163243130Y-95064735D01*
X162560000Y-94381605D01*
X161876870Y-95064735D01*
X155206397Y-95064735D01*
X155505692Y-94765440D01*
X156348000Y-94765440D01*
X156595765Y-94716157D01*
X156805809Y-94575809D01*
X156946157Y-94365765D01*
X156995440Y-94118000D01*
X156995440Y-93275692D01*
X159220132Y-91051000D01*
X161036000Y-91051000D01*
X161470346Y-90964603D01*
X161594060Y-90881940D01*
X161511397Y-91005654D01*
X161476062Y-91183296D01*
X161361843Y-91354235D01*
X161312560Y-91602000D01*
X161312560Y-92802000D01*
X161361843Y-93049765D01*
X161502191Y-93259809D01*
X161635718Y-93349030D01*
X161581570Y-93403178D01*
X161697263Y-93518871D01*
X161471836Y-93568383D01*
X161312193Y-94033036D01*
X161342518Y-94523413D01*
X161471836Y-94835617D01*
X161697265Y-94885130D01*
X162380395Y-94202000D01*
X162366253Y-94187858D01*
X162545858Y-94008253D01*
X162560000Y-94022395D01*
X162574143Y-94008253D01*
X162753748Y-94187858D01*
X162739605Y-94202000D01*
X163422735Y-94885130D01*
X163648164Y-94835617D01*
X163807807Y-94370964D01*
X163777482Y-93880587D01*
X163648164Y-93568383D01*
X163422737Y-93518871D01*
X163538430Y-93403178D01*
X163484282Y-93349030D01*
X163617809Y-93259809D01*
X163758157Y-93049765D01*
X163807440Y-92802000D01*
X163807440Y-91797692D01*
X164300132Y-91305000D01*
X207264000Y-91305000D01*
X207698346Y-91218603D01*
X208066566Y-90972566D01*
X210606566Y-88432567D01*
X210852603Y-88064346D01*
X210862331Y-88015440D01*
X210939000Y-87630000D01*
X210939000Y-39878000D01*
X210852603Y-39443654D01*
X210606566Y-39075434D01*
X208828566Y-37297434D01*
X208460346Y-37051397D01*
X208026000Y-36965000D01*
X201930000Y-36965000D01*
X201535687Y-37043434D01*
X201495654Y-37051397D01*
X201127433Y-37297434D01*
X199603434Y-38821434D01*
X199357397Y-39189654D01*
X199271000Y-39624000D01*
X199271000Y-41361803D01*
X198957773Y-41830581D01*
X198840928Y-42418000D01*
X198957773Y-43005419D01*
X199290519Y-43503409D01*
X199788509Y-43836155D01*
X200375928Y-43953000D01*
X200436072Y-43953000D01*
X201023491Y-43836155D01*
X201521481Y-43503409D01*
X201680501Y-43265418D01*
X202038424Y-43655966D01*
X202581258Y-43909046D01*
X202819000Y-43788997D01*
X202819000Y-42545000D01*
X202799000Y-42545000D01*
X202799000Y-42291000D01*
X202819000Y-42291000D01*
X202819000Y-41047003D01*
X202581258Y-40926954D01*
X202038424Y-41180034D01*
X201680501Y-41570582D01*
X201541000Y-41361803D01*
X201541000Y-40094132D01*
X202400133Y-39235000D01*
X207555868Y-39235000D01*
X208669000Y-40348132D01*
X208669000Y-87159867D01*
X206793868Y-89035000D01*
X171061000Y-89035000D01*
X171061000Y-85598000D01*
X170974603Y-85163654D01*
X170728566Y-84795434D01*
X169458566Y-83525434D01*
X169409045Y-83492345D01*
X169090346Y-83279397D01*
X168656000Y-83193000D01*
X160647000Y-83193000D01*
X160647000Y-81773807D01*
X160819106Y-81359329D01*
X165839284Y-81359329D01*
X165982203Y-81704396D01*
X166329337Y-82092764D01*
X166798669Y-82318727D01*
X167005000Y-82196206D01*
X167005000Y-81153000D01*
X167259000Y-81153000D01*
X167259000Y-82196206D01*
X167465331Y-82318727D01*
X167934663Y-82092764D01*
X168281797Y-81704396D01*
X168424716Y-81359329D01*
X168301374Y-81153000D01*
X167259000Y-81153000D01*
X167005000Y-81153000D01*
X165962626Y-81153000D01*
X165839284Y-81359329D01*
X160819106Y-81359329D01*
X160846768Y-81292713D01*
X160847231Y-80761617D01*
X160818744Y-80692671D01*
X165839284Y-80692671D01*
X165962626Y-80899000D01*
X167005000Y-80899000D01*
X167005000Y-79855794D01*
X167259000Y-79855794D01*
X167259000Y-80899000D01*
X168301374Y-80899000D01*
X168424716Y-80692671D01*
X168421020Y-80683745D01*
X171637861Y-80683745D01*
X171711995Y-80929864D01*
X172249223Y-81122965D01*
X172819454Y-81095778D01*
X173220005Y-80929864D01*
X173294139Y-80683745D01*
X172466000Y-79855605D01*
X171637861Y-80683745D01*
X168421020Y-80683745D01*
X168281797Y-80347604D01*
X167934663Y-79959236D01*
X167465331Y-79733273D01*
X167259000Y-79855794D01*
X167005000Y-79855794D01*
X166798669Y-79733273D01*
X166329337Y-79959236D01*
X165982203Y-80347604D01*
X165839284Y-80692671D01*
X160818744Y-80692671D01*
X160644418Y-80270771D01*
X160269204Y-79894902D01*
X159778713Y-79691232D01*
X159247617Y-79690769D01*
X158756771Y-79893582D01*
X158380902Y-80268796D01*
X158177232Y-80759287D01*
X158176769Y-81290383D01*
X158377000Y-81774980D01*
X158377000Y-83193000D01*
X152108132Y-83193000D01*
X151503000Y-82587868D01*
X151503000Y-82296604D01*
X151635507Y-82098293D01*
X151983104Y-82530500D01*
X152476181Y-82800367D01*
X152558961Y-82817904D01*
X152781000Y-82695915D01*
X152781000Y-81153000D01*
X153035000Y-81153000D01*
X153035000Y-82695915D01*
X153257039Y-82817904D01*
X153339819Y-82800367D01*
X153832896Y-82530500D01*
X154185166Y-82092483D01*
X154343000Y-81553000D01*
X154343000Y-81153000D01*
X153035000Y-81153000D01*
X152781000Y-81153000D01*
X152761000Y-81153000D01*
X152761000Y-80899000D01*
X152781000Y-80899000D01*
X152781000Y-80879000D01*
X153035000Y-80879000D01*
X153035000Y-80899000D01*
X154343000Y-80899000D01*
X154343000Y-80499000D01*
X154185166Y-79959517D01*
X153832896Y-79521500D01*
X153719109Y-79459223D01*
X171019035Y-79459223D01*
X171046222Y-80029454D01*
X171212136Y-80430005D01*
X171458255Y-80504139D01*
X172286395Y-79676000D01*
X171458255Y-78847861D01*
X171212136Y-78921995D01*
X171019035Y-79459223D01*
X153719109Y-79459223D01*
X153550607Y-79367000D01*
X156718000Y-79367000D01*
X157152346Y-79280603D01*
X157520566Y-79034566D01*
X158204132Y-78351000D01*
X171883732Y-78351000D01*
X171711995Y-78422136D01*
X171637861Y-78668255D01*
X172466000Y-79496395D01*
X172480142Y-79482252D01*
X172659748Y-79661858D01*
X172645605Y-79676000D01*
X173473745Y-80504139D01*
X173719864Y-80430005D01*
X173912965Y-79892777D01*
X173885778Y-79322546D01*
X173816739Y-79155871D01*
X174125000Y-79464132D01*
X174125000Y-85852000D01*
X174211397Y-86286346D01*
X174396001Y-86562625D01*
X174457434Y-86654566D01*
X175473434Y-87670566D01*
X175841654Y-87916603D01*
X176276000Y-88003000D01*
X176983459Y-88003000D01*
X177046000Y-88015440D01*
X178046000Y-88015440D01*
X178293765Y-87966157D01*
X178503809Y-87825809D01*
X178615866Y-87658104D01*
X179475501Y-87658104D01*
X179512648Y-87873217D01*
X179940972Y-88016112D01*
X180391375Y-87984217D01*
X180659352Y-87873217D01*
X180696499Y-87658104D01*
X180086000Y-87047605D01*
X179475501Y-87658104D01*
X178615866Y-87658104D01*
X178644157Y-87615765D01*
X178693440Y-87368000D01*
X178693440Y-86732894D01*
X178938606Y-86733108D01*
X178969783Y-87173375D01*
X179080783Y-87441352D01*
X179295896Y-87478499D01*
X179906395Y-86868000D01*
X180265605Y-86868000D01*
X180876104Y-87478499D01*
X181091217Y-87441352D01*
X181234112Y-87013028D01*
X181202217Y-86562625D01*
X181091217Y-86294648D01*
X180876104Y-86257501D01*
X180265605Y-86868000D01*
X179906395Y-86868000D01*
X179892253Y-86853858D01*
X180071858Y-86674253D01*
X180086000Y-86688395D01*
X180696499Y-86077896D01*
X180659352Y-85862783D01*
X180282179Y-85736953D01*
X180302132Y-85717000D01*
X185203868Y-85717000D01*
X185749750Y-86262882D01*
X185609232Y-86601287D01*
X185608769Y-87132383D01*
X185811582Y-87623229D01*
X186186796Y-87999098D01*
X186677287Y-88202768D01*
X187208383Y-88203231D01*
X187699229Y-88000418D01*
X188075098Y-87625204D01*
X188278768Y-87134713D01*
X188279231Y-86603617D01*
X188079000Y-86119020D01*
X188079000Y-85852000D01*
X187992603Y-85417654D01*
X187746566Y-85049434D01*
X186476566Y-83779434D01*
X186267372Y-83639655D01*
X186108346Y-83533397D01*
X185674000Y-83447000D01*
X179832000Y-83447000D01*
X179397654Y-83533397D01*
X179238628Y-83639655D01*
X179029434Y-83779434D01*
X178013848Y-84795020D01*
X177854355Y-84954235D01*
X177681197Y-85371244D01*
X177680892Y-85720560D01*
X177046000Y-85720560D01*
X176983459Y-85733000D01*
X176746132Y-85733000D01*
X176395000Y-85381868D01*
X176395000Y-81311750D01*
X185255000Y-81311750D01*
X185255000Y-82352309D01*
X185351673Y-82585698D01*
X185530301Y-82764327D01*
X185763690Y-82861000D01*
X186404250Y-82861000D01*
X186563000Y-82702250D01*
X186563000Y-81153000D01*
X185413750Y-81153000D01*
X185255000Y-81311750D01*
X176395000Y-81311750D01*
X176395000Y-78994000D01*
X176308603Y-78559654D01*
X176062566Y-78191434D01*
X174284566Y-76413434D01*
X174235045Y-76380345D01*
X173916346Y-76167397D01*
X173482000Y-76081000D01*
X172823393Y-76081000D01*
X173277800Y-75893243D01*
X173360187Y-75811000D01*
X174535868Y-75811000D01*
X176743433Y-78018566D01*
X177002149Y-78191434D01*
X177111654Y-78264603D01*
X177546000Y-78351000D01*
X177935000Y-78351000D01*
X177935000Y-78974432D01*
X177921957Y-78987452D01*
X177715236Y-79485291D01*
X177714765Y-80024344D01*
X177920617Y-80522543D01*
X178301452Y-80904043D01*
X178799291Y-81110764D01*
X179338344Y-81111235D01*
X179836543Y-80905383D01*
X180218043Y-80524548D01*
X180424764Y-80026709D01*
X180425049Y-79699691D01*
X185255000Y-79699691D01*
X185255000Y-80740250D01*
X185413750Y-80899000D01*
X186563000Y-80899000D01*
X186563000Y-79349750D01*
X186404250Y-79191000D01*
X185763690Y-79191000D01*
X185530301Y-79287673D01*
X185351673Y-79466302D01*
X185255000Y-79699691D01*
X180425049Y-79699691D01*
X180425235Y-79487656D01*
X180219383Y-78989457D01*
X180205000Y-78975049D01*
X180205000Y-78351000D01*
X188349000Y-78351000D01*
X188349000Y-79486018D01*
X188215302Y-79575352D01*
X188125000Y-79710498D01*
X188125000Y-79699691D01*
X188028327Y-79466302D01*
X187849699Y-79287673D01*
X187616310Y-79191000D01*
X186975750Y-79191000D01*
X186817000Y-79349750D01*
X186817000Y-80899000D01*
X186837000Y-80899000D01*
X186837000Y-81153000D01*
X186817000Y-81153000D01*
X186817000Y-82702250D01*
X186975750Y-82861000D01*
X187616310Y-82861000D01*
X187849699Y-82764327D01*
X188028327Y-82585698D01*
X188125000Y-82352309D01*
X188125000Y-82341502D01*
X188215302Y-82476648D01*
X188680849Y-82787717D01*
X189230000Y-82896950D01*
X189779151Y-82787717D01*
X190244698Y-82476648D01*
X190500000Y-82094562D01*
X190755302Y-82476648D01*
X190889000Y-82565982D01*
X190889000Y-83058000D01*
X190975397Y-83492346D01*
X191073826Y-83639655D01*
X191221434Y-83860566D01*
X193429000Y-86068133D01*
X193429000Y-86170740D01*
X193304467Y-86357118D01*
X193202846Y-86868000D01*
X193304467Y-87378882D01*
X193593858Y-87811988D01*
X194026964Y-88101379D01*
X194537846Y-88203000D01*
X194590154Y-88203000D01*
X195101036Y-88101379D01*
X195534142Y-87811988D01*
X195823533Y-87378882D01*
X195876625Y-87111970D01*
X202627635Y-87111970D01*
X202787418Y-87430739D01*
X203578187Y-87740723D01*
X204427387Y-87724497D01*
X205136582Y-87430739D01*
X205296365Y-87111970D01*
X203962000Y-85777605D01*
X202627635Y-87111970D01*
X195876625Y-87111970D01*
X195925154Y-86868000D01*
X195823533Y-86357118D01*
X195699000Y-86170740D01*
X195699000Y-85598000D01*
X195622655Y-85214187D01*
X201819277Y-85214187D01*
X201835503Y-86063387D01*
X202129261Y-86772582D01*
X202448030Y-86932365D01*
X203782395Y-85598000D01*
X204141605Y-85598000D01*
X205475970Y-86932365D01*
X205794739Y-86772582D01*
X206104723Y-85981813D01*
X206088497Y-85132613D01*
X205794739Y-84423418D01*
X205475970Y-84263635D01*
X204141605Y-85598000D01*
X203782395Y-85598000D01*
X202448030Y-84263635D01*
X202129261Y-84423418D01*
X201819277Y-85214187D01*
X195622655Y-85214187D01*
X195612603Y-85163654D01*
X195514174Y-85016345D01*
X195366566Y-84795433D01*
X194655163Y-84084030D01*
X202627635Y-84084030D01*
X203962000Y-85418395D01*
X205296365Y-84084030D01*
X205136582Y-83765261D01*
X204345813Y-83455277D01*
X203496613Y-83471503D01*
X202787418Y-83765261D01*
X202627635Y-84084030D01*
X194655163Y-84084030D01*
X193159000Y-82587868D01*
X193159000Y-82272658D01*
X193295302Y-82476648D01*
X193760849Y-82787717D01*
X194310000Y-82896950D01*
X194859151Y-82787717D01*
X195324698Y-82476648D01*
X195535608Y-82161000D01*
X195834000Y-82161000D01*
X196268346Y-82074603D01*
X196636566Y-81828566D01*
X198160566Y-80304567D01*
X198406603Y-79936346D01*
X198442476Y-79756000D01*
X198493000Y-79502000D01*
X198493000Y-79018000D01*
X201814560Y-79018000D01*
X201814560Y-82018000D01*
X201863843Y-82265765D01*
X202004191Y-82475809D01*
X202214235Y-82616157D01*
X202462000Y-82665440D01*
X205462000Y-82665440D01*
X205709765Y-82616157D01*
X205919809Y-82475809D01*
X206060157Y-82265765D01*
X206109440Y-82018000D01*
X206109440Y-79018000D01*
X206060157Y-78770235D01*
X205919809Y-78560191D01*
X205709765Y-78419843D01*
X205462000Y-78370560D01*
X205097000Y-78370560D01*
X205097000Y-75247100D01*
X205169800Y-75217020D01*
X205770909Y-74616959D01*
X206096628Y-73832541D01*
X206097370Y-72983185D01*
X205773020Y-72198200D01*
X205172959Y-71597091D01*
X204388541Y-71271372D01*
X203539185Y-71270630D01*
X202754200Y-71594980D01*
X202153091Y-72195041D01*
X201827372Y-72979459D01*
X201826630Y-73828815D01*
X202150980Y-74613800D01*
X202751041Y-75214909D01*
X202827000Y-75246450D01*
X202827000Y-78370560D01*
X202462000Y-78370560D01*
X202214235Y-78419843D01*
X202004191Y-78560191D01*
X201863843Y-78770235D01*
X201814560Y-79018000D01*
X198493000Y-79018000D01*
X198493000Y-69461000D01*
X201814560Y-69461000D01*
X201814560Y-69826000D01*
X201863843Y-70073765D01*
X202004191Y-70283809D01*
X202214235Y-70424157D01*
X202462000Y-70473440D01*
X205462000Y-70473440D01*
X205709765Y-70424157D01*
X205919809Y-70283809D01*
X206060157Y-70073765D01*
X206109440Y-69826000D01*
X206109440Y-66826000D01*
X206060157Y-66578235D01*
X205919809Y-66368191D01*
X205709765Y-66227843D01*
X205462000Y-66178560D01*
X202462000Y-66178560D01*
X202214235Y-66227843D01*
X202004191Y-66368191D01*
X201863843Y-66578235D01*
X201814560Y-66826000D01*
X201814560Y-67191000D01*
X198493000Y-67191000D01*
X198493000Y-59078000D01*
X200514275Y-59078000D01*
X200695822Y-59990700D01*
X201212825Y-60764450D01*
X201986575Y-61281453D01*
X202899275Y-61463000D01*
X202992725Y-61463000D01*
X203905425Y-61281453D01*
X204679175Y-60764450D01*
X205196178Y-59990700D01*
X205377725Y-59078000D01*
X205196178Y-58165300D01*
X204679175Y-57391550D01*
X203905425Y-56874547D01*
X202992725Y-56693000D01*
X202899275Y-56693000D01*
X201986575Y-56874547D01*
X201212825Y-57391550D01*
X200695822Y-58165300D01*
X200514275Y-59078000D01*
X198493000Y-59078000D01*
X198493000Y-49395000D01*
X203200000Y-49395000D01*
X203634346Y-49308603D01*
X204002566Y-49062566D01*
X206288566Y-46776566D01*
X206337735Y-46702980D01*
X206534603Y-46408346D01*
X206621000Y-45974000D01*
X206621000Y-43918696D01*
X206633765Y-43916157D01*
X206843809Y-43775809D01*
X206984157Y-43565765D01*
X207033440Y-43318000D01*
X207033440Y-41518000D01*
X206984157Y-41270235D01*
X206843809Y-41060191D01*
X206633765Y-40919843D01*
X206386000Y-40870560D01*
X204586000Y-40870560D01*
X204338235Y-40919843D01*
X204128191Y-41060191D01*
X203987843Y-41270235D01*
X203978641Y-41316498D01*
X203853576Y-41180034D01*
X203310742Y-40926954D01*
X203073000Y-41047003D01*
X203073000Y-42291000D01*
X203093000Y-42291000D01*
X203093000Y-42545000D01*
X203073000Y-42545000D01*
X203073000Y-43788997D01*
X203310742Y-43909046D01*
X203853576Y-43655966D01*
X203978641Y-43519502D01*
X203987843Y-43565765D01*
X204128191Y-43775809D01*
X204338235Y-43916157D01*
X204351000Y-43918696D01*
X204351000Y-45503868D01*
X202729868Y-47125000D01*
X189192132Y-47125000D01*
X188079000Y-46011868D01*
X188079000Y-43474197D01*
X188214000Y-43272155D01*
X188349000Y-43474197D01*
X188349000Y-43688000D01*
X188435397Y-44122346D01*
X188605114Y-44376345D01*
X188681434Y-44490566D01*
X190205433Y-46014566D01*
X190346764Y-46109000D01*
X190573654Y-46260603D01*
X191008000Y-46347000D01*
X193294000Y-46347000D01*
X193728346Y-46260603D01*
X194096566Y-46014566D01*
X195366566Y-44744566D01*
X195371887Y-44736603D01*
X195612603Y-44376346D01*
X195699000Y-43942000D01*
X195699000Y-39624000D01*
X195612603Y-39189654D01*
X195366566Y-38821434D01*
X193588566Y-37043434D01*
X193471181Y-36965000D01*
X193220346Y-36797397D01*
X192786000Y-36711000D01*
X164592000Y-36711000D01*
X164157654Y-36797397D01*
X163906819Y-36965000D01*
X163789434Y-37043434D01*
X161757434Y-39075434D01*
X161511397Y-39443654D01*
X161425000Y-39878000D01*
X161425000Y-41361803D01*
X161290000Y-41563845D01*
X161135481Y-41332591D01*
X160637491Y-40999845D01*
X160050072Y-40883000D01*
X159989928Y-40883000D01*
X159402509Y-40999845D01*
X158904519Y-41332591D01*
X158571773Y-41830581D01*
X158454928Y-42418000D01*
X158571773Y-43005419D01*
X158885000Y-43474197D01*
X158885000Y-45503867D01*
X157009868Y-47379000D01*
X150685100Y-47379000D01*
X150655020Y-47306200D01*
X150054959Y-46705091D01*
X149270541Y-46379372D01*
X148421185Y-46378630D01*
X147636200Y-46702980D01*
X147035091Y-47303041D01*
X146709372Y-48087459D01*
X146708630Y-48936815D01*
X147032980Y-49721800D01*
X147633041Y-50322909D01*
X148417459Y-50648628D01*
X149266815Y-50649370D01*
X150051800Y-50325020D01*
X150652909Y-49724959D01*
X150684450Y-49649000D01*
X154231867Y-49649000D01*
X152105434Y-51775434D01*
X151859397Y-52143654D01*
X151773000Y-52578000D01*
X151773000Y-58688193D01*
X151575825Y-59163043D01*
X150659868Y-60079000D01*
X146459255Y-60079000D01*
X146547533Y-59946882D01*
X146649154Y-59436000D01*
X146547533Y-58925118D01*
X146423000Y-58738740D01*
X146423000Y-57620132D01*
X147644071Y-56399061D01*
X147877991Y-56399265D01*
X148442371Y-56166068D01*
X148619841Y-55988908D01*
X148675673Y-56123699D01*
X148854302Y-56302327D01*
X149087691Y-56399000D01*
X149828250Y-56399000D01*
X149987000Y-56240250D01*
X149987000Y-54991000D01*
X150241000Y-54991000D01*
X150241000Y-56240250D01*
X150399750Y-56399000D01*
X151140309Y-56399000D01*
X151373698Y-56302327D01*
X151552327Y-56123699D01*
X151649000Y-55890310D01*
X151649000Y-55149750D01*
X151490250Y-54991000D01*
X150241000Y-54991000D01*
X149987000Y-54991000D01*
X149967000Y-54991000D01*
X149967000Y-54737000D01*
X149987000Y-54737000D01*
X149987000Y-53487750D01*
X150241000Y-53487750D01*
X150241000Y-54737000D01*
X151490250Y-54737000D01*
X151649000Y-54578250D01*
X151649000Y-53837690D01*
X151552327Y-53604301D01*
X151373698Y-53425673D01*
X151140309Y-53329000D01*
X150399750Y-53329000D01*
X150241000Y-53487750D01*
X149987000Y-53487750D01*
X149828250Y-53329000D01*
X149087691Y-53329000D01*
X148854302Y-53425673D01*
X148675673Y-53604301D01*
X148619881Y-53738994D01*
X148444643Y-53563449D01*
X147880670Y-53329267D01*
X147270009Y-53328735D01*
X146705629Y-53561932D01*
X146273449Y-53993357D01*
X146039267Y-54557330D01*
X146039061Y-54793807D01*
X144485434Y-56347434D01*
X144239397Y-56715654D01*
X144153000Y-57150000D01*
X144153000Y-58738740D01*
X144028467Y-58925118D01*
X143926846Y-59436000D01*
X144028467Y-59946882D01*
X144116745Y-60079000D01*
X143002000Y-60079000D01*
X142567654Y-60165397D01*
X142246496Y-60379988D01*
X142199434Y-60411434D01*
X138262434Y-64348434D01*
X138016397Y-64716654D01*
X137930000Y-65151000D01*
X137287000Y-65151000D01*
X137287000Y-43719750D01*
X146709000Y-43719750D01*
X146709000Y-45060309D01*
X146805673Y-45293698D01*
X146984301Y-45472327D01*
X147217690Y-45569000D01*
X148558250Y-45569000D01*
X148717000Y-45410250D01*
X148717000Y-43561000D01*
X148971000Y-43561000D01*
X148971000Y-45410250D01*
X149129750Y-45569000D01*
X150470310Y-45569000D01*
X150703699Y-45472327D01*
X150882327Y-45293698D01*
X150979000Y-45060309D01*
X150979000Y-43719750D01*
X150820250Y-43561000D01*
X148971000Y-43561000D01*
X148717000Y-43561000D01*
X146867750Y-43561000D01*
X146709000Y-43719750D01*
X137287000Y-43719750D01*
X137287000Y-41807691D01*
X146709000Y-41807691D01*
X146709000Y-43148250D01*
X146867750Y-43307000D01*
X148717000Y-43307000D01*
X148717000Y-41457750D01*
X148971000Y-41457750D01*
X148971000Y-43307000D01*
X150820250Y-43307000D01*
X150979000Y-43148250D01*
X150979000Y-41807691D01*
X150882327Y-41574302D01*
X150703699Y-41395673D01*
X150470310Y-41299000D01*
X149129750Y-41299000D01*
X148971000Y-41457750D01*
X148717000Y-41457750D01*
X148558250Y-41299000D01*
X147217690Y-41299000D01*
X146984301Y-41395673D01*
X146805673Y-41574302D01*
X146709000Y-41807691D01*
X137287000Y-41807691D01*
X137287000Y-36195000D01*
X211455000Y-36195000D01*
X211455000Y-133731000D01*
X211455000Y-133731000D01*
G37*
X211455000Y-133731000D02*
X137287000Y-133731000D01*
X137287000Y-125891175D01*
X152552430Y-125891175D01*
X152675565Y-126178788D01*
X153357734Y-126438707D01*
X154087443Y-126417786D01*
X154664435Y-126178788D01*
X154787570Y-125891175D01*
X153670000Y-124773605D01*
X152552430Y-125891175D01*
X137287000Y-125891175D01*
X137287000Y-124281734D01*
X151825293Y-124281734D01*
X151846214Y-125011443D01*
X152085212Y-125588435D01*
X152372825Y-125711570D01*
X153490395Y-124594000D01*
X153849605Y-124594000D01*
X154967175Y-125711570D01*
X155254788Y-125588435D01*
X155514707Y-124906266D01*
X155493786Y-124176557D01*
X155254788Y-123599565D01*
X154967175Y-123476430D01*
X153849605Y-124594000D01*
X153490395Y-124594000D01*
X152372825Y-123476430D01*
X152085212Y-123599565D01*
X151825293Y-124281734D01*
X137287000Y-124281734D01*
X137287000Y-123296825D01*
X152552430Y-123296825D01*
X153670000Y-124414395D01*
X154787570Y-123296825D01*
X154664435Y-123009212D01*
X153982266Y-122749293D01*
X153252557Y-122770214D01*
X152675565Y-123009212D01*
X152552430Y-123296825D01*
X137287000Y-123296825D01*
X137287000Y-65151000D01*
X137930000Y-65151000D01*
X137930000Y-92583000D01*
X138016397Y-93017346D01*
X138138688Y-93200367D01*
X138262434Y-93385566D01*
X144153000Y-99276132D01*
X144153000Y-102455516D01*
X143903154Y-102704927D01*
X143653794Y-103305453D01*
X143653226Y-103955694D01*
X143901538Y-104556655D01*
X144360927Y-105016846D01*
X144961453Y-105266206D01*
X145611694Y-105266774D01*
X146212655Y-105018462D01*
X146672846Y-104559073D01*
X146922206Y-103958547D01*
X146922774Y-103308306D01*
X146674462Y-102707345D01*
X146423000Y-102455444D01*
X146423000Y-98806000D01*
X146336603Y-98371654D01*
X146090566Y-98003434D01*
X140200000Y-92112868D01*
X140200000Y-65621132D01*
X143472132Y-62349000D01*
X151130000Y-62349000D01*
X151564346Y-62262603D01*
X151932566Y-62016566D01*
X153181786Y-60767346D01*
X153663229Y-60568418D01*
X154039098Y-60193204D01*
X154242768Y-59702713D01*
X154243231Y-59171617D01*
X154043000Y-58687020D01*
X154043000Y-53048132D01*
X155918133Y-51173000D01*
X160274000Y-51173000D01*
X160708346Y-51086603D01*
X161076566Y-50840566D01*
X165902566Y-46014566D01*
X166148604Y-45646345D01*
X166235000Y-45212000D01*
X166235000Y-43918696D01*
X166247765Y-43916157D01*
X166457809Y-43775809D01*
X166598157Y-43565765D01*
X166647440Y-43318000D01*
X166647440Y-42782740D01*
X171990964Y-42782740D01*
X172169760Y-43214417D01*
X172574424Y-43655966D01*
X173117258Y-43909046D01*
X173355000Y-43788997D01*
X173355000Y-42545000D01*
X172111622Y-42545000D01*
X171990964Y-42782740D01*
X166647440Y-42782740D01*
X166647440Y-42053260D01*
X171990964Y-42053260D01*
X172111622Y-42291000D01*
X173355000Y-42291000D01*
X173355000Y-41047003D01*
X173117258Y-40926954D01*
X172574424Y-41180034D01*
X172169760Y-41621583D01*
X171990964Y-42053260D01*
X166647440Y-42053260D01*
X166647440Y-41518000D01*
X166598157Y-41270235D01*
X166457809Y-41060191D01*
X166247765Y-40919843D01*
X166000000Y-40870560D01*
X164200000Y-40870560D01*
X163952235Y-40919843D01*
X163742191Y-41060191D01*
X163695000Y-41130817D01*
X163695000Y-40348132D01*
X165062132Y-38981000D01*
X183949868Y-38981000D01*
X182077434Y-40853434D01*
X181831397Y-41221654D01*
X181745000Y-41656000D01*
X181745000Y-67347868D01*
X181227216Y-67865652D01*
X181202217Y-67512625D01*
X181091217Y-67244648D01*
X180876104Y-67207501D01*
X180265605Y-67818000D01*
X180279748Y-67832143D01*
X180100143Y-68011748D01*
X180086000Y-67997605D01*
X180071858Y-68011748D01*
X179892253Y-67832143D01*
X179906395Y-67818000D01*
X179892253Y-67803858D01*
X180071858Y-67624253D01*
X180086000Y-67638395D01*
X180696499Y-67027896D01*
X180659352Y-66812783D01*
X180231028Y-66669888D01*
X179950877Y-66689727D01*
X179951197Y-66323225D01*
X179951000Y-66322748D01*
X179951000Y-65278000D01*
X179864603Y-64843654D01*
X179618566Y-64475434D01*
X178602566Y-63459434D01*
X178393372Y-63319655D01*
X178234346Y-63213397D01*
X177800000Y-63127000D01*
X158897185Y-63127000D01*
X159036603Y-62918346D01*
X159123000Y-62484000D01*
X159123000Y-59078000D01*
X160128275Y-59078000D01*
X160309822Y-59990700D01*
X160826825Y-60764450D01*
X161600575Y-61281453D01*
X162513275Y-61463000D01*
X162606725Y-61463000D01*
X163519425Y-61281453D01*
X164293175Y-60764450D01*
X164810178Y-59990700D01*
X164991725Y-59078000D01*
X173590275Y-59078000D01*
X173771822Y-59990700D01*
X174288825Y-60764450D01*
X175062575Y-61281453D01*
X175975275Y-61463000D01*
X176068725Y-61463000D01*
X176981425Y-61281453D01*
X177755175Y-60764450D01*
X178272178Y-59990700D01*
X178453725Y-59078000D01*
X178272178Y-58165300D01*
X177755175Y-57391550D01*
X176981425Y-56874547D01*
X176068725Y-56693000D01*
X175975275Y-56693000D01*
X175062575Y-56874547D01*
X174288825Y-57391550D01*
X173771822Y-58165300D01*
X173590275Y-59078000D01*
X164991725Y-59078000D01*
X164810178Y-58165300D01*
X164293175Y-57391550D01*
X163519425Y-56874547D01*
X162606725Y-56693000D01*
X162513275Y-56693000D01*
X161600575Y-56874547D01*
X160826825Y-57391550D01*
X160309822Y-58165300D01*
X160128275Y-59078000D01*
X159123000Y-59078000D01*
X159123000Y-56858132D01*
X160006130Y-55975002D01*
X171727998Y-55975002D01*
X172162344Y-55888605D01*
X172530564Y-55642568D01*
X179364566Y-48808566D01*
X179440886Y-48694345D01*
X179610603Y-48440346D01*
X179697000Y-48006000D01*
X179697000Y-43918696D01*
X179709765Y-43916157D01*
X179919809Y-43775809D01*
X180060157Y-43565765D01*
X180109440Y-43318000D01*
X180109440Y-41518000D01*
X180060157Y-41270235D01*
X179919809Y-41060191D01*
X179709765Y-40919843D01*
X179462000Y-40870560D01*
X177662000Y-40870560D01*
X177414235Y-40919843D01*
X177204191Y-41060191D01*
X177063843Y-41270235D01*
X177061534Y-41281845D01*
X176639491Y-40999845D01*
X176052072Y-40883000D01*
X175991928Y-40883000D01*
X175404509Y-40999845D01*
X174906519Y-41332591D01*
X174747499Y-41570582D01*
X174389576Y-41180034D01*
X173846742Y-40926954D01*
X173609000Y-41047003D01*
X173609000Y-42291000D01*
X173629000Y-42291000D01*
X173629000Y-42545000D01*
X173609000Y-42545000D01*
X173609000Y-43788997D01*
X173846742Y-43909046D01*
X174389576Y-43655966D01*
X174747499Y-43265418D01*
X174887000Y-43474197D01*
X174887000Y-46773868D01*
X169455868Y-52205000D01*
X158750000Y-52205000D01*
X158355687Y-52283434D01*
X158315654Y-52291397D01*
X157947433Y-52537434D01*
X157439434Y-53045434D01*
X155407434Y-55077434D01*
X155161397Y-55445654D01*
X155075000Y-55880000D01*
X155075000Y-61505867D01*
X153429870Y-63150998D01*
X152520646Y-63150998D01*
X152400000Y-63127000D01*
X143928676Y-63127000D01*
X143494331Y-63213396D01*
X143126110Y-63459434D01*
X140953432Y-65632112D01*
X140707395Y-66000332D01*
X140620998Y-66434678D01*
X140620998Y-88525354D01*
X140597000Y-88646000D01*
X140597000Y-91440000D01*
X140683397Y-91874346D01*
X140855951Y-92132591D01*
X140929434Y-92242566D01*
X142707434Y-94020566D01*
X143075654Y-94266603D01*
X143510000Y-94353000D01*
X144246737Y-94353000D01*
X144670509Y-94636155D01*
X145257928Y-94753000D01*
X145318072Y-94753000D01*
X145905491Y-94636155D01*
X146329263Y-94353000D01*
X147611868Y-94353000D01*
X149233000Y-95974132D01*
X149233000Y-102455516D01*
X148983154Y-102704927D01*
X148733794Y-103305453D01*
X148733226Y-103955694D01*
X148981538Y-104556655D01*
X149440927Y-105016846D01*
X150041453Y-105266206D01*
X150691694Y-105266774D01*
X151292655Y-105018462D01*
X151752846Y-104559073D01*
X152002206Y-103958547D01*
X152002774Y-103308306D01*
X151754462Y-102707345D01*
X151503000Y-102455444D01*
X151503000Y-95504000D01*
X151416603Y-95069654D01*
X151170566Y-94701434D01*
X148884566Y-92415434D01*
X148836025Y-92383000D01*
X148516346Y-92169397D01*
X148082000Y-92083000D01*
X146329263Y-92083000D01*
X145905491Y-91799845D01*
X145318072Y-91683000D01*
X145257928Y-91683000D01*
X144670509Y-91799845D01*
X144246737Y-92083000D01*
X143980132Y-92083000D01*
X142867000Y-90969868D01*
X142867000Y-88766646D01*
X142890998Y-88646000D01*
X142890998Y-87201329D01*
X143995284Y-87201329D01*
X144138203Y-87546396D01*
X144485337Y-87934764D01*
X144954669Y-88160727D01*
X145161000Y-88038206D01*
X145161000Y-86995000D01*
X145415000Y-86995000D01*
X145415000Y-88038206D01*
X145621331Y-88160727D01*
X146090663Y-87934764D01*
X146437797Y-87546396D01*
X146580716Y-87201329D01*
X146457374Y-86995000D01*
X145415000Y-86995000D01*
X145161000Y-86995000D01*
X144118626Y-86995000D01*
X143995284Y-87201329D01*
X142890998Y-87201329D01*
X142890998Y-86534671D01*
X143995284Y-86534671D01*
X144118626Y-86741000D01*
X145161000Y-86741000D01*
X145161000Y-85697794D01*
X145415000Y-85697794D01*
X145415000Y-86741000D01*
X146457374Y-86741000D01*
X146580716Y-86534671D01*
X146437797Y-86189604D01*
X146090663Y-85801236D01*
X145621331Y-85575273D01*
X145415000Y-85697794D01*
X145161000Y-85697794D01*
X144954669Y-85575273D01*
X144485337Y-85801236D01*
X144138203Y-86189604D01*
X143995284Y-86534671D01*
X142890998Y-86534671D01*
X142890998Y-76932130D01*
X144993433Y-79034566D01*
X145208936Y-79178560D01*
X144488000Y-79178560D01*
X144240235Y-79227843D01*
X144030191Y-79368191D01*
X143889843Y-79578235D01*
X143840560Y-79826000D01*
X143840560Y-82226000D01*
X143889843Y-82473765D01*
X144030191Y-82683809D01*
X144240235Y-82824157D01*
X144488000Y-82873440D01*
X146088000Y-82873440D01*
X146335765Y-82824157D01*
X146545809Y-82683809D01*
X146686157Y-82473765D01*
X146693000Y-82439363D01*
X146693000Y-84074000D01*
X146779397Y-84508346D01*
X146949114Y-84762345D01*
X147025434Y-84876566D01*
X149819434Y-87670566D01*
X150187655Y-87916604D01*
X150622000Y-88003000D01*
X152160193Y-88003000D01*
X152641287Y-88202768D01*
X153172383Y-88203231D01*
X153656980Y-88003000D01*
X158827729Y-88003000D01*
X158974964Y-88101379D01*
X159485846Y-88203000D01*
X159538154Y-88203000D01*
X160049036Y-88101379D01*
X160482142Y-87811988D01*
X160771533Y-87378882D01*
X160873154Y-86868000D01*
X160771533Y-86357118D01*
X160482142Y-85924012D01*
X160049036Y-85634621D01*
X159538154Y-85533000D01*
X159485846Y-85533000D01*
X158974964Y-85634621D01*
X158827729Y-85733000D01*
X153655807Y-85733000D01*
X153174713Y-85533232D01*
X152643617Y-85532769D01*
X152159020Y-85733000D01*
X151092132Y-85733000D01*
X148963000Y-83603868D01*
X148963000Y-82296604D01*
X149098000Y-82094562D01*
X149233000Y-82296604D01*
X149233000Y-83058000D01*
X149319397Y-83492346D01*
X149417826Y-83639655D01*
X149565434Y-83860566D01*
X150835434Y-85130566D01*
X151203654Y-85376603D01*
X151638000Y-85463000D01*
X168185868Y-85463000D01*
X168791000Y-86068132D01*
X168791000Y-89035000D01*
X163830000Y-89035000D01*
X163445687Y-89111445D01*
X164554132Y-88003000D01*
X166384193Y-88003000D01*
X166865287Y-88202768D01*
X167396383Y-88203231D01*
X167887229Y-88000418D01*
X168263098Y-87625204D01*
X168466768Y-87134713D01*
X168467231Y-86603617D01*
X168264418Y-86112771D01*
X167889204Y-85736902D01*
X167398713Y-85533232D01*
X166867617Y-85532769D01*
X166383020Y-85733000D01*
X164084000Y-85733000D01*
X163649654Y-85819397D01*
X163493087Y-85924012D01*
X163281434Y-86065434D01*
X160565868Y-88781000D01*
X158750000Y-88781000D01*
X158315654Y-88867397D01*
X158064819Y-89035000D01*
X157947434Y-89113434D01*
X155390308Y-91670560D01*
X154548000Y-91670560D01*
X154300235Y-91719843D01*
X154090191Y-91860191D01*
X153949843Y-92070235D01*
X153900560Y-92318000D01*
X153900560Y-93160308D01*
X152867434Y-94193434D01*
X152621397Y-94561654D01*
X152535000Y-94996000D01*
X152535000Y-115246560D01*
X152470000Y-115246560D01*
X152222235Y-115295843D01*
X152012191Y-115436191D01*
X151871843Y-115646235D01*
X151822560Y-115894000D01*
X151822560Y-118294000D01*
X151871843Y-118541765D01*
X152012191Y-118751809D01*
X152222235Y-118892157D01*
X152470000Y-118941440D01*
X154870000Y-118941440D01*
X155117765Y-118892157D01*
X155327809Y-118751809D01*
X155468157Y-118541765D01*
X155517440Y-118294000D01*
X155517440Y-115894000D01*
X155468157Y-115646235D01*
X155327809Y-115436191D01*
X155117765Y-115295843D01*
X154870000Y-115246560D01*
X154805000Y-115246560D01*
X154805000Y-107111181D01*
X154972603Y-106860346D01*
X155025420Y-106594815D01*
X156106630Y-106594815D01*
X156430980Y-107379800D01*
X157031041Y-107980909D01*
X157815459Y-108306628D01*
X158664815Y-108307370D01*
X159449800Y-107983020D01*
X159730309Y-107703000D01*
X167589459Y-107703000D01*
X167652000Y-107715440D01*
X168417000Y-107715440D01*
X168417000Y-111830799D01*
X168317172Y-112071212D01*
X168316830Y-112463069D01*
X168466471Y-112825229D01*
X168598910Y-112957899D01*
X168587170Y-112975468D01*
X168494373Y-113106112D01*
X168491507Y-113118639D01*
X168484367Y-113129325D01*
X168453105Y-113286487D01*
X168417360Y-113442725D01*
X168419507Y-113455398D01*
X168417000Y-113468000D01*
X168417000Y-116853750D01*
X168279000Y-116991750D01*
X168279000Y-117107466D01*
X168063325Y-117150367D01*
X168025000Y-117175975D01*
X168025000Y-116991750D01*
X167866250Y-116833000D01*
X167525691Y-116833000D01*
X167292302Y-116929673D01*
X167113673Y-117108301D01*
X167017000Y-117341690D01*
X167017000Y-117682250D01*
X167175750Y-117841000D01*
X167542262Y-117841000D01*
X167517000Y-117968000D01*
X167517000Y-118095000D01*
X167175750Y-118095000D01*
X167017000Y-118253750D01*
X167017000Y-118594310D01*
X167113673Y-118827699D01*
X167292302Y-119006327D01*
X167517000Y-119099400D01*
X167517000Y-132018000D01*
X167584367Y-132356675D01*
X167776210Y-132643790D01*
X168063325Y-132835633D01*
X168402000Y-132903000D01*
X207902000Y-132903000D01*
X208240675Y-132835633D01*
X208527790Y-132643790D01*
X208719633Y-132356675D01*
X208787000Y-132018000D01*
X208787000Y-111918000D01*
X208784493Y-111905398D01*
X208786640Y-111892725D01*
X208750895Y-111736487D01*
X208719633Y-111579325D01*
X208712493Y-111568639D01*
X208709627Y-111556112D01*
X208616830Y-111425468D01*
X208605100Y-111407913D01*
X208736555Y-111276686D01*
X208886828Y-110914788D01*
X208887170Y-110522931D01*
X208787000Y-110280500D01*
X208787000Y-92518000D01*
X208719633Y-92179325D01*
X208527790Y-91892210D01*
X208240675Y-91700367D01*
X207902000Y-91633000D01*
X168402000Y-91633000D01*
X168063325Y-91700367D01*
X167776210Y-91892210D01*
X167584367Y-92179325D01*
X167517000Y-92518000D01*
X167517000Y-105433000D01*
X160246725Y-105433000D01*
X160053020Y-104964200D01*
X159452959Y-104363091D01*
X158668541Y-104037372D01*
X157819185Y-104036630D01*
X157034200Y-104360980D01*
X156433091Y-104961041D01*
X156107372Y-105745459D01*
X156106630Y-106594815D01*
X155025420Y-106594815D01*
X155059000Y-106426000D01*
X154972603Y-105991654D01*
X154805000Y-105740819D01*
X154805000Y-102227000D01*
X156094560Y-102227000D01*
X156094560Y-102592000D01*
X156143843Y-102839765D01*
X156284191Y-103049809D01*
X156494235Y-103190157D01*
X156742000Y-103239440D01*
X159742000Y-103239440D01*
X159989765Y-103190157D01*
X160199809Y-103049809D01*
X160340157Y-102839765D01*
X160389440Y-102592000D01*
X160389440Y-99592000D01*
X160340157Y-99344235D01*
X160199809Y-99134191D01*
X159989765Y-98993843D01*
X159742000Y-98944560D01*
X156742000Y-98944560D01*
X156494235Y-98993843D01*
X156284191Y-99134191D01*
X156143843Y-99344235D01*
X156094560Y-99592000D01*
X156094560Y-99957000D01*
X154805000Y-99957000D01*
X154805000Y-95466132D01*
X155206397Y-95064735D01*
X161876870Y-95064735D01*
X161926383Y-95290164D01*
X162391036Y-95449807D01*
X162881413Y-95419482D01*
X163193617Y-95290164D01*
X163243130Y-95064735D01*
X162560000Y-94381605D01*
X161876870Y-95064735D01*
X155206397Y-95064735D01*
X155505692Y-94765440D01*
X156348000Y-94765440D01*
X156595765Y-94716157D01*
X156805809Y-94575809D01*
X156946157Y-94365765D01*
X156995440Y-94118000D01*
X156995440Y-93275692D01*
X159220132Y-91051000D01*
X161036000Y-91051000D01*
X161470346Y-90964603D01*
X161594060Y-90881940D01*
X161511397Y-91005654D01*
X161476062Y-91183296D01*
X161361843Y-91354235D01*
X161312560Y-91602000D01*
X161312560Y-92802000D01*
X161361843Y-93049765D01*
X161502191Y-93259809D01*
X161635718Y-93349030D01*
X161581570Y-93403178D01*
X161697263Y-93518871D01*
X161471836Y-93568383D01*
X161312193Y-94033036D01*
X161342518Y-94523413D01*
X161471836Y-94835617D01*
X161697265Y-94885130D01*
X162380395Y-94202000D01*
X162366253Y-94187858D01*
X162545858Y-94008253D01*
X162560000Y-94022395D01*
X162574143Y-94008253D01*
X162753748Y-94187858D01*
X162739605Y-94202000D01*
X163422735Y-94885130D01*
X163648164Y-94835617D01*
X163807807Y-94370964D01*
X163777482Y-93880587D01*
X163648164Y-93568383D01*
X163422737Y-93518871D01*
X163538430Y-93403178D01*
X163484282Y-93349030D01*
X163617809Y-93259809D01*
X163758157Y-93049765D01*
X163807440Y-92802000D01*
X163807440Y-91797692D01*
X164300132Y-91305000D01*
X207264000Y-91305000D01*
X207698346Y-91218603D01*
X208066566Y-90972566D01*
X210606566Y-88432567D01*
X210852603Y-88064346D01*
X210862331Y-88015440D01*
X210939000Y-87630000D01*
X210939000Y-39878000D01*
X210852603Y-39443654D01*
X210606566Y-39075434D01*
X208828566Y-37297434D01*
X208460346Y-37051397D01*
X208026000Y-36965000D01*
X201930000Y-36965000D01*
X201535687Y-37043434D01*
X201495654Y-37051397D01*
X201127433Y-37297434D01*
X199603434Y-38821434D01*
X199357397Y-39189654D01*
X199271000Y-39624000D01*
X199271000Y-41361803D01*
X198957773Y-41830581D01*
X198840928Y-42418000D01*
X198957773Y-43005419D01*
X199290519Y-43503409D01*
X199788509Y-43836155D01*
X200375928Y-43953000D01*
X200436072Y-43953000D01*
X201023491Y-43836155D01*
X201521481Y-43503409D01*
X201680501Y-43265418D01*
X202038424Y-43655966D01*
X202581258Y-43909046D01*
X202819000Y-43788997D01*
X202819000Y-42545000D01*
X202799000Y-42545000D01*
X202799000Y-42291000D01*
X202819000Y-42291000D01*
X202819000Y-41047003D01*
X202581258Y-40926954D01*
X202038424Y-41180034D01*
X201680501Y-41570582D01*
X201541000Y-41361803D01*
X201541000Y-40094132D01*
X202400133Y-39235000D01*
X207555868Y-39235000D01*
X208669000Y-40348132D01*
X208669000Y-87159867D01*
X206793868Y-89035000D01*
X171061000Y-89035000D01*
X171061000Y-85598000D01*
X170974603Y-85163654D01*
X170728566Y-84795434D01*
X169458566Y-83525434D01*
X169409045Y-83492345D01*
X169090346Y-83279397D01*
X168656000Y-83193000D01*
X160647000Y-83193000D01*
X160647000Y-81773807D01*
X160819106Y-81359329D01*
X165839284Y-81359329D01*
X165982203Y-81704396D01*
X166329337Y-82092764D01*
X166798669Y-82318727D01*
X167005000Y-82196206D01*
X167005000Y-81153000D01*
X167259000Y-81153000D01*
X167259000Y-82196206D01*
X167465331Y-82318727D01*
X167934663Y-82092764D01*
X168281797Y-81704396D01*
X168424716Y-81359329D01*
X168301374Y-81153000D01*
X167259000Y-81153000D01*
X167005000Y-81153000D01*
X165962626Y-81153000D01*
X165839284Y-81359329D01*
X160819106Y-81359329D01*
X160846768Y-81292713D01*
X160847231Y-80761617D01*
X160818744Y-80692671D01*
X165839284Y-80692671D01*
X165962626Y-80899000D01*
X167005000Y-80899000D01*
X167005000Y-79855794D01*
X167259000Y-79855794D01*
X167259000Y-80899000D01*
X168301374Y-80899000D01*
X168424716Y-80692671D01*
X168421020Y-80683745D01*
X171637861Y-80683745D01*
X171711995Y-80929864D01*
X172249223Y-81122965D01*
X172819454Y-81095778D01*
X173220005Y-80929864D01*
X173294139Y-80683745D01*
X172466000Y-79855605D01*
X171637861Y-80683745D01*
X168421020Y-80683745D01*
X168281797Y-80347604D01*
X167934663Y-79959236D01*
X167465331Y-79733273D01*
X167259000Y-79855794D01*
X167005000Y-79855794D01*
X166798669Y-79733273D01*
X166329337Y-79959236D01*
X165982203Y-80347604D01*
X165839284Y-80692671D01*
X160818744Y-80692671D01*
X160644418Y-80270771D01*
X160269204Y-79894902D01*
X159778713Y-79691232D01*
X159247617Y-79690769D01*
X158756771Y-79893582D01*
X158380902Y-80268796D01*
X158177232Y-80759287D01*
X158176769Y-81290383D01*
X158377000Y-81774980D01*
X158377000Y-83193000D01*
X152108132Y-83193000D01*
X151503000Y-82587868D01*
X151503000Y-82296604D01*
X151635507Y-82098293D01*
X151983104Y-82530500D01*
X152476181Y-82800367D01*
X152558961Y-82817904D01*
X152781000Y-82695915D01*
X152781000Y-81153000D01*
X153035000Y-81153000D01*
X153035000Y-82695915D01*
X153257039Y-82817904D01*
X153339819Y-82800367D01*
X153832896Y-82530500D01*
X154185166Y-82092483D01*
X154343000Y-81553000D01*
X154343000Y-81153000D01*
X153035000Y-81153000D01*
X152781000Y-81153000D01*
X152761000Y-81153000D01*
X152761000Y-80899000D01*
X152781000Y-80899000D01*
X152781000Y-80879000D01*
X153035000Y-80879000D01*
X153035000Y-80899000D01*
X154343000Y-80899000D01*
X154343000Y-80499000D01*
X154185166Y-79959517D01*
X153832896Y-79521500D01*
X153719109Y-79459223D01*
X171019035Y-79459223D01*
X171046222Y-80029454D01*
X171212136Y-80430005D01*
X171458255Y-80504139D01*
X172286395Y-79676000D01*
X171458255Y-78847861D01*
X171212136Y-78921995D01*
X171019035Y-79459223D01*
X153719109Y-79459223D01*
X153550607Y-79367000D01*
X156718000Y-79367000D01*
X157152346Y-79280603D01*
X157520566Y-79034566D01*
X158204132Y-78351000D01*
X171883732Y-78351000D01*
X171711995Y-78422136D01*
X171637861Y-78668255D01*
X172466000Y-79496395D01*
X172480142Y-79482252D01*
X172659748Y-79661858D01*
X172645605Y-79676000D01*
X173473745Y-80504139D01*
X173719864Y-80430005D01*
X173912965Y-79892777D01*
X173885778Y-79322546D01*
X173816739Y-79155871D01*
X174125000Y-79464132D01*
X174125000Y-85852000D01*
X174211397Y-86286346D01*
X174396001Y-86562625D01*
X174457434Y-86654566D01*
X175473434Y-87670566D01*
X175841654Y-87916603D01*
X176276000Y-88003000D01*
X176983459Y-88003000D01*
X177046000Y-88015440D01*
X178046000Y-88015440D01*
X178293765Y-87966157D01*
X178503809Y-87825809D01*
X178615866Y-87658104D01*
X179475501Y-87658104D01*
X179512648Y-87873217D01*
X179940972Y-88016112D01*
X180391375Y-87984217D01*
X180659352Y-87873217D01*
X180696499Y-87658104D01*
X180086000Y-87047605D01*
X179475501Y-87658104D01*
X178615866Y-87658104D01*
X178644157Y-87615765D01*
X178693440Y-87368000D01*
X178693440Y-86732894D01*
X178938606Y-86733108D01*
X178969783Y-87173375D01*
X179080783Y-87441352D01*
X179295896Y-87478499D01*
X179906395Y-86868000D01*
X180265605Y-86868000D01*
X180876104Y-87478499D01*
X181091217Y-87441352D01*
X181234112Y-87013028D01*
X181202217Y-86562625D01*
X181091217Y-86294648D01*
X180876104Y-86257501D01*
X180265605Y-86868000D01*
X179906395Y-86868000D01*
X179892253Y-86853858D01*
X180071858Y-86674253D01*
X180086000Y-86688395D01*
X180696499Y-86077896D01*
X180659352Y-85862783D01*
X180282179Y-85736953D01*
X180302132Y-85717000D01*
X185203868Y-85717000D01*
X185749750Y-86262882D01*
X185609232Y-86601287D01*
X185608769Y-87132383D01*
X185811582Y-87623229D01*
X186186796Y-87999098D01*
X186677287Y-88202768D01*
X187208383Y-88203231D01*
X187699229Y-88000418D01*
X188075098Y-87625204D01*
X188278768Y-87134713D01*
X188279231Y-86603617D01*
X188079000Y-86119020D01*
X188079000Y-85852000D01*
X187992603Y-85417654D01*
X187746566Y-85049434D01*
X186476566Y-83779434D01*
X186267372Y-83639655D01*
X186108346Y-83533397D01*
X185674000Y-83447000D01*
X179832000Y-83447000D01*
X179397654Y-83533397D01*
X179238628Y-83639655D01*
X179029434Y-83779434D01*
X178013848Y-84795020D01*
X177854355Y-84954235D01*
X177681197Y-85371244D01*
X177680892Y-85720560D01*
X177046000Y-85720560D01*
X176983459Y-85733000D01*
X176746132Y-85733000D01*
X176395000Y-85381868D01*
X176395000Y-81311750D01*
X185255000Y-81311750D01*
X185255000Y-82352309D01*
X185351673Y-82585698D01*
X185530301Y-82764327D01*
X185763690Y-82861000D01*
X186404250Y-82861000D01*
X186563000Y-82702250D01*
X186563000Y-81153000D01*
X185413750Y-81153000D01*
X185255000Y-81311750D01*
X176395000Y-81311750D01*
X176395000Y-78994000D01*
X176308603Y-78559654D01*
X176062566Y-78191434D01*
X174284566Y-76413434D01*
X174235045Y-76380345D01*
X173916346Y-76167397D01*
X173482000Y-76081000D01*
X172823393Y-76081000D01*
X173277800Y-75893243D01*
X173360187Y-75811000D01*
X174535868Y-75811000D01*
X176743433Y-78018566D01*
X177002149Y-78191434D01*
X177111654Y-78264603D01*
X177546000Y-78351000D01*
X177935000Y-78351000D01*
X177935000Y-78974432D01*
X177921957Y-78987452D01*
X177715236Y-79485291D01*
X177714765Y-80024344D01*
X177920617Y-80522543D01*
X178301452Y-80904043D01*
X178799291Y-81110764D01*
X179338344Y-81111235D01*
X179836543Y-80905383D01*
X180218043Y-80524548D01*
X180424764Y-80026709D01*
X180425049Y-79699691D01*
X185255000Y-79699691D01*
X185255000Y-80740250D01*
X185413750Y-80899000D01*
X186563000Y-80899000D01*
X186563000Y-79349750D01*
X186404250Y-79191000D01*
X185763690Y-79191000D01*
X185530301Y-79287673D01*
X185351673Y-79466302D01*
X185255000Y-79699691D01*
X180425049Y-79699691D01*
X180425235Y-79487656D01*
X180219383Y-78989457D01*
X180205000Y-78975049D01*
X180205000Y-78351000D01*
X188349000Y-78351000D01*
X188349000Y-79486018D01*
X188215302Y-79575352D01*
X188125000Y-79710498D01*
X188125000Y-79699691D01*
X188028327Y-79466302D01*
X187849699Y-79287673D01*
X187616310Y-79191000D01*
X186975750Y-79191000D01*
X186817000Y-79349750D01*
X186817000Y-80899000D01*
X186837000Y-80899000D01*
X186837000Y-81153000D01*
X186817000Y-81153000D01*
X186817000Y-82702250D01*
X186975750Y-82861000D01*
X187616310Y-82861000D01*
X187849699Y-82764327D01*
X188028327Y-82585698D01*
X188125000Y-82352309D01*
X188125000Y-82341502D01*
X188215302Y-82476648D01*
X188680849Y-82787717D01*
X189230000Y-82896950D01*
X189779151Y-82787717D01*
X190244698Y-82476648D01*
X190500000Y-82094562D01*
X190755302Y-82476648D01*
X190889000Y-82565982D01*
X190889000Y-83058000D01*
X190975397Y-83492346D01*
X191073826Y-83639655D01*
X191221434Y-83860566D01*
X193429000Y-86068133D01*
X193429000Y-86170740D01*
X193304467Y-86357118D01*
X193202846Y-86868000D01*
X193304467Y-87378882D01*
X193593858Y-87811988D01*
X194026964Y-88101379D01*
X194537846Y-88203000D01*
X194590154Y-88203000D01*
X195101036Y-88101379D01*
X195534142Y-87811988D01*
X195823533Y-87378882D01*
X195876625Y-87111970D01*
X202627635Y-87111970D01*
X202787418Y-87430739D01*
X203578187Y-87740723D01*
X204427387Y-87724497D01*
X205136582Y-87430739D01*
X205296365Y-87111970D01*
X203962000Y-85777605D01*
X202627635Y-87111970D01*
X195876625Y-87111970D01*
X195925154Y-86868000D01*
X195823533Y-86357118D01*
X195699000Y-86170740D01*
X195699000Y-85598000D01*
X195622655Y-85214187D01*
X201819277Y-85214187D01*
X201835503Y-86063387D01*
X202129261Y-86772582D01*
X202448030Y-86932365D01*
X203782395Y-85598000D01*
X204141605Y-85598000D01*
X205475970Y-86932365D01*
X205794739Y-86772582D01*
X206104723Y-85981813D01*
X206088497Y-85132613D01*
X205794739Y-84423418D01*
X205475970Y-84263635D01*
X204141605Y-85598000D01*
X203782395Y-85598000D01*
X202448030Y-84263635D01*
X202129261Y-84423418D01*
X201819277Y-85214187D01*
X195622655Y-85214187D01*
X195612603Y-85163654D01*
X195514174Y-85016345D01*
X195366566Y-84795433D01*
X194655163Y-84084030D01*
X202627635Y-84084030D01*
X203962000Y-85418395D01*
X205296365Y-84084030D01*
X205136582Y-83765261D01*
X204345813Y-83455277D01*
X203496613Y-83471503D01*
X202787418Y-83765261D01*
X202627635Y-84084030D01*
X194655163Y-84084030D01*
X193159000Y-82587868D01*
X193159000Y-82272658D01*
X193295302Y-82476648D01*
X193760849Y-82787717D01*
X194310000Y-82896950D01*
X194859151Y-82787717D01*
X195324698Y-82476648D01*
X195535608Y-82161000D01*
X195834000Y-82161000D01*
X196268346Y-82074603D01*
X196636566Y-81828566D01*
X198160566Y-80304567D01*
X198406603Y-79936346D01*
X198442476Y-79756000D01*
X198493000Y-79502000D01*
X198493000Y-79018000D01*
X201814560Y-79018000D01*
X201814560Y-82018000D01*
X201863843Y-82265765D01*
X202004191Y-82475809D01*
X202214235Y-82616157D01*
X202462000Y-82665440D01*
X205462000Y-82665440D01*
X205709765Y-82616157D01*
X205919809Y-82475809D01*
X206060157Y-82265765D01*
X206109440Y-82018000D01*
X206109440Y-79018000D01*
X206060157Y-78770235D01*
X205919809Y-78560191D01*
X205709765Y-78419843D01*
X205462000Y-78370560D01*
X205097000Y-78370560D01*
X205097000Y-75247100D01*
X205169800Y-75217020D01*
X205770909Y-74616959D01*
X206096628Y-73832541D01*
X206097370Y-72983185D01*
X205773020Y-72198200D01*
X205172959Y-71597091D01*
X204388541Y-71271372D01*
X203539185Y-71270630D01*
X202754200Y-71594980D01*
X202153091Y-72195041D01*
X201827372Y-72979459D01*
X201826630Y-73828815D01*
X202150980Y-74613800D01*
X202751041Y-75214909D01*
X202827000Y-75246450D01*
X202827000Y-78370560D01*
X202462000Y-78370560D01*
X202214235Y-78419843D01*
X202004191Y-78560191D01*
X201863843Y-78770235D01*
X201814560Y-79018000D01*
X198493000Y-79018000D01*
X198493000Y-69461000D01*
X201814560Y-69461000D01*
X201814560Y-69826000D01*
X201863843Y-70073765D01*
X202004191Y-70283809D01*
X202214235Y-70424157D01*
X202462000Y-70473440D01*
X205462000Y-70473440D01*
X205709765Y-70424157D01*
X205919809Y-70283809D01*
X206060157Y-70073765D01*
X206109440Y-69826000D01*
X206109440Y-66826000D01*
X206060157Y-66578235D01*
X205919809Y-66368191D01*
X205709765Y-66227843D01*
X205462000Y-66178560D01*
X202462000Y-66178560D01*
X202214235Y-66227843D01*
X202004191Y-66368191D01*
X201863843Y-66578235D01*
X201814560Y-66826000D01*
X201814560Y-67191000D01*
X198493000Y-67191000D01*
X198493000Y-59078000D01*
X200514275Y-59078000D01*
X200695822Y-59990700D01*
X201212825Y-60764450D01*
X201986575Y-61281453D01*
X202899275Y-61463000D01*
X202992725Y-61463000D01*
X203905425Y-61281453D01*
X204679175Y-60764450D01*
X205196178Y-59990700D01*
X205377725Y-59078000D01*
X205196178Y-58165300D01*
X204679175Y-57391550D01*
X203905425Y-56874547D01*
X202992725Y-56693000D01*
X202899275Y-56693000D01*
X201986575Y-56874547D01*
X201212825Y-57391550D01*
X200695822Y-58165300D01*
X200514275Y-59078000D01*
X198493000Y-59078000D01*
X198493000Y-49395000D01*
X203200000Y-49395000D01*
X203634346Y-49308603D01*
X204002566Y-49062566D01*
X206288566Y-46776566D01*
X206337735Y-46702980D01*
X206534603Y-46408346D01*
X206621000Y-45974000D01*
X206621000Y-43918696D01*
X206633765Y-43916157D01*
X206843809Y-43775809D01*
X206984157Y-43565765D01*
X207033440Y-43318000D01*
X207033440Y-41518000D01*
X206984157Y-41270235D01*
X206843809Y-41060191D01*
X206633765Y-40919843D01*
X206386000Y-40870560D01*
X204586000Y-40870560D01*
X204338235Y-40919843D01*
X204128191Y-41060191D01*
X203987843Y-41270235D01*
X203978641Y-41316498D01*
X203853576Y-41180034D01*
X203310742Y-40926954D01*
X203073000Y-41047003D01*
X203073000Y-42291000D01*
X203093000Y-42291000D01*
X203093000Y-42545000D01*
X203073000Y-42545000D01*
X203073000Y-43788997D01*
X203310742Y-43909046D01*
X203853576Y-43655966D01*
X203978641Y-43519502D01*
X203987843Y-43565765D01*
X204128191Y-43775809D01*
X204338235Y-43916157D01*
X204351000Y-43918696D01*
X204351000Y-45503868D01*
X202729868Y-47125000D01*
X189192132Y-47125000D01*
X188079000Y-46011868D01*
X188079000Y-43474197D01*
X188214000Y-43272155D01*
X188349000Y-43474197D01*
X188349000Y-43688000D01*
X188435397Y-44122346D01*
X188605114Y-44376345D01*
X188681434Y-44490566D01*
X190205433Y-46014566D01*
X190346764Y-46109000D01*
X190573654Y-46260603D01*
X191008000Y-46347000D01*
X193294000Y-46347000D01*
X193728346Y-46260603D01*
X194096566Y-46014566D01*
X195366566Y-44744566D01*
X195371887Y-44736603D01*
X195612603Y-44376346D01*
X195699000Y-43942000D01*
X195699000Y-39624000D01*
X195612603Y-39189654D01*
X195366566Y-38821434D01*
X193588566Y-37043434D01*
X193471181Y-36965000D01*
X193220346Y-36797397D01*
X192786000Y-36711000D01*
X164592000Y-36711000D01*
X164157654Y-36797397D01*
X163906819Y-36965000D01*
X163789434Y-37043434D01*
X161757434Y-39075434D01*
X161511397Y-39443654D01*
X161425000Y-39878000D01*
X161425000Y-41361803D01*
X161290000Y-41563845D01*
X161135481Y-41332591D01*
X160637491Y-40999845D01*
X160050072Y-40883000D01*
X159989928Y-40883000D01*
X159402509Y-40999845D01*
X158904519Y-41332591D01*
X158571773Y-41830581D01*
X158454928Y-42418000D01*
X158571773Y-43005419D01*
X158885000Y-43474197D01*
X158885000Y-45503867D01*
X157009868Y-47379000D01*
X150685100Y-47379000D01*
X150655020Y-47306200D01*
X150054959Y-46705091D01*
X149270541Y-46379372D01*
X148421185Y-46378630D01*
X147636200Y-46702980D01*
X147035091Y-47303041D01*
X146709372Y-48087459D01*
X146708630Y-48936815D01*
X147032980Y-49721800D01*
X147633041Y-50322909D01*
X148417459Y-50648628D01*
X149266815Y-50649370D01*
X150051800Y-50325020D01*
X150652909Y-49724959D01*
X150684450Y-49649000D01*
X154231867Y-49649000D01*
X152105434Y-51775434D01*
X151859397Y-52143654D01*
X151773000Y-52578000D01*
X151773000Y-58688193D01*
X151575825Y-59163043D01*
X150659868Y-60079000D01*
X146459255Y-60079000D01*
X146547533Y-59946882D01*
X146649154Y-59436000D01*
X146547533Y-58925118D01*
X146423000Y-58738740D01*
X146423000Y-57620132D01*
X147644071Y-56399061D01*
X147877991Y-56399265D01*
X148442371Y-56166068D01*
X148619841Y-55988908D01*
X148675673Y-56123699D01*
X148854302Y-56302327D01*
X149087691Y-56399000D01*
X149828250Y-56399000D01*
X149987000Y-56240250D01*
X149987000Y-54991000D01*
X150241000Y-54991000D01*
X150241000Y-56240250D01*
X150399750Y-56399000D01*
X151140309Y-56399000D01*
X151373698Y-56302327D01*
X151552327Y-56123699D01*
X151649000Y-55890310D01*
X151649000Y-55149750D01*
X151490250Y-54991000D01*
X150241000Y-54991000D01*
X149987000Y-54991000D01*
X149967000Y-54991000D01*
X149967000Y-54737000D01*
X149987000Y-54737000D01*
X149987000Y-53487750D01*
X150241000Y-53487750D01*
X150241000Y-54737000D01*
X151490250Y-54737000D01*
X151649000Y-54578250D01*
X151649000Y-53837690D01*
X151552327Y-53604301D01*
X151373698Y-53425673D01*
X151140309Y-53329000D01*
X150399750Y-53329000D01*
X150241000Y-53487750D01*
X149987000Y-53487750D01*
X149828250Y-53329000D01*
X149087691Y-53329000D01*
X148854302Y-53425673D01*
X148675673Y-53604301D01*
X148619881Y-53738994D01*
X148444643Y-53563449D01*
X147880670Y-53329267D01*
X147270009Y-53328735D01*
X146705629Y-53561932D01*
X146273449Y-53993357D01*
X146039267Y-54557330D01*
X146039061Y-54793807D01*
X144485434Y-56347434D01*
X144239397Y-56715654D01*
X144153000Y-57150000D01*
X144153000Y-58738740D01*
X144028467Y-58925118D01*
X143926846Y-59436000D01*
X144028467Y-59946882D01*
X144116745Y-60079000D01*
X143002000Y-60079000D01*
X142567654Y-60165397D01*
X142246496Y-60379988D01*
X142199434Y-60411434D01*
X138262434Y-64348434D01*
X138016397Y-64716654D01*
X137930000Y-65151000D01*
X137287000Y-65151000D01*
X137287000Y-43719750D01*
X146709000Y-43719750D01*
X146709000Y-45060309D01*
X146805673Y-45293698D01*
X146984301Y-45472327D01*
X147217690Y-45569000D01*
X148558250Y-45569000D01*
X148717000Y-45410250D01*
X148717000Y-43561000D01*
X148971000Y-43561000D01*
X148971000Y-45410250D01*
X149129750Y-45569000D01*
X150470310Y-45569000D01*
X150703699Y-45472327D01*
X150882327Y-45293698D01*
X150979000Y-45060309D01*
X150979000Y-43719750D01*
X150820250Y-43561000D01*
X148971000Y-43561000D01*
X148717000Y-43561000D01*
X146867750Y-43561000D01*
X146709000Y-43719750D01*
X137287000Y-43719750D01*
X137287000Y-41807691D01*
X146709000Y-41807691D01*
X146709000Y-43148250D01*
X146867750Y-43307000D01*
X148717000Y-43307000D01*
X148717000Y-41457750D01*
X148971000Y-41457750D01*
X148971000Y-43307000D01*
X150820250Y-43307000D01*
X150979000Y-43148250D01*
X150979000Y-41807691D01*
X150882327Y-41574302D01*
X150703699Y-41395673D01*
X150470310Y-41299000D01*
X149129750Y-41299000D01*
X148971000Y-41457750D01*
X148717000Y-41457750D01*
X148558250Y-41299000D01*
X147217690Y-41299000D01*
X146984301Y-41395673D01*
X146805673Y-41574302D01*
X146709000Y-41807691D01*
X137287000Y-41807691D01*
X137287000Y-36195000D01*
X211455000Y-36195000D01*
X211455000Y-133731000D01*
D34*
G36*
X210185000Y-90043000D02*
X208996132Y-90043000D01*
X210185000Y-88854133D01*
X210185000Y-90043000D01*
X210185000Y-90043000D01*
G37*
X210185000Y-90043000D02*
X208996132Y-90043000D01*
X210185000Y-88854133D01*
X210185000Y-90043000D01*
G36*
X182077434Y-40853434D02*
X181831397Y-41221654D01*
X181745000Y-41656000D01*
X181745000Y-67347868D01*
X181220954Y-67871914D01*
X181221197Y-67593225D01*
X181048767Y-67175914D01*
X180729765Y-66856355D01*
X180312756Y-66683197D01*
X179950883Y-66682881D01*
X179951197Y-66323225D01*
X179951000Y-66322748D01*
X179951000Y-65278000D01*
X179864603Y-64843654D01*
X179618566Y-64475434D01*
X178602566Y-63459434D01*
X178393372Y-63319655D01*
X178234346Y-63213397D01*
X177800000Y-63127000D01*
X158897185Y-63127000D01*
X159036603Y-62918346D01*
X159123000Y-62484000D01*
X159123000Y-59078000D01*
X160128275Y-59078000D01*
X160309822Y-59990700D01*
X160545343Y-60343183D01*
X160558579Y-60375137D01*
X160584520Y-60401815D01*
X160826825Y-60764450D01*
X161141752Y-60974878D01*
X161207321Y-61042309D01*
X161306789Y-61085152D01*
X161600575Y-61281453D01*
X161901526Y-61341316D01*
X162061996Y-61410433D01*
X162137261Y-61388206D01*
X162513275Y-61463000D01*
X162606725Y-61463000D01*
X162982739Y-61388206D01*
X163058004Y-61410433D01*
X163218474Y-61341316D01*
X163519425Y-61281453D01*
X163813211Y-61085152D01*
X163912679Y-61042309D01*
X163978248Y-60974878D01*
X164293175Y-60764450D01*
X164535480Y-60401815D01*
X164561421Y-60375137D01*
X164574657Y-60343183D01*
X164810178Y-59990700D01*
X164991725Y-59078000D01*
X173590275Y-59078000D01*
X173771822Y-59990700D01*
X174007343Y-60343183D01*
X174020579Y-60375137D01*
X174046520Y-60401815D01*
X174288825Y-60764450D01*
X174603752Y-60974878D01*
X174669321Y-61042309D01*
X174768789Y-61085152D01*
X175062575Y-61281453D01*
X175363526Y-61341316D01*
X175523996Y-61410433D01*
X175599261Y-61388206D01*
X175975275Y-61463000D01*
X176068725Y-61463000D01*
X176444739Y-61388206D01*
X176520004Y-61410433D01*
X176680474Y-61341316D01*
X176981425Y-61281453D01*
X177275211Y-61085152D01*
X177374679Y-61042309D01*
X177440248Y-60974878D01*
X177755175Y-60764450D01*
X177997480Y-60401815D01*
X178023421Y-60375137D01*
X178036657Y-60343183D01*
X178272178Y-59990700D01*
X178453725Y-59078000D01*
X178272178Y-58165300D01*
X178036657Y-57812817D01*
X178023421Y-57780863D01*
X177997480Y-57754185D01*
X177755175Y-57391550D01*
X177440248Y-57181122D01*
X177374679Y-57113691D01*
X177275211Y-57070848D01*
X176981425Y-56874547D01*
X176680474Y-56814684D01*
X176520004Y-56745567D01*
X176444739Y-56767794D01*
X176068725Y-56693000D01*
X175975275Y-56693000D01*
X175599261Y-56767794D01*
X175523996Y-56745567D01*
X175363526Y-56814684D01*
X175062575Y-56874547D01*
X174768789Y-57070848D01*
X174669321Y-57113691D01*
X174603752Y-57181122D01*
X174288825Y-57391550D01*
X174046520Y-57754185D01*
X174020579Y-57780863D01*
X174007343Y-57812817D01*
X173771822Y-58165300D01*
X173590275Y-59078000D01*
X164991725Y-59078000D01*
X164810178Y-58165300D01*
X164574657Y-57812817D01*
X164561421Y-57780863D01*
X164535480Y-57754185D01*
X164293175Y-57391550D01*
X163978248Y-57181122D01*
X163912679Y-57113691D01*
X163813211Y-57070848D01*
X163519425Y-56874547D01*
X163218474Y-56814684D01*
X163058004Y-56745567D01*
X162982739Y-56767794D01*
X162606725Y-56693000D01*
X162513275Y-56693000D01*
X162137261Y-56767794D01*
X162061996Y-56745567D01*
X161901526Y-56814684D01*
X161600575Y-56874547D01*
X161306789Y-57070848D01*
X161207321Y-57113691D01*
X161141752Y-57181122D01*
X160826825Y-57391550D01*
X160584520Y-57754185D01*
X160558579Y-57780863D01*
X160545343Y-57812817D01*
X160309822Y-58165300D01*
X160128275Y-59078000D01*
X159123000Y-59078000D01*
X159123000Y-56858132D01*
X160006130Y-55975002D01*
X171727998Y-55975002D01*
X172162344Y-55888605D01*
X172530564Y-55642568D01*
X179364566Y-48808566D01*
X179440886Y-48694345D01*
X179610603Y-48440346D01*
X179697000Y-48006000D01*
X179697000Y-43918696D01*
X179709765Y-43916157D01*
X179919809Y-43775809D01*
X180060157Y-43565765D01*
X180109440Y-43318000D01*
X180109440Y-41518000D01*
X180060157Y-41270235D01*
X179919809Y-41060191D01*
X179709765Y-40919843D01*
X179462000Y-40870560D01*
X177662000Y-40870560D01*
X177414235Y-40919843D01*
X177204191Y-41060191D01*
X177063843Y-41270235D01*
X177061534Y-41281845D01*
X176639491Y-40999845D01*
X176052072Y-40883000D01*
X175991928Y-40883000D01*
X175404509Y-40999845D01*
X174906519Y-41332591D01*
X174752000Y-41563845D01*
X174597481Y-41332591D01*
X174099491Y-40999845D01*
X173512072Y-40883000D01*
X173451928Y-40883000D01*
X172864509Y-40999845D01*
X172366519Y-41332591D01*
X172033773Y-41830581D01*
X171916928Y-42418000D01*
X172033773Y-43005419D01*
X172366519Y-43503409D01*
X172864509Y-43836155D01*
X173451928Y-43953000D01*
X173512072Y-43953000D01*
X174099491Y-43836155D01*
X174597481Y-43503409D01*
X174752000Y-43272155D01*
X174887000Y-43474197D01*
X174887000Y-46773868D01*
X169455868Y-52205000D01*
X158750000Y-52205000D01*
X158355687Y-52283434D01*
X158315654Y-52291397D01*
X157947433Y-52537434D01*
X157439434Y-53045434D01*
X155407434Y-55077434D01*
X155161397Y-55445654D01*
X155075000Y-55880000D01*
X155075000Y-61505867D01*
X153429870Y-63150998D01*
X152520646Y-63150998D01*
X152400000Y-63127000D01*
X143928676Y-63127000D01*
X143494331Y-63213396D01*
X143126110Y-63459434D01*
X140953432Y-65632112D01*
X140707395Y-66000332D01*
X140620998Y-66434678D01*
X140620998Y-88525354D01*
X140597000Y-88646000D01*
X140597000Y-90043000D01*
X140200000Y-90043000D01*
X140200000Y-65621132D01*
X143472132Y-62349000D01*
X151130000Y-62349000D01*
X151564346Y-62262603D01*
X151932566Y-62016566D01*
X153181786Y-60767346D01*
X153663229Y-60568418D01*
X154039098Y-60193204D01*
X154242768Y-59702713D01*
X154243231Y-59171617D01*
X154043000Y-58687020D01*
X154043000Y-53048132D01*
X155918133Y-51173000D01*
X160274000Y-51173000D01*
X160708346Y-51086603D01*
X161076566Y-50840566D01*
X165902566Y-46014566D01*
X166148604Y-45646345D01*
X166235000Y-45212000D01*
X166235000Y-43918696D01*
X166247765Y-43916157D01*
X166457809Y-43775809D01*
X166598157Y-43565765D01*
X166647440Y-43318000D01*
X166647440Y-41518000D01*
X166598157Y-41270235D01*
X166457809Y-41060191D01*
X166247765Y-40919843D01*
X166000000Y-40870560D01*
X164200000Y-40870560D01*
X163952235Y-40919843D01*
X163742191Y-41060191D01*
X163695000Y-41130817D01*
X163695000Y-40348132D01*
X165062132Y-38981000D01*
X183949868Y-38981000D01*
X182077434Y-40853434D01*
X182077434Y-40853434D01*
G37*
X182077434Y-40853434D02*
X181831397Y-41221654D01*
X181745000Y-41656000D01*
X181745000Y-67347868D01*
X181220954Y-67871914D01*
X181221197Y-67593225D01*
X181048767Y-67175914D01*
X180729765Y-66856355D01*
X180312756Y-66683197D01*
X179950883Y-66682881D01*
X179951197Y-66323225D01*
X179951000Y-66322748D01*
X179951000Y-65278000D01*
X179864603Y-64843654D01*
X179618566Y-64475434D01*
X178602566Y-63459434D01*
X178393372Y-63319655D01*
X178234346Y-63213397D01*
X177800000Y-63127000D01*
X158897185Y-63127000D01*
X159036603Y-62918346D01*
X159123000Y-62484000D01*
X159123000Y-59078000D01*
X160128275Y-59078000D01*
X160309822Y-59990700D01*
X160545343Y-60343183D01*
X160558579Y-60375137D01*
X160584520Y-60401815D01*
X160826825Y-60764450D01*
X161141752Y-60974878D01*
X161207321Y-61042309D01*
X161306789Y-61085152D01*
X161600575Y-61281453D01*
X161901526Y-61341316D01*
X162061996Y-61410433D01*
X162137261Y-61388206D01*
X162513275Y-61463000D01*
X162606725Y-61463000D01*
X162982739Y-61388206D01*
X163058004Y-61410433D01*
X163218474Y-61341316D01*
X163519425Y-61281453D01*
X163813211Y-61085152D01*
X163912679Y-61042309D01*
X163978248Y-60974878D01*
X164293175Y-60764450D01*
X164535480Y-60401815D01*
X164561421Y-60375137D01*
X164574657Y-60343183D01*
X164810178Y-59990700D01*
X164991725Y-59078000D01*
X173590275Y-59078000D01*
X173771822Y-59990700D01*
X174007343Y-60343183D01*
X174020579Y-60375137D01*
X174046520Y-60401815D01*
X174288825Y-60764450D01*
X174603752Y-60974878D01*
X174669321Y-61042309D01*
X174768789Y-61085152D01*
X175062575Y-61281453D01*
X175363526Y-61341316D01*
X175523996Y-61410433D01*
X175599261Y-61388206D01*
X175975275Y-61463000D01*
X176068725Y-61463000D01*
X176444739Y-61388206D01*
X176520004Y-61410433D01*
X176680474Y-61341316D01*
X176981425Y-61281453D01*
X177275211Y-61085152D01*
X177374679Y-61042309D01*
X177440248Y-60974878D01*
X177755175Y-60764450D01*
X177997480Y-60401815D01*
X178023421Y-60375137D01*
X178036657Y-60343183D01*
X178272178Y-59990700D01*
X178453725Y-59078000D01*
X178272178Y-58165300D01*
X178036657Y-57812817D01*
X178023421Y-57780863D01*
X177997480Y-57754185D01*
X177755175Y-57391550D01*
X177440248Y-57181122D01*
X177374679Y-57113691D01*
X177275211Y-57070848D01*
X176981425Y-56874547D01*
X176680474Y-56814684D01*
X176520004Y-56745567D01*
X176444739Y-56767794D01*
X176068725Y-56693000D01*
X175975275Y-56693000D01*
X175599261Y-56767794D01*
X175523996Y-56745567D01*
X175363526Y-56814684D01*
X175062575Y-56874547D01*
X174768789Y-57070848D01*
X174669321Y-57113691D01*
X174603752Y-57181122D01*
X174288825Y-57391550D01*
X174046520Y-57754185D01*
X174020579Y-57780863D01*
X174007343Y-57812817D01*
X173771822Y-58165300D01*
X173590275Y-59078000D01*
X164991725Y-59078000D01*
X164810178Y-58165300D01*
X164574657Y-57812817D01*
X164561421Y-57780863D01*
X164535480Y-57754185D01*
X164293175Y-57391550D01*
X163978248Y-57181122D01*
X163912679Y-57113691D01*
X163813211Y-57070848D01*
X163519425Y-56874547D01*
X163218474Y-56814684D01*
X163058004Y-56745567D01*
X162982739Y-56767794D01*
X162606725Y-56693000D01*
X162513275Y-56693000D01*
X162137261Y-56767794D01*
X162061996Y-56745567D01*
X161901526Y-56814684D01*
X161600575Y-56874547D01*
X161306789Y-57070848D01*
X161207321Y-57113691D01*
X161141752Y-57181122D01*
X160826825Y-57391550D01*
X160584520Y-57754185D01*
X160558579Y-57780863D01*
X160545343Y-57812817D01*
X160309822Y-58165300D01*
X160128275Y-59078000D01*
X159123000Y-59078000D01*
X159123000Y-56858132D01*
X160006130Y-55975002D01*
X171727998Y-55975002D01*
X172162344Y-55888605D01*
X172530564Y-55642568D01*
X179364566Y-48808566D01*
X179440886Y-48694345D01*
X179610603Y-48440346D01*
X179697000Y-48006000D01*
X179697000Y-43918696D01*
X179709765Y-43916157D01*
X179919809Y-43775809D01*
X180060157Y-43565765D01*
X180109440Y-43318000D01*
X180109440Y-41518000D01*
X180060157Y-41270235D01*
X179919809Y-41060191D01*
X179709765Y-40919843D01*
X179462000Y-40870560D01*
X177662000Y-40870560D01*
X177414235Y-40919843D01*
X177204191Y-41060191D01*
X177063843Y-41270235D01*
X177061534Y-41281845D01*
X176639491Y-40999845D01*
X176052072Y-40883000D01*
X175991928Y-40883000D01*
X175404509Y-40999845D01*
X174906519Y-41332591D01*
X174752000Y-41563845D01*
X174597481Y-41332591D01*
X174099491Y-40999845D01*
X173512072Y-40883000D01*
X173451928Y-40883000D01*
X172864509Y-40999845D01*
X172366519Y-41332591D01*
X172033773Y-41830581D01*
X171916928Y-42418000D01*
X172033773Y-43005419D01*
X172366519Y-43503409D01*
X172864509Y-43836155D01*
X173451928Y-43953000D01*
X173512072Y-43953000D01*
X174099491Y-43836155D01*
X174597481Y-43503409D01*
X174752000Y-43272155D01*
X174887000Y-43474197D01*
X174887000Y-46773868D01*
X169455868Y-52205000D01*
X158750000Y-52205000D01*
X158355687Y-52283434D01*
X158315654Y-52291397D01*
X157947433Y-52537434D01*
X157439434Y-53045434D01*
X155407434Y-55077434D01*
X155161397Y-55445654D01*
X155075000Y-55880000D01*
X155075000Y-61505867D01*
X153429870Y-63150998D01*
X152520646Y-63150998D01*
X152400000Y-63127000D01*
X143928676Y-63127000D01*
X143494331Y-63213396D01*
X143126110Y-63459434D01*
X140953432Y-65632112D01*
X140707395Y-66000332D01*
X140620998Y-66434678D01*
X140620998Y-88525354D01*
X140597000Y-88646000D01*
X140597000Y-90043000D01*
X140200000Y-90043000D01*
X140200000Y-65621132D01*
X143472132Y-62349000D01*
X151130000Y-62349000D01*
X151564346Y-62262603D01*
X151932566Y-62016566D01*
X153181786Y-60767346D01*
X153663229Y-60568418D01*
X154039098Y-60193204D01*
X154242768Y-59702713D01*
X154243231Y-59171617D01*
X154043000Y-58687020D01*
X154043000Y-53048132D01*
X155918133Y-51173000D01*
X160274000Y-51173000D01*
X160708346Y-51086603D01*
X161076566Y-50840566D01*
X165902566Y-46014566D01*
X166148604Y-45646345D01*
X166235000Y-45212000D01*
X166235000Y-43918696D01*
X166247765Y-43916157D01*
X166457809Y-43775809D01*
X166598157Y-43565765D01*
X166647440Y-43318000D01*
X166647440Y-41518000D01*
X166598157Y-41270235D01*
X166457809Y-41060191D01*
X166247765Y-40919843D01*
X166000000Y-40870560D01*
X164200000Y-40870560D01*
X163952235Y-40919843D01*
X163742191Y-41060191D01*
X163695000Y-41130817D01*
X163695000Y-40348132D01*
X165062132Y-38981000D01*
X183949868Y-38981000D01*
X182077434Y-40853434D01*
G36*
X144993433Y-79034566D02*
X145208936Y-79178560D01*
X144488000Y-79178560D01*
X144240235Y-79227843D01*
X144030191Y-79368191D01*
X143889843Y-79578235D01*
X143840560Y-79826000D01*
X143840560Y-82226000D01*
X143889843Y-82473765D01*
X144030191Y-82683809D01*
X144240235Y-82824157D01*
X144488000Y-82873440D01*
X146088000Y-82873440D01*
X146335765Y-82824157D01*
X146545809Y-82683809D01*
X146686157Y-82473765D01*
X146693000Y-82439363D01*
X146693000Y-84074000D01*
X146779397Y-84508346D01*
X146949114Y-84762345D01*
X147025434Y-84876566D01*
X149819434Y-87670566D01*
X150187655Y-87916604D01*
X150622000Y-88003000D01*
X152160193Y-88003000D01*
X152641287Y-88202768D01*
X153172383Y-88203231D01*
X153656980Y-88003000D01*
X158827729Y-88003000D01*
X158974964Y-88101379D01*
X159485846Y-88203000D01*
X159538154Y-88203000D01*
X160049036Y-88101379D01*
X160482142Y-87811988D01*
X160771533Y-87378882D01*
X160873154Y-86868000D01*
X160771533Y-86357118D01*
X160482142Y-85924012D01*
X160049036Y-85634621D01*
X159538154Y-85533000D01*
X159485846Y-85533000D01*
X158974964Y-85634621D01*
X158827729Y-85733000D01*
X153655807Y-85733000D01*
X153174713Y-85533232D01*
X152643617Y-85532769D01*
X152159020Y-85733000D01*
X151092132Y-85733000D01*
X148963000Y-83603868D01*
X148963000Y-82296604D01*
X149098000Y-82094562D01*
X149233000Y-82296604D01*
X149233000Y-83058000D01*
X149319397Y-83492346D01*
X149417826Y-83639655D01*
X149565434Y-83860566D01*
X150835434Y-85130566D01*
X151203654Y-85376603D01*
X151638000Y-85463000D01*
X168185868Y-85463000D01*
X168791000Y-86068132D01*
X168791000Y-89035000D01*
X163830000Y-89035000D01*
X163445687Y-89111445D01*
X164554132Y-88003000D01*
X166384193Y-88003000D01*
X166865287Y-88202768D01*
X167396383Y-88203231D01*
X167887229Y-88000418D01*
X168263098Y-87625204D01*
X168466768Y-87134713D01*
X168467231Y-86603617D01*
X168264418Y-86112771D01*
X167889204Y-85736902D01*
X167398713Y-85533232D01*
X166867617Y-85532769D01*
X166383020Y-85733000D01*
X164084000Y-85733000D01*
X163649654Y-85819397D01*
X163493087Y-85924012D01*
X163281434Y-86065434D01*
X160565868Y-88781000D01*
X158750000Y-88781000D01*
X158315654Y-88867397D01*
X158064819Y-89035000D01*
X157947434Y-89113434D01*
X157017868Y-90043000D01*
X142867000Y-90043000D01*
X142867000Y-88766646D01*
X142890998Y-88646000D01*
X142890998Y-86868000D01*
X143926846Y-86868000D01*
X144028467Y-87378882D01*
X144317858Y-87811988D01*
X144750964Y-88101379D01*
X145261846Y-88203000D01*
X145314154Y-88203000D01*
X145825036Y-88101379D01*
X146258142Y-87811988D01*
X146547533Y-87378882D01*
X146649154Y-86868000D01*
X146547533Y-86357118D01*
X146258142Y-85924012D01*
X145825036Y-85634621D01*
X145314154Y-85533000D01*
X145261846Y-85533000D01*
X144750964Y-85634621D01*
X144317858Y-85924012D01*
X144028467Y-86357118D01*
X143926846Y-86868000D01*
X142890998Y-86868000D01*
X142890998Y-76932130D01*
X144993433Y-79034566D01*
X144993433Y-79034566D01*
G37*
X144993433Y-79034566D02*
X145208936Y-79178560D01*
X144488000Y-79178560D01*
X144240235Y-79227843D01*
X144030191Y-79368191D01*
X143889843Y-79578235D01*
X143840560Y-79826000D01*
X143840560Y-82226000D01*
X143889843Y-82473765D01*
X144030191Y-82683809D01*
X144240235Y-82824157D01*
X144488000Y-82873440D01*
X146088000Y-82873440D01*
X146335765Y-82824157D01*
X146545809Y-82683809D01*
X146686157Y-82473765D01*
X146693000Y-82439363D01*
X146693000Y-84074000D01*
X146779397Y-84508346D01*
X146949114Y-84762345D01*
X147025434Y-84876566D01*
X149819434Y-87670566D01*
X150187655Y-87916604D01*
X150622000Y-88003000D01*
X152160193Y-88003000D01*
X152641287Y-88202768D01*
X153172383Y-88203231D01*
X153656980Y-88003000D01*
X158827729Y-88003000D01*
X158974964Y-88101379D01*
X159485846Y-88203000D01*
X159538154Y-88203000D01*
X160049036Y-88101379D01*
X160482142Y-87811988D01*
X160771533Y-87378882D01*
X160873154Y-86868000D01*
X160771533Y-86357118D01*
X160482142Y-85924012D01*
X160049036Y-85634621D01*
X159538154Y-85533000D01*
X159485846Y-85533000D01*
X158974964Y-85634621D01*
X158827729Y-85733000D01*
X153655807Y-85733000D01*
X153174713Y-85533232D01*
X152643617Y-85532769D01*
X152159020Y-85733000D01*
X151092132Y-85733000D01*
X148963000Y-83603868D01*
X148963000Y-82296604D01*
X149098000Y-82094562D01*
X149233000Y-82296604D01*
X149233000Y-83058000D01*
X149319397Y-83492346D01*
X149417826Y-83639655D01*
X149565434Y-83860566D01*
X150835434Y-85130566D01*
X151203654Y-85376603D01*
X151638000Y-85463000D01*
X168185868Y-85463000D01*
X168791000Y-86068132D01*
X168791000Y-89035000D01*
X163830000Y-89035000D01*
X163445687Y-89111445D01*
X164554132Y-88003000D01*
X166384193Y-88003000D01*
X166865287Y-88202768D01*
X167396383Y-88203231D01*
X167887229Y-88000418D01*
X168263098Y-87625204D01*
X168466768Y-87134713D01*
X168467231Y-86603617D01*
X168264418Y-86112771D01*
X167889204Y-85736902D01*
X167398713Y-85533232D01*
X166867617Y-85532769D01*
X166383020Y-85733000D01*
X164084000Y-85733000D01*
X163649654Y-85819397D01*
X163493087Y-85924012D01*
X163281434Y-86065434D01*
X160565868Y-88781000D01*
X158750000Y-88781000D01*
X158315654Y-88867397D01*
X158064819Y-89035000D01*
X157947434Y-89113434D01*
X157017868Y-90043000D01*
X142867000Y-90043000D01*
X142867000Y-88766646D01*
X142890998Y-88646000D01*
X142890998Y-86868000D01*
X143926846Y-86868000D01*
X144028467Y-87378882D01*
X144317858Y-87811988D01*
X144750964Y-88101379D01*
X145261846Y-88203000D01*
X145314154Y-88203000D01*
X145825036Y-88101379D01*
X146258142Y-87811988D01*
X146547533Y-87378882D01*
X146649154Y-86868000D01*
X146547533Y-86357118D01*
X146258142Y-85924012D01*
X145825036Y-85634621D01*
X145314154Y-85533000D01*
X145261846Y-85533000D01*
X144750964Y-85634621D01*
X144317858Y-85924012D01*
X144028467Y-86357118D01*
X143926846Y-86868000D01*
X142890998Y-86868000D01*
X142890998Y-76932130D01*
X144993433Y-79034566D01*
G36*
X210185000Y-38653868D02*
X208828566Y-37297434D01*
X208460346Y-37051397D01*
X208026000Y-36965000D01*
X201930000Y-36965000D01*
X201535687Y-37043434D01*
X201495654Y-37051397D01*
X201127433Y-37297434D01*
X199603434Y-38821434D01*
X199357397Y-39189654D01*
X199271000Y-39624000D01*
X199271000Y-41361803D01*
X198957773Y-41830581D01*
X198840928Y-42418000D01*
X198957773Y-43005419D01*
X199290519Y-43503409D01*
X199788509Y-43836155D01*
X200375928Y-43953000D01*
X200436072Y-43953000D01*
X201023491Y-43836155D01*
X201521481Y-43503409D01*
X201676000Y-43272155D01*
X201830519Y-43503409D01*
X202328509Y-43836155D01*
X202915928Y-43953000D01*
X202976072Y-43953000D01*
X203563491Y-43836155D01*
X203985534Y-43554155D01*
X203987843Y-43565765D01*
X204128191Y-43775809D01*
X204338235Y-43916157D01*
X204351000Y-43918696D01*
X204351000Y-45503868D01*
X202729868Y-47125000D01*
X189192132Y-47125000D01*
X188079000Y-46011868D01*
X188079000Y-43474197D01*
X188214000Y-43272155D01*
X188349000Y-43474197D01*
X188349000Y-43688000D01*
X188435397Y-44122346D01*
X188605114Y-44376345D01*
X188681434Y-44490566D01*
X190205433Y-46014566D01*
X190346764Y-46109000D01*
X190573654Y-46260603D01*
X191008000Y-46347000D01*
X193294000Y-46347000D01*
X193728346Y-46260603D01*
X194096566Y-46014566D01*
X195366566Y-44744566D01*
X195371887Y-44736603D01*
X195612603Y-44376346D01*
X195699000Y-43942000D01*
X195699000Y-39624000D01*
X195612603Y-39189654D01*
X195366566Y-38821434D01*
X193588566Y-37043434D01*
X193471181Y-36965000D01*
X193220346Y-36797397D01*
X192786000Y-36711000D01*
X164592000Y-36711000D01*
X164157654Y-36797397D01*
X163906819Y-36965000D01*
X163789434Y-37043434D01*
X161757434Y-39075434D01*
X161511397Y-39443654D01*
X161425000Y-39878000D01*
X161425000Y-41361803D01*
X161290000Y-41563845D01*
X161135481Y-41332591D01*
X160637491Y-40999845D01*
X160050072Y-40883000D01*
X159989928Y-40883000D01*
X159402509Y-40999845D01*
X158904519Y-41332591D01*
X158571773Y-41830581D01*
X158454928Y-42418000D01*
X158571773Y-43005419D01*
X158885000Y-43474197D01*
X158885000Y-45503867D01*
X157009868Y-47379000D01*
X150685100Y-47379000D01*
X150655020Y-47306200D01*
X150054959Y-46705091D01*
X149270541Y-46379372D01*
X148421185Y-46378630D01*
X147636200Y-46702980D01*
X147035091Y-47303041D01*
X146709372Y-48087459D01*
X146708630Y-48936815D01*
X147032980Y-49721800D01*
X147633041Y-50322909D01*
X148417459Y-50648628D01*
X149266815Y-50649370D01*
X150051800Y-50325020D01*
X150652909Y-49724959D01*
X150684450Y-49649000D01*
X154231867Y-49649000D01*
X152105434Y-51775434D01*
X151859397Y-52143654D01*
X151773000Y-52578000D01*
X151773000Y-58688193D01*
X151575825Y-59163043D01*
X150659868Y-60079000D01*
X146459255Y-60079000D01*
X146547533Y-59946882D01*
X146649154Y-59436000D01*
X146547533Y-58925118D01*
X146423000Y-58738740D01*
X146423000Y-57620132D01*
X147644071Y-56399061D01*
X147877991Y-56399265D01*
X148442371Y-56166068D01*
X148612712Y-55996025D01*
X148615843Y-56011765D01*
X148756191Y-56221809D01*
X148966235Y-56362157D01*
X149214000Y-56411440D01*
X151014000Y-56411440D01*
X151261765Y-56362157D01*
X151471809Y-56221809D01*
X151612157Y-56011765D01*
X151661440Y-55764000D01*
X151661440Y-53964000D01*
X151612157Y-53716235D01*
X151471809Y-53506191D01*
X151261765Y-53365843D01*
X151014000Y-53316560D01*
X149214000Y-53316560D01*
X148966235Y-53365843D01*
X148756191Y-53506191D01*
X148615843Y-53716235D01*
X148612739Y-53731839D01*
X148444643Y-53563449D01*
X147880670Y-53329267D01*
X147270009Y-53328735D01*
X146705629Y-53561932D01*
X146273449Y-53993357D01*
X146039267Y-54557330D01*
X146039061Y-54793807D01*
X144485434Y-56347434D01*
X144239397Y-56715654D01*
X144153000Y-57150000D01*
X144153000Y-58738740D01*
X144028467Y-58925118D01*
X143926846Y-59436000D01*
X144028467Y-59946882D01*
X144116745Y-60079000D01*
X143002000Y-60079000D01*
X142567654Y-60165397D01*
X142253756Y-60375137D01*
X142199434Y-60411434D01*
X138262434Y-64348434D01*
X138016397Y-64716654D01*
X137930000Y-65151000D01*
X137930000Y-90043000D01*
X137795000Y-90043000D01*
X137795000Y-41934000D01*
X146696560Y-41934000D01*
X146696560Y-44934000D01*
X146745843Y-45181765D01*
X146886191Y-45391809D01*
X147096235Y-45532157D01*
X147344000Y-45581440D01*
X150344000Y-45581440D01*
X150591765Y-45532157D01*
X150801809Y-45391809D01*
X150942157Y-45181765D01*
X150991440Y-44934000D01*
X150991440Y-41934000D01*
X150942157Y-41686235D01*
X150801809Y-41476191D01*
X150591765Y-41335843D01*
X150344000Y-41286560D01*
X147344000Y-41286560D01*
X147096235Y-41335843D01*
X146886191Y-41476191D01*
X146745843Y-41686235D01*
X146696560Y-41934000D01*
X137795000Y-41934000D01*
X137795000Y-36703000D01*
X210185000Y-36703000D01*
X210185000Y-38653868D01*
X210185000Y-38653868D01*
G37*
X210185000Y-38653868D02*
X208828566Y-37297434D01*
X208460346Y-37051397D01*
X208026000Y-36965000D01*
X201930000Y-36965000D01*
X201535687Y-37043434D01*
X201495654Y-37051397D01*
X201127433Y-37297434D01*
X199603434Y-38821434D01*
X199357397Y-39189654D01*
X199271000Y-39624000D01*
X199271000Y-41361803D01*
X198957773Y-41830581D01*
X198840928Y-42418000D01*
X198957773Y-43005419D01*
X199290519Y-43503409D01*
X199788509Y-43836155D01*
X200375928Y-43953000D01*
X200436072Y-43953000D01*
X201023491Y-43836155D01*
X201521481Y-43503409D01*
X201676000Y-43272155D01*
X201830519Y-43503409D01*
X202328509Y-43836155D01*
X202915928Y-43953000D01*
X202976072Y-43953000D01*
X203563491Y-43836155D01*
X203985534Y-43554155D01*
X203987843Y-43565765D01*
X204128191Y-43775809D01*
X204338235Y-43916157D01*
X204351000Y-43918696D01*
X204351000Y-45503868D01*
X202729868Y-47125000D01*
X189192132Y-47125000D01*
X188079000Y-46011868D01*
X188079000Y-43474197D01*
X188214000Y-43272155D01*
X188349000Y-43474197D01*
X188349000Y-43688000D01*
X188435397Y-44122346D01*
X188605114Y-44376345D01*
X188681434Y-44490566D01*
X190205433Y-46014566D01*
X190346764Y-46109000D01*
X190573654Y-46260603D01*
X191008000Y-46347000D01*
X193294000Y-46347000D01*
X193728346Y-46260603D01*
X194096566Y-46014566D01*
X195366566Y-44744566D01*
X195371887Y-44736603D01*
X195612603Y-44376346D01*
X195699000Y-43942000D01*
X195699000Y-39624000D01*
X195612603Y-39189654D01*
X195366566Y-38821434D01*
X193588566Y-37043434D01*
X193471181Y-36965000D01*
X193220346Y-36797397D01*
X192786000Y-36711000D01*
X164592000Y-36711000D01*
X164157654Y-36797397D01*
X163906819Y-36965000D01*
X163789434Y-37043434D01*
X161757434Y-39075434D01*
X161511397Y-39443654D01*
X161425000Y-39878000D01*
X161425000Y-41361803D01*
X161290000Y-41563845D01*
X161135481Y-41332591D01*
X160637491Y-40999845D01*
X160050072Y-40883000D01*
X159989928Y-40883000D01*
X159402509Y-40999845D01*
X158904519Y-41332591D01*
X158571773Y-41830581D01*
X158454928Y-42418000D01*
X158571773Y-43005419D01*
X158885000Y-43474197D01*
X158885000Y-45503867D01*
X157009868Y-47379000D01*
X150685100Y-47379000D01*
X150655020Y-47306200D01*
X150054959Y-46705091D01*
X149270541Y-46379372D01*
X148421185Y-46378630D01*
X147636200Y-46702980D01*
X147035091Y-47303041D01*
X146709372Y-48087459D01*
X146708630Y-48936815D01*
X147032980Y-49721800D01*
X147633041Y-50322909D01*
X148417459Y-50648628D01*
X149266815Y-50649370D01*
X150051800Y-50325020D01*
X150652909Y-49724959D01*
X150684450Y-49649000D01*
X154231867Y-49649000D01*
X152105434Y-51775434D01*
X151859397Y-52143654D01*
X151773000Y-52578000D01*
X151773000Y-58688193D01*
X151575825Y-59163043D01*
X150659868Y-60079000D01*
X146459255Y-60079000D01*
X146547533Y-59946882D01*
X146649154Y-59436000D01*
X146547533Y-58925118D01*
X146423000Y-58738740D01*
X146423000Y-57620132D01*
X147644071Y-56399061D01*
X147877991Y-56399265D01*
X148442371Y-56166068D01*
X148612712Y-55996025D01*
X148615843Y-56011765D01*
X148756191Y-56221809D01*
X148966235Y-56362157D01*
X149214000Y-56411440D01*
X151014000Y-56411440D01*
X151261765Y-56362157D01*
X151471809Y-56221809D01*
X151612157Y-56011765D01*
X151661440Y-55764000D01*
X151661440Y-53964000D01*
X151612157Y-53716235D01*
X151471809Y-53506191D01*
X151261765Y-53365843D01*
X151014000Y-53316560D01*
X149214000Y-53316560D01*
X148966235Y-53365843D01*
X148756191Y-53506191D01*
X148615843Y-53716235D01*
X148612739Y-53731839D01*
X148444643Y-53563449D01*
X147880670Y-53329267D01*
X147270009Y-53328735D01*
X146705629Y-53561932D01*
X146273449Y-53993357D01*
X146039267Y-54557330D01*
X146039061Y-54793807D01*
X144485434Y-56347434D01*
X144239397Y-56715654D01*
X144153000Y-57150000D01*
X144153000Y-58738740D01*
X144028467Y-58925118D01*
X143926846Y-59436000D01*
X144028467Y-59946882D01*
X144116745Y-60079000D01*
X143002000Y-60079000D01*
X142567654Y-60165397D01*
X142253756Y-60375137D01*
X142199434Y-60411434D01*
X138262434Y-64348434D01*
X138016397Y-64716654D01*
X137930000Y-65151000D01*
X137930000Y-90043000D01*
X137795000Y-90043000D01*
X137795000Y-41934000D01*
X146696560Y-41934000D01*
X146696560Y-44934000D01*
X146745843Y-45181765D01*
X146886191Y-45391809D01*
X147096235Y-45532157D01*
X147344000Y-45581440D01*
X150344000Y-45581440D01*
X150591765Y-45532157D01*
X150801809Y-45391809D01*
X150942157Y-45181765D01*
X150991440Y-44934000D01*
X150991440Y-41934000D01*
X150942157Y-41686235D01*
X150801809Y-41476191D01*
X150591765Y-41335843D01*
X150344000Y-41286560D01*
X147344000Y-41286560D01*
X147096235Y-41335843D01*
X146886191Y-41476191D01*
X146745843Y-41686235D01*
X146696560Y-41934000D01*
X137795000Y-41934000D01*
X137795000Y-36703000D01*
X210185000Y-36703000D01*
X210185000Y-38653868D01*
G36*
X208669000Y-40348132D02*
X208669000Y-87159867D01*
X206793868Y-89035000D01*
X171061000Y-89035000D01*
X171061000Y-85598000D01*
X170974603Y-85163654D01*
X170728566Y-84795434D01*
X169458566Y-83525434D01*
X169409045Y-83492345D01*
X169090346Y-83279397D01*
X168656000Y-83193000D01*
X160647000Y-83193000D01*
X160647000Y-81773807D01*
X160846768Y-81292713D01*
X160847000Y-81026000D01*
X165770846Y-81026000D01*
X165872467Y-81536882D01*
X166161858Y-81969988D01*
X166594964Y-82259379D01*
X167105846Y-82361000D01*
X167158154Y-82361000D01*
X167669036Y-82259379D01*
X168102142Y-81969988D01*
X168391533Y-81536882D01*
X168493154Y-81026000D01*
X168391533Y-80515118D01*
X168102142Y-80082012D01*
X167669036Y-79792621D01*
X167158154Y-79691000D01*
X167105846Y-79691000D01*
X166594964Y-79792621D01*
X166161858Y-80082012D01*
X165872467Y-80515118D01*
X165770846Y-81026000D01*
X160847000Y-81026000D01*
X160847231Y-80761617D01*
X160644418Y-80270771D01*
X160269204Y-79894902D01*
X159778713Y-79691232D01*
X159247617Y-79690769D01*
X158756771Y-79893582D01*
X158380902Y-80268796D01*
X158177232Y-80759287D01*
X158176769Y-81290383D01*
X158377000Y-81774980D01*
X158377000Y-83193000D01*
X152108132Y-83193000D01*
X151503000Y-82587868D01*
X151503000Y-82296604D01*
X151638000Y-82094562D01*
X151893302Y-82476648D01*
X152358849Y-82787717D01*
X152908000Y-82896950D01*
X153457151Y-82787717D01*
X153922698Y-82476648D01*
X154233767Y-82011101D01*
X154343000Y-81461950D01*
X154343000Y-80590050D01*
X154233767Y-80040899D01*
X153922698Y-79575352D01*
X153610878Y-79367000D01*
X156718000Y-79367000D01*
X157152346Y-79280603D01*
X157520566Y-79034566D01*
X158204132Y-78351000D01*
X171914992Y-78351000D01*
X171654200Y-78458757D01*
X171250176Y-78862077D01*
X171031250Y-79389309D01*
X171030752Y-79960187D01*
X171248757Y-80487800D01*
X171652077Y-80891824D01*
X172179309Y-81110750D01*
X172750187Y-81111248D01*
X173277800Y-80893243D01*
X173681824Y-80489923D01*
X173900750Y-79962691D01*
X173901248Y-79391813D01*
X173794619Y-79133751D01*
X174125000Y-79464132D01*
X174125000Y-85852000D01*
X174211397Y-86286346D01*
X174408544Y-86581397D01*
X174457434Y-86654566D01*
X175473434Y-87670566D01*
X175841654Y-87916603D01*
X176276000Y-88003000D01*
X176983459Y-88003000D01*
X177046000Y-88015440D01*
X178046000Y-88015440D01*
X178293765Y-87966157D01*
X178503809Y-87825809D01*
X178644157Y-87615765D01*
X178693440Y-87368000D01*
X178693440Y-86732894D01*
X178951117Y-86733119D01*
X178950803Y-87092775D01*
X179123233Y-87510086D01*
X179442235Y-87829645D01*
X179859244Y-88002803D01*
X180310775Y-88003197D01*
X180728086Y-87830767D01*
X181047645Y-87511765D01*
X181220803Y-87094756D01*
X181221197Y-86643225D01*
X181048767Y-86225914D01*
X180729765Y-85906355D01*
X180312756Y-85733197D01*
X180285958Y-85733174D01*
X180302132Y-85717000D01*
X185203868Y-85717000D01*
X185749750Y-86262882D01*
X185609232Y-86601287D01*
X185608769Y-87132383D01*
X185811582Y-87623229D01*
X186186796Y-87999098D01*
X186677287Y-88202768D01*
X187208383Y-88203231D01*
X187699229Y-88000418D01*
X188075098Y-87625204D01*
X188278768Y-87134713D01*
X188279231Y-86603617D01*
X188079000Y-86119020D01*
X188079000Y-85852000D01*
X187992603Y-85417654D01*
X187746566Y-85049434D01*
X186476566Y-83779434D01*
X186267372Y-83639655D01*
X186108346Y-83533397D01*
X185674000Y-83447000D01*
X179832000Y-83447000D01*
X179397654Y-83533397D01*
X179238628Y-83639655D01*
X179029434Y-83779434D01*
X178013848Y-84795020D01*
X177854355Y-84954235D01*
X177681197Y-85371244D01*
X177680892Y-85720560D01*
X177046000Y-85720560D01*
X176983459Y-85733000D01*
X176746132Y-85733000D01*
X176395000Y-85381868D01*
X176395000Y-78994000D01*
X176308603Y-78559654D01*
X176062566Y-78191434D01*
X174284566Y-76413434D01*
X174235045Y-76380345D01*
X173916346Y-76167397D01*
X173482000Y-76081000D01*
X172823393Y-76081000D01*
X173277800Y-75893243D01*
X173360187Y-75811000D01*
X174535868Y-75811000D01*
X176743433Y-78018566D01*
X177002149Y-78191434D01*
X177111654Y-78264603D01*
X177546000Y-78351000D01*
X177935000Y-78351000D01*
X177935000Y-78974432D01*
X177921957Y-78987452D01*
X177715236Y-79485291D01*
X177714765Y-80024344D01*
X177920617Y-80522543D01*
X178301452Y-80904043D01*
X178799291Y-81110764D01*
X179338344Y-81111235D01*
X179836543Y-80905383D01*
X180218043Y-80524548D01*
X180424764Y-80026709D01*
X180425235Y-79487656D01*
X180219383Y-78989457D01*
X180205000Y-78975049D01*
X180205000Y-78351000D01*
X188349000Y-78351000D01*
X188349000Y-79486018D01*
X188215302Y-79575352D01*
X188116882Y-79722648D01*
X188088157Y-79578235D01*
X187947809Y-79368191D01*
X187737765Y-79227843D01*
X187490000Y-79178560D01*
X185890000Y-79178560D01*
X185642235Y-79227843D01*
X185432191Y-79368191D01*
X185291843Y-79578235D01*
X185242560Y-79826000D01*
X185242560Y-82226000D01*
X185291843Y-82473765D01*
X185432191Y-82683809D01*
X185642235Y-82824157D01*
X185890000Y-82873440D01*
X187490000Y-82873440D01*
X187737765Y-82824157D01*
X187947809Y-82683809D01*
X188088157Y-82473765D01*
X188116882Y-82329352D01*
X188215302Y-82476648D01*
X188680849Y-82787717D01*
X189230000Y-82896950D01*
X189779151Y-82787717D01*
X190244698Y-82476648D01*
X190500000Y-82094562D01*
X190755302Y-82476648D01*
X190889000Y-82565982D01*
X190889000Y-83058000D01*
X190975397Y-83492346D01*
X191073826Y-83639655D01*
X191221434Y-83860566D01*
X193429000Y-86068133D01*
X193429000Y-86170740D01*
X193304467Y-86357118D01*
X193202846Y-86868000D01*
X193304467Y-87378882D01*
X193593858Y-87811988D01*
X194026964Y-88101379D01*
X194537846Y-88203000D01*
X194590154Y-88203000D01*
X195101036Y-88101379D01*
X195534142Y-87811988D01*
X195823533Y-87378882D01*
X195925154Y-86868000D01*
X195823533Y-86357118D01*
X195699000Y-86170740D01*
X195699000Y-86020815D01*
X201826630Y-86020815D01*
X202150980Y-86805800D01*
X202751041Y-87406909D01*
X203535459Y-87732628D01*
X204384815Y-87733370D01*
X205169800Y-87409020D01*
X205770909Y-86808959D01*
X206096628Y-86024541D01*
X206097370Y-85175185D01*
X205773020Y-84390200D01*
X205172959Y-83789091D01*
X204388541Y-83463372D01*
X203539185Y-83462630D01*
X202754200Y-83786980D01*
X202153091Y-84387041D01*
X201827372Y-85171459D01*
X201826630Y-86020815D01*
X195699000Y-86020815D01*
X195699000Y-85598000D01*
X195612603Y-85163654D01*
X195514174Y-85016345D01*
X195366566Y-84795433D01*
X193159000Y-82587868D01*
X193159000Y-82272658D01*
X193295302Y-82476648D01*
X193760849Y-82787717D01*
X194310000Y-82896950D01*
X194859151Y-82787717D01*
X195324698Y-82476648D01*
X195535608Y-82161000D01*
X195834000Y-82161000D01*
X196268346Y-82074603D01*
X196636566Y-81828566D01*
X198160566Y-80304567D01*
X198406603Y-79936346D01*
X198434407Y-79796566D01*
X198493000Y-79502000D01*
X198493000Y-79018000D01*
X201814560Y-79018000D01*
X201814560Y-82018000D01*
X201863843Y-82265765D01*
X202004191Y-82475809D01*
X202214235Y-82616157D01*
X202462000Y-82665440D01*
X205462000Y-82665440D01*
X205709765Y-82616157D01*
X205919809Y-82475809D01*
X206060157Y-82265765D01*
X206109440Y-82018000D01*
X206109440Y-79018000D01*
X206060157Y-78770235D01*
X205919809Y-78560191D01*
X205709765Y-78419843D01*
X205462000Y-78370560D01*
X205097000Y-78370560D01*
X205097000Y-75247100D01*
X205169800Y-75217020D01*
X205770909Y-74616959D01*
X206096628Y-73832541D01*
X206097370Y-72983185D01*
X205773020Y-72198200D01*
X205172959Y-71597091D01*
X204388541Y-71271372D01*
X203539185Y-71270630D01*
X202754200Y-71594980D01*
X202153091Y-72195041D01*
X201827372Y-72979459D01*
X201826630Y-73828815D01*
X202150980Y-74613800D01*
X202751041Y-75214909D01*
X202827000Y-75246450D01*
X202827000Y-78370560D01*
X202462000Y-78370560D01*
X202214235Y-78419843D01*
X202004191Y-78560191D01*
X201863843Y-78770235D01*
X201814560Y-79018000D01*
X198493000Y-79018000D01*
X198493000Y-69461000D01*
X201814560Y-69461000D01*
X201814560Y-69826000D01*
X201863843Y-70073765D01*
X202004191Y-70283809D01*
X202214235Y-70424157D01*
X202462000Y-70473440D01*
X205462000Y-70473440D01*
X205709765Y-70424157D01*
X205919809Y-70283809D01*
X206060157Y-70073765D01*
X206109440Y-69826000D01*
X206109440Y-66826000D01*
X206060157Y-66578235D01*
X205919809Y-66368191D01*
X205709765Y-66227843D01*
X205462000Y-66178560D01*
X202462000Y-66178560D01*
X202214235Y-66227843D01*
X202004191Y-66368191D01*
X201863843Y-66578235D01*
X201814560Y-66826000D01*
X201814560Y-67191000D01*
X198493000Y-67191000D01*
X198493000Y-59078000D01*
X200514275Y-59078000D01*
X200695822Y-59990700D01*
X200931343Y-60343183D01*
X200944579Y-60375137D01*
X200970520Y-60401815D01*
X201212825Y-60764450D01*
X201527752Y-60974878D01*
X201593321Y-61042309D01*
X201692789Y-61085152D01*
X201986575Y-61281453D01*
X202287526Y-61341316D01*
X202447996Y-61410433D01*
X202523261Y-61388206D01*
X202899275Y-61463000D01*
X202992725Y-61463000D01*
X203368739Y-61388206D01*
X203444004Y-61410433D01*
X203604474Y-61341316D01*
X203905425Y-61281453D01*
X204199211Y-61085152D01*
X204298679Y-61042309D01*
X204364248Y-60974878D01*
X204679175Y-60764450D01*
X204921480Y-60401815D01*
X204947421Y-60375137D01*
X204960657Y-60343183D01*
X205196178Y-59990700D01*
X205377725Y-59078000D01*
X205196178Y-58165300D01*
X204960657Y-57812817D01*
X204947421Y-57780863D01*
X204921480Y-57754185D01*
X204679175Y-57391550D01*
X204364248Y-57181122D01*
X204298679Y-57113691D01*
X204199211Y-57070848D01*
X203905425Y-56874547D01*
X203604474Y-56814684D01*
X203444004Y-56745567D01*
X203368739Y-56767794D01*
X202992725Y-56693000D01*
X202899275Y-56693000D01*
X202523261Y-56767794D01*
X202447996Y-56745567D01*
X202287526Y-56814684D01*
X201986575Y-56874547D01*
X201692789Y-57070848D01*
X201593321Y-57113691D01*
X201527752Y-57181122D01*
X201212825Y-57391550D01*
X200970520Y-57754185D01*
X200944579Y-57780863D01*
X200931343Y-57812817D01*
X200695822Y-58165300D01*
X200514275Y-59078000D01*
X198493000Y-59078000D01*
X198493000Y-49395000D01*
X203200000Y-49395000D01*
X203634346Y-49308603D01*
X204002566Y-49062566D01*
X206288566Y-46776566D01*
X206337735Y-46702980D01*
X206534603Y-46408346D01*
X206621000Y-45974000D01*
X206621000Y-43918696D01*
X206633765Y-43916157D01*
X206843809Y-43775809D01*
X206984157Y-43565765D01*
X207033440Y-43318000D01*
X207033440Y-41518000D01*
X206984157Y-41270235D01*
X206843809Y-41060191D01*
X206633765Y-40919843D01*
X206386000Y-40870560D01*
X204586000Y-40870560D01*
X204338235Y-40919843D01*
X204128191Y-41060191D01*
X203987843Y-41270235D01*
X203985534Y-41281845D01*
X203563491Y-40999845D01*
X202976072Y-40883000D01*
X202915928Y-40883000D01*
X202328509Y-40999845D01*
X201830519Y-41332591D01*
X201676000Y-41563845D01*
X201541000Y-41361803D01*
X201541000Y-40094132D01*
X202400133Y-39235000D01*
X207555868Y-39235000D01*
X208669000Y-40348132D01*
X208669000Y-40348132D01*
G37*
X208669000Y-40348132D02*
X208669000Y-87159867D01*
X206793868Y-89035000D01*
X171061000Y-89035000D01*
X171061000Y-85598000D01*
X170974603Y-85163654D01*
X170728566Y-84795434D01*
X169458566Y-83525434D01*
X169409045Y-83492345D01*
X169090346Y-83279397D01*
X168656000Y-83193000D01*
X160647000Y-83193000D01*
X160647000Y-81773807D01*
X160846768Y-81292713D01*
X160847000Y-81026000D01*
X165770846Y-81026000D01*
X165872467Y-81536882D01*
X166161858Y-81969988D01*
X166594964Y-82259379D01*
X167105846Y-82361000D01*
X167158154Y-82361000D01*
X167669036Y-82259379D01*
X168102142Y-81969988D01*
X168391533Y-81536882D01*
X168493154Y-81026000D01*
X168391533Y-80515118D01*
X168102142Y-80082012D01*
X167669036Y-79792621D01*
X167158154Y-79691000D01*
X167105846Y-79691000D01*
X166594964Y-79792621D01*
X166161858Y-80082012D01*
X165872467Y-80515118D01*
X165770846Y-81026000D01*
X160847000Y-81026000D01*
X160847231Y-80761617D01*
X160644418Y-80270771D01*
X160269204Y-79894902D01*
X159778713Y-79691232D01*
X159247617Y-79690769D01*
X158756771Y-79893582D01*
X158380902Y-80268796D01*
X158177232Y-80759287D01*
X158176769Y-81290383D01*
X158377000Y-81774980D01*
X158377000Y-83193000D01*
X152108132Y-83193000D01*
X151503000Y-82587868D01*
X151503000Y-82296604D01*
X151638000Y-82094562D01*
X151893302Y-82476648D01*
X152358849Y-82787717D01*
X152908000Y-82896950D01*
X153457151Y-82787717D01*
X153922698Y-82476648D01*
X154233767Y-82011101D01*
X154343000Y-81461950D01*
X154343000Y-80590050D01*
X154233767Y-80040899D01*
X153922698Y-79575352D01*
X153610878Y-79367000D01*
X156718000Y-79367000D01*
X157152346Y-79280603D01*
X157520566Y-79034566D01*
X158204132Y-78351000D01*
X171914992Y-78351000D01*
X171654200Y-78458757D01*
X171250176Y-78862077D01*
X171031250Y-79389309D01*
X171030752Y-79960187D01*
X171248757Y-80487800D01*
X171652077Y-80891824D01*
X172179309Y-81110750D01*
X172750187Y-81111248D01*
X173277800Y-80893243D01*
X173681824Y-80489923D01*
X173900750Y-79962691D01*
X173901248Y-79391813D01*
X173794619Y-79133751D01*
X174125000Y-79464132D01*
X174125000Y-85852000D01*
X174211397Y-86286346D01*
X174408544Y-86581397D01*
X174457434Y-86654566D01*
X175473434Y-87670566D01*
X175841654Y-87916603D01*
X176276000Y-88003000D01*
X176983459Y-88003000D01*
X177046000Y-88015440D01*
X178046000Y-88015440D01*
X178293765Y-87966157D01*
X178503809Y-87825809D01*
X178644157Y-87615765D01*
X178693440Y-87368000D01*
X178693440Y-86732894D01*
X178951117Y-86733119D01*
X178950803Y-87092775D01*
X179123233Y-87510086D01*
X179442235Y-87829645D01*
X179859244Y-88002803D01*
X180310775Y-88003197D01*
X180728086Y-87830767D01*
X181047645Y-87511765D01*
X181220803Y-87094756D01*
X181221197Y-86643225D01*
X181048767Y-86225914D01*
X180729765Y-85906355D01*
X180312756Y-85733197D01*
X180285958Y-85733174D01*
X180302132Y-85717000D01*
X185203868Y-85717000D01*
X185749750Y-86262882D01*
X185609232Y-86601287D01*
X185608769Y-87132383D01*
X185811582Y-87623229D01*
X186186796Y-87999098D01*
X186677287Y-88202768D01*
X187208383Y-88203231D01*
X187699229Y-88000418D01*
X188075098Y-87625204D01*
X188278768Y-87134713D01*
X188279231Y-86603617D01*
X188079000Y-86119020D01*
X188079000Y-85852000D01*
X187992603Y-85417654D01*
X187746566Y-85049434D01*
X186476566Y-83779434D01*
X186267372Y-83639655D01*
X186108346Y-83533397D01*
X185674000Y-83447000D01*
X179832000Y-83447000D01*
X179397654Y-83533397D01*
X179238628Y-83639655D01*
X179029434Y-83779434D01*
X178013848Y-84795020D01*
X177854355Y-84954235D01*
X177681197Y-85371244D01*
X177680892Y-85720560D01*
X177046000Y-85720560D01*
X176983459Y-85733000D01*
X176746132Y-85733000D01*
X176395000Y-85381868D01*
X176395000Y-78994000D01*
X176308603Y-78559654D01*
X176062566Y-78191434D01*
X174284566Y-76413434D01*
X174235045Y-76380345D01*
X173916346Y-76167397D01*
X173482000Y-76081000D01*
X172823393Y-76081000D01*
X173277800Y-75893243D01*
X173360187Y-75811000D01*
X174535868Y-75811000D01*
X176743433Y-78018566D01*
X177002149Y-78191434D01*
X177111654Y-78264603D01*
X177546000Y-78351000D01*
X177935000Y-78351000D01*
X177935000Y-78974432D01*
X177921957Y-78987452D01*
X177715236Y-79485291D01*
X177714765Y-80024344D01*
X177920617Y-80522543D01*
X178301452Y-80904043D01*
X178799291Y-81110764D01*
X179338344Y-81111235D01*
X179836543Y-80905383D01*
X180218043Y-80524548D01*
X180424764Y-80026709D01*
X180425235Y-79487656D01*
X180219383Y-78989457D01*
X180205000Y-78975049D01*
X180205000Y-78351000D01*
X188349000Y-78351000D01*
X188349000Y-79486018D01*
X188215302Y-79575352D01*
X188116882Y-79722648D01*
X188088157Y-79578235D01*
X187947809Y-79368191D01*
X187737765Y-79227843D01*
X187490000Y-79178560D01*
X185890000Y-79178560D01*
X185642235Y-79227843D01*
X185432191Y-79368191D01*
X185291843Y-79578235D01*
X185242560Y-79826000D01*
X185242560Y-82226000D01*
X185291843Y-82473765D01*
X185432191Y-82683809D01*
X185642235Y-82824157D01*
X185890000Y-82873440D01*
X187490000Y-82873440D01*
X187737765Y-82824157D01*
X187947809Y-82683809D01*
X188088157Y-82473765D01*
X188116882Y-82329352D01*
X188215302Y-82476648D01*
X188680849Y-82787717D01*
X189230000Y-82896950D01*
X189779151Y-82787717D01*
X190244698Y-82476648D01*
X190500000Y-82094562D01*
X190755302Y-82476648D01*
X190889000Y-82565982D01*
X190889000Y-83058000D01*
X190975397Y-83492346D01*
X191073826Y-83639655D01*
X191221434Y-83860566D01*
X193429000Y-86068133D01*
X193429000Y-86170740D01*
X193304467Y-86357118D01*
X193202846Y-86868000D01*
X193304467Y-87378882D01*
X193593858Y-87811988D01*
X194026964Y-88101379D01*
X194537846Y-88203000D01*
X194590154Y-88203000D01*
X195101036Y-88101379D01*
X195534142Y-87811988D01*
X195823533Y-87378882D01*
X195925154Y-86868000D01*
X195823533Y-86357118D01*
X195699000Y-86170740D01*
X195699000Y-86020815D01*
X201826630Y-86020815D01*
X202150980Y-86805800D01*
X202751041Y-87406909D01*
X203535459Y-87732628D01*
X204384815Y-87733370D01*
X205169800Y-87409020D01*
X205770909Y-86808959D01*
X206096628Y-86024541D01*
X206097370Y-85175185D01*
X205773020Y-84390200D01*
X205172959Y-83789091D01*
X204388541Y-83463372D01*
X203539185Y-83462630D01*
X202754200Y-83786980D01*
X202153091Y-84387041D01*
X201827372Y-85171459D01*
X201826630Y-86020815D01*
X195699000Y-86020815D01*
X195699000Y-85598000D01*
X195612603Y-85163654D01*
X195514174Y-85016345D01*
X195366566Y-84795433D01*
X193159000Y-82587868D01*
X193159000Y-82272658D01*
X193295302Y-82476648D01*
X193760849Y-82787717D01*
X194310000Y-82896950D01*
X194859151Y-82787717D01*
X195324698Y-82476648D01*
X195535608Y-82161000D01*
X195834000Y-82161000D01*
X196268346Y-82074603D01*
X196636566Y-81828566D01*
X198160566Y-80304567D01*
X198406603Y-79936346D01*
X198434407Y-79796566D01*
X198493000Y-79502000D01*
X198493000Y-79018000D01*
X201814560Y-79018000D01*
X201814560Y-82018000D01*
X201863843Y-82265765D01*
X202004191Y-82475809D01*
X202214235Y-82616157D01*
X202462000Y-82665440D01*
X205462000Y-82665440D01*
X205709765Y-82616157D01*
X205919809Y-82475809D01*
X206060157Y-82265765D01*
X206109440Y-82018000D01*
X206109440Y-79018000D01*
X206060157Y-78770235D01*
X205919809Y-78560191D01*
X205709765Y-78419843D01*
X205462000Y-78370560D01*
X205097000Y-78370560D01*
X205097000Y-75247100D01*
X205169800Y-75217020D01*
X205770909Y-74616959D01*
X206096628Y-73832541D01*
X206097370Y-72983185D01*
X205773020Y-72198200D01*
X205172959Y-71597091D01*
X204388541Y-71271372D01*
X203539185Y-71270630D01*
X202754200Y-71594980D01*
X202153091Y-72195041D01*
X201827372Y-72979459D01*
X201826630Y-73828815D01*
X202150980Y-74613800D01*
X202751041Y-75214909D01*
X202827000Y-75246450D01*
X202827000Y-78370560D01*
X202462000Y-78370560D01*
X202214235Y-78419843D01*
X202004191Y-78560191D01*
X201863843Y-78770235D01*
X201814560Y-79018000D01*
X198493000Y-79018000D01*
X198493000Y-69461000D01*
X201814560Y-69461000D01*
X201814560Y-69826000D01*
X201863843Y-70073765D01*
X202004191Y-70283809D01*
X202214235Y-70424157D01*
X202462000Y-70473440D01*
X205462000Y-70473440D01*
X205709765Y-70424157D01*
X205919809Y-70283809D01*
X206060157Y-70073765D01*
X206109440Y-69826000D01*
X206109440Y-66826000D01*
X206060157Y-66578235D01*
X205919809Y-66368191D01*
X205709765Y-66227843D01*
X205462000Y-66178560D01*
X202462000Y-66178560D01*
X202214235Y-66227843D01*
X202004191Y-66368191D01*
X201863843Y-66578235D01*
X201814560Y-66826000D01*
X201814560Y-67191000D01*
X198493000Y-67191000D01*
X198493000Y-59078000D01*
X200514275Y-59078000D01*
X200695822Y-59990700D01*
X200931343Y-60343183D01*
X200944579Y-60375137D01*
X200970520Y-60401815D01*
X201212825Y-60764450D01*
X201527752Y-60974878D01*
X201593321Y-61042309D01*
X201692789Y-61085152D01*
X201986575Y-61281453D01*
X202287526Y-61341316D01*
X202447996Y-61410433D01*
X202523261Y-61388206D01*
X202899275Y-61463000D01*
X202992725Y-61463000D01*
X203368739Y-61388206D01*
X203444004Y-61410433D01*
X203604474Y-61341316D01*
X203905425Y-61281453D01*
X204199211Y-61085152D01*
X204298679Y-61042309D01*
X204364248Y-60974878D01*
X204679175Y-60764450D01*
X204921480Y-60401815D01*
X204947421Y-60375137D01*
X204960657Y-60343183D01*
X205196178Y-59990700D01*
X205377725Y-59078000D01*
X205196178Y-58165300D01*
X204960657Y-57812817D01*
X204947421Y-57780863D01*
X204921480Y-57754185D01*
X204679175Y-57391550D01*
X204364248Y-57181122D01*
X204298679Y-57113691D01*
X204199211Y-57070848D01*
X203905425Y-56874547D01*
X203604474Y-56814684D01*
X203444004Y-56745567D01*
X203368739Y-56767794D01*
X202992725Y-56693000D01*
X202899275Y-56693000D01*
X202523261Y-56767794D01*
X202447996Y-56745567D01*
X202287526Y-56814684D01*
X201986575Y-56874547D01*
X201692789Y-57070848D01*
X201593321Y-57113691D01*
X201527752Y-57181122D01*
X201212825Y-57391550D01*
X200970520Y-57754185D01*
X200944579Y-57780863D01*
X200931343Y-57812817D01*
X200695822Y-58165300D01*
X200514275Y-59078000D01*
X198493000Y-59078000D01*
X198493000Y-49395000D01*
X203200000Y-49395000D01*
X203634346Y-49308603D01*
X204002566Y-49062566D01*
X206288566Y-46776566D01*
X206337735Y-46702980D01*
X206534603Y-46408346D01*
X206621000Y-45974000D01*
X206621000Y-43918696D01*
X206633765Y-43916157D01*
X206843809Y-43775809D01*
X206984157Y-43565765D01*
X207033440Y-43318000D01*
X207033440Y-41518000D01*
X206984157Y-41270235D01*
X206843809Y-41060191D01*
X206633765Y-40919843D01*
X206386000Y-40870560D01*
X204586000Y-40870560D01*
X204338235Y-40919843D01*
X204128191Y-41060191D01*
X203987843Y-41270235D01*
X203985534Y-41281845D01*
X203563491Y-40999845D01*
X202976072Y-40883000D01*
X202915928Y-40883000D01*
X202328509Y-40999845D01*
X201830519Y-41332591D01*
X201676000Y-41563845D01*
X201541000Y-41361803D01*
X201541000Y-40094132D01*
X202400133Y-39235000D01*
X207555868Y-39235000D01*
X208669000Y-40348132D01*
G36*
X196223000Y-79031867D02*
X195466818Y-79788050D01*
X195324698Y-79575352D01*
X194859151Y-79264283D01*
X194310000Y-79155050D01*
X193760849Y-79264283D01*
X193295302Y-79575352D01*
X193040000Y-79957438D01*
X192784698Y-79575352D01*
X192319151Y-79264283D01*
X191770000Y-79155050D01*
X191220849Y-79264283D01*
X190755302Y-79575352D01*
X190619000Y-79779342D01*
X190619000Y-78351000D01*
X190754000Y-78351000D01*
X191188346Y-78264603D01*
X191556566Y-78018566D01*
X192826566Y-76748566D01*
X192831887Y-76740603D01*
X193072603Y-76380346D01*
X193159000Y-75946000D01*
X193159000Y-74652658D01*
X193295302Y-74856648D01*
X193760849Y-75167717D01*
X194310000Y-75276950D01*
X194859151Y-75167717D01*
X195324698Y-74856648D01*
X195635767Y-74391101D01*
X195745000Y-73841950D01*
X195745000Y-72970050D01*
X195635767Y-72420899D01*
X195324698Y-71955352D01*
X194859151Y-71644283D01*
X194310000Y-71535050D01*
X193760849Y-71644283D01*
X193295302Y-71955352D01*
X193040000Y-72337438D01*
X192784698Y-71955352D01*
X192319151Y-71644283D01*
X191770000Y-71535050D01*
X191220849Y-71644283D01*
X190755302Y-71955352D01*
X190619000Y-72159342D01*
X190619000Y-70828132D01*
X192494133Y-68953000D01*
X193879729Y-68953000D01*
X194026964Y-69051379D01*
X194537846Y-69153000D01*
X194590154Y-69153000D01*
X195101036Y-69051379D01*
X195534142Y-68761988D01*
X195823533Y-68328882D01*
X195925154Y-67818000D01*
X195823533Y-67307118D01*
X195534142Y-66874012D01*
X195101036Y-66584621D01*
X194590154Y-66483000D01*
X194537846Y-66483000D01*
X194026964Y-66584621D01*
X193879729Y-66683000D01*
X192024000Y-66683000D01*
X191589654Y-66769397D01*
X191221433Y-67015434D01*
X188681434Y-69555434D01*
X188435397Y-69923654D01*
X188349000Y-70358000D01*
X188349000Y-71866018D01*
X188215302Y-71955352D01*
X188079000Y-72159342D01*
X188079000Y-68565807D01*
X188278768Y-68084713D01*
X188279231Y-67553617D01*
X188079000Y-67069020D01*
X188079000Y-66002132D01*
X189192132Y-64889000D01*
X196223000Y-64889000D01*
X196223000Y-79031867D01*
X196223000Y-79031867D01*
G37*
X196223000Y-79031867D02*
X195466818Y-79788050D01*
X195324698Y-79575352D01*
X194859151Y-79264283D01*
X194310000Y-79155050D01*
X193760849Y-79264283D01*
X193295302Y-79575352D01*
X193040000Y-79957438D01*
X192784698Y-79575352D01*
X192319151Y-79264283D01*
X191770000Y-79155050D01*
X191220849Y-79264283D01*
X190755302Y-79575352D01*
X190619000Y-79779342D01*
X190619000Y-78351000D01*
X190754000Y-78351000D01*
X191188346Y-78264603D01*
X191556566Y-78018566D01*
X192826566Y-76748566D01*
X192831887Y-76740603D01*
X193072603Y-76380346D01*
X193159000Y-75946000D01*
X193159000Y-74652658D01*
X193295302Y-74856648D01*
X193760849Y-75167717D01*
X194310000Y-75276950D01*
X194859151Y-75167717D01*
X195324698Y-74856648D01*
X195635767Y-74391101D01*
X195745000Y-73841950D01*
X195745000Y-72970050D01*
X195635767Y-72420899D01*
X195324698Y-71955352D01*
X194859151Y-71644283D01*
X194310000Y-71535050D01*
X193760849Y-71644283D01*
X193295302Y-71955352D01*
X193040000Y-72337438D01*
X192784698Y-71955352D01*
X192319151Y-71644283D01*
X191770000Y-71535050D01*
X191220849Y-71644283D01*
X190755302Y-71955352D01*
X190619000Y-72159342D01*
X190619000Y-70828132D01*
X192494133Y-68953000D01*
X193879729Y-68953000D01*
X194026964Y-69051379D01*
X194537846Y-69153000D01*
X194590154Y-69153000D01*
X195101036Y-69051379D01*
X195534142Y-68761988D01*
X195823533Y-68328882D01*
X195925154Y-67818000D01*
X195823533Y-67307118D01*
X195534142Y-66874012D01*
X195101036Y-66584621D01*
X194590154Y-66483000D01*
X194537846Y-66483000D01*
X194026964Y-66584621D01*
X193879729Y-66683000D01*
X192024000Y-66683000D01*
X191589654Y-66769397D01*
X191221433Y-67015434D01*
X188681434Y-69555434D01*
X188435397Y-69923654D01*
X188349000Y-70358000D01*
X188349000Y-71866018D01*
X188215302Y-71955352D01*
X188079000Y-72159342D01*
X188079000Y-68565807D01*
X188278768Y-68084713D01*
X188279231Y-67553617D01*
X188079000Y-67069020D01*
X188079000Y-66002132D01*
X189192132Y-64889000D01*
X196223000Y-64889000D01*
X196223000Y-79031867D01*
G36*
X151893302Y-79575352D02*
X151638000Y-79957438D01*
X151382698Y-79575352D01*
X151070878Y-79367000D01*
X152205122Y-79367000D01*
X151893302Y-79575352D01*
X151893302Y-79575352D01*
G37*
X151893302Y-79575352D02*
X151638000Y-79957438D01*
X151382698Y-79575352D01*
X151070878Y-79367000D01*
X152205122Y-79367000D01*
X151893302Y-79575352D01*
G36*
X149353302Y-79575352D02*
X149098000Y-79957438D01*
X148842698Y-79575352D01*
X148530878Y-79367000D01*
X149665122Y-79367000D01*
X149353302Y-79575352D01*
X149353302Y-79575352D01*
G37*
X149353302Y-79575352D02*
X149098000Y-79957438D01*
X148842698Y-79575352D01*
X148530878Y-79367000D01*
X149665122Y-79367000D01*
X149353302Y-79575352D01*
G36*
X146813302Y-79575352D02*
X146714882Y-79722648D01*
X146686157Y-79578235D01*
X146545809Y-79368191D01*
X146544027Y-79367000D01*
X147125122Y-79367000D01*
X146813302Y-79575352D01*
X146813302Y-79575352D01*
G37*
X146813302Y-79575352D02*
X146714882Y-79722648D01*
X146686157Y-79578235D01*
X146545809Y-79368191D01*
X146544027Y-79367000D01*
X147125122Y-79367000D01*
X146813302Y-79575352D01*
G36*
X146693171Y-74676859D02*
X146779397Y-75110346D01*
X146949114Y-75364345D01*
X147025434Y-75478566D01*
X148643868Y-77097000D01*
X146266133Y-77097000D01*
X144391000Y-75221868D01*
X144391000Y-74935291D01*
X144738849Y-75167717D01*
X145288000Y-75276950D01*
X145837151Y-75167717D01*
X146302698Y-74856648D01*
X146558000Y-74474562D01*
X146693171Y-74676859D01*
X146693171Y-74676859D01*
G37*
X146693171Y-74676859D02*
X146779397Y-75110346D01*
X146949114Y-75364345D01*
X147025434Y-75478566D01*
X148643868Y-77097000D01*
X146266133Y-77097000D01*
X144391000Y-75221868D01*
X144391000Y-74935291D01*
X144738849Y-75167717D01*
X145288000Y-75276950D01*
X145837151Y-75167717D01*
X146302698Y-74856648D01*
X146558000Y-74474562D01*
X146693171Y-74676859D01*
G36*
X158252467Y-72895118D02*
X158150846Y-73406000D01*
X158252467Y-73916882D01*
X158377000Y-74103260D01*
X158377000Y-76081000D01*
X157734000Y-76081000D01*
X157299654Y-76167397D01*
X156980955Y-76380345D01*
X156931434Y-76413434D01*
X156247868Y-77097000D01*
X155902132Y-77097000D01*
X157012566Y-75986566D01*
X157039671Y-75946000D01*
X157258603Y-75618346D01*
X157345000Y-75184000D01*
X157345000Y-73622132D01*
X158458132Y-72509000D01*
X158510462Y-72509000D01*
X158252467Y-72895118D01*
X158252467Y-72895118D01*
G37*
X158252467Y-72895118D02*
X158150846Y-73406000D01*
X158252467Y-73916882D01*
X158377000Y-74103260D01*
X158377000Y-76081000D01*
X157734000Y-76081000D01*
X157299654Y-76167397D01*
X156980955Y-76380345D01*
X156931434Y-76413434D01*
X156247868Y-77097000D01*
X155902132Y-77097000D01*
X157012566Y-75986566D01*
X157039671Y-75946000D01*
X157258603Y-75618346D01*
X157345000Y-75184000D01*
X157345000Y-73622132D01*
X158458132Y-72509000D01*
X158510462Y-72509000D01*
X158252467Y-72895118D01*
G36*
X190755302Y-74856648D02*
X190889000Y-74945982D01*
X190889000Y-75475868D01*
X190283868Y-76081000D01*
X189938132Y-76081000D01*
X190286566Y-75732566D01*
X190448695Y-75489923D01*
X190532603Y-75364346D01*
X190619000Y-74930000D01*
X190619000Y-74652658D01*
X190755302Y-74856648D01*
X190755302Y-74856648D01*
G37*
X190755302Y-74856648D02*
X190889000Y-74945982D01*
X190889000Y-75475868D01*
X190283868Y-76081000D01*
X189938132Y-76081000D01*
X190286566Y-75732566D01*
X190448695Y-75489923D01*
X190532603Y-75364346D01*
X190619000Y-74930000D01*
X190619000Y-74652658D01*
X190755302Y-74856648D01*
G36*
X180139868Y-76081000D02*
X179851568Y-76081000D01*
X179838548Y-76067957D01*
X179544736Y-75945955D01*
X179836543Y-75825383D01*
X179850951Y-75811000D01*
X179869868Y-75811000D01*
X180139868Y-76081000D01*
X180139868Y-76081000D01*
G37*
X180139868Y-76081000D02*
X179851568Y-76081000D01*
X179838548Y-76067957D01*
X179544736Y-75945955D01*
X179836543Y-75825383D01*
X179850951Y-75811000D01*
X179869868Y-75811000D01*
X180139868Y-76081000D01*
G36*
X165997000Y-72658193D02*
X165797232Y-73139287D01*
X165796769Y-73670383D01*
X165999582Y-74161229D01*
X166374796Y-74537098D01*
X166865287Y-74740768D01*
X167396383Y-74741231D01*
X167887229Y-74538418D01*
X168263098Y-74163204D01*
X168466768Y-73672713D01*
X168467231Y-73141617D01*
X168267000Y-72657020D01*
X168267000Y-72509000D01*
X185346709Y-72509000D01*
X185255000Y-72970050D01*
X185255000Y-73841950D01*
X185364233Y-74391101D01*
X185475083Y-74557000D01*
X181826132Y-74557000D01*
X181142566Y-73873434D01*
X181025181Y-73795000D01*
X180774346Y-73627397D01*
X180340000Y-73541000D01*
X179851568Y-73541000D01*
X179838548Y-73527957D01*
X179340709Y-73321236D01*
X178801656Y-73320765D01*
X178303457Y-73526617D01*
X177921957Y-73907452D01*
X177715236Y-74405291D01*
X177714765Y-74944344D01*
X177920617Y-75442543D01*
X178301452Y-75824043D01*
X178595264Y-75946045D01*
X178303457Y-76066617D01*
X178289049Y-76081000D01*
X178016133Y-76081000D01*
X175808566Y-73873434D01*
X175691181Y-73795000D01*
X175440346Y-73627397D01*
X175006000Y-73541000D01*
X173360606Y-73541000D01*
X173279923Y-73460176D01*
X172752691Y-73241250D01*
X172181813Y-73240752D01*
X171654200Y-73458757D01*
X171250176Y-73862077D01*
X171031250Y-74389309D01*
X171030752Y-74960187D01*
X171248757Y-75487800D01*
X171652077Y-75891824D01*
X172107663Y-76081000D01*
X160647000Y-76081000D01*
X160647000Y-74103260D01*
X160771533Y-73916882D01*
X160873154Y-73406000D01*
X160771533Y-72895118D01*
X160513538Y-72509000D01*
X165997000Y-72509000D01*
X165997000Y-72658193D01*
X165997000Y-72658193D01*
G37*
X165997000Y-72658193D02*
X165797232Y-73139287D01*
X165796769Y-73670383D01*
X165999582Y-74161229D01*
X166374796Y-74537098D01*
X166865287Y-74740768D01*
X167396383Y-74741231D01*
X167887229Y-74538418D01*
X168263098Y-74163204D01*
X168466768Y-73672713D01*
X168467231Y-73141617D01*
X168267000Y-72657020D01*
X168267000Y-72509000D01*
X185346709Y-72509000D01*
X185255000Y-72970050D01*
X185255000Y-73841950D01*
X185364233Y-74391101D01*
X185475083Y-74557000D01*
X181826132Y-74557000D01*
X181142566Y-73873434D01*
X181025181Y-73795000D01*
X180774346Y-73627397D01*
X180340000Y-73541000D01*
X179851568Y-73541000D01*
X179838548Y-73527957D01*
X179340709Y-73321236D01*
X178801656Y-73320765D01*
X178303457Y-73526617D01*
X177921957Y-73907452D01*
X177715236Y-74405291D01*
X177714765Y-74944344D01*
X177920617Y-75442543D01*
X178301452Y-75824043D01*
X178595264Y-75946045D01*
X178303457Y-76066617D01*
X178289049Y-76081000D01*
X178016133Y-76081000D01*
X175808566Y-73873434D01*
X175691181Y-73795000D01*
X175440346Y-73627397D01*
X175006000Y-73541000D01*
X173360606Y-73541000D01*
X173279923Y-73460176D01*
X172752691Y-73241250D01*
X172181813Y-73240752D01*
X171654200Y-73458757D01*
X171250176Y-73862077D01*
X171031250Y-74389309D01*
X171030752Y-74960187D01*
X171248757Y-75487800D01*
X171652077Y-75891824D01*
X172107663Y-76081000D01*
X160647000Y-76081000D01*
X160647000Y-74103260D01*
X160771533Y-73916882D01*
X160873154Y-73406000D01*
X160771533Y-72895118D01*
X160513538Y-72509000D01*
X165997000Y-72509000D01*
X165997000Y-72658193D01*
G36*
X177681000Y-65748132D02*
X177681000Y-66547010D01*
X177680892Y-66670560D01*
X177046000Y-66670560D01*
X176798235Y-66719843D01*
X176588191Y-66860191D01*
X176447843Y-67070235D01*
X176398560Y-67318000D01*
X176398560Y-68318000D01*
X176411000Y-68380541D01*
X176411000Y-68588000D01*
X172809132Y-68588000D01*
X171236566Y-67015434D01*
X171187045Y-66982345D01*
X170868346Y-66769397D01*
X170434000Y-66683000D01*
X167816271Y-66683000D01*
X167669036Y-66584621D01*
X167158154Y-66483000D01*
X167105846Y-66483000D01*
X166594964Y-66584621D01*
X166161858Y-66874012D01*
X165872467Y-67307118D01*
X165770846Y-67818000D01*
X165872467Y-68328882D01*
X166161858Y-68761988D01*
X166594964Y-69051379D01*
X167105846Y-69153000D01*
X167158154Y-69153000D01*
X167669036Y-69051379D01*
X167816271Y-68953000D01*
X169963868Y-68953000D01*
X171249868Y-70239000D01*
X160647000Y-70239000D01*
X160647000Y-68565807D01*
X160846768Y-68084713D01*
X160847231Y-67553617D01*
X160644418Y-67062771D01*
X160269204Y-66686902D01*
X159778713Y-66483232D01*
X159247617Y-66482769D01*
X158756771Y-66685582D01*
X158380902Y-67060796D01*
X158177232Y-67551287D01*
X158176769Y-68082383D01*
X158377000Y-68566980D01*
X158377000Y-70239000D01*
X157988000Y-70239000D01*
X157553654Y-70325397D01*
X157254080Y-70525566D01*
X157185434Y-70571434D01*
X155407434Y-72349434D01*
X155161397Y-72717654D01*
X155075000Y-73152000D01*
X155075000Y-74713868D01*
X154469868Y-75319000D01*
X150076132Y-75319000D01*
X149951169Y-75194037D01*
X150368000Y-75276950D01*
X150917151Y-75167717D01*
X151382698Y-74856648D01*
X151638000Y-74474562D01*
X151893302Y-74856648D01*
X152358849Y-75167717D01*
X152908000Y-75276950D01*
X153457151Y-75167717D01*
X153922698Y-74856648D01*
X154233767Y-74391101D01*
X154343000Y-73841950D01*
X154343000Y-72970050D01*
X154233767Y-72420899D01*
X153922698Y-71955352D01*
X153457151Y-71644283D01*
X152908000Y-71535050D01*
X152358849Y-71644283D01*
X151893302Y-71955352D01*
X151638000Y-72337438D01*
X151503000Y-72135396D01*
X151503000Y-69812132D01*
X152306696Y-69008437D01*
X152370964Y-69051379D01*
X152881846Y-69153000D01*
X152934154Y-69153000D01*
X153445036Y-69051379D01*
X153592271Y-68953000D01*
X155194000Y-68953000D01*
X155628346Y-68866603D01*
X155996566Y-68620566D01*
X159220132Y-65397000D01*
X177329868Y-65397000D01*
X177681000Y-65748132D01*
X177681000Y-65748132D01*
G37*
X177681000Y-65748132D02*
X177681000Y-66547010D01*
X177680892Y-66670560D01*
X177046000Y-66670560D01*
X176798235Y-66719843D01*
X176588191Y-66860191D01*
X176447843Y-67070235D01*
X176398560Y-67318000D01*
X176398560Y-68318000D01*
X176411000Y-68380541D01*
X176411000Y-68588000D01*
X172809132Y-68588000D01*
X171236566Y-67015434D01*
X171187045Y-66982345D01*
X170868346Y-66769397D01*
X170434000Y-66683000D01*
X167816271Y-66683000D01*
X167669036Y-66584621D01*
X167158154Y-66483000D01*
X167105846Y-66483000D01*
X166594964Y-66584621D01*
X166161858Y-66874012D01*
X165872467Y-67307118D01*
X165770846Y-67818000D01*
X165872467Y-68328882D01*
X166161858Y-68761988D01*
X166594964Y-69051379D01*
X167105846Y-69153000D01*
X167158154Y-69153000D01*
X167669036Y-69051379D01*
X167816271Y-68953000D01*
X169963868Y-68953000D01*
X171249868Y-70239000D01*
X160647000Y-70239000D01*
X160647000Y-68565807D01*
X160846768Y-68084713D01*
X160847231Y-67553617D01*
X160644418Y-67062771D01*
X160269204Y-66686902D01*
X159778713Y-66483232D01*
X159247617Y-66482769D01*
X158756771Y-66685582D01*
X158380902Y-67060796D01*
X158177232Y-67551287D01*
X158176769Y-68082383D01*
X158377000Y-68566980D01*
X158377000Y-70239000D01*
X157988000Y-70239000D01*
X157553654Y-70325397D01*
X157254080Y-70525566D01*
X157185434Y-70571434D01*
X155407434Y-72349434D01*
X155161397Y-72717654D01*
X155075000Y-73152000D01*
X155075000Y-74713868D01*
X154469868Y-75319000D01*
X150076132Y-75319000D01*
X149951169Y-75194037D01*
X150368000Y-75276950D01*
X150917151Y-75167717D01*
X151382698Y-74856648D01*
X151638000Y-74474562D01*
X151893302Y-74856648D01*
X152358849Y-75167717D01*
X152908000Y-75276950D01*
X153457151Y-75167717D01*
X153922698Y-74856648D01*
X154233767Y-74391101D01*
X154343000Y-73841950D01*
X154343000Y-72970050D01*
X154233767Y-72420899D01*
X153922698Y-71955352D01*
X153457151Y-71644283D01*
X152908000Y-71535050D01*
X152358849Y-71644283D01*
X151893302Y-71955352D01*
X151638000Y-72337438D01*
X151503000Y-72135396D01*
X151503000Y-69812132D01*
X152306696Y-69008437D01*
X152370964Y-69051379D01*
X152881846Y-69153000D01*
X152934154Y-69153000D01*
X153445036Y-69051379D01*
X153592271Y-68953000D01*
X155194000Y-68953000D01*
X155628346Y-68866603D01*
X155996566Y-68620566D01*
X159220132Y-65397000D01*
X177329868Y-65397000D01*
X177681000Y-65748132D01*
G36*
X188015083Y-74557000D02*
X187904917Y-74557000D01*
X187960000Y-74474562D01*
X188015083Y-74557000D01*
X188015083Y-74557000D01*
G37*
X188015083Y-74557000D02*
X187904917Y-74557000D01*
X187960000Y-74474562D01*
X188015083Y-74557000D01*
G36*
X151089433Y-67015434D02*
X149565435Y-68539433D01*
X149565434Y-68539434D01*
X149319397Y-68907654D01*
X149233000Y-69342000D01*
X149233000Y-72135396D01*
X149098000Y-72337438D01*
X148963000Y-72135396D01*
X148963000Y-69342000D01*
X148876603Y-68907654D01*
X148778175Y-68760346D01*
X148630566Y-68539433D01*
X147106566Y-67015434D01*
X147057045Y-66982345D01*
X146965236Y-66921000D01*
X151230764Y-66921000D01*
X151089433Y-67015434D01*
X151089433Y-67015434D01*
G37*
X151089433Y-67015434D02*
X149565435Y-68539433D01*
X149565434Y-68539434D01*
X149319397Y-68907654D01*
X149233000Y-69342000D01*
X149233000Y-72135396D01*
X149098000Y-72337438D01*
X148963000Y-72135396D01*
X148963000Y-69342000D01*
X148876603Y-68907654D01*
X148778175Y-68760346D01*
X148630566Y-68539433D01*
X147106566Y-67015434D01*
X147057045Y-66982345D01*
X146965236Y-66921000D01*
X151230764Y-66921000D01*
X151089433Y-67015434D01*
G36*
X144530796Y-68949098D02*
X145021287Y-69152768D01*
X145552383Y-69153231D01*
X145893254Y-69012386D01*
X146693000Y-69812133D01*
X146693000Y-72135396D01*
X146558000Y-72337438D01*
X146302698Y-71955352D01*
X145837151Y-71644283D01*
X145288000Y-71535050D01*
X144738849Y-71644283D01*
X144391000Y-71876709D01*
X144391000Y-68809058D01*
X144530796Y-68949098D01*
X144530796Y-68949098D01*
G37*
X144530796Y-68949098D02*
X145021287Y-69152768D01*
X145552383Y-69153231D01*
X145893254Y-69012386D01*
X146693000Y-69812133D01*
X146693000Y-72135396D01*
X146558000Y-72337438D01*
X146302698Y-71955352D01*
X145837151Y-71644283D01*
X145288000Y-71535050D01*
X144738849Y-71644283D01*
X144391000Y-71876709D01*
X144391000Y-68809058D01*
X144530796Y-68949098D01*
G36*
X190633694Y-41108826D02*
X190525843Y-41270235D01*
X190523534Y-41281845D01*
X190101491Y-40999845D01*
X189514072Y-40883000D01*
X189453928Y-40883000D01*
X188866509Y-40999845D01*
X188368519Y-41332591D01*
X188214000Y-41563845D01*
X188059481Y-41332591D01*
X187561491Y-40999845D01*
X186974072Y-40883000D01*
X186913928Y-40883000D01*
X186326509Y-40999845D01*
X185828519Y-41332591D01*
X185495773Y-41830581D01*
X185378928Y-42418000D01*
X185495773Y-43005419D01*
X185809000Y-43474197D01*
X185809000Y-46482000D01*
X185895397Y-46916346D01*
X186087223Y-47203434D01*
X186141434Y-47284566D01*
X187919434Y-49062566D01*
X188287654Y-49308603D01*
X188722000Y-49395000D01*
X196223000Y-49395000D01*
X196223000Y-62619000D01*
X188722000Y-62619000D01*
X188287654Y-62705397D01*
X187968955Y-62918345D01*
X187919434Y-62951434D01*
X186141434Y-64729434D01*
X185895397Y-65097654D01*
X185809000Y-65532000D01*
X185809000Y-67070193D01*
X185609232Y-67551287D01*
X185608769Y-68082383D01*
X185809000Y-68566980D01*
X185809000Y-70239000D01*
X182064132Y-70239000D01*
X183682566Y-68620566D01*
X183736777Y-68539433D01*
X183928603Y-68252346D01*
X184015000Y-67818000D01*
X184015000Y-59078000D01*
X187052275Y-59078000D01*
X187233822Y-59990700D01*
X187469343Y-60343183D01*
X187482579Y-60375137D01*
X187508520Y-60401815D01*
X187750825Y-60764450D01*
X188065752Y-60974878D01*
X188131321Y-61042309D01*
X188230789Y-61085152D01*
X188524575Y-61281453D01*
X188825526Y-61341316D01*
X188985996Y-61410433D01*
X189061261Y-61388206D01*
X189437275Y-61463000D01*
X189530725Y-61463000D01*
X189906739Y-61388206D01*
X189982004Y-61410433D01*
X190142474Y-61341316D01*
X190443425Y-61281453D01*
X190737211Y-61085152D01*
X190836679Y-61042309D01*
X190902248Y-60974878D01*
X191217175Y-60764450D01*
X191459480Y-60401815D01*
X191485421Y-60375137D01*
X191498657Y-60343183D01*
X191734178Y-59990700D01*
X191915725Y-59078000D01*
X191734178Y-58165300D01*
X191498657Y-57812817D01*
X191485421Y-57780863D01*
X191459480Y-57754185D01*
X191217175Y-57391550D01*
X190902248Y-57181122D01*
X190836679Y-57113691D01*
X190737211Y-57070848D01*
X190443425Y-56874547D01*
X190142474Y-56814684D01*
X189982004Y-56745567D01*
X189906739Y-56767794D01*
X189530725Y-56693000D01*
X189437275Y-56693000D01*
X189061261Y-56767794D01*
X188985996Y-56745567D01*
X188825526Y-56814684D01*
X188524575Y-56874547D01*
X188230789Y-57070848D01*
X188131321Y-57113691D01*
X188065752Y-57181122D01*
X187750825Y-57391550D01*
X187508520Y-57754185D01*
X187482579Y-57780863D01*
X187469343Y-57812817D01*
X187233822Y-58165300D01*
X187052275Y-59078000D01*
X184015000Y-59078000D01*
X184015000Y-42126132D01*
X185382132Y-40759000D01*
X190283868Y-40759000D01*
X190633694Y-41108826D01*
X190633694Y-41108826D01*
G37*
X190633694Y-41108826D02*
X190525843Y-41270235D01*
X190523534Y-41281845D01*
X190101491Y-40999845D01*
X189514072Y-40883000D01*
X189453928Y-40883000D01*
X188866509Y-40999845D01*
X188368519Y-41332591D01*
X188214000Y-41563845D01*
X188059481Y-41332591D01*
X187561491Y-40999845D01*
X186974072Y-40883000D01*
X186913928Y-40883000D01*
X186326509Y-40999845D01*
X185828519Y-41332591D01*
X185495773Y-41830581D01*
X185378928Y-42418000D01*
X185495773Y-43005419D01*
X185809000Y-43474197D01*
X185809000Y-46482000D01*
X185895397Y-46916346D01*
X186087223Y-47203434D01*
X186141434Y-47284566D01*
X187919434Y-49062566D01*
X188287654Y-49308603D01*
X188722000Y-49395000D01*
X196223000Y-49395000D01*
X196223000Y-62619000D01*
X188722000Y-62619000D01*
X188287654Y-62705397D01*
X187968955Y-62918345D01*
X187919434Y-62951434D01*
X186141434Y-64729434D01*
X185895397Y-65097654D01*
X185809000Y-65532000D01*
X185809000Y-67070193D01*
X185609232Y-67551287D01*
X185608769Y-68082383D01*
X185809000Y-68566980D01*
X185809000Y-70239000D01*
X182064132Y-70239000D01*
X183682566Y-68620566D01*
X183736777Y-68539433D01*
X183928603Y-68252346D01*
X184015000Y-67818000D01*
X184015000Y-59078000D01*
X187052275Y-59078000D01*
X187233822Y-59990700D01*
X187469343Y-60343183D01*
X187482579Y-60375137D01*
X187508520Y-60401815D01*
X187750825Y-60764450D01*
X188065752Y-60974878D01*
X188131321Y-61042309D01*
X188230789Y-61085152D01*
X188524575Y-61281453D01*
X188825526Y-61341316D01*
X188985996Y-61410433D01*
X189061261Y-61388206D01*
X189437275Y-61463000D01*
X189530725Y-61463000D01*
X189906739Y-61388206D01*
X189982004Y-61410433D01*
X190142474Y-61341316D01*
X190443425Y-61281453D01*
X190737211Y-61085152D01*
X190836679Y-61042309D01*
X190902248Y-60974878D01*
X191217175Y-60764450D01*
X191459480Y-60401815D01*
X191485421Y-60375137D01*
X191498657Y-60343183D01*
X191734178Y-59990700D01*
X191915725Y-59078000D01*
X191734178Y-58165300D01*
X191498657Y-57812817D01*
X191485421Y-57780863D01*
X191459480Y-57754185D01*
X191217175Y-57391550D01*
X190902248Y-57181122D01*
X190836679Y-57113691D01*
X190737211Y-57070848D01*
X190443425Y-56874547D01*
X190142474Y-56814684D01*
X189982004Y-56745567D01*
X189906739Y-56767794D01*
X189530725Y-56693000D01*
X189437275Y-56693000D01*
X189061261Y-56767794D01*
X188985996Y-56745567D01*
X188825526Y-56814684D01*
X188524575Y-56874547D01*
X188230789Y-57070848D01*
X188131321Y-57113691D01*
X188065752Y-57181122D01*
X187750825Y-57391550D01*
X187508520Y-57754185D01*
X187482579Y-57780863D01*
X187469343Y-57812817D01*
X187233822Y-58165300D01*
X187052275Y-59078000D01*
X184015000Y-59078000D01*
X184015000Y-42126132D01*
X185382132Y-40759000D01*
X190283868Y-40759000D01*
X190633694Y-41108826D01*
G36*
X178951117Y-67683119D02*
X178950803Y-68042775D01*
X179123233Y-68460086D01*
X179250924Y-68588000D01*
X178681000Y-68588000D01*
X178681000Y-68380541D01*
X178693440Y-68318000D01*
X178693440Y-67682894D01*
X178951117Y-67683119D01*
X178951117Y-67683119D01*
G37*
X178951117Y-67683119D02*
X178950803Y-68042775D01*
X179123233Y-68460086D01*
X179250924Y-68588000D01*
X178681000Y-68588000D01*
X178681000Y-68380541D01*
X178693440Y-68318000D01*
X178693440Y-67682894D01*
X178951117Y-67683119D01*
G36*
X177204191Y-43775809D02*
X177414235Y-43916157D01*
X177427000Y-43918696D01*
X177427000Y-47535868D01*
X171257866Y-53705002D01*
X171166130Y-53705002D01*
X176824566Y-48046566D01*
X176972174Y-47825655D01*
X177070603Y-47678346D01*
X177157000Y-47244000D01*
X177157000Y-43705183D01*
X177204191Y-43775809D01*
X177204191Y-43775809D01*
G37*
X177204191Y-43775809D02*
X177414235Y-43916157D01*
X177427000Y-43918696D01*
X177427000Y-47535868D01*
X171257866Y-53705002D01*
X171166130Y-53705002D01*
X176824566Y-48046566D01*
X176972174Y-47825655D01*
X177070603Y-47678346D01*
X177157000Y-47244000D01*
X177157000Y-43705183D01*
X177204191Y-43775809D01*
G36*
X161444519Y-43503409D02*
X161942509Y-43836155D01*
X162529928Y-43953000D01*
X162590072Y-43953000D01*
X163177491Y-43836155D01*
X163599534Y-43554155D01*
X163601843Y-43565765D01*
X163742191Y-43775809D01*
X163952235Y-43916157D01*
X163965000Y-43918696D01*
X163965000Y-44741868D01*
X159803868Y-48903000D01*
X158696132Y-48903000D01*
X160822566Y-46776567D01*
X161068603Y-46408346D01*
X161074514Y-46378630D01*
X161155000Y-45974000D01*
X161155000Y-43474197D01*
X161290000Y-43272155D01*
X161444519Y-43503409D01*
X161444519Y-43503409D01*
G37*
X161444519Y-43503409D02*
X161942509Y-43836155D01*
X162529928Y-43953000D01*
X162590072Y-43953000D01*
X163177491Y-43836155D01*
X163599534Y-43554155D01*
X163601843Y-43565765D01*
X163742191Y-43775809D01*
X163952235Y-43916157D01*
X163965000Y-43918696D01*
X163965000Y-44741868D01*
X159803868Y-48903000D01*
X158696132Y-48903000D01*
X160822566Y-46776567D01*
X161068603Y-46408346D01*
X161074514Y-46378630D01*
X161155000Y-45974000D01*
X161155000Y-43474197D01*
X161290000Y-43272155D01*
X161444519Y-43503409D01*
G36*
X192823868Y-44077000D02*
X191478133Y-44077000D01*
X191366573Y-43965440D01*
X192924000Y-43965440D01*
X192938266Y-43962602D01*
X192823868Y-44077000D01*
X192823868Y-44077000D01*
G37*
X192823868Y-44077000D02*
X191478133Y-44077000D01*
X191366573Y-43965440D01*
X192924000Y-43965440D01*
X192938266Y-43962602D01*
X192823868Y-44077000D01*
G36*
X193429000Y-40094132D02*
X193429000Y-41130817D01*
X193381809Y-41060191D01*
X193171765Y-40919843D01*
X193159000Y-40917304D01*
X193159000Y-40894000D01*
X193072603Y-40459654D01*
X192826566Y-40091434D01*
X191716132Y-38981000D01*
X192315868Y-38981000D01*
X193429000Y-40094132D01*
X193429000Y-40094132D01*
G37*
X193429000Y-40094132D02*
X193429000Y-41130817D01*
X193381809Y-41060191D01*
X193171765Y-40919843D01*
X193159000Y-40917304D01*
X193159000Y-40894000D01*
X193072603Y-40459654D01*
X192826566Y-40091434D01*
X191716132Y-38981000D01*
X192315868Y-38981000D01*
X193429000Y-40094132D01*
%TD*%
M02*
